<svg width="59" height="49" viewBox="0 0 59 49" fill="none" xmlns="http://www.w3.org/2000/svg">
<path d="M3.86214 14.5679L26.9528 3.02395C27.1748 2.91315 27.4194 2.85547 27.6675 2.85547C27.9155 2.85547 28.1602 2.91315 28.3821 3.02395L51.4728 14.5706C51.7384 14.7036 51.9617 14.9078 52.1177 15.1605C52.2738 15.4132 52.3564 15.7043 52.3564 16.0013C52.3564 16.2983 52.2738 16.5894 52.1177 16.8421C51.9617 17.0947 51.7384 17.299 51.4728 17.4319L28.3821 28.9759C28.1602 29.0867 27.9155 29.1444 27.6675 29.1444C27.4194 29.1444 27.1748 29.0867 26.9528 28.9759L3.86214 17.4293C3.59659 17.2963 3.37329 17.0921 3.21723 16.8394C3.06117 16.5867 2.97852 16.2956 2.97852 15.9986C2.97852 15.7016 3.06117 15.4105 3.21723 15.1578C3.37329 14.9052 3.59659 14.7009 3.86214 14.5679Z" stroke="#3391FF" stroke-width="4" stroke-linecap="round" stroke-linejoin="round"/>
<path d="M57 26.6665V17.3332L51.6667 14.6665M9 19.9998V34.4318C8.9998 35.4408 9.28584 36.4292 9.82489 37.2822C10.3639 38.1351 11.1339 38.8176 12.0453 39.2505L25.3787 45.5812C26.0936 45.9207 26.8752 46.0969 27.6667 46.0969C28.4582 46.0969 29.2397 45.9207 29.9547 45.5812L43.288 39.2505C44.1994 38.8176 44.9694 38.1351 45.5084 37.2822C46.0475 36.4292 46.3335 35.4408 46.3333 34.4318V19.9998" stroke="#3391FF" stroke-width="4" stroke-linecap="round" stroke-linejoin="round"/>
</svg>
