<svg width="51" height="54" viewBox="0 0 51 54" fill="none" xmlns="http://www.w3.org/2000/svg">
<path d="M24 32.3333C24.7556 32.3333 25.3893 32.0773 25.9013 31.5653C26.4133 31.0533 26.6684 30.4204 26.6667 29.6666V16.3333C26.6667 15.5777 26.4107 14.9439 25.8987 14.4319C25.3867 13.9199 24.7538 13.6648 24 13.6666C23.2444 13.6666 22.6107 13.9226 22.0987 14.4346C21.5867 14.9466 21.3316 15.5795 21.3333 16.3333V29.6666C21.3333 30.4221 21.5893 31.0559 22.1013 31.5679C22.6133 32.0799 23.2462 32.335 24 32.3333ZM32 28.3333C32.7556 28.3333 33.3893 28.0773 33.9013 27.5653C34.4133 27.0533 34.6684 26.4204 34.6667 25.6666V18.9999C34.6667 18.2444 34.4107 17.6106 33.8987 17.0986C33.3867 16.5866 32.7538 16.3315 32 16.3333C31.2444 16.3333 30.6107 16.5893 30.0987 17.1013C29.5867 17.6133 29.3316 18.2461 29.3333 18.9999V25.6666C29.3333 26.4221 29.5893 27.0559 30.1013 27.5679C30.6133 28.0799 31.2462 28.335 32 28.3333ZM16 26.9999C16.7556 26.9999 17.3893 26.7439 17.9013 26.2319C18.4133 25.7199 18.6684 25.087 18.6667 24.3333V18.9999C18.6667 18.2444 18.4107 17.6106 17.8987 17.0986C17.3867 16.5866 16.7538 16.3315 16 16.3333C15.2444 16.3333 14.6107 16.5893 14.0987 17.1013C13.5867 17.6133 13.3316 18.2461 13.3333 18.9999V24.3333C13.3333 25.0888 13.5893 25.7226 14.1013 26.2346C14.6133 26.7466 15.2462 27.0017 16 26.9999ZM8 53.6666V42.1999C5.46667 39.8888 3.50044 37.1884 2.10133 34.0986C0.702223 31.0088 0.00177778 27.7537 0 24.3333C0 17.6666 2.33333 11.9999 7 7.33325C11.6667 2.66659 17.3333 0.333252 24 0.333252C29.5556 0.333252 34.4782 1.96703 38.768 5.23459C43.0578 8.50214 45.8462 12.7573 47.1333 17.9999L50.6 31.6666C50.8222 32.511 50.6667 33.2781 50.1333 33.9679C49.6 34.6577 48.8889 35.0017 48 34.9999H42.6667V42.9999C42.6667 44.4666 42.144 45.7226 41.0987 46.7679C40.0533 47.8133 38.7982 48.335 37.3333 48.3333H32V53.6666H26.6667V42.9999H37.3333V29.6666H44.5333L42 19.3333C40.9778 15.2888 38.8 11.9999 35.4667 9.46659C32.1333 6.93325 28.3111 5.66659 24 5.66659C18.8444 5.66659 14.4444 7.46659 10.8 11.0666C7.15556 14.6666 5.33333 19.0444 5.33333 24.1999C5.33333 26.8666 5.87822 29.3999 6.968 31.7999C8.05778 34.1999 9.60178 36.3333 11.6 38.1999L13.3333 39.7999V53.6666H8Z" fill="#3391FF"/>
</svg>
