<svg width="54" height="60" viewBox="0 0 54 60" fill="none" xmlns="http://www.w3.org/2000/svg">
<path d="M5.67416 23.596C11.5902 11.7667 24.3328 7.33333 33.0075 3.596C36.9515 1.89733 37.9275 8.29733 36.3408 12.2627C35.0075 15.596 32.3408 19.3333 32.3408 19.3333H43.6742C44.9118 19.3333 46.0988 19.825 46.974 20.7002C47.8492 21.5753 48.3408 22.7623 48.3408 24C48.3408 25.2377 47.8492 26.4247 46.974 27.2998C46.0988 28.175 44.9118 28.6667 43.6742 28.6667H46.3408C47.5785 28.6667 48.7655 29.1583 49.6407 30.0335C50.5158 30.9087 51.0075 32.0957 51.0075 33.3333C51.0075 34.571 50.5158 35.758 49.6407 36.6332C48.7655 37.5083 47.5785 38 46.3408 38H41.0075C42.2452 38 43.4322 38.4917 44.3073 39.3668C45.1825 40.242 45.6742 41.429 45.6742 42.6667C45.6742 43.9043 45.1825 45.0913 44.3073 45.9665C43.4322 46.8417 42.2452 47.3333 41.0075 47.3333H37.0075C38.2452 47.333 39.4323 47.8243 40.3077 48.6992C41.1831 49.5741 41.6751 50.761 41.6755 51.9987C41.6758 53.2363 41.1845 54.4235 40.3096 55.2989C39.4347 56.1743 38.2478 56.6663 37.0102 56.6667H20.3408C15.6742 56.6667 9.67416 54.2627 5.67416 47.596C1.84083 41.2053 1.67416 31.596 5.67416 23.596Z" stroke="#3391FF" stroke-width="5.33333" stroke-linecap="round" stroke-linejoin="round"/>
</svg>
