<svg width="58" height="50" viewBox="0 0 58 50" fill="none" xmlns="http://www.w3.org/2000/svg">
<path d="M41.5 0C36.4775 0 32.02 1.9825 29 5.39C25.98 1.9825 21.5225 0 16.5 0C12.1256 0.00529274 7.93179 1.74538 4.83858 4.83858C1.74538 7.93179 0.00529274 12.1256 0 16.5C0 34.585 26.4525 49.035 27.5775 49.6425C28.0147 49.8779 28.5035 50.0012 29 50.0012C29.4965 50.0012 29.9853 49.8779 30.4225 49.6425C31.5475 49.035 58 34.585 58 16.5C57.9947 12.1256 56.2546 7.93179 53.1614 4.83858C50.0682 1.74538 45.8744 0.00529274 41.5 0ZM40.1275 35.59C36.6457 38.5446 32.9236 41.2038 29 43.54C25.0764 41.2038 21.3543 38.5446 17.8725 35.59C12.455 30.9425 6 23.855 6 16.5C6 13.7152 7.10625 11.0445 9.07538 9.07538C11.0445 7.10625 13.7152 6 16.5 6C20.95 6 24.675 8.35 26.2225 12.135C26.4477 12.6868 26.8322 13.1589 27.3269 13.4913C27.8216 13.8237 28.404 14.0012 29 14.0012C29.596 14.0012 30.1784 13.8237 30.6731 13.4913C31.1678 13.1589 31.5523 12.6868 31.7775 12.135C33.325 8.35 37.05 6 41.5 6C44.2848 6 46.9555 7.10625 48.9246 9.07538C50.8938 11.0445 52 13.7152 52 16.5C52 23.855 45.545 30.9425 40.1275 35.59Z" fill="#3391FF"/>
</svg>
