<svg width="60" height="60" viewBox="0 0 60 60" fill="none" xmlns="http://www.w3.org/2000/svg">
<g id="Frame" clip-path="url(#clip0_668_8)">
<g id="Group">
<path id="Vector" d="M16.0509 36.1211C16.6112 35.798 16.803 35.0806 16.4798 34.5204C16.1562 33.9605 15.4393 33.7682 14.8791 34.0914C14.3188 34.4151 14.1265 35.1324 14.4502 35.6922C14.7732 36.2525 15.4907 36.4448 16.0509 36.1211Z" fill="#3391FF"/>
<path id="Vector_2" d="M11.2482 44.2094L17.1497 54.4316C18.4232 56.6399 21.2878 57.4574 23.5533 56.1478C25.7951 54.8523 26.5654 51.9881 25.2686 49.7447L21.753 43.6545L24.7975 41.8967C25.3579 41.5726 25.5501 40.8563 25.2264 40.2959L23.7026 37.6565C23.8842 37.6213 25.0791 37.3869 46.1486 33.2537C48.7532 33.1123 50.3138 30.2636 48.9981 27.9862L45.1035 21.2406L47.5923 17.4709C47.7123 17.2893 47.7793 17.0778 47.7858 16.8603C47.7924 16.6427 47.7383 16.4276 47.6295 16.239L45.2857 12.1797C45.1767 11.9914 45.0174 11.8371 44.8257 11.734C44.6341 11.631 44.4176 11.5832 44.2003 11.5961L39.6918 11.8665L35.3683 4.37744C34.742 3.29264 33.6201 2.63568 32.3676 2.6201C32.3524 2.61963 32.3378 2.61963 32.3227 2.61963C31.1124 2.61963 30.0137 3.22209 29.3629 4.24057L14.0543 23.7423L4.10206 29.488C0.187763 31.7472 -1.16833 36.769 1.0996 40.6938C3.17147 44.2827 7.5394 45.6945 11.2482 44.2095V44.2094ZM23.2394 50.9169C23.8866 52.0367 23.5035 53.4694 22.3805 54.1181C21.254 54.7695 19.8194 54.3694 19.1794 53.2603L13.32 43.1103L17.3794 40.7665C24.1608 52.5136 23.1304 50.7288 23.2394 50.9169ZM20.5811 41.6243L19.4092 39.5946L21.4389 38.4228L22.6108 40.4524L20.5811 41.6243ZM43.618 13.9786L45.2376 16.7838L43.7933 18.971L41.0019 14.1356L43.618 13.9786ZM31.323 5.52553C31.6375 5.01107 32.1364 4.95799 32.3387 4.96338C32.5388 4.96572 33.0373 5.02795 33.338 5.54896L46.9684 29.158C47.4124 29.9267 46.8727 30.893 45.9824 30.915C45.8227 30.9185 45.749 30.9475 45.3396 31.024L30.9215 6.05053C31.2241 5.66146 31.263 5.62397 31.323 5.52553ZM29.3619 8.03732L42.9085 31.501L22.4639 35.5109L16.2475 24.7438L29.3619 8.03732ZM3.12929 39.5219C2.61521 38.6331 2.34402 37.6247 2.34296 36.598C2.34296 34.508 3.4662 32.5615 5.27382 31.518L14.4076 26.2445L20.267 36.3929L11.1333 41.667C8.33499 43.2818 4.74472 42.3197 3.1294 39.5219H3.12929Z" fill="#3391FF"/>
<path id="Vector_3" d="M12.4201 36.8641C12.0965 36.3038 11.3795 36.1115 10.8193 36.4352L8.78958 37.6071C8.23013 37.9303 7.512 37.7375 7.1888 37.1782C6.86513 36.6179 6.14818 36.4256 5.58802 36.7492C5.02786 37.0729 4.83544 37.7898 5.15911 38.35C6.12357 40.0209 8.27513 40.61 9.96146 39.6367L11.9911 38.4649C12.5514 38.1413 12.7437 37.4248 12.4201 36.8641ZM58.2583 5.12644L51.7283 8.76019C51.1629 9.07507 50.9593 9.78874 51.2742 10.3541C51.5882 10.9189 52.3014 11.1236 52.8681 10.8082L59.3976 7.17452C59.9635 6.85952 60.1667 6.14585 59.8517 5.58054C59.5373 5.01476 58.8236 4.81155 58.2583 5.12644ZM57.5734 17.2635L53.0457 16.0505C52.4204 15.883 51.7777 16.2537 51.6101 16.8791C51.4426 17.5044 51.8139 18.1467 52.4391 18.3141L56.9674 19.5273C57.5963 19.6961 58.2358 19.3194 58.4024 18.6987C58.57 18.0734 58.1988 17.4308 57.5734 17.2635ZM46.1954 0.86878L44.9808 5.3969C44.8133 6.02233 45.184 6.66452 45.8093 6.83245C46.4342 6.99956 47.077 6.62972 47.2449 6.00394L48.459 1.47581C48.6265 0.850498 48.2556 0.207842 47.6304 0.0402641C47.0055 -0.127314 46.3628 0.243467 46.1952 0.86878H46.1954Z" fill="#3391FF"/>
</g>
</g>
<defs>
<clipPath id="clip0_668_8">
<rect width="60" height="60" fill="white"/>
</clipPath>
</defs>
</svg>
