<svg width="60" height="58" viewBox="0 0 60 58" fill="none" xmlns="http://www.w3.org/2000/svg">
<g id="Group">
<path id="Vector" d="M29.1998 47.9357V50.3619C29.1998 52.714 27.2931 54.6207 24.941 54.6207C22.5889 54.6207 20.6822 52.714 20.6822 50.3619V47.3577M20.6817 47.3577V50.3619C20.6817 52.714 18.775 54.6207 16.4229 54.6207C14.0708 54.6207 12.1641 52.714 12.1641 50.3619" stroke="#3391FF" stroke-width="3.51562" stroke-miterlimit="10" stroke-linecap="round" stroke-linejoin="round"/>
<path id="Vector_2" d="M50.2049 48.4257C50.2049 48.4257 45.0532 51.1553 39.594 51.1553C36.6369 51.1553 33.8191 50.0411 31.8574 49.0197C29.7823 47.9392 27.4836 47.3576 25.144 47.3576H13.6628C11.4015 47.3576 9.56836 45.5245 9.56836 43.2632C9.56836 41.002 11.4015 39.1688 13.6628 39.1688H25.3473C28.0485 39.1688 30.6684 38.2449 32.7722 36.5506L34.3075 35.314M30.6603 17.9956L45.1719 26.3515H50.2049" stroke="#3391FF" stroke-width="3.51562" stroke-miterlimit="10" stroke-linecap="round" stroke-linejoin="round"/>
<path id="Vector_3" d="M18.5228 39.1689L36.5732 7.661C37.5842 5.89955 36.9605 3.65155 35.1865 2.66272C33.4513 1.69557 31.2612 2.2958 30.2617 4.0126L8.9383 40.6885C7.83733 42.4832 5.50506 43.0706 3.68526 42.0118C1.87283 40.9573 1.2276 38.6526 2.22908 36.8103L7.30002 27.4822C9.1094 24.1537 11.5898 21.2369 14.5843 18.9163C17.0906 16.9739 20.2747 15.8621 23.4004 15.8492" stroke="#3391FF" stroke-width="3.51562" stroke-miterlimit="10" stroke-linecap="round" stroke-linejoin="round"/>
<path id="Vector_4" d="M8.93727 40.6885L4.8377 47.687L3.95117 55.7989L11.3056 51.8725L13.8389 47.3577M34.4244 11.4377L28.0377 7.88013M50.2046 23.7397H58.2412V51.6441H50.2046V23.7397Z" stroke="#3391FF" stroke-width="3.51562" stroke-miterlimit="10" stroke-linecap="round" stroke-linejoin="round"/>
</g>
</svg>
