<svg width="60" height="60" viewBox="0 0 60 60" fill="none" xmlns="http://www.w3.org/2000/svg">
<g id="ic_graphic-design">
<path id="Vector" d="M26.25 41.1487C24.95 41.0045 23.6713 40.7087 22.44 40.2674C22.4775 39.3824 22.5 38.4599 22.5 37.4999V36.2362C23.6625 36.7912 24.9263 37.1774 26.25 37.3687V28.1249C26.25 26.6331 26.8426 25.2024 27.8975 24.1475C28.9524 23.0926 30.3832 22.4999 31.875 22.4999H41.1188C40.8197 20.422 40.0266 18.4461 38.8059 16.7382C37.5853 15.0302 35.9727 13.6399 34.1036 12.684C32.2345 11.7282 30.1634 11.2346 28.0641 11.2448C25.9648 11.255 23.8985 11.7685 22.0387 12.7424C21.7421 11.5159 21.2536 10.344 20.5913 9.26995C23.0223 8.05654 25.7103 7.44808 28.4269 7.49628C31.1435 7.54448 33.8083 8.24792 36.1947 9.5468C38.5811 10.8457 40.6187 12.7016 42.134 14.9568C43.6494 17.2119 44.5979 19.7996 44.8988 22.4999H50.625C52.1168 22.4999 53.5476 23.0926 54.6025 24.1475C55.6574 25.2024 56.25 26.6331 56.25 28.1249V46.8749C56.25 48.3668 55.6574 49.7975 54.6025 50.8524C53.5476 51.9073 52.1168 52.4999 50.625 52.4999H31.875C30.3832 52.4999 28.9524 51.9073 27.8975 50.8524C26.8426 49.7975 26.25 48.3668 26.25 46.8749V41.1487ZM44.8988 26.2499C44.4727 30.0547 42.766 33.6016 40.0589 36.3088C37.3517 39.016 33.8047 40.7226 30 41.1487V46.8749C30 47.3722 30.1975 47.8491 30.5492 48.2008C30.9008 48.5524 31.3777 48.7499 31.875 48.7499H50.625C51.1223 48.7499 51.5992 48.5524 51.9508 48.2008C52.3025 47.8491 52.5 47.3722 52.5 46.8749V28.1249C52.5 27.6277 52.3025 27.1508 51.9508 26.7991C51.5992 26.4475 51.1223 26.2499 50.625 26.2499H44.8988ZM41.1188 26.2499H31.875C31.3777 26.2499 30.9008 26.4475 30.5492 26.7991C30.1975 27.1508 30 27.6277 30 28.1249V37.3687C32.8049 36.9633 35.4034 35.6613 37.4074 33.6573C39.4114 31.6534 40.7133 29.0549 41.1188 26.2499ZM17.9813 28.3537C17.5875 26.9062 16.95 25.4549 15.855 24.3412C17.625 22.6649 18.75 19.9949 18.75 16.8749C18.75 14.2612 18.2213 12.4649 17.265 11.0287C16.8407 10.411 16.3503 9.84135 15.8025 9.32995C15.5926 9.12725 15.38 8.92724 15.165 8.72995C14.9363 8.5162 14.7263 8.3212 14.4525 8.04745C13.89 7.48495 13.8263 7.03495 13.8263 6.7987C13.8269 6.66738 13.8484 6.537 13.89 6.41245C14.0615 6.04167 14.1071 5.62504 14.0201 5.22593C13.933 4.82681 13.718 4.46704 13.4077 4.20133C13.0975 3.93563 12.7089 3.77852 12.3011 3.7539C11.8934 3.72928 11.4887 3.8385 11.1488 4.06495L11.1412 4.0687L11.13 4.0762L11.0963 4.0987L10.9837 4.1737C10.4212 4.57491 9.87931 5.00421 9.36 5.45995C8.4225 6.2887 7.2 7.51495 6.33375 8.97745C5.57756 10.1899 4.97066 11.4893 4.52625 12.8474C4.07625 14.1937 3.75 15.6524 3.75 16.8749C3.75 19.9949 4.875 22.6612 6.645 24.3449C5.55 25.4549 4.9125 26.9062 4.51875 28.3574C3.75 31.1774 3.75 34.6649 3.75 37.3612V37.4999C3.75 45.2174 5.19375 49.7999 6.82875 52.5262C7.65 53.8912 8.505 54.7724 9.22125 55.3274C9.6029 55.6251 10.0183 55.8769 10.4588 56.0774C10.7135 56.1704 10.9797 56.2285 11.25 56.2499C11.565 56.2499 12.0413 56.0774 12.0413 56.0774C12.4817 55.8769 12.8971 55.6251 13.2787 55.3274C13.9913 54.7724 14.8537 53.8912 15.6712 52.5262C17.3062 49.8037 18.75 45.2174 18.75 37.4999V37.3649C18.75 34.6649 18.75 31.1812 17.9813 28.3537ZM9.32625 26.9662C9.75 26.5387 10.3162 26.2499 11.25 26.2499C12.1875 26.2499 12.75 26.5424 13.1737 26.9624C13.6462 27.4387 14.055 28.2112 14.3625 29.3399C14.985 31.6312 15 34.6387 15 37.4999C15 44.7824 13.6313 48.6374 12.4538 50.5987C12.0038 51.3487 11.58 51.8324 11.25 52.1362C10.7785 51.6828 10.3733 51.1652 10.0462 50.5987C8.86875 48.6337 7.5 44.7824 7.5 37.4999C7.5 34.6387 7.515 31.6312 8.1375 29.3399C8.445 28.2149 8.85375 27.4424 9.32625 26.9662ZM11.25 22.4999C9.80625 22.4999 7.5 20.8949 7.5 16.8749C7.5 16.2262 7.695 15.1987 8.085 14.0362C8.4404 12.9387 8.93038 11.8895 9.54375 10.9124C9.87 10.3612 10.2938 9.82495 10.7513 9.3337C11.01 9.7912 11.3513 10.2524 11.8013 10.7024C12.075 10.9762 12.4312 11.3062 12.735 11.5912L13.2 12.0262C13.5938 12.4087 13.8975 12.7424 14.1412 13.1137C14.5912 13.7849 15 14.8012 15 16.8749C15 20.8949 12.6938 22.4999 11.25 22.4999Z" fill="#3391FF"/>
</g>
</svg>
