<svg width="60" height="60" viewBox="0 0 60 60" fill="none" xmlns="http://www.w3.org/2000/svg">
<g id="ic_lead-generation">
<path id="Vector" d="M48.5147 11.7774C46.6081 9.83153 44.3327 8.28521 41.8216 7.22885C39.3105 6.17249 36.614 5.62727 33.8897 5.62507H33.8124C31.1005 5.6181 28.4142 6.14917 25.9091 7.18753C23.4039 8.22589 21.1296 9.75091 19.2178 11.6743L4.82955 26.2501C4.13298 26.9545 3.74347 27.906 3.74611 28.8967C3.74874 29.8874 4.1433 30.8368 4.84362 31.5376L11.5608 38.2548C11.9085 38.6041 12.322 38.8812 12.7774 39.0698C13.2328 39.2585 13.721 39.3551 14.2139 39.354H14.235C14.7315 39.3513 15.2225 39.2501 15.6796 39.0561C16.1366 38.8622 16.5506 38.5795 16.8975 38.2243L31.171 23.5993C31.8679 22.9093 32.8064 22.5181 33.7871 22.509C34.7679 22.4998 35.7135 22.8732 36.4233 23.5501C36.7741 23.8909 37.053 24.2986 37.2434 24.749C37.4338 25.1995 37.5319 25.6836 37.5319 26.1727C37.5366 26.6932 37.4387 27.2096 37.2436 27.6922C37.0486 28.1748 36.7603 28.6142 36.3952 28.9852L21.796 43.0969C21.4394 43.4432 21.1552 43.8569 20.9599 44.3139C20.7646 44.771 20.6622 45.2623 20.6585 45.7593C20.6547 46.2563 20.7499 46.7491 20.9383 47.209C21.1268 47.669 21.4047 48.0868 21.7561 48.4384L28.4733 55.1555C29.1736 55.8515 30.1193 56.2445 31.1066 56.2497C32.0939 56.255 33.0438 55.8721 33.7514 55.1837L48.2358 41.0157C56.31 32.9298 56.4342 19.8188 48.5147 11.7774ZM14.2139 35.5993L7.49909 28.8844L13.0772 23.2313L19.7616 29.9157L14.2139 35.5993ZM31.1217 52.5001L24.3999 45.7852L30.1139 40.261L36.796 46.9501L31.1217 52.5001ZM45.5967 38.3344L39.4772 44.3204L32.8116 37.6594L39.0085 31.6665L39.0319 31.6454C39.7507 30.9207 40.319 30.061 40.7039 29.1157C41.0889 28.1704 41.2829 27.1582 41.2749 26.1376C41.2706 25.1514 41.0685 24.176 40.6804 23.2694C40.2923 22.3628 39.7261 21.5433 39.0155 20.8594C37.5915 19.5049 35.6952 18.7592 33.73 18.7811C31.7647 18.803 29.8855 19.5907 28.4921 20.9766L22.3796 27.2298L15.7022 20.5641L21.878 14.318C23.4414 12.7456 25.3013 11.4991 27.3498 10.6506C29.3984 9.80211 31.595 9.36857 33.8124 9.37507H33.8756C36.1045 9.37699 38.3106 9.82319 40.3649 10.6876C42.4193 11.552 44.2808 12.8173 45.8405 14.4094C52.3233 20.9883 52.2061 31.7298 45.5967 38.3391V38.3344Z" fill="#3391FF"/>
</g>
</svg>
