<svg width="60" height="60" viewBox="0 0 60 60" fill="none" xmlns="http://www.w3.org/2000/svg">
<g id="ic_other">
<path id="Vector" d="M15 26.25C14.0054 26.25 13.0516 26.6451 12.3483 27.3483C11.6451 28.0516 11.25 29.0054 11.25 30C11.25 30.9946 11.6451 31.9484 12.3483 32.6517C13.0516 33.3549 14.0054 33.75 15 33.75C15.9946 33.75 16.9484 33.3549 17.6517 32.6517C18.3549 31.9484 18.75 30.9946 18.75 30C18.75 29.0054 18.3549 28.0516 17.6517 27.3483C16.9484 26.6451 15.9946 26.25 15 26.25ZM26.25 30C26.25 29.0054 26.6451 28.0516 27.3483 27.3483C28.0516 26.6451 29.0054 26.25 30 26.25C30.9946 26.25 31.9484 26.6451 32.6517 27.3483C33.3549 28.0516 33.75 29.0054 33.75 30C33.75 30.9946 33.3549 31.9484 32.6517 32.6517C31.9484 33.3549 30.9946 33.75 30 33.75C29.0054 33.75 28.0516 33.3549 27.3483 32.6517C26.6451 31.9484 26.25 30.9946 26.25 30ZM41.25 30C41.25 29.0054 41.6451 28.0516 42.3484 27.3483C43.0516 26.6451 44.0054 26.25 45 26.25C45.9946 26.25 46.9484 26.6451 47.6516 27.3483C48.3549 28.0516 48.75 29.0054 48.75 30C48.75 30.9946 48.3549 31.9484 47.6516 32.6517C46.9484 33.3549 45.9946 33.75 45 33.75C44.0054 33.75 43.0516 33.3549 42.3484 32.6517C41.6451 31.9484 41.25 30.9946 41.25 30Z" fill="#3391FF"/>
</g>
</svg>
