<svg width="60" height="60" viewBox="0 0 60 60" fill="none" xmlns="http://www.w3.org/2000/svg">
<g id="ic_smm" clip-path="url(#clip0_668_33)">
<g id="Group">
<path id="Vector" d="M54.6018 38.2461C59.4557 33.392 59.4556 25.522 54.6015 20.668C49.7473 15.814 41.8773 15.8141 37.0233 20.6683C32.1693 25.5224 32.1694 33.3925 37.0236 38.2464C41.8778 43.1004 49.7478 43.1003 54.6018 38.2461Z" stroke="#3391FF" stroke-width="3.51427" stroke-miterlimit="10" stroke-linecap="round" stroke-linejoin="round"/>
<path id="Vector_2" d="M49.8114 29.4571C49.8114 31.6649 48.0216 33.4546 45.8139 33.4546C43.6061 33.4546 41.8164 31.6649 41.8164 29.4571M9.51635 58.2155H24.259C25.4192 58.2155 26.5557 57.8862 27.5361 57.2658C28.5166 56.6453 29.3008 55.7593 29.7976 54.7108L32.8277 48.3145C34.2178 45.38 32.0827 41.9966 28.8356 41.9886L23.094 41.9712L24.1608 37.3738C24.6825 35.1252 23.2527 32.8875 20.993 32.4163H19.7145L17.2884 37.538C16.5589 39.0781 15.4316 40.3957 14.023 41.3549L9.51646 44.4234M15.887 25.0027L4.37051 15.2003C-1.0854 10.6111 2.66281 1.92497 9.54481 1.78745C12.0877 1.71845 14.3712 2.82181 15.887 4.58914C17.4026 2.82205 19.6856 1.71868 22.2282 1.78733C29.1199 1.92532 32.8584 10.6248 27.4004 15.214L15.887 25.0027ZM1.79244 44.4193H9.51635V58.2077H1.79244V44.4193Z" stroke="#3391FF" stroke-width="3.51427" stroke-miterlimit="10" stroke-linecap="round" stroke-linejoin="round"/>
</g>
</g>
<defs>
<clipPath id="clip0_668_33">
<rect width="60" height="60" fill="white"/>
</clipPath>
</defs>
</svg>
