<svg width="60" height="60" viewBox="0 0 60 60" fill="none" xmlns="http://www.w3.org/2000/svg">
<g id="ic_video-editing" clip-path="url(#clip0_668_43)">
<g id="Group">
<path id="Vector" d="M31.875 33.7588C30.8395 33.7588 30 34.5979 30 35.6338V41.2588H11.25V30.0088H24.375C25.4105 30.0088 26.25 29.1693 26.25 28.1338C26.25 27.0979 25.4105 26.2588 24.375 26.2588H9.375C8.33953 26.2588 7.5 27.0979 7.5 28.1338V43.1338C7.5 44.1693 8.33953 45.0088 9.375 45.0088H31.875C32.9105 45.0088 33.75 44.1693 33.75 43.1338V35.6338C33.75 34.5979 32.9105 33.7588 31.875 33.7588Z" fill="#3391FF"/>
<path id="Vector_2" d="M53.5312 22.8177C53.272 22.6471 52.9746 22.5435 52.6655 22.516C52.3565 22.4885 52.0454 22.5381 51.7602 22.6603L41.25 27.1653V24.3839C41.2477 21.9202 39.6445 19.7444 37.2926 19.012C40.4352 15.1265 39.9742 9.45888 36.2457 6.1324C32.5168 2.8058 26.8336 2.99212 23.3309 6.55544C21.4828 2.52408 17.4375 -0.0436185 13.0037 0.000561169C8.5698 0.0445065 4.57617 2.69119 2.80887 6.75806C1.04098 10.8245 1.82965 15.5503 4.8225 18.8225C2.05676 19.2212 0.00316406 21.5895 0 24.3836V46.8836C0.00316406 49.9886 2.51953 52.5055 5.625 52.5086H35.625C38.7305 52.5055 41.2468 49.9886 41.25 46.8836V44.1018L51.7611 48.6067C52.0463 48.7289 52.3573 48.7785 52.6664 48.751C52.9754 48.7234 53.2728 48.6196 53.5319 48.4489C53.7909 48.2781 54.0036 48.0458 54.1507 47.7726C54.2979 47.4994 54.3749 47.194 54.375 46.8838V24.3838C54.3749 24.0733 54.2978 23.7677 54.1506 23.4944C54.0033 23.2211 53.7905 22.9885 53.5312 22.8177ZM30 7.50888C33.1064 7.50888 35.625 10.0271 35.625 13.1339C35.625 16.2403 33.1064 18.7589 30 18.7589C26.8936 18.7589 24.375 16.2403 24.375 13.1339C24.3782 10.0284 26.8945 7.51169 30 7.50888ZM22.5178 18.7589H21.4866C21.6825 18.5395 21.8702 18.3127 22.0491 18.0792C22.196 18.3136 22.3521 18.5401 22.5178 18.7589ZM13.125 3.75876C17.2673 3.75876 20.625 7.11654 20.625 11.2588C20.625 15.4006 17.2673 18.7588 13.125 18.7588C8.98266 18.7588 5.625 15.4006 5.625 11.2588C5.62969 7.11829 8.985 3.76345 13.125 3.75876ZM37.5 46.8838C37.5 47.9192 36.6605 48.7588 35.625 48.7588H5.625C4.58953 48.7588 3.75 47.9192 3.75 46.8838V24.3838C3.75 23.3478 4.58953 22.5088 5.625 22.5088H35.625C36.6605 22.5088 37.5 23.3478 37.5 24.3838V46.8838ZM50.625 44.0402L41.25 40.0219V31.2452L50.625 27.2269V44.0402Z" fill="#3391FF"/>
<path id="Vector_3" d="M13.1245 13.1338C14.16 13.1338 14.9995 12.2942 14.9995 11.2588C15.0002 11.0127 14.9516 10.7689 14.8566 10.5419C14.7616 10.3148 14.6222 10.1091 14.4465 9.93677C13.7017 9.23364 12.5376 9.23364 11.7933 9.93677C11.5321 10.1995 11.3545 10.5337 11.2832 10.8973C11.2118 11.2608 11.2498 11.6374 11.3923 11.9793C11.5347 12.3214 11.7752 12.6135 12.0835 12.819C12.3918 13.0245 12.754 13.134 13.1245 13.1338ZM30.5525 26.8118C30.2892 27.0736 30.1095 27.4077 30.0363 27.7718C29.963 28.1358 29.9994 28.5134 30.1409 28.8567C30.4307 29.5583 31.1151 30.0166 31.8745 30.0166C32.6339 30.0166 33.3182 29.5584 33.608 28.8566C33.7495 28.5133 33.7859 28.1357 33.7126 27.7717C33.6394 27.4077 33.4597 27.0736 33.1965 26.8118C32.4554 26.1082 31.2936 26.1082 30.5525 26.8118ZM58.1245 22.5088C57.089 22.5088 56.2495 23.3478 56.2495 24.3838V46.8838C56.2495 47.9192 57.089 48.7588 58.1245 48.7588C59.16 48.7588 59.9995 47.9192 59.9995 46.8838V24.3838C59.9995 23.3478 59.16 22.5088 58.1245 22.5088Z" fill="#3391FF"/>
</g>
</g>
<defs>
<clipPath id="clip0_668_43">
<rect width="60" height="60" fill="white"/>
</clipPath>
</defs>
</svg>
