<svg width="60" height="60" viewBox="0 0 60 60" fill="none" xmlns="http://www.w3.org/2000/svg">
<g id="Frame" clip-path="url(#clip0_668_91)">
<g id="Group">
<path id="Vector" d="M48.0028 39.2257C47.8722 39.0951 47.7172 38.9915 47.5466 38.9208C47.376 38.8501 47.1931 38.8138 47.0084 38.8138C46.8238 38.8138 46.6409 38.8501 46.4703 38.9208C46.2996 38.9915 46.1446 39.0951 46.014 39.2257L45.1732 40.0665L40.7787 35.672C43.0562 32.4984 44.4717 28.7884 44.8869 24.9044C45.3021 21.0203 44.7028 17.0949 43.1475 13.5117L49.611 5.71871V8.99563C49.611 9.36859 49.7591 9.72627 50.0229 9.99C50.2866 10.2537 50.6443 10.4019 51.0172 10.4019C51.3902 10.4019 51.7479 10.2537 52.0116 9.99C52.2753 9.72627 52.4235 9.36859 52.4235 8.99563V1.82035C52.4235 1.44739 52.2753 1.08971 52.0116 0.825983C51.7479 0.56226 51.3902 0.414102 51.0172 0.414102H43.8415C43.4685 0.414102 43.1108 0.56226 42.8471 0.825983C42.5834 1.08971 42.4352 1.44739 42.4352 1.82035C42.4352 2.19331 42.5834 2.551 42.8471 2.81472C43.1108 3.07844 43.4685 3.2266 43.8415 3.2266H48.0233L41.7401 10.8028C40.8084 9.2729 39.6973 7.85987 38.4302 6.59375C29.6529 -2.18359 15.3704 -2.18359 6.59286 6.59375C-2.18472 15.3711 -2.18448 29.6536 6.59286 38.4311C10.3757 42.2042 15.3755 44.5113 20.701 44.9413C26.0265 45.3714 31.3317 43.8964 35.6709 40.7792L40.0655 45.1737L39.2245 46.0146C39.094 46.1452 38.9904 46.3002 38.9197 46.4708C38.849 46.6414 38.8126 46.8243 38.8126 47.009C38.8126 47.1936 38.849 47.3765 38.9197 47.5471C38.9904 47.7177 39.094 47.8728 39.2245 48.0034L49.4081 58.187C50.5731 59.3492 52.1516 60.0019 53.7972 60.0019C55.4428 60.0019 57.0213 59.3492 58.1863 58.187C59.3469 57.0211 59.9985 55.4429 59.9985 53.7979C59.9985 52.1528 59.3469 50.5747 58.1863 49.4089L48.0028 39.2257ZM8.58153 8.58242C10.7491 6.41513 13.3926 4.7835 16.3016 3.81733C19.2106 2.85115 22.3049 2.57707 25.3384 3.01688C28.3719 3.45669 31.261 4.59827 33.7758 6.35082C36.2906 8.10336 38.3618 10.4185 39.8247 13.1122L34.6774 19.3186L19.7009 11.3381C19.4281 11.1928 19.1151 11.1413 18.8102 11.1917C18.5053 11.2421 18.2255 11.3915 18.0141 11.6169L3.38403 27.2077C2.57684 23.9182 2.63106 20.4762 3.54146 17.2138C4.45186 13.9514 6.18771 10.9786 8.58153 8.58242ZM8.58153 36.4425C6.80002 34.6643 5.37781 32.5595 4.39267 30.2432L19.3281 14.3266L34.3666 22.3398C34.6524 22.492 34.9819 22.5411 35.2996 22.4785C35.6173 22.416 35.9037 22.2457 36.1104 21.9965L41.0967 15.9843C42.3241 19.487 42.5384 23.2648 41.7149 26.8838C40.8915 30.5028 39.0637 33.816 36.4416 36.4427C28.7605 44.1235 16.2626 44.1235 8.58153 36.4425ZM37.8541 38.9854C38.0483 38.8044 38.2409 38.6207 38.4302 38.4315C38.6196 38.2422 38.8031 38.0496 38.9843 37.8553L43.1844 42.0555L42.0543 43.1857L37.8541 38.9854ZM51.3975 56.199L42.2078 47.0093L47.0084 42.2088L56.1982 51.3985C56.8295 52.0362 57.1826 52.898 57.1803 53.7953C57.178 54.6926 56.8205 55.5525 56.186 56.187C55.5515 56.8215 54.6915 57.1789 53.7942 57.1812C52.8969 57.1834 52.0352 56.8303 51.3975 56.199Z" fill="#3391FF"/>
</g>
</g>
<defs>
<clipPath id="clip0_668_91">
<rect width="60" height="60" fill="white"/>
</clipPath>
</defs>
</svg>
