<svg width="60" height="60" viewBox="0 0 60 60" fill="none" xmlns="http://www.w3.org/2000/svg">
<g id="Frame">
<g id="Group">
<path id="Vector" d="M13.125 14.375C14.1605 14.375 15 13.5355 15 12.5C15 11.4645 14.1605 10.625 13.125 10.625C12.0895 10.625 11.25 11.4645 11.25 12.5C11.25 13.5355 12.0895 14.375 13.125 14.375Z" fill="#3391FF"/>
<path id="Vector_2" d="M19.375 14.375C20.4105 14.375 21.25 13.5355 21.25 12.5C21.25 11.4645 20.4105 10.625 19.375 10.625C18.3395 10.625 17.5 11.4645 17.5 12.5C17.5 13.5355 18.3395 14.375 19.375 14.375Z" fill="#3391FF"/>
<path id="Vector_3" d="M25.625 14.375C26.6605 14.375 27.5 13.5355 27.5 12.5C27.5 11.4645 26.6605 10.625 25.625 10.625C24.5895 10.625 23.75 11.4645 23.75 12.5C23.75 13.5355 24.5895 14.375 25.625 14.375Z" fill="#3391FF"/>
<path id="Vector_4" fill-rule="evenodd" clip-rule="evenodd" d="M56.875 32.5V11.25C56.875 9.09512 56.019 7.02849 54.4953 5.50476C52.9715 3.98102 50.9049 3.125 48.75 3.125H11.25C9.09512 3.125 7.02849 3.98102 5.50476 5.50476C3.98102 7.02849 3.125 9.09512 3.125 11.25V48.75C3.125 50.9049 3.98102 52.9715 5.50476 54.4953C7.02849 56.019 9.09512 56.875 11.25 56.875H30C30.4973 56.875 30.9742 56.6775 31.3258 56.3258C31.6775 55.9742 31.875 55.4973 31.875 55C31.875 54.5027 31.6775 54.0258 31.3258 53.6742C30.9742 53.3225 30.4973 53.125 30 53.125H11.25C10.0897 53.125 8.97688 52.6641 8.15641 51.8436C7.33594 51.0231 6.875 49.9103 6.875 48.75V11.25C6.875 8.8325 8.8325 6.875 11.25 6.875H48.75C51.1675 6.875 53.125 8.8325 53.125 11.25V32.5C53.125 32.9973 53.3225 33.4742 53.6742 33.8258C54.0258 34.1775 54.5027 34.375 55 34.375C55.4973 34.375 55.9742 34.1775 56.3258 33.8258C56.6775 33.4742 56.875 32.9973 56.875 32.5Z" fill="#3391FF"/>
<path id="Vector_5" fill-rule="evenodd" clip-rule="evenodd" d="M55 18.125H5C4.50272 18.125 4.02581 18.3225 3.67417 18.6742C3.32254 19.0258 3.125 19.5027 3.125 20C3.125 20.4973 3.32254 20.9742 3.67417 21.3258C4.02581 21.6775 4.50272 21.875 5 21.875H55C55.4973 21.875 55.9742 21.6775 56.3258 21.3258C56.6775 20.9742 56.875 20.4973 56.875 20C56.875 19.5027 56.6775 19.0258 56.3258 18.6742C55.9742 18.3225 55.4973 18.125 55 18.125ZM53.6425 53.925L48.39 46.425C48.2526 46.2145 48.0743 46.0337 47.8656 45.8935C47.657 45.7532 47.4223 45.6564 47.1754 45.6087C46.9286 45.561 46.6747 45.5635 46.4288 45.6159C46.1829 45.6683 45.9501 45.7696 45.7442 45.9138C45.5383 46.0581 45.3634 46.2422 45.2301 46.4554C45.0968 46.6685 45.0077 46.9063 44.9681 47.1545C44.9286 47.4028 44.9393 47.6565 44.9998 47.9005C45.0602 48.1445 45.1691 48.3739 45.32 48.575L50.57 56.075C50.7112 56.2767 50.8907 56.4487 51.0983 56.5811C51.306 56.7134 51.5376 56.8036 51.7801 56.8464C52.0226 56.8893 52.2711 56.8839 52.5115 56.8307C52.7519 56.7775 52.9795 56.6774 53.1813 56.5363C53.383 56.3951 53.555 56.2156 53.6873 56.0079C53.8197 55.8003 53.9099 55.5686 53.9527 55.3262C53.9955 55.0837 53.9902 54.8351 53.937 54.5947C53.8837 54.3543 53.7837 54.1267 53.6425 53.925Z" fill="#3391FF"/>
<path id="Vector_6" fill-rule="evenodd" clip-rule="evenodd" d="M55.1676 40.21L38.9926 30.8775C38.4298 30.5548 37.7867 30.3989 37.1386 30.4282C36.4905 30.4574 35.8641 30.6705 35.3326 31.0425C34.8011 31.4146 34.3865 31.9303 34.1373 32.5292C33.888 33.1282 33.8144 33.7858 33.9251 34.425L37.1626 52.8176C37.2772 53.4702 37.5794 54.0754 38.0322 54.5592C38.4851 55.043 39.069 55.3845 39.7127 55.542C40.3564 55.6995 41.032 55.6661 41.6571 55.446C42.2821 55.2259 42.8296 54.8286 43.2326 54.3026L47.6176 48.5875L54.4876 46.4226C55.1191 46.2229 55.6789 45.8439 56.0989 45.3318C56.5188 44.8196 56.7808 44.1964 56.8529 43.538C56.9249 42.8796 56.804 42.2145 56.5048 41.6236C56.2055 41.0327 55.7409 40.5416 55.1676 40.21ZM52.6301 43.075L45.9251 45.1901C45.5582 45.3043 45.2358 45.5297 45.0026 45.835L40.7226 51.415L37.7426 34.485L52.6301 43.075Z" fill="#3391FF"/>
</g>
</g>
</svg>
