<svg width="515" height="381" viewBox="0 0 515 381" fill="none" xmlns="http://www.w3.org/2000/svg">
<path d="M463.397 354.445H429.283V354.702H463.397V354.445Z" fill="#EBEBEB"/>
<path d="M341.156 357.246H332.205V357.504H341.156V357.246Z" fill="#EBEBEB"/>
<path d="M428.254 344.886H408.488V345.144H428.254V344.886Z" fill="#EBEBEB"/>
<path d="M98.5209 346.617H54.0352V346.874H98.5209V346.617Z" fill="#EBEBEB"/>
<path d="M114.217 346.617H107.697V346.874H114.217V346.617Z" fill="#EBEBEB"/>
<path d="M231.904 350.963H135.414V351.221H231.904V350.963Z" fill="#EBEBEB"/>
<path d="M244.111 291.934H45.2387C43.6789 291.934 42.183 291.314 41.08 290.211C39.9771 289.108 39.3574 287.612 39.3574 286.053V6.4797C39.371 4.92883 39.9966 3.44609 41.0981 2.35425C42.1996 1.2624 43.6878 0.649843 45.2387 0.649902H244.111C245.671 0.649902 247.167 1.26954 248.27 2.3725C249.373 3.47545 249.992 4.97138 249.992 6.5312V286.053C249.992 287.612 249.373 289.108 248.27 290.211C247.167 291.314 245.671 291.934 244.111 291.934ZM45.2387 0.855903C43.748 0.858626 42.3192 1.452 41.2651 2.50608C40.211 3.56016 39.6176 4.98901 39.6149 6.4797V286.053C39.6176 287.543 40.211 288.972 41.2651 290.026C42.3192 291.08 43.748 291.674 45.2387 291.676H244.111C245.602 291.674 247.031 291.08 248.085 290.026C249.139 288.972 249.732 287.543 249.735 286.053V6.4797C249.732 4.98901 249.139 3.56016 248.085 2.50608C247.031 1.452 245.602 0.858626 244.111 0.855903H45.2387Z" fill="#EBEBEB"/>
<path d="M466.909 291.934H268.016C266.457 291.931 264.963 291.311 263.86 290.208C262.758 289.106 262.137 287.612 262.135 286.053V6.4797C262.151 4.92967 262.778 3.44849 263.878 2.35722C264.979 1.26595 266.466 0.652527 268.016 0.649902H466.909C468.456 0.655263 469.939 1.27022 471.036 2.36148C472.133 3.45275 472.756 4.93239 472.77 6.4797V286.053C472.77 287.609 472.153 289.102 471.054 290.204C469.956 291.306 468.465 291.928 466.909 291.934ZM268.016 0.855903C266.525 0.858626 265.097 1.452 264.042 2.50608C262.988 3.56016 262.395 4.98901 262.392 6.4797V286.053C262.395 287.543 262.988 288.972 264.042 290.026C265.097 291.08 266.525 291.674 268.016 291.676H466.909C468.4 291.674 469.829 291.08 470.883 290.026C471.937 288.972 472.53 287.543 472.533 286.053V6.4797C472.53 4.98901 471.937 3.56016 470.883 2.50608C469.829 1.452 468.4 0.858626 466.909 0.855903H268.016Z" fill="#EBEBEB"/>
<path d="M515 337.872H0V338.13H515V337.872Z" fill="#EBEBEB"/>
<path d="M262.855 233.255C261.669 233.259 260.508 232.911 259.52 232.255C258.532 231.6 257.76 230.665 257.303 229.571C256.846 228.477 256.724 227.271 256.952 226.107C257.18 224.943 257.748 223.873 258.585 223.032C259.421 222.192 260.488 221.618 261.651 221.384C262.814 221.149 264.02 221.265 265.117 221.717C266.213 222.169 267.151 222.935 267.812 223.92C268.473 224.905 268.827 226.064 268.829 227.25C268.829 228.837 268.201 230.36 267.081 231.485C265.962 232.61 264.442 233.247 262.855 233.255ZM262.855 224.356C262.279 224.352 261.715 224.519 261.235 224.836C260.754 225.153 260.379 225.606 260.156 226.137C259.933 226.668 259.873 227.253 259.984 227.818C260.094 228.383 260.371 228.902 260.777 229.31C261.183 229.718 261.702 229.996 262.266 230.109C262.831 230.221 263.417 230.163 263.948 229.943C264.48 229.722 264.934 229.348 265.253 228.869C265.572 228.389 265.741 227.826 265.739 227.25C265.734 226.486 265.428 225.754 264.889 225.213C264.35 224.672 263.619 224.364 262.855 224.356Z" fill="#263238"/>
<path d="M267.011 229.402L264.824 231.585L271.92 238.691L274.107 236.508L267.011 229.402Z" fill="#263238"/>
<path d="M458.995 56.1615C461.727 39.3276 450.296 23.4659 433.462 20.7334C416.628 18.0008 400.766 29.4323 398.034 46.2662C395.301 63.1 406.733 78.9617 423.566 81.6943C440.4 84.4268 456.262 72.9954 458.995 56.1615Z" fill="#E0E0E0"/>
<path d="M428.584 82.7719C420.308 82.6224 412.422 79.2301 406.623 73.3249C400.824 67.4198 397.574 59.4739 397.574 51.1972C397.574 42.9205 400.824 34.9746 406.623 29.0695C412.422 23.1643 420.308 19.772 428.584 19.6226V21.0131C420.675 21.1592 413.139 24.4035 407.598 30.0482C402.057 35.6929 398.952 43.2871 398.952 51.1972C398.952 59.1073 402.057 66.7015 407.598 72.3462C413.139 77.9909 420.675 81.2353 428.584 81.3814V82.7719Z" fill="white"/>
<path d="M428.582 82.7721V81.3816C432.593 81.4557 436.578 80.7297 440.305 79.2461C444.032 77.7625 447.426 75.551 450.289 72.7408C453.151 69.9306 455.425 66.5781 456.977 62.8791C458.529 59.1801 459.329 55.2089 459.329 51.1975C459.329 47.186 458.529 43.2148 456.977 39.5159C455.425 35.8169 453.151 32.4644 450.289 29.6542C447.426 26.844 444.032 24.6325 440.305 23.1488C436.578 21.6652 432.593 20.9392 428.582 21.0133V19.6228C432.776 19.5471 436.944 20.3078 440.841 21.8605C444.738 23.4133 448.287 25.727 451.28 28.6665C454.273 31.6059 456.651 35.1123 458.273 38.9808C459.896 42.8493 460.732 47.0024 460.732 51.1975C460.732 55.3926 459.896 59.5457 458.273 63.4141C456.651 67.2826 454.273 70.789 451.28 73.7285C448.287 76.668 444.738 78.9817 440.841 80.5344C436.944 82.0872 432.776 82.8479 428.582 82.7721Z" fill="white"/>
<path d="M444.724 51.2023H443.333C443.333 40.9744 438.183 27.2754 428.213 20.91L428.965 19.7358C439.306 26.3999 444.724 40.5933 444.724 51.2023Z" fill="white"/>
<path d="M428.965 81.7316L428.213 80.5574C438.142 74.192 443.333 60.493 443.333 50.2651H444.724C444.724 60.8741 439.306 75.0881 428.965 81.7316Z" fill="white"/>
<path d="M413.844 51.2023H412.453C412.453 40.583 417.861 26.369 428.212 19.7358L428.964 20.8997C419.035 27.2754 413.844 40.9641 413.844 51.2023Z" fill="white"/>
<path d="M428.212 81.7214C417.861 75.0779 412.453 60.8639 412.453 50.2549H413.844C413.844 60.4931 418.994 74.1818 428.964 80.5472L428.212 81.7214Z" fill="white"/>
<path d="M429.283 20.313H427.893V82.0718H429.283V20.313Z" fill="white"/>
<path d="M454.736 34.0527H402.453V35.4432H454.736V34.0527Z" fill="white"/>
<path d="M459.463 51.0273H397.725V52.4178H459.463V51.0273Z" fill="white"/>
<path d="M454.035 67.9912H403.143V69.3817H454.035V67.9912Z" fill="white"/>
<path d="M98.4575 39.7901C98.4687 37.6962 98.1631 35.6126 97.5511 33.6101L102.938 28.8824L99.5493 23.0114L92.7616 25.3701C89.9107 22.3054 86.2152 20.1548 82.1423 19.1901L80.7312 12.1758H73.9641L72.5633 19.1901C68.4873 20.1546 64.7885 22.3051 61.9337 25.3701L55.146 23.0732L51.7676 28.9442L57.1442 33.6719C55.9357 37.6717 55.9357 41.9394 57.1442 45.9392L51.7676 50.6566L55.146 56.5276L61.9337 54.2101C64.7885 57.275 68.4873 59.4255 72.5633 60.3901L73.9641 67.4147H80.7312L82.1423 60.3901C86.2152 59.4254 89.9107 57.2747 92.7616 54.2101L99.5493 56.507L102.938 50.636L97.5511 45.9701C98.1614 43.9672 98.4669 41.8839 98.4575 39.7901ZM77.3528 51.2025C75.1807 51.2045 73.0569 50.5623 71.2499 49.3571C69.4429 48.1518 68.034 46.4377 67.2014 44.4316C66.3688 42.4255 66.1499 40.2175 66.5724 38.0869C66.9949 35.9564 68.0398 33.999 69.5749 32.4624C71.1101 30.9259 73.0665 29.8791 75.1966 29.4546C77.3268 29.0301 79.535 29.247 81.5419 30.0777C83.5488 30.9084 85.2642 32.3157 86.4711 34.1216C87.6781 35.9274 88.3223 38.0506 88.3223 40.2227C88.3236 41.6641 88.0409 43.0916 87.4902 44.4237C86.9396 45.7558 86.1318 46.9662 85.113 47.9859C84.0943 49.0056 82.8846 49.8146 81.553 50.3665C80.2215 50.9184 78.7942 51.2025 77.3528 51.2025Z" fill="#E0E0E0"/>
<path d="M127.504 68.9802C127.502 67.3996 127.27 65.8277 126.814 64.3143L130.934 60.7093L128.359 56.2494L123.209 58.0004C121.037 55.6745 118.222 54.0468 115.123 53.3242L114.093 47.9785H108.943L107.913 53.3242C104.811 54.0466 101.993 55.6742 99.8173 58.0004L94.6673 56.2494L92.082 60.7093L96.202 64.3143C95.2817 67.3604 95.2817 70.6104 96.202 73.6564L92.082 77.2511L94.6673 81.7213L99.8173 79.9703C101.993 82.2966 104.811 83.9241 107.913 84.6465L108.943 89.9922H114.093L115.123 84.6465C118.222 83.924 121.037 82.2963 123.209 79.9703L128.359 81.7213L130.934 77.2511L126.814 73.6564C127.27 72.1395 127.502 70.5642 127.504 68.9802ZM111.425 77.6631C109.77 77.6652 108.152 77.1761 106.775 76.2579C105.398 75.3397 104.324 74.0336 103.69 72.5049C103.056 70.9762 102.889 69.2937 103.212 67.6704C103.534 66.0471 104.331 64.5559 105.501 63.3856C106.671 62.2153 108.163 61.4185 109.786 61.0961C111.409 60.7737 113.092 60.9402 114.621 61.5745C116.149 62.2088 117.455 63.2824 118.373 64.6594C119.292 66.0363 119.781 67.6548 119.779 69.3098C119.779 71.5253 118.899 73.6499 117.332 75.2165C115.766 76.783 113.641 77.6631 111.425 77.6631Z" fill="#E0E0E0"/>
<path d="M204.569 42.4267L207.298 36.875L210.038 42.4164L216.156 43.3022L211.727 47.6179L212.778 53.7052L207.309 50.8315L201.85 53.7155L202.89 47.6282L198.461 43.3125L204.569 42.4267Z" fill="#EBEBEB"/>
<path d="M229.464 42.4267L232.193 36.875L234.933 42.4164L241.041 43.3022L236.622 47.6179L237.673 53.7052L232.204 50.8315L226.734 53.7155L227.775 47.6282L223.346 43.3125L229.464 42.4267Z" fill="#EBEBEB"/>
<path d="M254.348 42.4267L257.078 36.875L259.817 42.4164L265.936 43.3022L261.517 47.6179L262.568 53.7052L257.098 50.8315L251.629 53.7155L252.669 47.6282L248.24 43.3125L254.348 42.4267Z" fill="#EBEBEB"/>
<path d="M279.243 42.4267L281.972 36.875L284.712 42.4164L290.83 43.3022L286.401 47.6179L287.452 53.7052L281.982 50.8315L276.523 53.7155L277.564 47.6282L273.135 43.3125L279.243 42.4267Z" fill="#EBEBEB"/>
<path d="M304.138 42.4267L306.867 36.875L309.607 42.4164L315.715 43.3022L311.296 47.6179L312.347 53.7052L306.878 50.8315L301.408 53.7155L302.449 47.6282L298.02 43.3125L304.138 42.4267Z" fill="#EBEBEB"/>
<path d="M252.535 380.422C362.83 380.422 452.242 375.202 452.242 368.762C452.242 362.323 362.83 357.103 252.535 357.103C142.24 357.103 52.8281 362.323 52.8281 368.762C52.8281 375.202 142.24 380.422 252.535 380.422Z" fill="#F5F5F5"/>
<path d="M185.049 358.503L184.843 360.872C184.821 361.163 184.852 361.456 184.935 361.737C184.973 361.867 185.029 361.992 185.1 362.108C185.176 362.222 185.258 362.332 185.347 362.437C185.438 362.543 185.542 362.636 185.656 362.715C186.005 362.963 186.423 363.097 186.851 363.096H271.723C271.926 363.097 272.127 363.065 272.321 363.004C272.455 362.963 272.586 362.911 272.712 362.849C273.16 362.63 273.523 362.267 273.742 361.819C273.873 361.57 273.954 361.297 273.979 361.016L274.175 358.739C274.207 358.468 274.175 358.193 274.082 357.936C274.043 357.817 273.991 357.703 273.927 357.596C273.767 357.326 273.54 357.103 273.268 356.947C273.152 356.884 273.032 356.829 272.908 356.782C272.718 356.721 272.52 356.69 272.321 356.69H251.185C250.919 356.693 250.653 356.669 250.392 356.618L250.093 356.535C249.98 356.503 249.87 356.462 249.764 356.412C249.66 356.379 249.563 356.33 249.475 356.267C249.327 356.19 249.186 356.101 249.053 356C248.893 355.872 248.745 355.731 248.61 355.577C248.538 355.485 248.466 355.402 248.394 355.299L248.249 355.093L248.198 355.011C248.136 354.917 248.085 354.817 248.043 354.712L247.92 354.434C247.924 354.414 247.924 354.393 247.92 354.372C247.926 354.349 247.926 354.324 247.92 354.3C247.89 354.22 247.869 354.137 247.858 354.053C247.847 353.936 247.847 353.819 247.858 353.703C247.858 353.6 247.858 353.486 247.858 353.373C247.858 353.26 247.858 353.157 247.858 353.044V352.91C247.852 352.8 247.852 352.69 247.858 352.58C247.858 352.456 247.91 352.353 247.93 352.24L256.232 320.393L257.828 314.274L259.075 309.485H210.871L208.285 314.274L204.989 320.393L186.243 355.145C186.182 355.268 186.12 355.392 186.048 355.516L185.862 355.938C185.811 356.082 185.749 356.216 185.698 356.37L185.605 356.659C185.352 357.251 185.165 357.869 185.049 358.503Z" fill="#263238"/>
<path opacity="0.2" d="M274.145 358.76L273.949 361.057C273.896 361.614 273.64 362.131 273.23 362.511C272.82 362.891 272.284 363.107 271.725 363.117H186.873C186.588 363.118 186.306 363.06 186.045 362.946C185.784 362.832 185.549 362.666 185.355 362.457C185.161 362.248 185.013 362.001 184.92 361.731C184.827 361.462 184.79 361.176 184.813 360.892L185.019 358.523C185.073 357.89 185.197 357.265 185.39 356.659C185.565 356.129 185.785 355.616 186.049 355.124L210.687 309.464H258.891L247.746 352.22C247.673 352.464 247.628 352.717 247.612 352.972C247.542 353.816 247.782 354.657 248.289 355.336C248.795 356.015 249.533 356.486 250.362 356.659C250.622 356.719 250.889 356.747 251.156 356.741H272.26C272.521 356.734 272.781 356.783 273.022 356.884C273.263 356.984 273.479 357.135 273.657 357.326C273.836 357.517 273.971 357.744 274.055 357.991C274.139 358.238 274.17 358.5 274.145 358.76Z" fill="white"/>
<path d="M183.338 355.104L207.966 309.434H210.695L186.057 355.104C185.486 356.155 185.136 357.311 185.027 358.503L184.821 360.872C184.79 361.157 184.821 361.446 184.911 361.718C185.001 361.991 185.149 362.24 185.345 362.45C185.54 362.661 185.779 362.826 186.044 362.936C186.309 363.046 186.595 363.097 186.881 363.086H184.152C183.865 363.097 183.579 363.046 183.314 362.936C183.049 362.826 182.811 362.661 182.615 362.45C182.42 362.24 182.272 361.991 182.182 361.718C182.091 361.446 182.061 361.157 182.092 360.872L182.298 358.503C182.405 357.31 182.759 356.152 183.338 355.104Z" fill="#263238"/>
<path opacity="0.3" d="M210.716 309.434H258.91L256.067 320.352H204.824L210.716 309.434Z" fill="black"/>
<path d="M128.936 158.116V306.714C128.934 307.701 129.127 308.679 129.504 309.591C129.881 310.503 130.434 311.332 131.131 312.03C131.829 312.729 132.657 313.283 133.568 313.661C134.48 314.039 135.457 314.233 136.444 314.233H342.104C343.091 314.233 344.069 314.039 344.98 313.661C345.892 313.283 346.72 312.729 347.417 312.03C348.115 311.332 348.668 310.503 349.044 309.591C349.421 308.679 349.614 307.701 349.613 306.714V158.116C349.614 157.128 349.421 156.15 349.043 155.237C348.666 154.324 348.112 153.495 347.414 152.796C346.715 152.098 345.886 151.544 344.973 151.167C344.06 150.789 343.082 150.596 342.094 150.597H136.465C134.811 150.599 133.204 151.145 131.892 152.152C131.707 152.289 131.532 152.437 131.366 152.595C130.86 153.055 130.422 153.586 130.069 154.171C129.82 154.557 129.613 154.968 129.451 155.397C129.116 156.265 128.941 157.186 128.936 158.116Z" fill="#263238"/>
<path d="M349.613 290.646V306.714C349.613 308.709 348.82 310.621 347.41 312.031C346 313.441 344.088 314.234 342.094 314.234H136.464C134.47 314.234 132.558 313.441 131.148 312.031C129.737 310.621 128.945 308.709 128.945 306.714V290.646H349.613Z" fill="#3391FF"/>
<path opacity="0.6" d="M349.613 290.646V306.714C349.613 308.709 348.82 310.621 347.41 312.031C346 313.441 344.088 314.234 342.094 314.234H136.464C134.47 314.234 132.558 313.441 131.148 312.031C129.737 310.621 128.945 308.709 128.945 306.714V290.646H349.613Z" fill="white"/>
<path d="M136.599 286.104H341.96C343.053 286.104 344.101 285.67 344.873 284.897C345.646 284.125 346.08 283.077 346.08 281.984V159.27C346.08 158.177 345.646 157.129 344.873 156.357C344.101 155.584 343.053 155.15 341.96 155.15H136.599C135.506 155.15 134.458 155.584 133.685 156.357C132.913 157.129 132.479 158.177 132.479 159.27V282.025C132.489 283.111 132.928 284.148 133.7 284.912C134.471 285.676 135.513 286.104 136.599 286.104Z" fill="#3391FF"/>
<path d="M131.912 150.597H136.464C134.47 150.597 132.558 151.389 131.147 152.799C129.737 154.21 128.945 156.122 128.945 158.116V306.714C128.945 308.708 129.737 310.621 131.147 312.031C132.558 313.441 134.47 314.233 136.464 314.233H131.912C129.917 314.233 128.005 313.441 126.595 312.031C125.185 310.621 124.393 308.708 124.393 306.714V158.116C124.393 156.122 125.185 154.21 126.595 152.799C128.005 151.389 129.917 150.597 131.912 150.597Z" fill="#263238"/>
<g opacity="0.2">
<path d="M131.912 150.597H136.464C134.47 150.597 132.558 151.389 131.147 152.799C129.737 154.21 128.945 156.122 128.945 158.116V306.714C128.945 308.708 129.737 310.621 131.147 312.031C132.558 313.441 134.47 314.233 136.464 314.233H131.912C129.917 314.233 128.005 313.441 126.595 312.031C125.185 310.621 124.393 308.708 124.393 306.714V158.116C124.393 156.122 125.185 154.21 126.595 152.799C128.005 151.389 129.917 150.597 131.912 150.597Z" fill="white"/>
</g>
<path opacity="0.5" d="M347.295 233.348C342 232.318 333.616 235.748 332.051 240.898C332.227 239.325 331.947 237.735 331.243 236.318C330.54 234.901 329.444 233.716 328.085 232.905C325.356 231.329 321.782 230.217 319.268 232.112C320.46 227.05 320.218 221.756 318.569 216.824C316.921 211.892 313.932 207.517 309.937 204.189C301.882 197.669 290.13 196.979 280.829 201.521C282.173 198.938 282.935 196.093 283.063 193.184C283.19 190.275 282.68 187.374 281.566 184.683C280.453 181.993 278.765 179.579 276.62 177.61C274.475 175.642 271.924 174.167 269.149 173.289C256.212 168.783 242.377 167.472 228.824 169.467C220.986 170.621 212.993 173.072 207.297 178.572C201.601 184.073 200.087 194.022 203.919 200.954C199.497 199.526 194.769 199.337 190.248 200.406C185.727 201.476 181.585 203.763 178.272 207.021C175.078 210.357 172.865 214.51 171.879 219.022C170.892 223.534 171.169 228.231 172.679 232.596C171.464 231.875 170.087 231.468 168.675 231.414C167.263 231.36 165.86 231.66 164.593 232.287C163.346 232.92 162.28 233.86 161.496 235.018C160.712 236.177 160.236 237.516 160.113 238.91C158.466 236.736 156.321 234.99 153.858 233.818C151.396 232.646 148.688 232.083 145.962 232.176C143.237 232.268 140.573 233.015 138.196 234.351C135.819 235.688 133.798 237.577 132.303 239.857V286.104H346.079L347.295 233.348Z" fill="white"/>
<path d="M299.658 213.046H189.53C183.927 213.046 179.385 217.589 179.385 223.192C179.385 228.795 183.927 233.337 189.53 233.337H299.658C305.261 233.337 309.803 228.795 309.803 223.192C309.803 217.589 305.261 213.046 299.658 213.046Z" fill="white"/>
<path d="M188.903 227.075C187.717 227.075 186.558 226.723 185.572 226.064C184.587 225.406 183.818 224.469 183.365 223.374C182.911 222.279 182.792 221.073 183.023 219.911C183.255 218.748 183.826 217.68 184.664 216.841C185.502 216.003 186.57 215.432 187.733 215.201C188.896 214.969 190.101 215.088 191.197 215.542C192.292 215.995 193.228 216.764 193.887 217.75C194.546 218.735 194.897 219.894 194.897 221.08C194.895 222.669 194.262 224.192 193.139 225.316C192.015 226.439 190.492 227.072 188.903 227.075ZM188.903 218.175C188.328 218.175 187.767 218.346 187.289 218.665C186.811 218.984 186.439 219.438 186.219 219.969C185.999 220.499 185.942 221.083 186.054 221.647C186.166 222.21 186.443 222.728 186.849 223.134C187.255 223.54 187.773 223.817 188.336 223.929C188.9 224.041 189.484 223.983 190.014 223.764C190.545 223.544 190.999 223.171 191.318 222.694C191.637 222.216 191.807 221.655 191.807 221.08C191.805 220.311 191.498 219.573 190.954 219.029C190.41 218.485 189.672 218.178 188.903 218.175Z" fill="#263238"/>
<path d="M193.05 223.211L190.863 225.394L197.959 232.5L200.146 230.317L193.05 223.211Z" fill="#263238"/>
<g opacity="0.1">
<path d="M276.521 155.14H284.411L300.799 286.104H292.898L276.521 155.14Z" fill="white"/>
<path d="M308.781 286.104L292.404 155.14H322.079L338.456 286.104H308.781Z" fill="white"/>
</g>
<path opacity="0.2" d="M199.686 358.781L199.5 360.954C199.47 361.226 199.497 361.502 199.582 361.763C199.666 362.023 199.805 362.263 199.989 362.466C200.173 362.669 200.399 362.83 200.65 362.939C200.901 363.047 201.173 363.101 201.447 363.096H271.724C272.283 363.086 272.819 362.871 273.229 362.491C273.64 362.111 273.896 361.593 273.949 361.036L274.145 358.76C274.177 358.498 274.153 358.233 274.074 357.981C273.994 357.73 273.862 357.498 273.685 357.303C273.508 357.107 273.291 356.952 273.048 356.848C272.806 356.744 272.544 356.694 272.28 356.7H251.176C250.912 356.701 250.649 356.67 250.393 356.607H201.983C201.401 356.628 200.846 356.86 200.423 357.26C200.001 357.66 199.738 358.201 199.686 358.781Z" fill="white"/>
<path opacity="0.2" d="M185.4 356.639H250.393C249.563 356.47 248.823 356 248.318 355.319C247.812 354.639 247.576 353.795 247.654 352.951H187.46L185.4 356.639Z" fill="black"/>
<path d="M218.637 200.872L220.058 197.709C221.818 198.926 223.903 199.587 226.042 199.605C228.525 199.605 229.534 198.77 229.534 197.658C229.534 194.269 218.997 196.628 218.997 189.871C218.997 186.781 221.48 184.227 226.63 184.227C228.834 184.181 231.01 184.736 232.923 185.834L231.625 189.016C230.101 188.114 228.369 187.624 226.599 187.595C224.116 187.595 223.158 188.522 223.158 189.655C223.158 192.992 233.695 190.685 233.695 197.339C233.695 200.367 231.182 202.962 226.001 202.962C223.391 203.028 220.823 202.298 218.637 200.872Z" fill="#263238"/>
<path d="M250.609 199.296V202.654H236.58V184.536H250.289V187.904H240.762V191.839H249.177V195.104H240.762V199.296H250.609Z" fill="#263238"/>
<path d="M252.762 193.6C252.762 188.213 256.954 184.227 262.67 184.227C268.387 184.227 272.589 188.193 272.589 193.6C272.589 199.008 268.366 202.973 262.67 202.973C256.974 202.973 252.762 198.987 252.762 193.6ZM268.346 193.6C268.313 192.486 267.954 191.406 267.312 190.495C266.669 189.584 265.773 188.883 264.735 188.478C263.697 188.073 262.562 187.982 261.473 188.218C260.384 188.453 259.388 189.004 258.61 189.802C257.832 190.6 257.306 191.609 257.097 192.704C256.889 193.799 257.008 194.931 257.439 195.959C257.869 196.987 258.593 197.865 259.52 198.484C260.447 199.103 261.535 199.436 262.65 199.44C263.417 199.464 264.18 199.329 264.892 199.042C265.603 198.755 266.247 198.323 266.783 197.774C267.319 197.224 267.734 196.57 268.003 195.851C268.272 195.133 268.389 194.366 268.346 193.6Z" fill="#263238"/>
<path opacity="0.8" d="M239.187 246.655H195.721C193.531 246.655 191.756 248.431 191.756 250.621V259.808C191.756 261.998 193.531 263.774 195.721 263.774H239.187C241.377 263.774 243.153 261.998 243.153 259.808V250.621C243.153 248.431 241.377 246.655 239.187 246.655Z" fill="white"/>
<path opacity="0.8" d="M302.223 246.655H258.757C256.566 246.655 254.791 248.431 254.791 250.621V259.808C254.791 261.998 256.566 263.774 258.757 263.774H302.223C304.413 263.774 306.188 261.998 306.188 259.808V250.621C306.188 248.431 304.413 246.655 302.223 246.655Z" fill="white"/>
<path d="M216.216 160.98L241.75 115.66C241.84 115.501 241.97 115.369 242.127 115.278C242.285 115.186 242.464 115.138 242.646 115.138C242.828 115.138 243.007 115.186 243.165 115.278C243.322 115.369 243.452 115.501 243.542 115.66L269.076 160.98C269.161 161.136 269.205 161.312 269.202 161.49C269.199 161.668 269.151 161.843 269.06 161.996C268.97 162.15 268.841 162.277 268.687 162.366C268.533 162.455 268.358 162.503 268.18 162.504H217.123C216.944 162.505 216.768 162.459 216.612 162.37C216.456 162.282 216.326 162.155 216.235 162.001C216.143 161.847 216.093 161.672 216.09 161.493C216.087 161.314 216.13 161.137 216.216 160.98Z" fill="#3391FF"/>
<path opacity="0.3" d="M216.216 160.98L241.75 115.66C241.84 115.501 241.97 115.369 242.127 115.278C242.285 115.186 242.464 115.138 242.646 115.138C242.828 115.138 243.007 115.186 243.165 115.278C243.322 115.369 243.452 115.501 243.542 115.66L269.076 160.98C269.161 161.136 269.205 161.312 269.202 161.49C269.199 161.668 269.151 161.843 269.06 161.996C268.97 162.15 268.841 162.277 268.687 162.366C268.533 162.455 268.358 162.503 268.18 162.504H217.123C216.944 162.505 216.768 162.459 216.612 162.37C216.456 162.282 216.326 162.155 216.235 162.001C216.143 161.847 216.093 161.672 216.09 161.493C216.087 161.314 216.13 161.137 216.216 160.98Z" fill="black"/>
<path d="M230.513 169.292L229.267 164.204H224.797L223.561 169.292C225.786 170.214 228.287 170.214 230.513 169.292Z" fill="#263238"/>
<path opacity="0.2" d="M224.796 164.204L224.508 165.388C226.155 165.872 227.907 165.872 229.555 165.388L229.266 164.204H224.796Z" fill="white"/>
<path opacity="0.4" d="M224.2 166.666C224.117 166.995 224.035 167.314 223.963 167.623C225.974 168.256 228.131 168.256 230.143 167.623L229.916 166.666C228.03 167.047 226.086 167.047 224.2 166.666Z" fill="white"/>
<path d="M231.749 163.843C228.728 165.091 225.336 165.091 222.314 163.843V126.042C222.311 123.926 222.727 121.83 223.536 119.875C224.346 117.92 225.534 116.145 227.032 114.65C228.53 116.145 229.718 117.92 230.528 119.875C231.337 121.83 231.752 123.926 231.749 126.042V163.843Z" fill="#3391FF"/>
<path d="M222.314 126.042V161.67C225.369 162.736 228.695 162.736 231.749 161.67V126.042C231.752 123.926 231.337 121.83 230.528 119.875C229.718 117.92 228.53 116.145 227.032 114.65C225.534 116.145 224.346 117.92 223.536 119.875C222.727 121.83 222.311 123.926 222.314 126.042Z" fill="#3391FF"/>
<path opacity="0.4" d="M222.314 126.042V161.67C225.369 162.736 228.695 162.736 231.749 161.67V126.042C231.752 123.926 231.337 121.83 230.528 119.875C229.718 117.92 228.53 116.145 227.032 114.65C225.534 116.145 224.346 117.92 223.536 119.875C222.727 121.83 222.311 123.926 222.314 126.042Z" fill="white"/>
<path d="M222.314 126.042V152.822C225.398 153.703 228.666 153.703 231.749 152.822V126.042C231.752 123.926 231.337 121.83 230.528 119.875C229.718 117.92 228.53 116.145 227.032 114.65C225.534 116.145 224.346 117.92 223.536 119.875C222.727 121.83 222.311 123.926 222.314 126.042Z" fill="#3391FF"/>
<path opacity="0.6" d="M222.314 126.042V152.822C225.398 153.703 228.666 153.703 231.749 152.822V126.042C231.752 123.926 231.337 121.83 230.528 119.875C229.718 117.92 228.53 116.145 227.032 114.65C225.534 116.145 224.346 117.92 223.536 119.875C222.727 121.83 222.311 123.926 222.314 126.042Z" fill="white"/>
<path d="M222.314 126.042V140.05C225.397 140.936 228.667 140.936 231.749 140.05V126.042C231.752 123.926 231.337 121.83 230.528 119.875C229.718 117.92 228.53 116.145 227.032 114.65C225.534 116.145 224.346 117.92 223.536 119.875C222.727 121.83 222.311 123.926 222.314 126.042Z" fill="#3391FF"/>
<path opacity="0.8" d="M222.314 126.042V140.05C225.397 140.936 228.667 140.936 231.749 140.05V126.042C231.752 123.926 231.337 121.83 230.528 119.875C229.718 117.92 228.53 116.145 227.032 114.65C225.534 116.145 224.346 117.92 223.536 119.875C222.727 121.83 222.311 123.926 222.314 126.042Z" fill="white"/>
<path d="M222.314 126.042V127.68C225.398 128.561 228.666 128.561 231.749 127.68V126.042C231.752 123.926 231.337 121.83 230.528 119.875C229.718 117.92 228.53 116.145 227.032 114.65C225.534 116.145 224.346 117.92 223.536 119.875C222.727 121.83 222.311 123.926 222.314 126.042Z" fill="#3391FF"/>
<path opacity="0.4" d="M222.314 126.042V127.68C225.398 128.561 228.666 128.561 231.749 127.68V126.042C231.752 123.926 231.337 121.83 230.528 119.875C229.718 117.92 228.53 116.145 227.032 114.65C225.534 116.145 224.346 117.92 223.536 119.875C222.727 121.83 222.311 123.926 222.314 126.042Z" fill="white"/>
<path d="M260.869 169.292L259.633 164.204H255.162L253.916 169.292C256.142 170.214 258.643 170.214 260.869 169.292Z" fill="#263238"/>
<path opacity="0.2" d="M255.161 164.204L254.873 165.388C256.521 165.872 258.273 165.872 259.92 165.388L259.632 164.204H255.161Z" fill="white"/>
<path opacity="0.4" d="M254.555 166.666C254.483 166.995 254.4 167.314 254.328 167.623C256.34 168.256 258.497 168.256 260.508 167.623L260.271 166.666C258.385 167.047 256.441 167.047 254.555 166.666Z" fill="white"/>
<path d="M262.114 163.843C259.093 165.091 255.701 165.091 252.68 163.843V126.042C252.677 123.926 253.092 121.83 253.901 119.875C254.711 117.92 255.899 116.145 257.397 114.65C258.895 116.145 260.083 117.92 260.893 119.875C261.702 121.83 262.118 123.926 262.114 126.042V163.843Z" fill="#3391FF"/>
<path d="M252.68 126.042V161.67C255.734 162.736 259.06 162.736 262.114 161.67V126.042C262.118 123.926 261.702 121.83 260.893 119.875C260.083 117.92 258.895 116.145 257.397 114.65C255.899 116.145 254.711 117.92 253.901 119.875C253.092 121.83 252.677 123.926 252.68 126.042Z" fill="#3391FF"/>
<path opacity="0.4" d="M252.68 126.042V161.67C255.734 162.736 259.06 162.736 262.114 161.67V126.042C262.118 123.926 261.702 121.83 260.893 119.875C260.083 117.92 258.895 116.145 257.397 114.65C255.899 116.145 254.711 117.92 253.901 119.875C253.092 121.83 252.677 123.926 252.68 126.042Z" fill="white"/>
<path d="M252.68 126.042V152.822C255.763 153.703 259.031 153.703 262.114 152.822V126.042C262.118 123.926 261.702 121.83 260.893 119.875C260.083 117.92 258.895 116.145 257.397 114.65C255.899 116.145 254.711 117.92 253.901 119.875C253.092 121.83 252.677 123.926 252.68 126.042Z" fill="#3391FF"/>
<path opacity="0.6" d="M252.68 126.042V152.822C255.763 153.703 259.031 153.703 262.114 152.822V126.042C262.118 123.926 261.702 121.83 260.893 119.875C260.083 117.92 258.895 116.145 257.397 114.65C255.899 116.145 254.711 117.92 253.901 119.875C253.092 121.83 252.677 123.926 252.68 126.042Z" fill="white"/>
<path d="M252.68 126.042V140.05C255.762 140.936 259.032 140.936 262.114 140.05V126.042C262.118 123.926 261.702 121.83 260.893 119.875C260.083 117.92 258.895 116.145 257.397 114.65C255.899 116.145 254.711 117.92 253.901 119.875C253.092 121.83 252.677 123.926 252.68 126.042Z" fill="#3391FF"/>
<path opacity="0.8" d="M252.68 126.042V140.05C255.762 140.936 259.032 140.936 262.114 140.05V126.042C262.118 123.926 261.702 121.83 260.893 119.875C260.083 117.92 258.895 116.145 257.397 114.65C255.899 116.145 254.711 117.92 253.901 119.875C253.092 121.83 252.677 123.926 252.68 126.042Z" fill="white"/>
<path d="M252.68 126.042V127.68C255.763 128.561 259.031 128.561 262.114 127.68V126.042C262.118 123.926 261.702 121.83 260.893 119.875C260.083 117.92 258.895 116.145 257.397 114.65C255.899 116.145 254.711 117.92 253.901 119.875C253.092 121.83 252.677 123.926 252.68 126.042Z" fill="#3391FF"/>
<path opacity="0.4" d="M252.68 126.042V127.68C255.763 128.561 259.031 128.561 262.114 127.68V126.042C262.118 123.926 261.702 121.83 260.893 119.875C260.083 117.92 258.895 116.145 257.397 114.65C255.899 116.145 254.711 117.92 253.901 119.875C253.092 121.83 252.677 123.926 252.68 126.042Z" fill="white"/>
<path d="M247.829 172.207L245.769 163.967H238.559L236.551 172.207C238.336 172.956 240.254 173.342 242.19 173.342C244.127 173.342 246.044 172.956 247.829 172.207Z" fill="#263238"/>
<path opacity="0.2" d="M238.609 163.998C238.609 163.998 238.31 165.234 238.135 165.913C240.798 166.691 243.629 166.691 246.292 165.913L245.819 163.987L238.609 163.998Z" fill="white"/>
<path opacity="0.4" d="M237.631 167.984L237.26 169.529C240.487 170.528 243.941 170.528 247.168 169.529L246.798 167.984C243.771 168.581 240.657 168.581 237.631 167.984Z" fill="white"/>
<path d="M249.836 163.39C247.421 164.397 244.83 164.916 242.214 164.916C239.597 164.916 237.007 164.397 234.592 163.39V102.393C234.589 98.9777 235.26 95.5952 236.568 92.44C237.876 89.2848 239.795 86.4192 242.214 84.0078C244.633 86.4192 246.551 89.2848 247.859 92.44C249.167 95.5952 249.839 98.9777 249.836 102.393V163.39Z" fill="#3391FF"/>
<path d="M234.592 102.393V159.919C239.529 161.629 244.898 161.629 249.836 159.919V102.393C249.839 98.9777 249.167 95.5952 247.859 92.44C246.551 89.2848 244.633 86.4192 242.214 84.0078C239.795 86.4192 237.876 89.2848 236.568 92.44C235.26 95.5952 234.589 98.9777 234.592 102.393Z" fill="#3391FF"/>
<path opacity="0.4" d="M234.592 102.393V159.919C239.529 161.629 244.898 161.629 249.836 159.919V102.393C249.839 98.9777 249.167 95.5952 247.859 92.44C246.551 89.2848 244.633 86.4192 242.214 84.0078C239.795 86.4192 237.876 89.2848 236.568 92.44C235.26 95.5952 234.589 98.9777 234.592 102.393Z" fill="white"/>
<path d="M234.592 102.393V145.592C239.574 147.011 244.854 147.011 249.836 145.592V102.393C249.839 98.9777 249.167 95.5952 247.859 92.44C246.551 89.2848 244.633 86.4192 242.214 84.0078C239.795 86.4192 237.876 89.2848 236.568 92.44C235.26 95.5952 234.589 98.9777 234.592 102.393Z" fill="#3391FF"/>
<path opacity="0.6" d="M234.592 102.393V145.592C239.574 147.011 244.854 147.011 249.836 145.592V102.393C249.839 98.9777 249.167 95.5952 247.859 92.44C246.551 89.2848 244.633 86.4192 242.214 84.0078C239.795 86.4192 237.876 89.2848 236.568 92.44C235.26 95.5952 234.589 98.9777 234.592 102.393Z" fill="white"/>
<path d="M234.592 102.393V125.053C239.574 126.473 244.854 126.473 249.836 125.053V102.393C249.839 98.9777 249.167 95.5952 247.859 92.44C246.551 89.2848 244.633 86.4192 242.214 84.0078C239.795 86.4192 237.876 89.2848 236.568 92.44C235.26 95.5952 234.589 98.9777 234.592 102.393Z" fill="#3391FF"/>
<path opacity="0.8" d="M234.592 102.393V125.053C239.574 126.473 244.854 126.473 249.836 125.053V102.393C249.839 98.9777 249.167 95.5952 247.859 92.44C246.551 89.2848 244.633 86.4192 242.214 84.0078C239.795 86.4192 237.876 89.2848 236.568 92.44C235.26 95.5952 234.589 98.9777 234.592 102.393Z" fill="white"/>
<path d="M234.592 102.393V105.04C239.574 106.46 244.854 106.46 249.836 105.04V102.393C249.839 98.9777 249.167 95.5952 247.859 92.44C246.551 89.2848 244.633 86.4192 242.214 84.0078C239.795 86.4192 237.876 89.2848 236.568 92.44C235.26 95.5952 234.589 98.9777 234.592 102.393Z" fill="#3391FF"/>
<path opacity="0.1" d="M234.592 102.393V105.04C239.574 106.46 244.854 106.46 249.836 105.04V102.393C249.839 98.9777 249.167 95.5952 247.859 92.44C246.551 89.2848 244.633 86.4192 242.214 84.0078C239.795 86.4192 237.876 89.2848 236.568 92.44C235.26 95.5952 234.589 98.9777 234.592 102.393Z" fill="white"/>
<path d="M246.654 114.599C246.656 115.477 246.397 116.337 245.911 117.068C245.424 117.799 244.732 118.37 243.921 118.708C243.11 119.045 242.217 119.135 241.355 118.964C240.493 118.794 239.701 118.372 239.079 117.752C238.457 117.131 238.034 116.341 237.861 115.479C237.689 114.618 237.777 113.725 238.112 112.913C238.448 112.101 239.017 111.407 239.747 110.919C240.478 110.431 241.336 110.17 242.215 110.17C243.39 110.17 244.518 110.636 245.35 111.467C246.182 112.297 246.651 113.423 246.654 114.599Z" fill="#3391FF"/>
<path d="M242.214 119.038C241.092 119.041 240.011 118.616 239.19 117.851C238.37 117.086 237.871 116.037 237.795 114.918C237.795 115.031 237.795 115.145 237.795 115.248C237.795 116.425 238.263 117.554 239.095 118.387C239.928 119.219 241.057 119.687 242.234 119.687C243.412 119.687 244.541 119.219 245.373 118.387C246.206 117.554 246.674 116.425 246.674 115.248C246.674 115.145 246.674 115.031 246.674 114.918C246.595 116.044 246.09 117.097 245.261 117.862C244.432 118.628 243.342 119.049 242.214 119.038Z" fill="#3391FF"/>
<path opacity="0.3" d="M242.214 119.038C241.092 119.041 240.011 118.616 239.19 117.851C238.37 117.086 237.871 116.037 237.795 114.918C237.795 115.031 237.795 115.145 237.795 115.248C237.795 116.425 238.263 117.554 239.095 118.387C239.928 119.219 241.057 119.687 242.234 119.687C243.412 119.687 244.541 119.219 245.373 118.387C246.206 117.554 246.674 116.425 246.674 115.248C246.674 115.145 246.674 115.031 246.674 114.918C246.595 116.044 246.09 117.097 245.261 117.862C244.432 118.628 243.342 119.049 242.214 119.038Z" fill="black"/>
<path d="M242.214 117.74C243.949 117.74 245.355 116.334 245.355 114.599C245.355 112.864 243.949 111.457 242.214 111.457C240.479 111.457 239.072 112.864 239.072 114.599C239.072 116.334 240.479 117.74 242.214 117.74Z" fill="white"/>
<path d="M242.05 117.72L243.337 111.684C243.009 111.555 242.66 111.485 242.307 111.478L241.02 117.504C241.347 117.637 241.696 117.71 242.05 117.72Z" fill="#3391FF"/>
<path d="M243.225 117.565L244.338 112.302C244.194 112.171 244.039 112.054 243.874 111.952L242.648 117.699C242.844 117.67 243.037 117.626 243.225 117.565Z" fill="#3391FF"/>
<g opacity="0.7">
<path d="M242.05 117.72L243.337 111.684C243.009 111.555 242.66 111.485 242.307 111.478L241.02 117.504C241.347 117.637 241.696 117.71 242.05 117.72Z" fill="white"/>
<path d="M243.223 117.565L244.336 112.302C244.193 112.171 244.037 112.054 243.872 111.952L242.646 117.699C242.842 117.67 243.035 117.626 243.223 117.565Z" fill="white"/>
</g>
<path d="M355.937 233.698L354.753 233.955C354.222 234.062 353.739 234.332 353.369 234.727C353 235.123 352.763 235.623 352.693 236.16L352.59 236.994C352.536 237.41 352.585 237.833 352.732 238.227C352.879 238.62 353.12 238.971 353.434 239.25C355.381 240.949 359.975 244.101 365.537 242.072L369.976 238.724L369.245 232.73L359.975 231.391C359.414 231.411 358.875 231.614 358.44 231.967L355.937 233.698Z" fill="#FAB27B"/>
<path d="M370.007 238.724L382.336 238.106L380.43 231.401L369.275 232.73L370.007 238.724Z" fill="#FAB27B"/>
<path d="M377.351 231.452C376.846 232.398 376.672 233.486 376.857 234.542C377.081 236.253 377.768 237.87 378.845 239.219C376.767 239.25 374.724 239.753 372.871 240.692L372.768 240.743C366.341 236.355 370.049 231.154 370.049 231.154L370.471 231.216C372.75 231.531 375.056 231.61 377.351 231.452Z" fill="#3391FF"/>
<path d="M402.596 236.984C391.142 239.62 376.897 239.363 376.897 239.363C376.428 238.571 376.216 237.654 376.29 236.736C376.393 234.82 376.65 232.421 377.32 231.452C377.989 230.484 382.944 229.969 382.944 229.969C382.944 229.969 392.512 225.53 394.325 224.078C396.138 222.625 396.066 215.838 395.726 211.378C393.903 187.41 398.115 185.628 401.906 184.526C409.94 182.291 412.731 234.645 402.596 236.984Z" fill="#3391FF"/>
<path d="M324.121 242.123H356.133C357.163 242.123 357.647 241.278 357.163 240.238L349.17 222.182C348.921 221.656 348.537 221.205 348.058 220.874C347.579 220.543 347.021 220.344 346.441 220.297H314.418C313.388 220.297 312.904 221.142 313.388 222.182L321.422 240.238C321.668 240.761 322.047 241.21 322.52 241.54C322.993 241.871 323.545 242.072 324.121 242.123Z" fill="#3391FF"/>
<path opacity="0.2" d="M324.121 242.123H356.133C357.163 242.123 357.647 241.278 357.163 240.238L349.17 222.182C348.921 221.656 348.537 221.205 348.058 220.874C347.579 220.543 347.021 220.344 346.441 220.297H314.418C313.388 220.297 312.904 221.142 313.388 222.182L321.422 240.238C321.668 240.761 322.047 241.21 322.52 241.54C322.993 241.871 323.545 242.072 324.121 242.123Z" fill="black"/>
<path d="M313.026 220.297H314.417C313.387 220.297 312.903 221.142 313.387 222.182L321.421 240.238C321.669 240.763 322.05 241.214 322.528 241.545C323.005 241.876 323.561 242.075 324.14 242.123H322.76C322.179 242.076 321.622 241.877 321.143 241.546C320.663 241.215 320.28 240.764 320.03 240.238L312.007 222.182C311.523 221.142 311.986 220.297 313.026 220.297Z" fill="#3391FF"/>
<path opacity="0.4" d="M313.026 220.297H314.417C313.387 220.297 312.903 221.142 313.387 222.182L321.421 240.238C321.669 240.763 322.05 241.214 322.528 241.545C323.005 241.876 323.561 242.075 324.14 242.123H322.76C322.179 242.076 321.622 241.877 321.143 241.546C320.663 241.215 320.28 240.764 320.03 240.238L312.007 222.182C311.523 221.142 311.986 220.297 313.026 220.297Z" fill="black"/>
<path d="M324.716 240.053H353.69L345.831 222.368H316.857L324.716 240.053Z" fill="#263238"/>
<path opacity="0.8" d="M324.716 240.053H353.69L345.831 222.368H316.857L324.716 240.053Z" fill="white"/>
<path d="M420.054 240.712C420.054 240.712 420.847 251.28 420.96 254.988C421.732 279.76 401.514 281.645 386.64 278.915L332.771 263.856C330.639 271.015 305.734 310.433 305.734 310.433L292.643 302.914C292.643 302.914 306.218 270.376 314.983 247.727C319.979 234.8 360.695 243.741 375.691 246.408C380.244 247.634 379.369 240.517 379.369 240.517L420.054 240.712Z" fill="#263238"/>
<path d="M302.398 309.691L297.392 318.024L288.07 313.389L292.922 303.902L302.398 309.691Z" fill="#FAB27B"/>
<path d="M283.105 311.71C281.879 311.143 280.705 310.34 280.54 309.65C280.511 309.45 280.541 309.245 280.627 309.062C280.713 308.879 280.851 308.725 281.024 308.62C281.174 308.518 281.342 308.448 281.518 308.412C281.695 308.377 281.878 308.377 282.054 308.414C283.919 308.712 286.473 312.266 286.576 312.42C286.609 312.463 286.626 312.516 286.626 312.57C286.626 312.624 286.609 312.676 286.576 312.719C286.543 312.76 286.5 312.791 286.451 312.809C286.402 312.827 286.349 312.832 286.298 312.822C285.203 312.546 284.134 312.174 283.105 311.71ZM282.415 309.063C282.266 308.99 282.106 308.941 281.941 308.918C281.838 308.89 281.729 308.886 281.624 308.906C281.519 308.925 281.42 308.968 281.333 309.032C281.024 309.248 281.014 309.413 281.045 309.526C281.21 310.381 283.702 311.535 285.649 312.153C284.78 310.915 283.682 309.856 282.415 309.032V309.063Z" fill="#3391FF"/>
<path d="M286.227 312.74C286.197 312.752 286.164 312.752 286.134 312.74C285.197 311.71 283.796 308.445 284.517 307.425C284.662 307.167 285.012 306.931 285.691 307.167C285.939 307.254 286.165 307.39 286.358 307.567C286.551 307.744 286.706 307.959 286.814 308.197C287.597 309.815 286.639 312.606 286.598 312.729C286.583 312.774 286.555 312.812 286.519 312.842C286.482 312.871 286.438 312.889 286.392 312.894C286.354 312.883 286.32 312.863 286.292 312.836C286.263 312.809 286.241 312.776 286.227 312.74ZM285.64 307.59L285.516 307.518C285.074 307.353 284.97 307.518 284.929 307.569C284.558 308.208 285.352 310.597 286.248 311.885C286.642 310.709 286.667 309.44 286.32 308.249C286.182 307.953 285.94 307.719 285.64 307.59Z" fill="#3391FF"/>
<path d="M287.905 311.864L298.7 316.798C298.891 316.886 299.049 317.034 299.147 317.221C299.246 317.407 299.281 317.62 299.246 317.828L297.186 327.51C297.144 327.716 297.062 327.911 296.944 328.084C296.827 328.258 296.676 328.406 296.501 328.521C296.326 328.636 296.129 328.715 295.923 328.754C295.717 328.792 295.506 328.79 295.301 328.746C295.19 328.726 295.083 328.691 294.981 328.643C291.119 326.799 287.771 324.997 282.9 322.793C277.183 320.177 278.316 321.526 271.57 318.539C267.45 316.736 268.861 311.792 270.673 312.359C278.996 314.975 280.901 312.967 285.227 311.545C286.129 311.313 287.084 311.427 287.905 311.864Z" fill="#263238"/>
<path opacity="0.2" d="M299.853 313.924L302.397 309.691L292.921 303.902L290.572 308.486L299.853 313.924Z" fill="black"/>
<path d="M307.816 309.65L291.583 299.525C290.845 299.937 290.251 300.566 289.883 301.327C289.514 302.088 289.389 302.944 289.523 303.779L305.138 313.77C305.138 313.77 307.229 313.636 307.816 309.65Z" fill="#3391FF"/>
<path d="M330.023 351.149L328.056 360.388L318.023 359.069L319.486 348.811L330.023 351.149Z" fill="#FAB27B"/>
<path d="M312.923 359.09C311.615 358.956 310.286 358.585 309.905 357.978C309.822 357.813 309.789 357.627 309.811 357.444C309.833 357.261 309.909 357.088 310.029 356.948C310.235 356.677 310.537 356.496 310.873 356.443C312.676 356.134 316.147 358.585 316.301 358.699C316.342 358.728 316.373 358.77 316.39 358.818C316.406 358.866 316.408 358.918 316.394 358.966C316.378 359.016 316.349 359.06 316.308 359.093C316.268 359.126 316.219 359.146 316.167 359.152C315.086 359.224 314.001 359.203 312.923 359.09ZM311.45 356.876C311.29 356.85 311.126 356.85 310.966 356.876C310.862 356.884 310.761 356.915 310.67 356.966C310.579 357.018 310.501 357.089 310.441 357.174C310.224 357.473 310.276 357.627 310.338 357.72C310.76 358.451 313.428 358.75 315.395 358.678C314.207 357.827 312.868 357.208 311.45 356.855V356.876Z" fill="#3391FF"/>
<path d="M316.137 359.09C316.104 359.101 316.068 359.101 316.034 359.09C314.829 358.4 312.522 355.876 312.862 354.712C312.913 354.424 313.161 354.105 313.892 354.105C314.141 354.101 314.389 354.148 314.619 354.244C314.849 354.34 315.058 354.482 315.231 354.661C316.467 355.897 316.467 358.781 316.467 358.894C316.467 358.939 316.455 358.984 316.431 359.022C316.408 359.06 316.374 359.091 316.333 359.11C316.302 359.126 316.267 359.132 316.232 359.128C316.198 359.125 316.165 359.111 316.137 359.09ZM313.974 354.578H313.84C313.387 354.578 313.336 354.754 313.315 354.815C313.181 355.526 314.664 357.473 315.89 358.369C315.884 357.165 315.506 355.992 314.809 355.011C314.587 354.782 314.291 354.64 313.974 354.609V354.578Z" fill="#3391FF"/>
<path d="M317.394 357.71L328.878 358.843C329.09 358.862 329.288 358.954 329.439 359.102C329.591 359.25 329.688 359.446 329.713 359.656L330.877 369.204C330.926 369.611 330.814 370.021 330.563 370.345C330.312 370.669 329.944 370.881 329.538 370.935C329.428 370.945 329.318 370.945 329.208 370.935C325.088 370.451 321.411 369.905 316.261 369.369C310.174 368.772 311.647 369.647 304.478 369.05C300.162 368.679 299.853 363.704 301.707 363.642C310.174 363.416 311.296 360.975 314.809 358.297C315.571 357.794 316.489 357.585 317.394 357.71Z" fill="#263238"/>
<path opacity="0.2" d="M318.713 354.208L329.198 355.021L330.022 351.149L319.485 348.811L318.713 354.208Z" fill="black"/>
<path d="M332.999 347.492L332.7 348.656L317.322 347.441L317.487 346.277L332.999 347.492Z" fill="#263238"/>
<path d="M333.627 352.313L329.836 351.973L319.166 351.015L315.725 350.706C315.236 350.048 314.96 349.257 314.932 348.438C314.904 347.619 315.127 346.812 315.571 346.123L317.487 346.277L332.998 347.492L334.111 347.585C335.398 351.283 333.627 352.313 333.627 352.313Z" fill="#3391FF"/>
<path d="M396.067 288.102C382.152 289.328 350.057 289.843 345.71 289.205L333 347.492L317.488 346.277C317.488 346.277 319.126 295.879 325.965 275.042C331.465 258.294 419.448 261.765 419.448 261.765L419.757 266.483C420.365 282.736 412.001 286.691 396.067 288.102Z" fill="#263238"/>
<path opacity="0.1" d="M396.067 288.102C382.152 289.328 350.057 289.843 345.71 289.205L333 347.492L317.488 346.277C317.488 346.277 319.126 295.879 325.965 275.042C331.465 258.294 419.448 261.765 419.448 261.765L419.757 266.483C420.365 282.736 412.001 286.691 396.067 288.102Z" fill="black"/>
<path d="M325.717 281.129C325.712 281.036 325.712 280.944 325.717 280.851V281.129Z" fill="#263238"/>
<path d="M326.756 273.6L326.602 274.743C326.631 274.36 326.683 273.978 326.756 273.6Z" fill="#263238"/>
<path d="M376.01 182.538L380.284 188.78L389.894 180.56L383.889 173.186L376.01 182.538Z" fill="#FAB27B"/>
<path opacity="0.2" d="M378.155 185.494C380.009 182.764 379.185 178.531 379.185 178.531L377.496 180.683L376.033 182.537L378.155 185.494Z" fill="black"/>
<path d="M359.573 168.787C359.779 169.395 360.273 169.817 360.675 169.632C361.076 169.447 361.252 168.839 361.035 168.252C360.819 167.665 360.345 167.222 359.933 167.418C359.521 167.613 359.377 168.18 359.573 168.787Z" fill="#263238"/>
<path d="M361.797 168.973L360.438 174.802C361.125 174.946 361.837 174.927 362.516 174.749C363.195 174.57 363.824 174.236 364.351 173.772L361.797 168.973Z" fill="#ED893E"/>
<path d="M358.964 164.533C359.013 164.508 359.068 164.495 359.124 164.495C359.179 164.495 359.234 164.508 359.283 164.533C359.673 164.697 360.095 164.765 360.516 164.733C360.937 164.701 361.344 164.569 361.704 164.348C361.738 164.321 361.778 164.301 361.821 164.289C361.863 164.278 361.908 164.276 361.951 164.283C361.995 164.289 362.037 164.305 362.074 164.329C362.111 164.352 362.143 164.383 362.167 164.42C362.217 164.495 362.236 164.585 362.22 164.673C362.205 164.761 362.157 164.84 362.085 164.894C361.634 165.195 361.115 165.378 360.575 165.426C360.036 165.475 359.492 165.387 358.995 165.172C358.953 165.156 358.914 165.132 358.882 165.101C358.849 165.07 358.823 165.033 358.804 164.991C358.786 164.95 358.776 164.906 358.775 164.861C358.775 164.816 358.783 164.771 358.799 164.729C358.834 164.649 358.891 164.581 358.964 164.533Z" fill="#263238"/>
<path d="M382.407 158.24C385.497 166.202 387.032 169.508 384.91 175.389C380.739 182.342 371.129 186.565 365.649 179.746C360.726 173.566 356.451 161.649 362.693 154.82C364.777 152.481 367.702 151.06 370.829 150.867C373.957 150.674 377.033 151.725 379.389 153.79C380.738 155.01 381.773 156.536 382.407 158.24Z" fill="#FAB27B"/>
<path d="M389.948 160.609C389.513 163.281 389.248 165.979 389.155 168.684C389.081 171.181 388.264 173.6 386.809 175.631C385.355 177.662 383.327 179.213 380.987 180.086C380.987 180.086 369.76 179.952 364.991 165.831C363.672 165.956 362.342 165.754 361.119 165.243C359.896 164.732 358.818 163.929 357.979 162.903C357.141 161.877 356.567 160.66 356.31 159.36C356.053 158.06 356.119 156.717 356.504 155.449C357.42 152.441 361.221 150.567 364.363 150.453C365.392 149.116 366.735 148.052 368.272 147.355C369.81 146.658 371.495 146.35 373.179 146.457C376.577 146.732 379.859 147.82 382.748 149.629C385.356 150.934 387.563 152.92 389.134 155.377C389.974 156.984 390.26 158.823 389.948 160.609Z" fill="#263238"/>
<path d="M367.327 167.51C366.971 168.306 366.777 169.165 366.756 170.036C366.735 170.908 366.887 171.775 367.204 172.588C368.069 174.74 370.376 174.38 371.705 172.588C372.91 170.95 373.888 167.881 372.261 166.294C370.634 164.708 368.223 165.553 367.327 167.51Z" fill="#FAB27B"/>
<path d="M389.979 175.915C386.889 176.049 382.326 178.14 376.228 182.342C375.91 182.619 375.667 182.972 375.522 183.368C375.378 183.765 375.338 184.192 375.404 184.608C375.476 185.432 376.3 186.205 377.083 185.947C377.485 186.977 377.753 188.11 378.113 189.099C380.019 188.128 381.995 187.301 384.025 186.627C387.099 185.401 390.247 184.369 393.45 183.537C392.595 182.229 391.452 180.952 391.112 179.417C391.472 179.257 391.766 178.976 391.941 178.622C392.116 178.268 392.161 177.864 392.07 177.481C391.894 177.056 391.607 176.686 391.239 176.41C390.871 176.135 390.436 175.964 389.979 175.915Z" fill="#3391FF"/>
<path d="M389.979 175.915C386.889 176.049 382.326 178.14 376.228 182.342C375.91 182.619 375.667 182.972 375.522 183.368C375.378 183.765 375.338 184.192 375.404 184.608C375.476 185.432 376.3 186.205 377.083 185.947C377.485 186.977 377.753 188.11 378.113 189.099C380.019 188.128 381.995 187.301 384.025 186.627C387.099 185.401 390.247 184.369 393.45 183.537C392.595 182.229 391.452 180.952 391.112 179.417C391.472 179.257 391.766 178.976 391.941 178.622C392.116 178.268 392.161 177.864 392.07 177.481C391.894 177.056 391.607 176.686 391.239 176.41C390.871 176.135 390.436 175.964 389.979 175.915Z" fill="#3391FF"/>
<path d="M380.934 254.813C374.398 239.169 368.835 223.136 364.279 206.805C359.5 188.965 373.148 188.656 389.617 184.227C402.678 180.715 408.26 183.856 411.989 190.479C415.718 197.102 421.733 253.155 421.733 253.155L380.934 254.813Z" fill="#3391FF"/>
<path d="M380.934 254.813C374.398 239.169 368.835 223.136 364.279 206.805C359.5 188.965 373.148 188.656 389.617 184.227C402.678 180.715 408.26 183.856 411.989 190.479C415.718 197.102 421.733 253.155 421.733 253.155L380.934 254.813Z" fill="#3391FF"/>
<path opacity="0.3" d="M380.934 254.813C374.398 239.169 368.835 223.136 364.279 206.805C359.5 188.965 373.148 188.656 389.617 184.227C402.678 180.715 408.26 183.856 411.989 190.479C415.718 197.102 421.733 253.155 421.733 253.155L380.934 254.813Z" fill="black"/>
<path d="M321.359 229.104H320.206C319.692 229.124 319.196 229.303 318.789 229.617C318.381 229.93 318.081 230.363 317.929 230.855L317.692 231.617C317.57 232 317.544 232.406 317.616 232.801C317.688 233.196 317.855 233.568 318.104 233.883C319.66 235.809 323.45 239.538 329.022 238.549L333.771 236.139L334.08 230.371L325.613 227.579C325.081 227.507 324.539 227.608 324.068 227.868L321.359 229.104Z" fill="#FAB27B"/>
<path d="M333.793 236.18L345.494 237.653L344.814 231.02L334.102 230.412L333.793 236.18Z" fill="#FAB27B"/>
<path d="M341.959 230.556C341.305 231.369 340.942 232.377 340.929 233.42C340.858 235.069 341.235 236.706 342.021 238.158C340.06 237.839 338.052 237.973 336.15 238.549H336.047C330.732 233.348 335.089 229.073 335.089 229.073L335.481 229.197C337.587 229.873 339.758 230.329 341.959 230.556Z" fill="#3391FF"/>
<path d="M364.744 239.961C353.527 240.537 340.168 237.901 340.168 237.901C339.856 237.077 339.806 236.178 340.024 235.326C340.446 233.533 341.054 231.319 341.909 230.526C342.764 229.733 347.45 230.073 347.45 230.073C347.45 230.073 357.194 227.477 359.141 226.416C361.088 225.355 362.148 219.01 362.56 214.726C364.837 191.86 369.101 190.871 372.86 190.49C380.74 189.707 374.673 239.456 364.744 239.961Z" fill="#3391FF"/>
<path d="M401.701 370.214L393.924 305.221C393.544 302.044 392.012 299.116 389.619 296.992C387.225 294.868 384.136 293.695 380.936 293.695H355.279C352.169 293.684 349.157 294.786 346.788 296.801C344.419 298.817 342.85 301.613 342.363 304.685L331.898 369.39L329.838 369.06L340.313 304.376C340.876 300.821 342.692 297.585 345.433 295.252C348.174 292.919 351.659 291.644 355.258 291.656H380.957C384.66 291.659 388.234 293.018 391.004 295.475C393.774 297.932 395.549 301.318 395.995 304.994L403.771 369.987L401.701 370.214Z" fill="#263238"/>
<path d="M437.688 370.214L429.912 305.221C429.531 302.044 427.999 299.116 425.606 296.992C423.212 294.868 420.123 293.695 416.923 293.695H391.225C388.114 293.682 385.101 294.783 382.732 296.799C380.362 298.815 378.793 301.612 378.309 304.685L367.833 369.39L365.773 369.06L376.249 304.376C376.81 300.82 378.625 297.583 381.366 295.25C384.108 292.916 387.594 291.641 391.194 291.656H416.892C420.595 291.659 424.169 293.018 426.939 295.475C429.71 297.932 431.485 301.318 431.93 304.994L439.707 369.987L437.688 370.214Z" fill="#263238"/>
<path d="M369.007 351.283H333.627V353.343H369.007V351.283Z" fill="#263238"/>
<path d="M431.569 304.067H394.994V306.127H431.569V304.067Z" fill="#263238"/>
<path d="M401.699 294.138H428.613C433.617 294.138 438.437 292.252 442.112 288.856C445.787 285.46 448.047 280.803 448.441 275.815L452.272 227.466C452.418 225.617 452.181 223.756 451.575 222.002C450.969 220.248 450.007 218.638 448.75 217.273C447.494 215.908 445.968 214.817 444.27 214.068C442.572 213.32 440.738 212.93 438.882 212.923H423.947C415.497 212.923 407.273 215.651 400.497 220.7C393.722 225.75 388.757 232.852 386.342 240.949L376.042 275.464C375.203 278.284 373.475 280.757 371.116 282.515C368.757 284.273 365.893 285.221 362.951 285.219H344.122C341.758 285.221 339.492 286.162 337.822 287.835C336.151 289.507 335.213 291.774 335.213 294.138H401.699Z" fill="#3391FF"/>
<path opacity="0.7" d="M401.699 294.138H428.613C433.617 294.138 438.437 292.252 442.112 288.856C445.787 285.46 448.047 280.803 448.441 275.815L452.272 227.466C452.418 225.617 452.181 223.756 451.575 222.002C450.969 220.248 450.007 218.638 448.75 217.273C447.494 215.908 445.968 214.817 444.27 214.068C442.572 213.32 440.738 212.93 438.882 212.923H423.947C415.497 212.923 407.273 215.651 400.497 220.7C393.722 225.75 388.757 232.852 386.342 240.949L376.042 275.464C375.203 278.284 373.475 280.757 371.116 282.515C368.757 284.273 365.893 285.221 362.951 285.219H344.122C341.758 285.221 339.492 286.162 337.822 287.835C336.151 289.507 335.213 291.774 335.213 294.138H401.699Z" fill="white"/>
<path d="M375.016 127.278V127.165C375.021 127.203 375.021 127.241 375.016 127.278Z" fill="#3391FF"/>
<path d="M326.513 114.239C322.987 117.487 320.406 121.63 319.045 126.228H317.16C317.812 121.053 319.749 116.124 322.794 111.89L326.513 114.239Z" fill="#3391FF"/>
<path opacity="0.6" d="M326.513 114.239C322.987 117.487 320.406 121.63 319.045 126.228H317.16C317.812 121.053 319.749 116.124 322.794 111.89L326.513 114.239Z" fill="white"/>
<path d="M337.429 108.069C333.349 109.229 329.606 111.348 326.511 114.249L322.793 111.89C325.828 107.644 329.823 104.175 334.453 101.765L337.429 108.069Z" fill="#3391FF"/>
<path opacity="0.5" d="M337.429 108.069C333.349 109.229 329.606 111.348 326.511 114.249L322.793 111.89C325.828 107.644 329.823 104.175 334.453 101.765L337.429 108.069Z" fill="white"/>
<path d="M348.997 98.2939L348.08 107.492C346.764 107.262 345.43 107.149 344.094 107.152C341.841 107.154 339.599 107.462 337.43 108.069L334.453 101.786C338.808 99.5041 343.648 98.3063 348.564 98.2939H348.997Z" fill="#3391FF"/>
<path opacity="0.4" d="M348.997 98.2939L348.08 107.492C346.764 107.262 345.43 107.149 344.094 107.152C341.841 107.154 339.599 107.462 337.43 108.069L334.453 101.786C338.808 99.5041 343.648 98.3063 348.564 98.2939H348.997Z" fill="white"/>
<path d="M362.778 102.198L356.773 111.004C354.167 109.212 351.2 108.013 348.08 107.492L348.997 98.2939C353.859 98.3285 358.62 99.6773 362.778 102.198Z" fill="#3391FF"/>
<path opacity="0.3" d="M362.778 102.198L356.773 111.004C354.167 109.212 351.2 108.013 348.08 107.492L348.997 98.2939C353.859 98.3285 358.62 99.6773 362.778 102.198Z" fill="white"/>
<path d="M372.307 112.58L362.934 117.596C361.376 114.977 359.267 112.728 356.754 111.004L362.759 102.198C366.846 104.702 370.153 108.298 372.307 112.58Z" fill="#3391FF"/>
<path opacity="0.2" d="M372.307 112.58L362.934 117.596C361.376 114.977 359.267 112.728 356.754 111.004L362.759 102.198C366.846 104.702 370.153 108.298 372.307 112.58Z" fill="white"/>
<path d="M375.046 126.897L365.879 126.794C365.593 123.547 364.586 120.405 362.934 117.596L372.307 112.58C374.504 117.015 375.452 121.964 375.046 126.897Z" fill="#3391FF"/>
<path opacity="0.1" d="M375.046 126.897L365.879 126.794C365.593 123.547 364.586 120.405 362.934 117.596L372.307 112.58C374.504 117.015 375.452 121.964 375.046 126.897Z" fill="white"/>
<path d="M375.026 127.165C375.031 127.202 375.031 127.24 375.026 127.278C374.655 130.501 373.834 133.657 372.585 136.651L365.158 134.972L365.756 132.14C365.807 131.769 365.859 131.398 365.89 131.027V130.801C366.008 129.468 366.008 128.127 365.89 126.794L375.057 126.897C375.057 126.959 375.057 127 375.057 127.051C375.052 127.091 375.042 127.129 375.026 127.165Z" fill="#3391FF"/>
<path d="M318.272 136.064L317.726 136.188C317.551 135.477 317.407 134.756 317.283 134.025C316.936 131.793 316.853 129.529 317.036 127.278V127.165C317.031 127.127 317.031 127.089 317.036 127.052C317.036 126.774 317.088 126.485 317.129 126.207H319.014C318.576 127.7 318.28 129.232 318.128 130.78C318.128 130.78 318.128 130.852 318.128 130.894C318.128 130.935 318.128 130.966 318.128 131.007C318.059 131.922 318.042 132.84 318.076 133.757C318.118 134.55 318.179 135.312 318.272 136.064Z" fill="#3391FF"/>
<path opacity="0.7" d="M318.272 136.064L317.726 136.188C317.551 135.477 317.407 134.756 317.283 134.025C316.936 131.793 316.853 129.529 317.036 127.278V127.165C317.031 127.127 317.031 127.089 317.036 127.052C317.036 126.774 317.088 126.485 317.129 126.207H319.014C318.576 127.7 318.28 129.232 318.128 130.78C318.128 130.78 318.128 130.852 318.128 130.894C318.128 130.935 318.128 130.966 318.128 131.007C318.059 131.922 318.042 132.84 318.076 133.757C318.118 134.55 318.179 135.312 318.272 136.064Z" fill="white"/>
<path d="M374.429 134.55L373.646 136.486L372.06 136.136L357.279 132.788L350.914 131.346C351.356 130.774 351.723 130.147 352.006 129.482C352.329 128.705 352.524 127.881 352.583 127.041L366.694 131.892L374.429 134.55Z" fill="#263238"/>
<path d="M352.58 127.062C352.462 128.63 351.882 130.129 350.912 131.367L345.195 130.069L346.998 125.146L352.58 127.062Z" fill="#263238"/>
<path d="M352.581 127.062C352.463 128.631 351.882 130.129 350.912 131.368C350.203 132.273 349.312 133.021 348.296 133.561C344.619 135.529 340.283 134.293 338.624 130.78C337.863 128.973 337.816 126.944 338.493 125.103C339.17 123.262 340.52 121.746 342.271 120.862C345.948 118.894 350.284 120.141 351.953 123.643C352.453 124.709 352.67 125.887 352.581 127.062Z" fill="#3391FF"/>
<path d="M117.913 122.705H123.815V127.649H117.326L116.419 134.859H111.269L112.176 127.649H105.512L104.605 134.859H99.5582L100.465 127.649H94.5215V122.705H101.052L101.999 115.362H96.0665V110.418H102.597L103.503 103.208H108.581L107.675 110.418H114.328L115.235 103.208H120.313L119.406 110.418H125.298V115.362H118.768L117.913 122.705ZM112.763 122.705L113.71 115.362H107.118L106.088 122.705H112.763Z" fill="#3391FF"/>
<path d="M140.263 103.156V134.9H132.919V109.058H126.574V103.156H140.263Z" fill="#3391FF"/>
<path d="M112.744 235.171H61.9551V270.139H112.744V235.171Z" fill="#263238"/>
<path d="M112.744 235.171H61.9551V238.374H112.744V235.171Z" fill="#3391FF"/>
<path d="M71.2556 254.514L79.5677 259.118C79.8789 259.27 80.1585 259.48 80.3917 259.736C80.5372 259.94 80.6098 260.187 80.5977 260.437C80.6002 260.611 80.5677 260.783 80.5022 260.944C80.4368 261.105 80.3396 261.251 80.2166 261.374C80.1005 261.498 79.9601 261.597 79.8042 261.664C79.6482 261.732 79.48 261.766 79.3102 261.766C78.9431 261.722 78.5908 261.595 78.2802 261.395L67.5682 255.431C67.3995 255.345 67.2579 255.213 67.159 255.052C67.0601 254.89 67.0078 254.704 67.0078 254.514C67.0078 254.325 67.0601 254.139 67.159 253.977C67.2579 253.815 67.3995 253.684 67.5682 253.598L78.2802 247.634C78.5934 247.441 78.9448 247.318 79.3102 247.273C79.6545 247.279 79.983 247.419 80.2255 247.663C80.4681 247.908 80.6053 248.237 80.608 248.582C80.6271 248.832 80.5538 249.081 80.402 249.282C80.1727 249.545 79.8924 249.759 79.578 249.91L71.2556 254.514Z" fill="white"/>
<path d="M92.6287 245.934L84.3888 263.64C84.2645 263.966 84.0712 264.261 83.8222 264.505C83.6011 264.684 83.3238 264.779 83.0395 264.773C82.8706 264.773 82.7034 264.739 82.5478 264.674C82.3921 264.609 82.2511 264.513 82.133 264.392C82.0141 264.286 81.9187 264.155 81.8531 264.01C81.7875 263.865 81.753 263.707 81.752 263.547C81.7822 263.188 81.8837 262.837 82.0507 262.517L90.2907 244.822C90.416 244.499 90.6051 244.205 90.8468 243.957C91.0917 243.768 91.3969 243.674 91.7056 243.693C92.0144 243.712 92.3058 243.842 92.5258 244.06C92.6452 244.166 92.7409 244.296 92.8066 244.441C92.8723 244.587 92.9064 244.745 92.9068 244.904C92.8831 245.263 92.7886 245.613 92.6287 245.934Z" fill="white"/>
<path d="M103 254.514L94.6565 249.91C94.3377 249.761 94.0535 249.547 93.8222 249.282C93.6782 249.078 93.6057 248.831 93.6162 248.582C93.6136 248.41 93.6471 248.24 93.7145 248.082C93.782 247.924 93.8818 247.782 94.0076 247.665C94.1237 247.541 94.2641 247.442 94.4201 247.375C94.576 247.307 94.7442 247.273 94.914 247.273C95.2798 247.316 95.6315 247.439 95.944 247.634L106.656 253.598C106.825 253.684 106.966 253.815 107.065 253.977C107.164 254.139 107.216 254.325 107.216 254.514C107.216 254.704 107.164 254.89 107.065 255.052C106.966 255.213 106.825 255.345 106.656 255.431L95.944 261.395C95.6339 261.596 95.2814 261.723 94.914 261.766C94.7427 261.766 94.5731 261.731 94.4156 261.664C94.258 261.596 94.1157 261.498 93.9973 261.374C93.7526 261.124 93.6158 260.787 93.6162 260.437C93.6087 260.187 93.6809 259.942 93.8222 259.736C94.0575 259.478 94.3409 259.268 94.6565 259.118L103 254.514Z" fill="white"/>
</svg>
