<svg width="151" height="123" viewBox="0 0 151 123" fill="none" xmlns="http://www.w3.org/2000/svg">
<g id="arrow">
<path id="path50" d="M4.5235 31.1764L2.58128 31.0678C2.64852 29.886 2.76981 28.6979 2.94258 27.5395L4.86726 27.8259C4.70301 28.9266 4.58764 30.0555 4.5235 31.1764ZM4.96541 39.5882L3.04401 39.8949C2.85724 38.7279 2.7184 37.5448 2.63094 36.3782L4.57133 36.2338C4.6545 37.3458 4.78735 38.4747 4.96541 39.5882ZM67.8172 29.9377L67.0229 28.1613C68.1068 27.6768 69.2176 27.2392 70.328 26.864L70.9497 28.7087C69.8993 29.065 68.8448 29.4779 67.8172 29.9377ZM78.9413 27.4948C77.884 27.3167 76.8296 27.3069 75.8039 27.4616L75.5141 25.5365C76.7415 25.351 78.0035 25.3639 79.2624 25.5755L78.9413 27.4948ZM60.5816 34.2229L59.4096 32.6691C60.3521 31.9585 61.3342 31.2829 62.3316 30.6614L63.3602 32.3121C62.4134 32.9036 61.4787 33.5455 60.5816 34.2229ZM5.30378 48.4255C4.89251 47.3216 4.52077 46.1926 4.19848 45.0695L6.06869 44.5327C6.37719 45.608 6.73276 46.6876 7.12696 47.7466L5.30378 48.4255ZM85.8608 31.2842C85.1112 30.5024 84.2755 29.8148 83.3754 29.2384L84.4226 27.5995C85.4537 28.2577 86.4092 29.0453 87.2659 29.9391L85.8608 31.2842ZM54.4419 39.9868L52.9657 38.7201C53.7308 37.8278 54.5456 36.9568 55.3851 36.1333L56.7466 37.5234C55.9467 38.3085 55.1705 39.1367 54.4419 39.9868ZM9.13448 56.3626C8.5294 55.3568 7.95476 54.3169 7.42735 53.2745L9.16367 52.3965C9.6699 53.3973 10.2212 54.3939 10.8022 55.361L9.13448 56.3626ZM49.6869 46.9328L47.9688 46.0182C48.5195 44.9842 49.1273 43.9565 49.7752 42.9657L51.403 44.0312C50.788 44.974 50.2099 45.9501 49.6869 46.9328ZM91.2163 38.1632L89.282 38.3596C89.2337 37.893 89.1524 37.4189 89.0396 36.9524C88.9055 36.3977 88.7237 35.8389 88.4982 35.2928L90.2967 34.5533C90.5597 35.1903 90.7733 35.8437 90.9308 36.4951C91.0645 37.0478 91.1603 37.6096 91.2163 38.1632ZM46.6193 54.7498L44.7349 54.2601C45.03 53.1256 45.3885 51.9869 45.7951 50.8721L47.623 51.5422C47.2353 52.5968 46.8981 53.677 46.6193 54.7498ZM14.335 63.477C13.562 62.5985 12.8108 61.6792 12.1019 60.7452L13.6514 59.5675C14.3319 60.4639 15.054 61.3481 15.796 62.1918L14.335 63.477ZM89.7283 47.0305L87.8778 46.4326C88.2216 45.3619 88.5222 44.2684 88.7686 43.1812L90.6656 43.6122C90.4077 44.7533 90.092 45.9039 89.7283 47.0305ZM45.5268 63.0633L43.5815 63.0488C43.5907 61.8633 43.656 60.6709 43.7804 59.502L45.7158 59.7058C45.5982 60.8107 45.5354 61.9402 45.5268 63.0633ZM20.7367 69.538C19.8175 68.8172 18.9109 68.0489 18.0421 67.2559L19.3538 65.8177C20.1872 66.5793 21.0562 67.3144 21.9376 68.0065L20.7367 69.538ZM86.137 55.1009L84.4519 54.1293C85.0159 53.15 85.5417 52.1421 86.0167 51.1353L87.7763 51.9643C87.28 53.0207 86.7275 54.0751 86.137 55.1009ZM28.1778 74.2846C27.1357 73.7581 26.0961 73.1776 25.0886 72.5627L26.1031 70.9006C27.0665 71.4906 28.0596 72.0445 29.055 72.5467L28.1778 74.2846ZM81.0084 62.2774L79.5412 61.0018C80.2803 60.1492 80.9956 59.2622 81.6642 58.3666L83.2241 59.5285C82.5273 60.4643 81.7814 61.3898 81.0084 62.2774ZM46.4438 71.4181L44.5465 71.8502C44.2848 70.6946 44.0726 69.5226 43.918 68.3589L45.8465 68.1017C45.9932 69.205 46.1943 70.3218 46.4438 71.4181ZM36.4431 77.4128C35.3091 77.1198 34.1703 76.7702 33.056 76.3746L33.7067 74.5402C34.7677 74.9175 35.8511 75.2494 36.928 75.5273L36.4431 77.4128ZM74.6366 68.3688L73.4256 66.8467C74.3077 66.144 75.1718 65.4035 75.9999 64.6428L77.3176 66.0724C76.4573 66.8654 75.5541 67.6376 74.6366 68.3688ZM67.2766 73.2156L66.3591 71.5002C67.3474 70.9699 68.3319 70.396 69.2846 69.7919L70.3248 71.4354C69.3315 72.0648 68.3059 72.662 67.2766 73.2156ZM45.2039 78.644C44.0197 78.6123 42.8316 78.5282 41.6686 78.3912L41.8949 76.4571C43.0008 76.5878 44.1306 76.6705 45.2562 76.6986L45.2039 78.644ZM59.1546 76.6408L58.5701 74.7848C59.6366 74.4491 60.7098 74.0673 61.7581 73.647L62.4798 75.4542C61.3868 75.892 60.2668 76.2918 59.1546 76.6408ZM54.0128 77.9309C52.8512 78.1494 51.6738 78.3207 50.5104 78.4397L50.3114 76.5038C51.4202 76.3891 52.5441 76.2264 53.6527 76.0184L54.0128 77.9309ZM47.4303 80.2076C46.9278 79.1413 46.4665 78.0429 46.0597 76.9402L47.885 76.2653C48.2727 77.317 48.7124 78.3628 49.1912 79.377L47.4303 80.2076ZM52.0392 87.7519C51.3233 86.824 50.6382 85.8487 49.9999 84.8553L51.6387 83.8052C52.2454 84.7505 52.8995 85.68 53.5801 86.5631L52.0392 87.7519ZM58.2037 94.1038C57.295 93.3627 56.4061 92.5657 55.562 91.7333L56.9287 90.3486C57.729 91.1381 58.5726 91.895 59.434 92.5964L58.2037 94.1038ZM65.7016 98.8322C64.9487 98.4782 64.2024 98.096 63.4829 97.6961C63.1743 97.5238 62.8643 97.3452 62.5605 97.1651L63.5597 95.4934C63.8457 95.6644 64.1381 95.834 64.4289 95.9972C65.1097 96.3753 65.8153 96.7362 66.5274 97.0689L65.7016 98.8322ZM111.536 90.7099L110.696 88.9557C111.77 88.4402 112.912 88.0127 114.089 87.6836L114.613 89.5565C113.545 89.8571 112.508 90.2434 111.536 90.7099ZM122.818 88.9225C121.703 88.8074 120.588 88.7679 119.503 88.8078L119.431 86.8634C120.606 86.8196 121.815 86.8609 123.022 86.9871L122.818 88.9225ZM74.1139 101.602C72.9532 101.365 71.7972 101.073 70.674 100.733L71.2379 98.8703C72.3035 99.1931 73.4004 99.4706 74.5025 99.6957L74.1139 101.602ZM104.61 95.5962L103.51 93.9916C104.437 93.3559 105.337 92.6713 106.188 91.9563L107.439 93.4442C106.541 94.2017 105.591 94.9253 104.61 95.5962ZM82.9226 102.397C81.7447 102.42 80.5526 102.392 79.3813 102.313L79.5122 100.37C80.6269 100.446 81.7635 100.473 82.8857 100.451L82.9226 102.397ZM130.88 91.0414C129.829 90.6038 128.765 90.2248 127.72 89.9147L128.274 88.0481C129.386 88.3776 130.513 88.7812 131.627 89.246L130.88 91.0414ZM96.7664 99.7037L96.0673 97.8887C97.1171 97.4837 98.1551 97.0303 99.1547 96.5372L100.015 98.2821C98.9636 98.801 97.8714 99.2786 96.7664 99.7037ZM91.6911 101.278C90.5496 101.552 89.379 101.779 88.2131 101.952L87.9259 100.029C89.0378 99.8621 90.1511 99.6463 91.238 99.3857L91.6911 101.278ZM138.251 95.1196C137.306 94.4673 136.347 93.8564 135.398 93.3006L136.38 91.6219C137.37 92.2011 138.372 92.8396 139.357 93.5199L138.251 95.1196Z" fill="black" fill-opacity="0.3"/>
<path id="ic_plan" d="M27.1621 35.9731H28.8003C29.7045 35.9731 30.8136 36.603 31.2772 37.3803L33.3044 40.7828H36.9903C37.2076 40.7828 37.4159 40.8691 37.5695 41.0227C37.7231 41.1763 37.8094 41.3846 37.8094 41.6018C37.8094 41.8191 37.7231 42.0274 37.5695 42.181C37.4159 42.3346 37.2076 42.4209 36.9903 42.4209H33.2266L31.1986 45.8234C30.7358 46.6015 29.6267 47.2306 28.7216 47.2306H27.0835L29.9503 42.4209H24.2249L23.0503 44.4301H21.4121L23.0667 41.6018V41.5748L21.4285 38.7735H23.0667L24.2412 40.7828H30.0281L27.1613 35.9731H27.1621Z" fill="#CCCCCC"/>
<path id="Vector" d="M101.281 116.753H106.196V120.029H101.281V116.753Z" fill="#CCCCCC" fill-opacity="0.5"/>
<path id="ic_graph" d="M99.644 111.019H98.0059V120.848H99.644V111.019ZM111.111 111.838H101.282V115.115H111.111V111.838Z" fill="#CCCCCC"/>
<path id="path52" d="M150.125 101.197L125.064 106.554L124.522 104.018L146.417 99.3355L137.264 79.4023L139.623 78.3205L150.125 101.197Z" fill="black" fill-opacity="0.3"/>
</g>
</svg>
