<svg width="200" height="191" viewBox="0 0 200 191" fill="none" xmlns="http://www.w3.org/2000/svg">
<path d="M147.836 96.4081C146.53 95.5207 145.167 94.6655 143.797 93.8814L145.162 91.5035C146.591 92.3246 148.015 93.2174 149.378 94.1442L147.836 96.4081ZM132.962 88.9693L133.847 86.3783C135.408 86.9116 136.97 87.5136 138.489 88.1683L137.407 90.6834C135.951 90.0577 134.455 89.4821 132.962 88.9693ZM156.963 104.026C155.859 102.902 154.693 101.804 153.495 100.765L155.291 98.6958C156.544 99.7831 157.763 100.932 158.919 102.107L156.963 104.026ZM121.39 86.2392L121.753 83.5226C123.386 83.7416 125.036 84.0293 126.658 84.3787L126.08 87.0577C124.53 86.7212 122.952 86.4464 121.39 86.2392ZM109.522 85.8789L109.323 83.1485C110.979 83.0276 112.654 82.9753 114.303 82.9892L114.276 85.7294C112.703 85.7157 111.104 85.765 109.522 85.8789ZM85.1871 77.1829L85.9725 74.5579C87.5779 75.0402 89.1667 75.6019 90.692 76.2315L89.645 78.765C88.2048 78.1705 86.7044 77.639 85.1871 77.1829ZM107.676 93.308C106.823 91.9897 105.883 90.7273 104.879 89.5547L106.959 87.7707C108.043 89.0367 109.059 90.3998 109.977 91.824L107.676 93.308ZM97.8062 87.9079L97.0778 85.267C97.9426 85.0283 98.8168 84.8062 99.6938 84.6038C98.5512 83.7035 97.337 82.8481 96.0811 82.0637L95.9469 81.9798L97.3919 79.652L97.5327 79.7398C98.9148 80.6032 100.251 81.5457 101.504 82.5435L99.9048 84.5561C100.578 84.4023 101.252 84.2597 101.924 84.1301L102.444 86.8208C100.895 87.1202 99.3338 87.4873 97.8062 87.9079ZM73.5327 75.1726L73.6801 72.4362C75.3399 72.5253 77.0123 72.6941 78.6518 72.9357L78.251 75.6466C76.6948 75.4176 75.1087 75.2561 73.5327 75.1726ZM112.331 104.023C111.947 102.516 111.462 101.014 110.887 99.5601L113.433 98.5518C114.053 100.113 114.576 101.728 114.986 103.352L112.331 104.023ZM61.7079 75.8878L61.2474 73.1881C62.8934 72.9061 64.5553 72.6951 66.1896 72.5565L66.4225 75.2863C64.864 75.4184 63.2784 75.6197 61.7079 75.8878ZM86.6928 92.1509L85.4755 89.6963C86.953 88.9645 88.4802 88.278 90.0124 87.6593L91.0392 90.1995C89.5706 90.7933 88.1088 91.4488 86.6928 92.1509ZM113.242 115.633C113.394 114.106 113.436 112.534 113.364 110.964L116.101 110.84C116.178 112.542 116.134 114.245 115.969 115.904L113.242 115.633ZM50.2224 79.0117L49.2658 76.4437C50.8281 75.8617 52.4138 75.3338 53.9797 74.8726L54.7501 77.5038C53.248 77.9439 51.7254 78.4502 50.2224 79.0117ZM76.5969 98.4364L74.9283 96.2634C76.236 95.2605 77.6034 94.2948 78.994 93.3902L80.4857 95.6895C79.1559 96.553 77.8477 97.4768 76.5969 98.4364ZM109.864 126.66C110.007 126.405 110.144 126.149 110.276 125.891C110.842 124.784 111.339 123.622 111.754 122.435L114.339 123.339C113.885 124.642 113.337 125.922 112.715 127.138C112.568 127.427 112.415 127.712 112.258 127.994L109.864 126.66ZM39.4039 84.0814L38.0536 81.6981C39.5006 80.879 40.9743 80.1017 42.4341 79.3875L43.6383 81.8483C42.2289 82.5365 40.8031 83.2899 39.4039 84.0814ZM68.0469 106.545L65.8614 104.893C66.2299 104.405 66.6253 103.931 67.0394 103.479C67.7635 102.689 68.5192 101.909 69.2886 101.154L71.2052 103.112C70.4714 103.831 69.7502 104.576 69.0597 105.329C68.704 105.717 68.3638 106.126 68.0469 106.545ZM29.4076 90.6912L27.7491 88.5102C29.0654 87.509 30.4133 86.5382 31.7571 85.6224L33.3006 87.8858C31.9957 88.7757 30.6856 89.7198 29.4076 90.6912ZM103.768 137.408L102.167 135.184C103.432 134.272 104.617 133.261 105.695 132.172L107.643 134.099C106.459 135.295 105.156 136.408 103.768 137.408ZM61.7061 117.007C61.7749 115.252 62.0328 113.532 62.4707 111.899L65.1174 112.609C64.7325 114.044 64.5056 115.561 64.4432 117.116L61.7061 117.007ZM92.2318 142.592L91.6419 139.916C93.1347 139.589 94.6268 139.124 96.0711 138.544L97.096 141.083C95.5102 141.722 93.874 142.229 92.2318 142.592ZM64.3021 129.458C63.5722 127.918 62.9822 126.3 62.551 124.645L65.2025 123.954C65.591 125.442 66.1204 126.9 66.7776 128.283L64.3021 129.458ZM79.5247 142.434L80.227 139.785C81.6827 140.171 83.2069 140.408 84.7546 140.496L84.6017 143.232C82.8693 143.134 81.1603 142.866 79.5247 142.434ZM72.4778 139.242C71.0786 138.281 69.7673 137.139 68.5813 135.846L70.5975 133.993C71.6455 135.132 72.8 136.137 74.0293 136.98L72.4778 139.242Z" fill="black" fill-opacity="0.3"/>
<path fill-rule="evenodd" clip-rule="evenodd" d="M39.7248 58.5227C39.3036 59.1796 38.7552 59.7456 38.1119 60.1874C37.4687 60.6292 36.7435 60.9378 35.9792 61.095C35.314 61.672 34.4739 62.0081 33.5943 62.0493C33.3116 62.3775 32.9277 62.6022 32.5032 62.6883C32.0787 62.7743 31.6377 62.7167 31.2495 62.5246C30.8613 62.3324 30.548 62.0167 30.359 61.6269C30.1699 61.2372 30.1159 60.7957 30.2053 60.3719C29.7047 59.6475 29.4625 58.7757 29.5178 57.8969C29.1804 57.1963 28.986 56.4355 28.946 55.6589C28.9061 54.8823 29.0214 54.1056 29.2852 53.374C28.5786 53.5073 27.8478 53.3761 27.2317 53.0054C26.6157 52.6347 26.1575 52.0504 25.9444 51.3637C25.7313 50.677 25.7782 49.9359 26.0762 49.2815C26.3741 48.6272 26.9023 48.1053 27.5602 47.8152L33.2539 45.3205C34.0131 44.0692 35.2134 43.1474 36.6183 42.7369C38.0233 42.3263 39.531 42.4567 40.8446 43.1024C42.1582 43.748 43.1824 44.8622 43.7155 46.2253C44.2486 47.5884 44.252 49.1018 43.7249 50.4673L45.2031 56.5466C45.3752 57.2489 45.2814 57.99 44.9397 58.6273C44.598 59.2645 44.0327 59.7528 43.3525 59.9981C42.6724 60.2435 41.9255 60.2285 41.2557 59.9561C40.5859 59.6837 40.0406 59.1731 39.7248 58.5227ZM38.8439 55.1841L38.2419 52.7079L34.8354 51.0218L32.5014 52.0449L38.8439 55.1841ZM41.0392 55.9484L41.4099 57.4704C41.4402 57.5949 41.4948 57.7123 41.5704 57.8158C41.6461 57.9193 41.7414 58.0068 41.8509 58.0735C41.9604 58.1401 42.082 58.1846 42.2087 58.2042C42.3354 58.2239 42.4647 58.2184 42.5893 58.1881C42.7138 58.1578 42.8312 58.1032 42.9347 58.0275C43.0382 57.9519 43.1257 57.8566 43.1924 57.747C43.259 57.6375 43.3034 57.516 43.3231 57.3893C43.3428 57.2626 43.3373 57.1333 43.307 57.0087L42.3867 53.2259L41.0392 55.9484ZM40.8934 51.842L41.7594 50.0924C42.2188 49.1643 42.2907 48.0918 41.9592 47.1108C41.6278 46.1297 40.9202 45.3205 39.9921 44.8611C39.0641 44.4018 37.9916 44.3299 37.0105 44.6613C36.0294 44.9928 35.2202 45.7004 34.7609 46.6284L33.8949 48.3781L40.8934 51.842ZM29.1274 51.3911L30.528 50.7773L31.8755 48.0549L28.3427 49.6031C28.1056 49.7072 27.9196 49.9012 27.8255 50.1424C27.7314 50.3836 27.7371 50.6524 27.8411 50.8895C27.9452 51.1265 28.1392 51.3126 28.3804 51.4067C28.6216 51.5007 28.8903 51.4951 29.1274 51.3911ZM33.0633 58.8578C32.1352 58.3985 31.4276 57.5892 31.0962 56.6082C30.7648 55.6271 30.8366 54.5546 31.296 53.6265L38.2946 57.0905C37.8352 58.0186 37.026 58.7262 36.0449 59.0576C35.0639 59.389 33.9913 59.3172 33.0633 58.8578Z" fill="#CCCCCC"/>
<path d="M145.157 139.003C144.676 138.665 144.13 138.284 143.514 137.777C141.9 136.45 142.538 133.496 142.544 133.469L140.913 133.096C140.876 133.258 140.036 137.084 142.451 139.07C143.117 139.617 143.692 140.019 144.197 140.374C145.257 141.011 146.151 141.889 146.807 142.937C147.254 143.833 147.434 144.839 147.326 145.835C147.217 146.83 146.824 147.773 146.195 148.552C145.824 147.399 145.166 146.36 144.282 145.532C143.398 144.704 142.318 144.115 141.144 143.821L139.939 143.546L140.131 144.766C140.737 148.618 140.022 150.916 139.459 152.04C138.685 152.049 137.92 151.874 137.227 151.53C136.534 151.185 135.932 150.681 135.472 150.059C134.96 149.137 134.635 148.123 134.515 147.075C134.362 145.816 133.958 144.601 133.328 143.501L132.536 142.242C133.316 142.108 134.533 142.275 135.635 144.028L136.794 145.872L137.168 143.726C137.835 139.894 135.544 137.269 133.434 135.887C134.252 135.687 135.114 135.769 135.881 136.118C136.648 136.468 137.274 137.066 137.66 137.815L139.077 136.925C136.612 133.002 132.717 134.004 131.002 135.082L129.585 135.972L131.147 136.57C131.326 136.641 134.923 138.079 135.528 141.415C134.869 140.895 134.068 140.587 133.23 140.533C132.393 140.479 131.559 140.681 130.839 141.113L130.131 141.558L131.911 144.392C132.422 145.314 132.748 146.328 132.868 147.376C133.021 148.634 133.424 149.849 134.055 150.949C135.768 153.675 140.324 154.915 144.7 152.166C149.076 149.416 149.937 144.773 148.224 142.047C147.448 140.811 146.399 139.769 145.157 139.003ZM141.357 151.822C141.984 149.919 142.189 147.902 141.959 145.912C142.745 146.297 143.42 146.878 143.917 147.599C144.414 148.319 144.718 149.156 144.799 150.028C144.485 150.289 144.155 150.53 143.81 150.749C143.053 151.232 142.225 151.594 141.357 151.822Z" fill="#CCCCCC"/>
<path d="M134.9 112.768L135.075 109.119L166.161 110.61L161.747 80.5881L165.361 80.0566L170.42 114.473L134.9 112.768Z" fill="black" fill-opacity="0.3"/>
</svg>
