<svg width="80" height="80" viewBox="0 0 80 80" fill="none" xmlns="http://www.w3.org/2000/svg">
<g id="ic_plan">
<g id="Group">
<g id="Group_2">
<path id="Vector" fill-rule="evenodd" clip-rule="evenodd" d="M60.6254 30.625C60.6254 29.6304 61.0205 28.6766 61.7238 27.9733C62.427 27.27 63.3809 26.875 64.3754 26.875H72.5004C73.495 26.875 74.4488 27.27 75.1521 27.9733C75.8553 28.6766 76.2504 29.6304 76.2504 30.625V59.375C76.2504 60.3695 75.8553 61.3233 75.1521 62.0266C74.4488 62.7299 73.495 63.125 72.5004 63.125H64.3754C63.3809 63.125 62.427 62.7299 61.7238 62.0266C61.0205 61.3233 60.6254 60.3695 60.6254 59.375V30.625ZM64.3754 29.375C64.0439 29.375 63.7259 29.5066 63.4915 29.7411C63.2571 29.9755 63.1254 30.2934 63.1254 30.625V59.375C63.1254 59.7065 63.2571 60.0244 63.4915 60.2588C63.7259 60.4933 64.0439 60.625 64.3754 60.625H72.5004C72.8319 60.625 73.1499 60.4933 73.3843 60.2588C73.6187 60.0244 73.7504 59.7065 73.7504 59.375V30.625C73.7504 30.2934 73.6187 29.9755 73.3843 29.7411C73.1499 29.5066 72.8319 29.375 72.5004 29.375H64.3754ZM19.0735 57.7381L20.7148 55.9375L18.3204 55.3112C17.5792 55.1172 16.8925 54.7555 16.3132 54.254C15.734 53.7525 15.2778 53.1246 14.9798 52.4187L14.0629 50.2462L12.606 51.845L6.14166 64.5406C5.85354 65.1068 6.49604 65.6918 7.03291 65.3525L19.0735 57.7381ZM15.7204 56.9006C14.9575 56.4416 14.2824 55.8505 13.7267 55.155L11.4679 59.59L15.7204 56.9006ZM28.7348 43.4231L51.8367 18.0687C52.0071 17.8875 52.1398 17.6742 52.2269 17.4412C52.3141 17.2083 52.3541 16.9603 52.3445 16.7117C52.3349 16.4632 52.2759 16.219 52.171 15.9934C52.0662 15.7679 51.9174 15.5655 51.7335 15.398C51.5497 15.2304 51.3343 15.1012 51.0999 15.0177C50.8656 14.9343 50.617 14.8983 50.3686 14.9119C50.1203 14.9254 49.8771 14.9883 49.6532 15.0968C49.4294 15.2052 49.2293 15.3572 49.0648 15.5437L23.7204 43.3581L28.7348 43.4231ZM29.826 45.9375L53.6848 19.7518C54.0717 19.3271 54.3712 18.8304 54.5662 18.2899C54.7612 17.7495 54.8478 17.1759 54.8211 16.602C54.7944 16.028 54.6549 15.465 54.4106 14.945C54.1663 14.425 53.822 13.9581 53.3973 13.5712C52.9726 13.1843 52.4758 12.8847 51.9354 12.6898C51.3949 12.4948 50.8214 12.4082 50.2474 12.4349C49.6735 12.4616 49.1105 12.6011 48.5904 12.8454C48.0704 13.0897 47.6036 13.434 47.2167 13.8587L18.1254 45.7875L29.826 45.9375Z" fill="#3391FF"/>
<path id="Vector_2" fill-rule="evenodd" clip-rule="evenodd" d="M33.7899 20.9881C33.6229 20.9389 33.4475 20.9252 33.2748 20.9478C33.1022 20.9704 32.9362 21.0289 32.7874 21.1193C30.3799 22.585 26.6593 24.9243 23.3156 27.1831C21.6449 28.3118 20.0562 29.4281 18.7687 30.4106C17.5218 31.3618 16.4393 32.2737 15.8874 32.9825C14.7256 34.4768 12.3293 38.56 10.1643 42.3487C8.99806 44.39 7.88931 46.3631 7.03431 47.8837C6.26993 49.2443 5.70806 50.2437 5.49056 50.6068C4.57868 52.1256 5.25306 54.1562 7.06118 55.3112C8.30243 56.1043 10.0912 56.5462 12.4999 56.4331C12.7512 56.4206 12.9206 56.0206 13.0949 55.6068C13.2749 55.18 13.4612 54.7387 13.7499 54.7006C13.9849 54.6687 14.3099 55.0012 14.6437 55.3425C15.0006 55.7075 15.3668 56.0825 15.6406 56.0275C17.3037 57.1606 19.1474 57.2943 20.0781 57.1875H20.2774C20.2962 57.6 20.3481 58.0775 20.4618 58.5656C20.6268 59.2731 20.9462 60.1 21.5862 60.7612C22.2606 61.4587 23.1968 61.875 24.3743 61.875C26.3756 61.875 27.6437 60.7187 28.4037 59.555C29.1649 60.5962 30.3862 61.5356 32.2912 61.8575C34.2974 62.1968 35.8874 61.4425 36.9206 60.6693C37.2555 60.4178 37.5693 60.1391 37.8587 59.8362L38.0187 57.1793C36.3549 56.4187 35.0462 55.6025 34.2024 54.9493C33.9835 54.7797 33.7144 54.6876 33.4374 54.6875H19.9999C19.9399 54.6875 19.8812 54.6918 19.8224 54.7C19.3656 54.7656 18.0087 54.7 16.8724 53.8343C16.4674 53.2112 15.5912 51.7468 15.5049 50.3156C15.4612 49.5925 15.6249 48.9518 16.1181 48.4056C16.6256 47.8431 17.6099 47.2393 19.4918 46.875H34.9993C35.1762 46.875 35.3512 46.8375 35.5118 46.765C36.7706 46.1987 38.4156 44.9525 39.3981 42.99C40.4106 40.9693 40.6568 38.3143 39.2706 35.1268C39.2062 34.9746 39.1124 34.8366 38.9944 34.7209C38.8764 34.6052 38.7367 34.514 38.5833 34.4527C38.4298 34.3913 38.2657 34.361 38.1005 34.3634C37.9353 34.3659 37.7722 34.4011 37.6206 34.467C37.4691 34.5329 37.3321 34.6282 37.2176 34.7473C37.1031 34.8665 37.0134 35.0072 36.9537 35.1613C36.8939 35.3153 36.8653 35.4797 36.8695 35.6449C36.8737 35.8101 36.9106 35.9729 36.9781 36.1237C38.0918 38.6856 37.8181 40.5625 37.1631 41.87C36.5393 43.115 35.5137 43.955 34.7124 44.375H19.3749C19.2981 44.375 19.2218 44.3818 19.1468 44.3956C16.8824 44.815 15.2781 45.605 14.2618 46.7312C13.2218 47.8837 12.9356 49.2356 13.0093 50.4656C13.0837 51.6993 13.5243 52.8781 13.9668 53.7812C10.9668 54.2125 9.25993 53.7493 8.40681 53.2043C7.40243 52.5625 7.60806 51.9362 7.63431 51.8931C7.86243 51.5118 8.45681 50.4556 9.25243 49.04C10.1131 47.5087 11.2099 45.5581 12.3349 43.5887C14.5449 39.7212 16.8362 35.8356 17.8612 34.5175C18.1849 34.1012 19.0112 33.37 20.2849 32.3981C21.5187 31.4568 23.0631 30.3706 24.7149 29.2543C27.8087 27.165 31.2381 24.9993 33.6193 23.5412C34.4906 23.7875 35.6218 24.0868 36.6724 24.3212C37.3112 24.4643 37.9424 24.5881 38.4768 24.66C38.7431 24.6956 39.0081 24.7212 39.2487 24.7268C39.4081 24.73 39.6324 24.7275 39.8656 24.6806L40.6437 22.2275C40.2991 22.1827 39.9512 22.1701 39.6043 22.19C39.5271 22.1953 39.4505 22.2079 39.3756 22.2275H39.3031C39.1378 22.221 38.973 22.2058 38.8093 22.1818C38.2748 22.1036 37.7437 22.0035 37.2174 21.8818C36.0661 21.6189 34.9231 21.3209 33.7899 20.9881ZM22.8962 57.9968C22.8361 57.7306 22.7976 57.4599 22.7812 57.1875H26.8124C26.7449 57.3631 26.6668 57.5437 26.5774 57.7225C26.0799 58.7168 25.3962 59.375 24.3749 59.375C23.8337 59.375 23.5593 59.205 23.3843 59.0237C23.1743 58.8068 23.0056 58.4612 22.8968 57.9975L22.8962 57.9968ZM30.0774 57.4943C30.0305 57.3939 29.9877 57.2915 29.9493 57.1875H33.0206C33.7841 57.7359 34.5834 58.2328 35.4131 58.675C34.7281 59.185 33.8212 59.5806 32.7074 59.3925C31.1524 59.13 30.4443 58.2787 30.0774 57.4943Z" fill="#3391FF"/>
</g>
<path id="Vector_3" d="M49.0737 25.605C52.4625 27.4487 55.9237 29.6756 58.2038 31.25H61.875C62.2065 31.25 62.5245 31.3817 62.7589 31.6161C62.9933 31.8505 63.125 32.1685 63.125 32.5C63.125 32.8315 62.9933 33.1494 62.7589 33.3839C62.5245 33.6183 62.2065 33.75 61.875 33.75H57.8125C57.5565 33.75 57.3068 33.6715 57.0969 33.525C54.8844 31.9812 51.3313 29.68 47.8788 27.8012C47.2378 27.4516 46.5906 27.1134 45.9375 26.7869L47.3144 24.6806C47.8969 24.9744 48.4856 25.285 49.0737 25.6056V25.605ZM38.0188 57.1787C42.1313 59.0575 48.1956 60.4975 54.5437 58.52C54.9381 58.3419 55.4094 58.2287 55.8531 58.1487C56.3612 58.0569 56.9406 57.99 57.5387 57.9412C58.7375 57.8437 60.0863 57.8125 61.25 57.8125C61.5815 57.8125 61.8995 57.9442 62.1339 58.1786C62.3683 58.413 62.5 58.731 62.5 59.0625C62.5 59.394 62.3683 59.7119 62.1339 59.9464C61.8995 60.1808 61.5815 60.3125 61.25 60.3125C60.1213 60.3125 58.8456 60.3437 57.7419 60.4331C57.1888 60.4781 56.6981 60.5369 56.2981 60.6087C55.8744 60.6856 55.645 60.7625 55.5587 60.8056C55.4999 60.8349 55.4389 60.8596 55.3762 60.8794C48.6737 62.9956 42.32 61.6925 37.8588 59.8362L36.5625 57.8125L38.0188 57.1787Z" fill="#3391FF"/>
</g>
</g>
</svg>
