<svg width="80" height="80" viewBox="0 0 80 80" fill="none" xmlns="http://www.w3.org/2000/svg">
<g id="ic_start">
<g id="Group">
<path id="Vector" d="M74.2988 8.53747C74.1525 7.72908 73.7505 6.98904 73.1518 6.42643C72.5532 5.86381 71.7897 5.50836 70.9738 5.41247C67.7113 5.02497 64.3613 5.08747 61.0363 5.53747C49.4238 7.06247 38.6863 13.75 31.8488 23.3875L26.3238 21.5875C24.2113 20.9 21.8488 21.625 20.4363 23.375L14.5738 30.6625C12.3613 33.2625 13.3363 37.6125 16.5113 38.9125L24.6238 42.4625C22.4488 44.4375 20.8238 46.95 19.7863 48.85C19.2988 49.75 19.3738 50.825 19.9738 51.65C20.7238 52.7125 22.0488 52.85 23.2238 52.5125C22.3988 54.45 21.6488 56.425 20.9863 58.475C20.8322 58.9436 20.8152 59.4464 20.9372 59.9243C21.0592 60.4022 21.3151 60.8354 21.6749 61.1728C22.0346 61.5103 22.4833 61.738 22.968 61.8291C23.4528 61.9203 23.9535 61.8712 24.4113 61.6875C26.4238 60.9 28.3488 60.025 30.2238 59.0875C29.7238 60.7875 30.8238 62.7375 32.6988 62.7125C33.1738 62.7125 33.6613 62.575 34.0863 62.3C35.9238 61.15 38.3238 59.3625 40.1488 57.075L44.1988 64.9625C45.6863 68.05 50.0863 68.7625 52.5488 66.3875L59.4613 60.0875C61.1238 58.575 61.6863 56.1625 60.8738 54.1L58.7363 48.6875C70.5738 39.25 77.0113 23.3375 74.2613 8.52497L74.2988 8.53747ZM71.8363 8.97497C72.6488 13.575 72.5738 18.325 71.6863 22.9125C66.5613 18.5875 61.4238 13.75 56.7863 8.89997C60.7113 7.88747 64.7863 7.47497 68.8363 7.72497C69.8988 7.87497 71.5738 7.57497 71.8488 8.97497H71.8363ZM15.9363 34.75C15.7238 33.8625 15.9363 32.95 16.5113 32.225L22.3738 24.9375C23.1363 23.9875 24.3988 23.6 25.5363 23.9625L30.3613 25.525C27.6299 29.8861 25.6838 34.6921 24.6113 39.725L17.4988 36.6125C16.7113 36.2625 16.1363 35.5875 15.9363 34.75ZM48.2613 52.3C46.0613 53.3125 43.7613 54.1125 41.4113 54.6875L26.9238 41.0625C27.4113 38.3625 28.2113 35.725 29.2363 33.1875L49.1363 51.9C48.8488 52.0375 48.5613 52.1625 48.2613 52.3ZM32.7738 60.1875L32.6238 60.0875C32.7988 58.6625 33.4238 55.1 30.9488 55.925C28.5238 57.1875 26.0988 58.35 23.4988 59.3625L23.3738 59.2375C24.2238 56.6 25.2363 54.0875 26.3488 51.6C27.0238 49.075 23.5113 49.9125 22.0863 50.1875L21.9738 50.05C22.9488 48.2625 24.4863 45.875 26.4988 44.125L38.3988 55.3125C36.7738 57.4375 34.4988 59.125 32.7738 60.2125V60.1875ZM57.7988 58.2375L50.8863 64.5375C49.5738 65.8 47.2363 65.4625 46.4363 63.8125L42.8863 56.9C45.9613 56.0375 48.9613 54.875 51.7738 53.3625C53.4738 52.4375 55.1238 51.4125 56.7113 50.2875L58.5738 55C59.0113 56.1 58.6988 57.4 57.7988 58.225V58.2375ZM61.2863 42.9625C58.4298 46.0207 55.1203 48.6219 51.4738 50.675L30.3113 30.7875C35.0113 21 43.9238 13.125 54.1113 9.72497C59.3113 15.2625 65.1863 20.775 71.0238 25.625C69.2988 32.025 65.9488 38.0125 61.2738 42.975L61.2863 42.9625Z" fill="#3391FF"/>
<path id="Vector_2" d="M51.737 19.575C39.4245 20.325 39.987 38.225 52.312 38.2125C64.6245 37.4625 64.062 19.5625 51.737 19.575ZM56.9995 33.5625C50.6745 39.9625 41.0495 30.925 47.062 24.2125C53.3745 17.8125 62.9995 26.8375 56.9995 33.5625ZM28.362 65.8625L21.912 72.725C20.7995 73.9125 22.612 75.625 23.737 74.4375L30.187 67.575C31.2995 66.3875 29.487 64.675 28.362 65.8625ZM14.562 54.875C14.4431 54.7623 14.3032 54.6742 14.1502 54.6157C13.9972 54.5573 13.8341 54.5295 13.6704 54.5342C13.5067 54.5388 13.3455 54.5757 13.196 54.6428C13.0466 54.7099 12.9118 54.8057 12.7995 54.925L5.42451 62.7625C5.31207 62.8815 5.22416 63.0215 5.16582 63.1744C5.10748 63.3274 5.07984 63.4904 5.08449 63.6541C5.08913 63.8177 5.12596 63.9789 5.19288 64.1283C5.2598 64.2777 5.3555 64.4125 5.47451 64.525C5.59352 64.6374 5.73351 64.7253 5.8865 64.7836C6.03948 64.842 6.20245 64.8696 6.36612 64.865C6.52978 64.8603 6.69093 64.8235 6.84035 64.7566C6.98978 64.6897 7.12457 64.594 7.23701 64.475L14.612 56.6375C15.087 56.1375 15.062 55.3375 14.562 54.875ZM15.962 65.3L9.51201 72.1625C8.74951 72.9125 9.37451 74.3 10.4245 74.275C10.762 74.275 11.087 74.1375 11.337 73.8875L17.787 67.025C18.8995 65.825 17.0995 64.125 15.962 65.3125V65.3ZM30.387 40.9125L34.0245 44.3375C35.212 45.45 36.9245 43.65 35.737 42.5125L32.0995 39.0875C30.912 37.975 29.1995 39.775 30.387 40.9125ZM38.5745 48.625C39.762 49.7375 41.4745 47.9375 40.287 46.8L38.462 45.0875C37.2745 43.975 35.562 45.775 36.7495 46.9125L38.5745 48.625ZM41.012 50.775C41.0396 50.8506 41.0774 50.9221 41.1245 50.9875L41.2745 51.175C41.7495 51.6625 42.5745 51.6625 43.0495 51.175C43.162 51.05 43.262 50.925 43.312 50.775C44.0245 48.5125 40.287 48.525 41.012 50.775Z" fill="#3391FF"/>
</g>
</g>
</svg>
