<svg width="80" height="80" viewBox="0 0 80 80" fill="none" xmlns="http://www.w3.org/2000/svg">
<g id="ic_understand">
<g clip-path="url(#clip0_166_2006)">
<g id="Group">
<path id="Vector" d="M1.96146 49.8547C2.40146 50.1587 2.8628 50.4267 3.34547 50.6547C3.9228 50.9493 4.88813 51.4427 4.95613 51.7893C5.04147 52.244 4.9868 52.7147 4.80013 53.1387C4.60146 53.5653 4.39213 53.932 4.21346 54.2493C3.72413 55.1107 2.90813 56.5547 4.14013 57.5627C4.42813 57.8293 4.92547 58.2147 5.38013 58.5627C5.04602 59.1461 4.8946 59.8163 4.94547 60.4867C5.01613 61.012 5.2988 61.484 5.72813 61.7933C6.02813 62.0067 6.34946 62.1933 6.66146 62.3733C7.44547 62.82 7.75213 63.028 7.86146 63.44C7.93347 63.9827 7.8828 64.5333 7.7148 65.0547C7.63195 65.4005 7.56389 65.7497 7.5108 66.1013C7.37747 67.3173 7.53347 68.548 7.96147 69.6933C8.25288 70.7273 8.86982 71.6398 9.72077 72.2955C10.5717 72.9512 11.6114 73.3151 12.6855 73.3333C13.0521 73.332 13.4161 73.2934 13.7748 73.2187C17.5839 72.316 21.3373 71.1927 25.0161 69.8547C28.0188 71.6173 29.9175 76.9773 30.4121 78.9893C30.4842 79.2781 30.6508 79.5345 30.8854 79.7177C31.12 79.9008 31.4092 80.0002 31.7068 80L65.1735 79.9067C65.3826 79.9063 65.5887 79.8567 65.7751 79.7619C65.9615 79.6671 66.1231 79.5298 66.2466 79.3611C66.3702 79.1924 66.4523 78.997 66.4864 78.7906C66.5205 78.5843 66.5055 78.3728 66.4428 78.1733C66.1131 77.27 65.6584 76.4173 65.0921 75.64C64.7719 75.1801 64.4832 74.699 64.2281 74.2C63.6255 72.9773 63.1215 71.7067 62.7228 70.404C61.9622 67.8271 61.4344 65.1872 61.1455 62.516C60.6774 58.527 61.2822 54.4853 62.8975 50.808C63.8841 48.768 65.0975 46.848 66.5188 45.084C67.3188 44.004 68.1495 42.8853 68.8948 41.7107C70.1763 39.72 71.1055 37.5234 71.6415 35.2173C71.7152 34.8752 71.6514 34.5178 71.464 34.2223C71.2765 33.9267 70.9804 33.7167 70.6394 33.6376C70.2985 33.5585 69.9401 33.6166 69.6417 33.7994C69.3432 33.9822 69.1286 34.275 69.0441 34.6147C68.5754 36.6273 67.7635 38.5442 66.6441 40.2813C65.9521 41.376 65.1521 42.4533 64.3775 43.496C62.8346 45.4211 61.518 47.5171 60.4535 49.7427C58.6478 53.8553 57.973 58.3754 58.4988 62.836C58.8055 65.6693 59.3695 68.468 60.1801 71.2C60.6182 72.6344 61.1715 74.0309 61.8348 75.376C62.1388 75.976 62.4841 76.556 62.8681 77.1093L62.9575 77.2427L32.7148 77.3333C31.8286 74.1706 30.2217 71.2562 28.0201 68.8187L29.2201 68.4013C30.1161 68.088 30.7921 67.852 31.1415 67.7347C36.8508 65.9147 39.7068 63.3147 39.6281 60.0013C39.6263 59.8262 39.5894 59.6531 39.5195 59.4925C39.4496 59.3319 39.3481 59.1869 39.2212 59.0662C39.0942 58.9455 38.9444 58.8514 38.7804 58.7897C38.6165 58.7279 38.4418 58.6997 38.2668 58.7067C37.9134 58.7151 37.5778 58.8635 37.3337 59.1192C37.0897 59.375 36.9572 59.7173 36.9655 60.0707C36.9975 61.4347 35.8735 63.432 30.3308 65.1973C29.9681 65.3133 29.2641 65.5573 28.3428 65.8813C27.3521 66.2267 26.0961 66.6667 24.7095 67.1373H24.7001C20.9504 68.5123 17.1245 69.6698 13.2415 70.604C12.6434 70.7164 12.0251 70.595 11.514 70.2648C11.0029 69.9346 10.6381 69.4207 10.4948 68.8293C10.208 68.0768 10.0954 67.269 10.1655 66.4667C10.2041 66.2 10.2668 65.92 10.3281 65.648C10.6119 64.7173 10.6577 63.7303 10.4615 62.7773C10.2701 62.1739 9.95128 61.6186 9.52663 61.1491C9.10198 60.6796 8.58139 60.3068 8.00013 60.056L7.71346 59.892C7.85718 59.6001 8.02959 59.3232 8.22813 59.0653C8.3387 58.9249 8.4199 58.7637 8.46691 58.5912C8.51392 58.4188 8.52577 58.2386 8.50176 58.0615C8.47776 57.8844 8.41838 57.7139 8.32717 57.5602C8.23595 57.4064 8.11476 57.2726 7.9708 57.1667C7.65213 56.932 6.90413 56.3667 6.34413 55.9213C6.40813 55.8053 6.47747 55.6773 6.54546 55.5627C6.7548 55.1947 6.9948 54.7627 7.2268 54.2733C7.64947 53.34 7.77347 52.2973 7.58146 51.2907C7.2628 49.664 5.70413 48.8667 4.5668 48.2853C4.18362 48.1031 3.81615 47.8894 3.46813 47.6467C3.1824 47.4553 2.91463 47.2384 2.66813 46.9987C2.66813 46.796 2.88546 46.3067 3.90013 45.0707C6.28603 41.9966 8.33133 38.6727 10.0001 35.1573C10.3135 34.6067 10.4895 33.988 10.5148 33.3547C10.4458 32.6916 10.2355 32.051 9.89809 31.476C9.56069 30.901 9.10401 30.405 8.5588 30.0213C8.0188 29.5253 7.50813 29.0587 7.4508 28.6653C7.46413 28.3387 7.53613 28.0173 7.6668 27.7173C7.88413 27.1467 8.13613 26.5867 8.3868 26.0253C8.94946 24.8667 9.39613 23.656 9.72013 22.4107C10.0268 20.9173 10.4268 19.4427 10.9201 18C11.9711 15.099 13.5984 12.4407 15.7041 10.1853C18.2535 7.48534 22.2668 5.57601 27.6535 4.50668C31.7738 3.60207 35.9547 2.99957 40.1628 2.70401C41.5787 2.63105 42.998 2.66135 44.4095 2.79468C44.5842 2.81096 44.7605 2.79267 44.9281 2.74084C45.0958 2.68901 45.2516 2.60466 45.3867 2.49261C45.5218 2.38056 45.6335 2.24301 45.7154 2.08779C45.7973 1.93258 45.8478 1.76276 45.8641 1.58801C45.8804 1.41326 45.8621 1.23702 45.8103 1.06935C45.7585 0.901671 45.6741 0.745846 45.5621 0.610767C45.45 0.475689 45.3125 0.364003 45.1573 0.282087C45.002 0.20017 44.8322 0.149627 44.6575 0.133343C43.1167 -0.00782843 41.5679 -0.0385736 40.0228 0.041343C35.6841 0.342676 31.3748 0.961343 27.1268 1.89201C21.1148 3.09201 16.7455 5.20001 13.7641 8.35201C11.4099 10.8687 9.59016 13.8365 8.4148 17.076C7.87446 18.6525 7.43578 20.262 7.10147 21.8947C6.8165 22.9417 6.43347 23.9595 5.95747 24.9347C5.6908 25.5413 5.41613 26.148 5.17613 26.7787C4.87268 27.4836 4.7481 28.2526 4.81347 29.0173C5.08928 30.2075 5.78104 31.26 6.76413 31.9853C7.41747 32.584 7.84813 33.0053 7.85347 33.3733C7.80493 33.5758 7.72866 33.7705 7.6268 33.952C6.03045 37.3141 4.07412 40.4932 1.79213 43.4333C0.826798 44.6107 -0.186535 45.9827 0.025465 47.356C0.309465 48.4147 1.0068 49.316 1.96146 49.8547Z" fill="#3391FF"/>
<path id="Vector_2" d="M15.9176 19.852C16.7203 17.6253 17.9656 15.5853 19.5763 13.852C21.3536 11.9707 24.427 10.5853 28.7123 9.73335C29.0592 9.66457 29.3646 9.4608 29.5613 9.16687C29.7579 8.87294 29.8298 8.51292 29.761 8.16602C29.6922 7.81911 29.4884 7.51374 29.1945 7.31708C28.9006 7.12041 28.5406 7.04857 28.1936 7.11735C23.355 8.08002 19.8043 9.72802 17.639 12.016C15.7784 14.013 14.3415 16.366 13.415 18.9333C12.9656 20.2653 12.6016 21.624 12.3203 23.0013L14.9243 23.5787C15.1799 22.3175 15.5116 21.073 15.9176 19.852ZM43.8123 7.46668L43.0123 11.456C42.2416 11.7093 41.491 12.0213 40.767 12.3893L37.3816 10.1227C36.8685 9.78663 36.2552 9.63776 35.6451 9.70115C35.035 9.76454 34.4654 10.0363 34.0323 10.4707L31.819 12.6827C31.3764 13.1172 31.0991 13.6924 31.0349 14.3094C30.9706 14.9263 31.1234 15.5463 31.467 16.0627L33.723 19.432C33.355 20.156 33.043 20.9067 32.7896 21.6773L28.8056 22.4773C28.2019 22.5993 27.659 22.9265 27.2691 23.4034C26.8792 23.8803 26.6665 24.4774 26.667 25.0933V28.24C26.6665 28.855 26.8787 29.4512 27.2675 29.9277C27.6562 30.4042 28.1978 30.7317 28.8003 30.8547L32.7896 31.6547C33.043 32.4254 33.355 33.176 33.723 33.9L31.4563 37.2854C31.1203 37.7985 30.9714 38.4118 31.0348 39.0219C31.0982 39.632 31.37 40.2016 31.8043 40.6347L34.0176 42.848C34.4531 43.2887 35.028 43.5646 35.6442 43.6285C36.2604 43.6925 36.8797 43.5406 37.3963 43.1987L40.7656 40.9427C41.4896 41.3107 42.2403 41.6227 43.011 41.876L43.811 45.86C43.9327 46.464 44.2598 47.0073 44.7367 47.3974C45.2136 47.7875 45.8108 48.0004 46.427 48H49.5737C50.1886 48.0005 50.7849 47.7883 51.2613 47.3995C51.7378 47.0108 52.0653 46.4692 52.1883 45.8667L52.9883 41.8773C53.759 41.624 54.5096 41.312 55.2336 40.944L58.619 43.2107C59.1321 43.5467 59.7454 43.6956 60.3555 43.6322C60.9656 43.5688 61.5352 43.297 61.9683 42.8627L64.1803 40.6507C64.6229 40.2162 64.9002 39.6409 64.9645 39.024C65.0287 38.4071 64.8759 37.7871 64.5323 37.2707L62.2763 33.9014C62.6443 33.1773 62.9563 32.4267 63.2097 31.656L67.1936 30.856C67.9856 30.696 68.6603 30.1854 69.0296 29.4667L71.039 30.8134C71.4257 31.0574 71.875 31.1867 72.3337 31.188C72.6501 31.1881 72.9635 31.1256 73.2557 31.0041C73.5479 30.8826 73.8132 30.7045 74.0363 30.48L75.8097 28.7067C76.201 28.3134 76.4454 27.7976 76.5019 27.2457C76.5584 26.6938 76.4237 26.1392 76.1203 25.6747L74.4003 23.1013C74.6498 22.5999 74.8654 22.0823 75.0457 21.552L78.063 20.9507C78.6103 20.8432 79.1031 20.5484 79.4566 20.1169C79.8102 19.6855 80.0024 19.1445 80.0003 18.5867V16.08C80.0023 15.5242 79.8113 14.9849 79.4599 14.5543C79.1085 14.1236 78.6186 13.8283 78.0737 13.7187L75.043 13.1147C74.8641 12.5843 74.6494 12.0666 74.4003 11.5653L76.147 8.96135C76.7523 8.00802 76.6137 6.76135 75.8137 5.96402L74.0403 4.19068C73.6471 3.79915 73.1314 3.55462 72.5794 3.49806C72.0274 3.4415 71.4727 3.57635 71.0083 3.88002L68.435 5.60002C67.9335 5.35053 67.4159 5.13493 66.8857 4.95468L66.283 1.93735C66.1755 1.39026 65.8809 0.897662 65.4498 0.544139C65.0186 0.190617 64.4779 -0.00176975 63.9203 1.49556e-05H61.4137C60.8578 -0.00194641 60.3186 0.189067 59.8879 0.540446C59.4573 0.891825 59.1619 1.38178 59.0523 1.92668L58.4483 4.95735C57.9178 5.13749 57.4002 5.35354 56.899 5.60402L54.295 3.85735C53.8319 3.56402 53.2826 3.43721 52.7378 3.4978C52.193 3.55839 51.685 3.80277 51.2976 4.19068L50.0977 5.39068C49.9252 5.35473 49.7498 5.33553 49.5737 5.33335H46.427C45.812 5.33292 45.2158 5.54505 44.7393 5.93383C44.2628 6.32261 43.9353 6.86413 43.8123 7.46668ZM64.1963 12.6933L63.5737 12.0707C64.6994 12.2214 65.7471 12.7294 66.5625 13.5199C67.378 14.3105 67.9183 15.3419 68.1038 16.4625C68.2894 17.583 68.1104 18.7335 67.5932 19.7447C67.0761 20.7559 66.2481 21.5745 65.231 22.08L63.207 21.68C62.9537 20.9088 62.6417 20.1582 62.2737 19.4347L64.5403 16.0493C64.8776 15.5364 65.0275 14.9228 64.9648 14.3121C64.9022 13.7015 64.6307 13.1311 64.1963 12.6973V12.6933ZM53.0363 6.21868L56.0843 8.26668C56.2937 8.40711 56.5387 8.48528 56.7907 8.49213C57.0428 8.49897 57.2916 8.43421 57.5083 8.30535C58.2716 7.85615 59.0924 7.51299 59.9483 7.28535C60.1881 7.2206 60.405 7.09018 60.5746 6.90879C60.7442 6.72739 60.8598 6.50223 60.9083 6.25868L61.6243 2.66668H63.7097L64.4257 6.26668C64.4742 6.51023 64.5898 6.73539 64.7594 6.91679C64.929 7.09818 65.1459 7.2286 65.3857 7.29335C66.2417 7.52002 67.063 7.86402 67.8256 8.31335C68.0431 8.44104 68.2924 8.50443 68.5444 8.49617C68.7965 8.48791 69.041 8.40833 69.2496 8.26668L72.2977 6.22135L73.7777 7.70135L71.7337 10.7507C71.5932 10.9601 71.515 11.205 71.5082 11.4571C71.5014 11.7091 71.5661 11.958 71.695 12.1747C72.1443 12.9373 72.487 13.7587 72.715 14.6147C72.7797 14.8544 72.9102 15.0713 73.0915 15.241C73.2729 15.4106 73.4981 15.5262 73.7417 15.5747L77.3417 16.2907V18.376L73.7483 19.092C73.5048 19.1405 73.2796 19.2561 73.0982 19.4257C72.9168 19.5954 72.7864 19.8123 72.7217 20.052C72.494 20.9079 72.1509 21.7288 71.7017 22.492C71.5728 22.7087 71.508 22.9576 71.5149 23.2096C71.5217 23.4617 71.5999 23.7066 71.7403 23.916L73.7857 26.964L72.3057 28.444L69.3337 26.456V25.0933C69.3337 24.3133 68.9923 23.5707 68.4003 23.0627C69.5477 21.9574 70.338 20.5339 70.6696 18.9756C71.0011 17.4173 70.8588 15.7955 70.2607 14.3188C69.6627 12.8421 68.6364 11.5782 67.314 10.6897C65.9916 9.8012 64.4335 9.32882 62.8403 9.33335C62.0342 9.33842 61.2338 9.46979 60.4683 9.72268C59.8168 9.62777 59.1531 9.77379 58.6017 10.1333L55.235 12.3893C54.5115 12.0213 53.7609 11.7093 52.9897 11.456L52.1896 7.47202C52.1661 7.36519 52.1353 7.26006 52.0977 7.15735L53.0363 6.21868ZM45.467 12.7693L46.427 8.00002H49.5737L50.5323 12.7733C50.5812 13.0163 50.6968 13.2407 50.8661 13.4216C51.0354 13.6025 51.2518 13.7326 51.491 13.7973C52.5923 14.0947 53.651 14.5333 54.639 15.104C54.8548 15.2292 55.1014 15.2913 55.3508 15.2833C55.6002 15.2753 55.8423 15.1975 56.0496 15.0587L60.0843 12.36L62.319 14.5827L59.6123 18.6213C59.4735 18.8287 59.3957 19.0708 59.3877 19.3202C59.3797 19.5696 59.4418 19.8162 59.567 20.032C60.1376 21.02 60.5763 22.0787 60.8737 23.18C60.9384 23.4192 61.0685 23.6356 61.2494 23.8049C61.4303 23.9742 61.6547 24.0898 61.8977 24.1387L66.667 25.092V28.24L61.8937 29.1987C61.6507 29.2476 61.4263 29.3631 61.2454 29.5325C61.0645 29.7018 60.9344 29.9182 60.8697 30.1573C60.5727 31.259 60.1334 32.3172 59.563 33.3054C59.4378 33.5212 59.3757 33.7678 59.3837 34.0172C59.3917 34.2665 59.4695 34.5087 59.6083 34.716L62.307 38.7507L60.0843 40.9854L56.0457 38.2787C55.8383 38.1399 55.5962 38.0621 55.3468 38.0541C55.0974 38.046 54.8508 38.1082 54.635 38.2333C53.6469 38.8038 52.5886 39.243 51.487 39.54C51.2478 39.6048 51.0314 39.7349 50.8621 39.9158C50.6928 40.0966 50.5772 40.3211 50.5283 40.564L49.5737 45.3334H46.427L45.4683 40.56C45.4194 40.3171 45.3039 40.0926 45.1345 39.9118C44.9652 39.7309 44.7488 39.6008 44.5097 39.536C43.408 39.239 42.3498 38.7998 41.3616 38.2294C41.1458 38.1042 40.8992 38.042 40.6498 38.0501C40.4004 38.0581 40.1583 38.1359 39.951 38.2747L35.9163 40.9734L33.6816 38.7507L36.3883 34.712C36.5271 34.5047 36.6049 34.2625 36.6129 34.0132C36.621 33.7638 36.5588 33.5172 36.4337 33.3013C35.8632 32.3132 35.424 31.255 35.127 30.1533C35.0622 29.9142 34.9321 29.6978 34.7512 29.5285C34.5704 29.3591 34.3459 29.2436 34.103 29.1947L29.3336 28.24V25.0933L34.107 24.1347C34.3499 24.0858 34.5744 23.9702 34.7552 23.8009C34.9361 23.6316 35.0662 23.4152 35.131 23.176C35.4283 22.0747 35.867 21.016 36.4376 20.028C36.5628 19.8122 36.625 19.5656 36.6169 19.3162C36.6089 19.0668 36.5311 18.8247 36.3923 18.6173L33.6936 14.5827L35.9163 12.348L39.955 15.0547C40.1623 15.1935 40.4045 15.2713 40.6538 15.2793C40.9032 15.2873 41.1498 15.2252 41.3656 15.1C42.3538 14.5296 43.412 14.0903 44.5136 13.7933C44.7518 13.7277 44.9671 13.5972 45.1354 13.4164C45.3037 13.2356 45.4185 13.0116 45.467 12.7693Z" fill="#3391FF"/>
<path id="Vector_3" d="M47.9993 36C49.8453 36 51.6498 35.4526 53.1847 34.427C54.7195 33.4015 55.9158 31.9438 56.6222 30.2384C57.3286 28.5329 57.5135 26.6563 57.1533 24.8458C56.7932 23.0353 55.9043 21.3723 54.599 20.067C53.2937 18.7617 51.6307 17.8728 49.8202 17.5127C48.0097 17.1525 46.1331 17.3374 44.4276 18.0438C42.7222 18.7502 41.2645 19.9465 40.239 21.4813C39.2134 23.0162 38.666 24.8207 38.666 26.6667C38.6688 29.1411 39.6531 31.5135 41.4028 33.2632C43.1525 35.0129 45.5249 35.9972 47.9993 36ZM47.9993 20C49.7675 20 51.4632 20.7024 52.7134 21.9526C53.9636 23.2028 54.666 24.8985 54.666 26.6667C54.666 28.4348 53.9636 30.1305 52.7134 31.3807C51.4632 32.6309 49.7675 33.3333 47.9993 33.3333C46.2312 33.3333 44.5355 32.6309 43.2853 31.3807C42.0351 30.1305 41.3327 28.4348 41.3327 26.6667C41.3327 24.8985 42.0351 23.2028 43.2853 21.9526C44.5355 20.7024 46.2312 20 47.9993 20Z" fill="#3391FF"/>
<path id="Vector_4" d="M47.9993 28C48.7357 28 49.3327 27.4031 49.3327 26.6667C49.3327 25.9303 48.7357 25.3334 47.9993 25.3334C47.263 25.3334 46.666 25.9303 46.666 26.6667C46.666 27.4031 47.263 28 47.9993 28Z" fill="#3391FF"/>
<path id="Vector_5" d="M12.0003 29.3334C12.7367 29.3334 13.3337 28.7364 13.3337 28C13.3337 27.2636 12.7367 26.6667 12.0003 26.6667C11.2639 26.6667 10.667 27.2636 10.667 28C10.667 28.7364 11.2639 29.3334 12.0003 29.3334Z" fill="#3391FF"/>
</g>
</g>
</g>
<defs>
<clipPath id="clip0_166_2006">
<rect width="80" height="80" fill="white"/>
</clipPath>
</defs>
</svg>
