<svg width="500" height="500" viewBox="0 0 500 500" fill="none" xmlns="http://www.w3.org/2000/svg">
<path d="M500 382.4H0V382.65H500V382.4Z" fill="#EBEBEB"/>
<path d="M115.331 391.92H90.4609V392.17H115.331V391.92Z" fill="#EBEBEB"/>
<path d="M179.83 389.21H152.33V389.46H179.83V389.21Z" fill="#EBEBEB"/>
<path d="M105.78 401.21H47.6699V401.46H105.78V401.21Z" fill="#EBEBEB"/>
<path d="M449.901 399.53H428.301V399.78H449.901V399.53Z" fill="#EBEBEB"/>
<path d="M242.719 391.14H214.789V391.39H242.719V391.14Z" fill="#EBEBEB"/>
<path d="M370.89 395.31H300.67V395.56H370.89V395.31Z" fill="#EBEBEB"/>
<path d="M237.001 337.8H43.9109C42.3983 337.797 40.9485 337.195 39.8798 336.124C38.8112 335.053 38.2109 333.603 38.2109 332.09V60.66C38.2241 59.156 38.8301 57.718 39.8974 56.6582C40.9646 55.5985 42.4069 55.0026 43.9109 55H237.001C238.515 55 239.968 55.6016 241.039 56.6724C242.109 57.7433 242.711 59.1956 242.711 60.71V332.09C242.711 333.604 242.109 335.057 241.039 336.128C239.968 337.198 238.515 337.8 237.001 337.8ZM43.9109 55.2C42.4646 55.2026 41.0784 55.7791 40.0566 56.8027C39.0348 57.8264 38.4609 59.2136 38.4609 60.66V332.09C38.4609 333.536 39.0348 334.924 40.0566 335.947C41.0784 336.971 42.4646 337.547 43.9109 337.55H237.001C238.448 337.547 239.835 336.971 240.859 335.948C241.882 334.924 242.458 333.537 242.461 332.09V60.66C242.458 59.2127 241.882 57.8255 240.859 56.8021C239.835 55.7787 238.448 55.2026 237.001 55.2H43.9109Z" fill="#EBEBEB"/>
<path d="M453.31 337.8H260.21C258.696 337.797 257.246 337.195 256.175 336.125C255.105 335.054 254.503 333.604 254.5 332.09V60.66C254.516 59.1551 255.124 57.7171 256.193 56.6576C257.262 55.5981 258.705 55.0025 260.21 55H453.31C454.812 55.0052 456.252 55.6022 457.317 56.6617C458.382 57.7212 458.987 59.1578 459 60.66V332.09C459 333.601 458.401 335.05 457.335 336.121C456.268 337.191 454.821 337.795 453.31 337.8ZM260.21 55.2C258.763 55.2026 257.375 55.7787 256.352 56.8021C255.329 57.8255 254.753 59.2127 254.75 60.66V332.09C254.753 333.537 255.329 334.924 256.352 335.948C257.375 336.971 258.763 337.547 260.21 337.55H453.31C454.757 337.547 456.145 336.971 457.168 335.948C458.191 334.924 458.767 333.537 458.77 332.09V60.66C458.767 59.2127 458.191 57.8255 457.168 56.8021C456.145 55.7787 454.757 55.2026 453.31 55.2H260.21Z" fill="#EBEBEB"/>
<path d="M321.02 64.6201H31.85C27.1004 64.6201 23.25 68.4705 23.25 73.2201V251.31C23.25 256.06 27.1004 259.91 31.85 259.91H321.02C325.77 259.91 329.62 256.06 329.62 251.31V73.2201C329.62 68.4705 325.77 64.6201 321.02 64.6201Z" fill="#EBEBEB"/>
<path d="M329.62 74.5H23.25V231.92H329.62V74.5Z" fill="#FAFAFA"/>
<path d="M231.27 134.14C231.275 132.192 232.051 130.326 233.428 128.949C234.805 127.571 236.672 126.795 238.62 126.79H467.62C469.567 126.795 471.434 127.571 472.811 128.949C474.188 130.326 474.964 132.192 474.97 134.14V157.8H231.27V134.14Z" fill="#E6E6E6"/>
<path d="M290.71 147.86C293.781 147.86 296.27 145.371 296.27 142.3C296.27 139.229 293.781 136.74 290.71 136.74C287.64 136.74 285.15 139.229 285.15 142.3C285.15 145.371 287.64 147.86 290.71 147.86Z" fill="white"/>
<path d="M271.009 147.86C274.08 147.86 276.569 145.371 276.569 142.3C276.569 139.229 274.08 136.74 271.009 136.74C267.939 136.74 265.449 139.229 265.449 142.3C265.449 145.371 267.939 147.86 271.009 147.86Z" fill="white"/>
<path d="M251.32 147.86C254.39 147.86 256.88 145.371 256.88 142.3C256.88 139.229 254.39 136.74 251.32 136.74C248.249 136.74 245.76 139.229 245.76 142.3C245.76 145.371 248.249 147.86 251.32 147.86Z" fill="white"/>
<path d="M467.59 285.2H238.59C236.643 285.195 234.776 284.419 233.399 283.042C232.022 281.664 231.246 279.798 231.24 277.85V157.85H474.94V277.85C474.935 279.798 474.159 281.664 472.782 283.042C471.404 284.419 469.538 285.195 467.59 285.2Z" fill="#F5F5F5"/>
<path d="M198.551 175.07C198.556 173.122 199.332 171.256 200.709 169.879C202.087 168.501 203.953 167.725 205.901 167.72H434.901C436.848 167.725 438.715 168.501 440.092 169.879C441.469 171.256 442.245 173.122 442.251 175.07V198.73H198.551V175.07Z" fill="#F0F0F0"/>
<path d="M257.98 188.79C261.051 188.79 263.54 186.301 263.54 183.23C263.54 180.159 261.051 177.67 257.98 177.67C254.909 177.67 252.42 180.159 252.42 183.23C252.42 186.301 254.909 188.79 257.98 188.79Z" fill="#E6E6E6"/>
<path d="M238.281 188.79C241.351 188.79 243.841 186.301 243.841 183.23C243.841 180.159 241.351 177.67 238.281 177.67C235.21 177.67 232.721 180.159 232.721 183.23C232.721 186.301 235.21 188.79 238.281 188.79Z" fill="#E6E6E6"/>
<path d="M218.589 188.79C221.66 188.79 224.149 186.301 224.149 183.23C224.149 180.159 221.66 177.67 218.589 177.67C215.519 177.67 213.029 180.159 213.029 183.23C213.029 186.301 215.519 188.79 218.589 188.79Z" fill="#E6E6E6"/>
<path d="M434.86 326.13H205.86C203.912 326.125 202.046 325.349 200.668 323.971C199.291 322.594 198.515 320.728 198.51 318.78V198.78H442.21V318.78C442.204 320.728 441.428 322.594 440.051 323.971C438.674 325.349 436.807 326.125 434.86 326.13Z" fill="#FAFAFA"/>
<path d="M165.82 216C165.826 214.052 166.602 212.186 167.979 210.809C169.356 209.431 171.223 208.655 173.17 208.65H402.17C404.118 208.655 405.984 209.431 407.362 210.809C408.739 212.186 409.515 214.052 409.52 216V239.66H165.82V216Z" fill="#FAFAFA"/>
<path d="M225.249 229.72C228.32 229.72 230.809 227.231 230.809 224.16C230.809 221.089 228.32 218.6 225.249 218.6C222.179 218.6 219.689 221.089 219.689 224.16C219.689 227.231 222.179 229.72 225.249 229.72Z" fill="#F0F0F0"/>
<path d="M205.55 229.72C208.621 229.72 211.11 227.231 211.11 224.16C211.11 221.089 208.621 218.6 205.55 218.6C202.48 218.6 199.99 221.089 199.99 224.16C199.99 227.231 202.48 229.72 205.55 229.72Z" fill="#F0F0F0"/>
<path d="M185.861 229.72C188.931 229.72 191.421 227.231 191.421 224.16C191.421 221.089 188.931 218.6 185.861 218.6C182.79 218.6 180.301 221.089 180.301 224.16C180.301 227.231 182.79 229.72 185.861 229.72Z" fill="#F0F0F0"/>
<path d="M402.129 367.06H173.129C171.182 367.055 169.315 366.279 167.938 364.901C166.561 363.524 165.785 361.658 165.779 359.71V239.71H409.479V359.71C409.474 361.658 408.698 363.524 407.321 364.901C405.943 366.279 404.077 367.055 402.129 367.06Z" fill="#E6E6E6"/>
<path d="M249.999 427.56C357.082 427.56 443.889 422.492 443.889 416.24C443.889 409.988 357.082 404.92 249.999 404.92C142.917 404.92 56.1094 409.988 56.1094 416.24C56.1094 422.492 142.917 427.56 249.999 427.56Z" fill="#F5F5F5"/>
<path d="M191.16 82.5H182.33V83.5H191.16V82.5Z" fill="#3391FF"/>
<path d="M171.84 82.5H150.17V83.5H171.84V82.5Z" fill="#3391FF"/>
<path d="M90.3301 86H409.67C412.853 86 415.905 87.2643 418.155 89.5147C420.406 91.7652 421.67 94.8174 421.67 98V373.72H78.3301V98C78.3301 94.8174 79.5944 91.7652 81.8448 89.5147C84.0952 87.2643 87.1475 86 90.3301 86Z" fill="#3391FF"/>
<path opacity="0.8" d="M421.66 104H78.3301V369.06H421.66V104Z" fill="white"/>
<path opacity="0.4" d="M421.66 104H78.3301V162.27H421.66V104Z" fill="#3391FF"/>
<path opacity="0.4" d="M414.58 109.57H400.25V123.9H414.58V109.57Z" fill="#3391FF"/>
<path opacity="0.4" d="M393.32 109.57H378.99V123.9H393.32V109.57Z" fill="#3391FF"/>
<path opacity="0.4" d="M372.06 109.57H357.73V123.9H372.06V109.57Z" fill="#3391FF"/>
<path opacity="0.4" d="M143.291 359.5H128.961V360.94H143.291V359.5Z" fill="#3391FF"/>
<path opacity="0.4" d="M122.029 359.5H107.699V360.94H122.029V359.5Z" fill="#3391FF"/>
<path opacity="0.4" d="M100.769 359.5H86.4395V360.94H100.769V359.5Z" fill="#3391FF"/>
<path d="M215.689 137.2H211.319L210.709 139.26H206.779L211.459 126.79H215.669L220.349 139.26H216.349L215.689 137.2ZM214.889 134.51L213.519 130L212.149 134.49L214.889 134.51Z" fill="white"/>
<path d="M221.359 126.79H224.859V131.11C225.186 130.759 225.586 130.483 226.029 130.3C226.493 130.112 226.989 130.017 227.489 130.02C228.004 130.008 228.514 130.108 228.986 130.314C229.457 130.519 229.878 130.825 230.219 131.21C230.996 132.17 231.382 133.388 231.299 134.62C231.318 135.511 231.151 136.397 230.809 137.22C230.529 137.906 230.052 138.494 229.439 138.91C228.864 139.278 228.193 139.469 227.509 139.46C226.929 139.466 226.356 139.333 225.839 139.07C225.353 138.774 224.931 138.383 224.599 137.92V139.26H221.359V126.79ZM224.829 134.72C224.781 135.317 224.936 135.913 225.269 136.41C225.403 136.575 225.572 136.708 225.764 136.798C225.957 136.888 226.167 136.933 226.379 136.93C226.575 136.925 226.766 136.876 226.94 136.786C227.113 136.696 227.263 136.567 227.379 136.41C227.707 135.896 227.854 135.287 227.799 134.68C227.841 134.126 227.697 133.573 227.389 133.11C227.272 132.956 227.121 132.831 226.947 132.744C226.774 132.657 226.583 132.612 226.389 132.61C226.171 132.602 225.953 132.645 225.753 132.735C225.554 132.825 225.378 132.961 225.239 133.13C224.919 133.595 224.774 134.158 224.829 134.72Z" fill="white"/>
<path d="M232.529 134.77C232.511 134.135 232.626 133.504 232.868 132.917C233.109 132.329 233.47 131.799 233.929 131.36C234.437 130.896 235.031 130.537 235.678 130.304C236.325 130.07 237.012 129.967 237.699 130C238.455 129.947 239.213 130.061 239.92 130.334C240.627 130.607 241.265 131.032 241.789 131.58C242.557 132.51 242.955 133.69 242.907 134.895C242.859 136.099 242.368 137.244 241.529 138.11C241.01 138.573 240.404 138.929 239.747 139.157C239.09 139.386 238.394 139.482 237.699 139.44C236.433 139.497 235.187 139.108 234.179 138.34C233.648 137.912 233.224 137.367 232.937 136.748C232.651 136.129 232.512 135.452 232.529 134.77ZM235.999 134.77C235.952 135.405 236.125 136.037 236.489 136.56C236.641 136.737 236.83 136.88 237.042 136.978C237.255 137.075 237.485 137.126 237.719 137.126C237.953 137.126 238.184 137.075 238.396 136.978C238.608 136.88 238.797 136.737 238.949 136.56C239.315 136.023 239.485 135.377 239.429 134.73C239.488 134.121 239.336 133.51 238.999 133C238.855 132.821 238.672 132.677 238.464 132.578C238.257 132.479 238.029 132.429 237.799 132.43C237.56 132.424 237.323 132.473 237.106 132.573C236.889 132.674 236.699 132.823 236.549 133.01C236.166 133.511 235.972 134.13 235.999 134.76V134.77Z" fill="white"/>
<path d="M254.09 139.26H250.86V137.8C250.468 138.324 249.971 138.76 249.4 139.08C248.836 139.353 248.215 139.483 247.59 139.46C247.177 139.484 246.765 139.42 246.379 139.274C245.993 139.127 245.642 138.901 245.35 138.61C244.752 137.87 244.462 136.928 244.54 135.98V130.23H248V135.23C247.958 135.657 248.068 136.085 248.31 136.44C248.422 136.562 248.56 136.658 248.714 136.72C248.868 136.782 249.034 136.81 249.2 136.8C249.392 136.802 249.582 136.76 249.756 136.677C249.929 136.594 250.081 136.472 250.2 136.32C250.521 135.811 250.662 135.209 250.6 134.61V130.27H254.06L254.09 139.26Z" fill="white"/>
<path d="M260.369 126.79V130.23H262.269V132.76H260.369V136C260.345 136.262 260.382 136.526 260.479 136.77C260.542 136.867 260.63 136.945 260.734 136.994C260.839 137.043 260.954 137.063 261.069 137.05C261.435 137.031 261.796 136.956 262.139 136.83L262.399 139.22C261.612 139.4 260.807 139.494 259.999 139.5C259.349 139.541 258.698 139.428 258.099 139.17C257.689 138.952 257.367 138.599 257.189 138.17C256.954 137.465 256.856 136.722 256.899 135.98V132.8H255.619V130.27H256.899V128.61L260.369 126.79Z" fill="white"/>
<path d="M278.071 126.79H281.911V134.22C281.917 134.931 281.802 135.638 281.571 136.31C281.345 136.954 280.975 137.539 280.491 138.02C280.053 138.457 279.529 138.798 278.951 139.02C278.081 139.31 277.168 139.449 276.251 139.43C275.582 139.428 274.914 139.385 274.251 139.3C273.629 139.244 273.022 139.074 272.461 138.8C271.95 138.532 271.498 138.165 271.131 137.72C270.76 137.306 270.48 136.819 270.311 136.29C270.093 135.607 269.975 134.897 269.961 134.18V126.75H273.801V134.36C273.785 134.649 273.826 134.938 273.922 135.211C274.018 135.484 274.167 135.735 274.361 135.95C274.57 136.146 274.818 136.298 275.087 136.396C275.357 136.494 275.644 136.536 275.931 136.52C276.216 136.539 276.501 136.499 276.769 136.403C277.038 136.307 277.284 136.156 277.491 135.96C277.689 135.746 277.842 135.493 277.94 135.218C278.038 134.943 278.079 134.651 278.061 134.36L278.071 126.79Z" fill="white"/>
<path d="M283.619 136.75L287.059 136.43C287.156 136.776 287.363 137.082 287.649 137.3C287.948 137.488 288.296 137.582 288.649 137.57C289.033 137.596 289.414 137.49 289.729 137.27C289.821 137.21 289.896 137.129 289.949 137.033C290.001 136.937 290.029 136.829 290.029 136.72C290.027 136.596 289.99 136.475 289.92 136.372C289.851 136.269 289.753 136.188 289.639 136.14C289.156 135.968 288.657 135.848 288.149 135.78C287.301 135.657 286.465 135.463 285.649 135.2C285.178 135.018 284.769 134.706 284.469 134.3C284.144 133.883 283.971 133.368 283.979 132.84C283.97 132.285 284.154 131.745 284.499 131.31C284.875 130.851 285.37 130.505 285.929 130.31C286.72 130.073 287.544 129.965 288.369 129.99C289.174 129.962 289.978 130.046 290.759 130.24C291.242 130.389 291.681 130.653 292.039 131.01C292.42 131.412 292.712 131.889 292.899 132.41L289.609 132.73C289.55 132.473 289.401 132.246 289.189 132.09C288.891 131.901 288.542 131.806 288.189 131.82C287.891 131.796 287.592 131.87 287.339 132.03C287.257 132.087 287.189 132.164 287.142 132.252C287.095 132.341 287.07 132.44 287.069 132.54C287.069 132.648 287.102 132.753 287.163 132.842C287.223 132.931 287.309 133 287.409 133.04C287.887 133.205 288.385 133.306 288.889 133.34C289.767 133.407 290.631 133.592 291.459 133.89C291.978 134.09 292.426 134.438 292.749 134.89C293.038 135.307 293.191 135.803 293.189 136.31C293.182 136.851 293.018 137.379 292.719 137.83C292.352 138.363 291.833 138.774 291.229 139.01C290.343 139.333 289.402 139.479 288.459 139.44C287.244 139.538 286.025 139.295 284.939 138.74C284.257 138.273 283.784 137.56 283.619 136.75Z" fill="white"/>
<path d="M149.18 275.12C176.794 275.12 199.18 252.734 199.18 225.12C199.18 197.506 176.794 175.12 149.18 175.12C121.565 175.12 99.1797 197.506 99.1797 225.12C99.1797 252.734 121.565 275.12 149.18 275.12Z" fill="#3391FF"/>
<path d="M182.676 258.613C201.176 240.114 201.176 210.121 182.676 191.622C164.177 173.123 134.184 173.123 115.685 191.622C97.186 210.121 97.186 240.114 115.685 258.613C134.184 277.112 164.177 277.112 182.676 258.613Z" fill="white"/>
<mask id="mask0_196_953" style="mask-type:luminance" maskUnits="userSpaceOnUse" x="101" y="177" width="96" height="96">
<path d="M182.676 258.613C201.176 240.114 201.176 210.121 182.676 191.622C164.177 173.123 134.184 173.123 115.685 191.622C97.186 210.121 97.186 240.114 115.685 258.613C134.184 277.112 164.177 277.112 182.676 258.613Z" fill="white"/>
</mask>
<g mask="url(#mask0_196_953)">
<path d="M151.6 235L155.6 226.68C155.6 226.68 176.48 233.28 179.6 234.81C179.52 229.59 182.18 219.81 182.47 214.45C183.26 213.7 185.17 211.81 186.16 211.88C189.16 218.88 188.51 242.88 182.61 243.31C173.18 243.91 151.6 235 151.6 235Z" fill="#FFBE9D"/>
<path d="M149.001 233.7C151.411 239.35 171.201 244.38 171.201 244.38L175.201 232.22C175.201 232.22 167.661 226.5 159.831 224.65C151.821 222.74 146.341 227.5 149.001 233.7Z" fill="#3391FF"/>
<path opacity="0.2" d="M149.35 234.36C151.7 237.91 160.44 241.13 166.13 242.92C162.34 235.56 157.23 231.5 149.35 234.36Z" fill="black"/>
<path d="M182.45 215.51L179.26 211.42L185.16 208.13C186.321 209.886 186.918 211.955 186.87 214.06L182.45 215.51Z" fill="#FFBE9D"/>
<path d="M178.391 205.76L184.141 204.83L185.161 208.13L179.261 211.42L178.391 205.76Z" fill="#FFBE9D"/>
<path d="M160.31 225.06C160.31 225.06 168.37 244.46 162.05 280.61H130.55C130.18 275.33 132.87 249.61 127.17 224.73C130.957 223.992 134.789 223.504 138.64 223.27C143.506 222.99 148.384 222.99 153.25 223.27C158.35 223.74 160.31 225.06 160.31 225.06Z" fill="#3391FF"/>
<path opacity="0.2" d="M134.779 230.86C135.459 234.96 134.409 244.75 130.779 256.06C130.599 246.368 129.569 236.711 127.699 227.2C129.999 226.92 134.139 227 134.779 230.86Z" fill="black"/>
<path d="M140.211 209.61C141.211 214.31 141.851 220.14 138.641 223.27C138.641 223.27 140.641 228.04 149.381 228.04C157.381 228.04 153.251 223.27 153.251 223.27C147.981 222.02 148.091 215.54 148.921 211.88L140.211 209.61Z" fill="#FFBE9D"/>
<path d="M149.79 227.66L151.69 229.76C151.754 229.833 151.799 229.92 151.82 230.015C151.841 230.109 151.837 230.207 151.81 230.3L151.2 232.15C151.166 232.252 151.101 232.34 151.016 232.405C150.93 232.469 150.827 232.506 150.72 232.51L148.72 232.61C148.623 232.616 148.527 232.596 148.441 232.552C148.355 232.508 148.282 232.442 148.23 232.36L147 230.57C146.928 230.473 146.889 230.356 146.889 230.235C146.889 230.114 146.928 229.997 147 229.9L149 227.66C149.105 227.556 149.247 227.497 149.395 227.497C149.543 227.497 149.685 227.556 149.79 227.66Z" fill="white"/>
<path d="M149.38 227.2C148.41 228.824 147.873 230.669 147.82 232.56C147.82 232.56 136.82 228.7 137.15 223.04C137.15 223.04 138.68 222.12 139.65 221.37C139.65 221.37 140.11 224.94 149.38 227.2Z" fill="#263238"/>
<path d="M149.381 227.2C150.419 228.721 151.181 230.414 151.631 232.2C151.631 232.2 156.511 228.84 154.881 223.25C153.965 222.883 153.022 222.586 152.061 222.36C152.061 222.36 152.801 226 149.381 227.2Z" fill="#263238"/>
<path d="M150.27 232.22C150.27 232.22 153.4 255.22 153.47 259.22C153.427 263.006 152.831 266.766 151.7 270.38C151.7 270.38 149.55 266.31 149.18 259.05C148.81 251.79 149.26 236.29 149.1 232.21L150.27 232.22Z" fill="white"/>
<path opacity="0.2" d="M148.921 211.89C148.277 214.434 148.353 217.107 149.141 219.61C148.327 219.484 147.535 219.242 146.791 218.89C143.791 217.49 142.281 215.3 140.691 212.05C140.551 211.21 140.391 210.4 140.221 209.61L148.921 211.89Z" fill="black"/>
<path d="M157.211 208.59C156.855 209.291 156.362 209.914 155.761 210.421C155.159 210.928 154.462 211.308 153.711 211.54C151.711 212.13 150.621 210.3 151.121 208.35C151.581 206.59 153.121 204.17 155.221 204.42C155.672 204.488 156.099 204.666 156.465 204.937C156.831 205.209 157.126 205.566 157.322 205.977C157.518 206.389 157.611 206.842 157.591 207.297C157.572 207.753 157.441 208.197 157.211 208.59Z" fill="#FFBE9D"/>
<path opacity="0.2" d="M157.211 208.59C156.855 209.291 156.362 209.914 155.761 210.421C155.159 210.928 154.462 211.308 153.711 211.54C151.711 212.13 150.621 210.3 151.121 208.35C151.581 206.59 153.121 204.17 155.221 204.42C155.672 204.488 156.099 204.666 156.465 204.937C156.831 205.209 157.126 205.566 157.322 205.977C157.518 206.389 157.611 206.842 157.591 207.297C157.572 207.753 157.441 208.197 157.211 208.59Z" fill="black"/>
<path d="M151.41 204.52C153.41 206.35 157.06 196.31 152.97 193.52C148.88 190.73 147.45 194.52 147.52 196.83C147.59 199.14 148.39 201.81 151.41 204.52Z" fill="#263238"/>
<path d="M137.749 202.83C138.689 209.19 138.919 212.96 142.389 216.03C147.599 220.64 155.129 217.18 156.079 210.7C156.939 204.86 155.259 195.43 148.869 193.3C147.47 192.824 145.971 192.722 144.52 193.001C143.069 193.281 141.716 193.934 140.593 194.896C139.471 195.857 138.619 197.095 138.12 198.486C137.621 199.877 137.494 201.374 137.749 202.83Z" fill="#FFBE9D"/>
<path d="M137.35 208.23C138.45 208.94 139.96 210.86 142.23 207.46C142.23 206.58 140 205.1 139.83 203.02C139.63 200.6 139.1 198.02 137.14 197.17C132.67 195.17 131.85 199.01 132.29 201.31C132.73 203.61 133.94 206 137.35 208.23Z" fill="#263238"/>
<path d="M136.749 199.41C147.299 197.77 153.529 197.41 156.699 193.46C159.869 189.51 154.999 184.62 149.699 184.06C149.319 186.12 143.949 191.54 135.699 193.89C135.24 194.016 134.827 194.272 134.509 194.627C134.191 194.982 133.983 195.421 133.908 195.891C133.833 196.362 133.895 196.844 134.087 197.28C134.279 197.716 134.592 198.087 134.989 198.35C135.999 199 136.749 199.41 136.749 199.41Z" fill="#263238"/>
<path d="M135.521 210.07C136.482 211.376 137.919 212.249 139.521 212.5C141.611 212.82 142.361 210.87 141.521 209.01C140.771 207.33 138.781 205.15 136.801 205.68C134.821 206.21 134.351 208.46 135.521 210.07Z" fill="#FFBE9D"/>
<path d="M147.46 204C147.46 204.52 147.82 204.93 148.15 204.9C148.48 204.87 148.72 204.44 148.68 203.9C148.64 203.36 148.33 202.98 147.99 203C147.65 203.02 147.42 203.44 147.46 204Z" fill="#263238"/>
<path d="M153.26 203.57C153.31 204.09 153.62 204.49 153.95 204.47C154.28 204.45 154.52 204.01 154.48 203.47C154.44 202.93 154.12 202.54 153.79 202.57C153.46 202.6 153.22 203.05 153.26 203.57Z" fill="#263238"/>
<path d="M151.439 204C152.19 205.551 153.145 206.994 154.279 208.29C153.95 208.567 153.562 208.768 153.146 208.877C152.729 208.986 152.293 209.001 151.869 208.92L151.439 204Z" fill="#A02724"/>
<path d="M150.5 210.41C150.519 210.409 150.538 210.404 150.555 210.395C150.573 210.386 150.588 210.374 150.6 210.359C150.612 210.344 150.621 210.326 150.626 210.308C150.632 210.289 150.633 210.269 150.63 210.25C150.629 210.23 150.624 210.211 150.615 210.193C150.606 210.176 150.594 210.16 150.579 210.147C150.564 210.134 150.547 210.124 150.528 210.118C150.509 210.111 150.49 210.109 150.47 210.11C149.826 210.164 149.179 210.067 148.58 209.826C147.98 209.584 147.446 209.206 147.02 208.72C147.008 208.704 146.993 208.691 146.976 208.681C146.959 208.671 146.941 208.664 146.921 208.662C146.902 208.659 146.882 208.66 146.863 208.665C146.844 208.67 146.826 208.678 146.81 208.69C146.794 208.702 146.781 208.717 146.771 208.734C146.761 208.751 146.754 208.769 146.752 208.789C146.749 208.808 146.75 208.828 146.755 208.847C146.76 208.866 146.768 208.884 146.78 208.9C147.234 209.431 147.808 209.846 148.456 210.109C149.103 210.372 149.804 210.475 150.5 210.41Z" fill="#263238"/>
<path d="M145.55 202.18C145.596 202.179 145.641 202.167 145.681 202.144C145.721 202.121 145.755 202.089 145.78 202.05C145.971 201.723 146.237 201.446 146.558 201.244C146.878 201.042 147.243 200.921 147.62 200.89C147.66 200.891 147.699 200.885 147.736 200.87C147.773 200.855 147.807 200.833 147.835 200.805C147.863 200.777 147.885 200.743 147.9 200.706C147.915 200.669 147.921 200.63 147.92 200.59C147.92 200.508 147.887 200.429 147.829 200.371C147.771 200.313 147.692 200.28 147.61 200.28C147.132 200.308 146.669 200.453 146.261 200.702C145.853 200.952 145.512 201.298 145.27 201.71C145.248 201.744 145.234 201.782 145.227 201.822C145.22 201.861 145.221 201.902 145.231 201.941C145.24 201.98 145.257 202.017 145.281 202.05C145.305 202.082 145.335 202.11 145.37 202.13C145.395 202.15 145.424 202.165 145.455 202.173C145.486 202.182 145.518 202.184 145.55 202.18Z" fill="#263238"/>
<path d="M155.69 201.31L155.81 201.26C155.844 201.238 155.874 201.209 155.897 201.175C155.919 201.141 155.935 201.103 155.943 201.062C155.95 201.022 155.949 200.981 155.94 200.941C155.931 200.901 155.914 200.863 155.89 200.83C155.631 200.42 155.278 200.078 154.861 199.831C154.444 199.584 153.974 199.44 153.49 199.41C153.449 199.41 153.41 199.418 153.372 199.434C153.335 199.45 153.302 199.473 153.274 199.502C153.246 199.53 153.224 199.565 153.21 199.602C153.195 199.64 153.188 199.68 153.19 199.72C153.192 199.801 153.226 199.877 153.284 199.933C153.342 199.989 153.419 200.02 153.5 200.02C153.883 200.049 154.255 200.168 154.583 200.368C154.912 200.568 155.188 200.843 155.39 201.17C155.424 201.217 155.469 201.255 155.521 201.279C155.574 201.304 155.632 201.314 155.69 201.31Z" fill="#263238"/>
<path d="M123.55 233.26L131.65 238.02C131.65 238.02 121.43 258.02 122.54 261.14C124.05 265.34 126.34 274.57 129.02 279.14C128.76 280.14 127.26 282.57 126.38 283.02C119.94 278.7 112.89 264.55 112.91 260.51C113 251.34 123.55 233.26 123.55 233.26Z" fill="#FFBE9D"/>
<path d="M127.17 224.73C121.11 225.61 114.66 246.73 114.66 246.73L129 251.3C131.556 246.505 133.772 241.536 135.63 236.43C138.29 228.63 133.67 223.78 127.17 224.73Z" fill="#3391FF"/>
</g>
<path d="M350.82 359.44C378.435 359.44 400.82 337.054 400.82 309.44C400.82 281.826 378.435 259.44 350.82 259.44C323.206 259.44 300.82 281.826 300.82 309.44C300.82 337.054 323.206 359.44 350.82 359.44Z" fill="#3391FF"/>
<path d="M350.819 356.81C376.981 356.81 398.189 335.602 398.189 309.44C398.189 283.278 376.981 262.07 350.819 262.07C324.657 262.07 303.449 283.278 303.449 309.44C303.449 335.602 324.657 356.81 350.819 356.81Z" fill="white"/>
<mask id="mask1_196_953" style="mask-type:luminance" maskUnits="userSpaceOnUse" x="303" y="262" width="96" height="95">
<path d="M350.819 356.81C376.981 356.81 398.189 335.602 398.189 309.44C398.189 283.278 376.981 262.07 350.819 262.07C324.657 262.07 303.449 283.278 303.449 309.44C303.449 335.602 324.657 356.81 350.819 356.81Z" fill="white"/>
</mask>
<g mask="url(#mask1_196_953)">
<path d="M348.64 273.44C341.53 272.8 337.1 283.74 338.58 300.44C347.58 305.55 357.89 300.44 366.14 304.55C373.77 292.88 371.74 266.56 348.64 273.44Z" fill="#263238"/>
<path d="M337.541 321.78C336.519 325.574 335.08 329.243 333.251 332.72C332.266 334.623 331.035 336.388 329.591 337.97C329.167 338.425 328.709 338.846 328.221 339.23C327.454 339.891 326.537 340.355 325.551 340.58C324.791 340.735 324.004 340.701 323.261 340.48C322.599 340.279 321.989 339.938 321.471 339.48C320.818 338.893 320.288 338.182 319.911 337.39C319.416 336.327 319.051 335.209 318.821 334.06C318.605 333.07 318.445 332.068 318.341 331.06C318.121 329.06 318.021 327.2 317.991 325.3C317.935 321.543 318.106 317.786 318.501 314.05L322.181 314.12C322.501 317.72 322.871 321.36 323.341 324.9C323.591 326.67 323.871 328.43 324.231 330.11C324.411 330.94 324.621 331.76 324.841 332.51C325.021 333.159 325.279 333.784 325.611 334.37C325.721 334.55 325.861 334.65 325.691 334.46C325.518 334.311 325.317 334.199 325.101 334.13C324.8 334.037 324.481 334.017 324.171 334.07C323.721 334.15 323.691 334.28 323.871 334.07C324.081 333.856 324.278 333.629 324.461 333.39C325.373 332.144 326.147 330.803 326.771 329.39C327.5 327.848 328.147 326.27 328.711 324.66C329.311 323.05 329.871 321.32 330.361 319.76L337.541 321.78Z" fill="#FFBE9D"/>
<path d="M332.6 312.15C329.6 312.92 327.5 325.26 327.5 325.26L338.97 333.06C338.97 333.06 343.69 318.43 341.38 315.13C339.07 311.83 337 311 332.6 312.15Z" fill="#263238"/>
<path opacity="0.2" d="M332.871 314.91L330.561 327.35L335.211 330.5L332.871 314.91Z" fill="black"/>
<path d="M322.34 315.15L323.86 307.48L317.76 309.25C317.76 309.25 317.16 314.56 319.62 316.31L322.34 315.15Z" fill="#FFBE9D"/>
<path d="M323.25 304.11L318.21 306.2L317.76 309.25L323.86 307.48L323.25 304.11Z" fill="#FFBE9D"/>
<path d="M332.601 312.15C332.601 312.15 329.131 313.38 336.081 356.08H365.631C365.141 344.08 365.121 336.63 370.871 311.94C366.732 311.09 362.538 310.538 358.321 310.29C353.853 309.97 349.368 309.97 344.901 310.29C339.141 310.82 332.601 312.15 332.601 312.15Z" fill="#263238"/>
<path opacity="0.2" d="M368.439 321.72C365.759 322.38 363.279 325.31 363.579 330.72C363.746 333.168 364.603 335.519 366.049 337.5C366.519 333.36 367.309 328.55 368.569 322.41L368.439 321.72Z" fill="black"/>
<path d="M346.459 319.76C346.459 319.76 351.299 323.76 351.299 327.99C355.299 325.04 360.749 316.99 361.299 311.88C361.318 311.673 361.295 311.464 361.231 311.266C361.168 311.068 361.064 310.885 360.928 310.728C360.791 310.571 360.625 310.444 360.438 310.353C360.25 310.262 360.047 310.21 359.839 310.2C359.476 310.176 359.116 310.129 358.759 310.06C358.608 310.028 358.452 310.031 358.303 310.07C358.154 310.108 358.016 310.18 357.899 310.28L346.459 319.76Z" fill="#FAFAFA"/>
<path d="M346.459 319.76C345.14 320.737 344.031 321.969 343.198 323.382C342.365 324.796 341.825 326.363 341.609 327.99C337.529 324.99 339.219 315.76 341.489 311.4C341.668 311.06 341.927 310.769 342.244 310.553C342.562 310.336 342.927 310.202 343.309 310.16C343.899 310.09 344.359 310.01 344.659 309.95C344.713 309.939 344.769 309.938 344.823 309.95C344.877 309.961 344.929 309.983 344.974 310.015C345.019 310.047 345.057 310.088 345.085 310.135C345.114 310.183 345.132 310.235 345.139 310.29L346.459 319.76Z" fill="#FAFAFA"/>
<path d="M356.999 295.18C356.159 299.5 355.309 307.41 358.329 310.29C355.055 314.214 351.021 317.435 346.469 319.76C340.469 314.97 344.909 310.29 344.909 310.29C349.729 309.14 349.599 305.57 348.759 302.21L356.999 295.18Z" fill="#FFBE9D"/>
<path opacity="0.2" d="M353.63 298.05L348.76 302.21C348.963 302.99 349.101 303.787 349.17 304.59C351.01 304.33 353.9 302.76 354.3 300.76C354.306 299.815 354.075 298.883 353.63 298.05Z" fill="black"/>
<path d="M364.231 288.24C362.231 295.18 361.541 298.16 357.181 300.99C350.631 305.23 342.541 301.26 342.421 293.86C342.311 287.2 345.601 276.97 353.111 275.7C354.765 275.413 356.466 275.553 358.051 276.107C359.636 276.662 361.053 277.613 362.167 278.869C363.282 280.126 364.056 281.647 364.417 283.287C364.778 284.927 364.714 286.632 364.231 288.24Z" fill="#FFBE9D"/>
<path d="M358.9 281.77C360.12 288.7 360.59 291.38 363.04 293.17C365.49 294.96 367.77 286.74 365.96 283.58C364.15 280.42 358.9 281.77 358.9 281.77Z" fill="#263238"/>
<path d="M347.38 275.27C345.91 277.01 348.93 280.65 351.86 281.84C351.68 281.458 351.549 281.055 351.47 280.64C353.586 282.087 355.964 283.106 358.47 283.64C358.188 283.282 357.999 282.859 357.92 282.41C357.92 282.07 365.14 286.85 366.19 283.41C367.24 279.97 363.66 275.47 358.19 274.03C353.53 272.86 349.19 273.12 347.38 275.27Z" fill="#263238"/>
<path d="M352.59 287.62C352.47 288.19 352.06 288.62 351.68 288.5C351.3 288.38 351.11 287.89 351.24 287.31C351.37 286.73 351.77 286.31 352.15 286.43C352.53 286.55 352.72 287 352.59 287.62Z" fill="#263238"/>
<path d="M346.119 286.18C345.989 286.75 345.579 287.18 345.209 287.06C344.839 286.94 344.629 286.45 344.759 285.87C344.889 285.29 345.289 284.87 345.669 284.99C346.049 285.11 346.239 285.6 346.119 286.18Z" fill="#263238"/>
<path d="M345.829 285.06L344.539 284.35C344.539 284.35 344.999 285.58 345.829 285.06Z" fill="#263238"/>
<path d="M347.879 287.65C347.08 288.842 346.121 289.919 345.029 290.85C345.279 291.131 345.588 291.352 345.934 291.497C346.28 291.643 346.654 291.709 347.029 291.69L347.879 287.65Z" fill="#ED893E"/>
<path d="M349.609 294.63C349.32 294.608 349.033 294.568 348.749 294.51C348.705 294.498 348.666 294.47 348.642 294.431C348.618 294.392 348.61 294.345 348.619 294.3C348.624 294.277 348.633 294.256 348.646 294.237C348.659 294.218 348.676 294.202 348.696 294.19C348.716 294.178 348.737 294.17 348.76 294.166C348.783 294.163 348.807 294.164 348.829 294.17C349.537 294.343 350.277 294.347 350.987 294.182C351.697 294.017 352.359 293.687 352.919 293.22C352.952 293.188 352.997 293.17 353.044 293.17C353.091 293.17 353.135 293.188 353.169 293.22C353.198 293.253 353.215 293.296 353.215 293.34C353.215 293.384 353.198 293.427 353.169 293.46C352.682 293.881 352.117 294.2 351.506 294.401C350.895 294.602 350.25 294.68 349.609 294.63Z" fill="#263238"/>
<path d="M364.69 295.17C363.907 296.322 362.698 297.117 361.33 297.38C359.51 297.72 358.76 296.05 359.41 294.38C359.99 292.91 361.63 290.97 363.41 291.38C363.798 291.475 364.155 291.666 364.449 291.936C364.743 292.206 364.964 292.546 365.091 292.924C365.219 293.302 365.249 293.706 365.179 294.098C365.109 294.491 364.941 294.86 364.69 295.17Z" fill="#FFBE9D"/>
<path d="M355.77 286.36C355.698 286.352 355.63 286.32 355.578 286.27C355.525 286.219 355.491 286.152 355.48 286.08C355.309 285.544 355.028 285.048 354.657 284.625C354.285 284.202 353.83 283.86 353.32 283.62C353.273 283.606 353.228 283.581 353.191 283.548C353.153 283.515 353.123 283.474 353.103 283.429C353.082 283.383 353.072 283.334 353.072 283.284C353.073 283.234 353.083 283.184 353.104 283.139C353.125 283.094 353.156 283.053 353.193 283.02C353.231 282.988 353.276 282.964 353.323 282.95C353.371 282.935 353.422 282.932 353.471 282.939C353.521 282.946 353.568 282.963 353.61 282.99C354.224 283.279 354.768 283.697 355.206 284.214C355.644 284.732 355.966 285.337 356.15 285.99C356.165 286.079 356.146 286.17 356.095 286.244C356.045 286.319 355.968 286.371 355.88 286.39L355.77 286.36Z" fill="#263238"/>
<path d="M344.84 281.59C344.779 281.592 344.719 281.578 344.664 281.55C344.61 281.522 344.564 281.481 344.53 281.43C344.481 281.353 344.463 281.259 344.482 281.17C344.501 281.08 344.554 281.001 344.63 280.95C345.081 280.639 345.599 280.441 346.142 280.371C346.684 280.302 347.236 280.363 347.75 280.55C347.793 280.567 347.832 280.593 347.864 280.626C347.897 280.659 347.922 280.698 347.939 280.741C347.956 280.784 347.964 280.83 347.962 280.877C347.961 280.923 347.95 280.968 347.93 281.01C347.912 281.051 347.885 281.088 347.853 281.118C347.82 281.149 347.782 281.173 347.74 281.188C347.699 281.204 347.654 281.212 347.609 281.21C347.565 281.209 347.521 281.198 347.48 281.18C347.07 281.042 346.632 281.002 346.204 281.062C345.775 281.123 345.366 281.283 345.01 281.53C344.96 281.565 344.901 281.585 344.84 281.59Z" fill="#263238"/>
<path d="M352.3 286.5L351.02 285.79C351.02 285.79 351.48 287 352.3 286.5Z" fill="#263238"/>
<path d="M366.08 354.35L366.83 356.99C366.94 357.2 366.69 357.41 366.35 357.41H335.93C335.66 357.41 335.44 357.27 335.43 357.11L335.16 354.46C335.16 354.28 335.37 354.12 335.66 354.12H365.6C365.693 354.113 365.787 354.13 365.871 354.17C365.955 354.211 366.028 354.273 366.08 354.35Z" fill="#3391FF"/>
<path opacity="0.2" d="M366.08 354.35L366.83 356.99C366.94 357.2 366.69 357.41 366.35 357.41H335.93C335.66 357.41 335.44 357.27 335.43 357.11L335.16 354.46C335.16 354.28 335.37 354.12 335.66 354.12H365.6C365.693 354.113 365.787 354.13 365.871 354.17C365.955 354.211 366.028 354.273 366.08 354.35Z" fill="black"/>
<path d="M361.999 357.69H362.799C362.959 357.69 363.079 357.61 363.069 357.51L362.689 354.07C362.689 353.97 362.539 353.89 362.379 353.89H361.579C361.419 353.89 361.299 353.97 361.309 354.07L361.689 357.51C361.659 357.61 361.799 357.69 361.999 357.69Z" fill="#3391FF"/>
<path opacity="0.4" d="M361.999 357.69H362.799C362.959 357.69 363.079 357.61 363.069 357.51L362.689 354.07C362.689 353.97 362.539 353.89 362.379 353.89H361.579C361.419 353.89 361.299 353.97 361.309 354.07L361.689 357.51C361.659 357.61 361.799 357.69 361.999 357.69Z" fill="black"/>
<path d="M338.181 357.69H338.981C339.141 357.69 339.271 357.61 339.261 357.51L338.881 354.07C338.881 353.97 338.731 353.89 338.571 353.89H337.771C337.611 353.89 337.491 353.97 337.501 354.07L337.871 357.51C337.881 357.61 338.001 357.69 338.181 357.69Z" fill="#3391FF"/>
<path opacity="0.4" d="M338.181 357.69H338.981C339.141 357.69 339.271 357.61 339.261 357.51L338.881 354.07C338.881 353.97 338.731 353.89 338.571 353.89H337.771C337.611 353.89 337.491 353.97 337.501 354.07L337.871 357.51C337.881 357.61 338.001 357.69 338.181 357.69Z" fill="black"/>
<path d="M349.999 357.69H350.799C350.959 357.69 351.079 357.61 351.069 357.51L350.699 354.07C350.699 353.97 350.549 353.89 350.389 353.89H349.589C349.429 353.89 349.299 353.97 349.309 354.07L349.689 357.51C349.719 357.61 349.859 357.69 349.999 357.69Z" fill="#3391FF"/>
<path opacity="0.4" d="M349.999 357.69H350.799C350.959 357.69 351.079 357.61 351.069 357.51L350.699 354.07C350.699 353.97 350.549 353.89 350.389 353.89H349.589C349.429 353.89 349.299 353.97 349.309 354.07L349.689 357.51C349.719 357.61 349.859 357.69 349.999 357.69Z" fill="black"/>
<path d="M374.319 320.71C374.649 323.21 374.909 325.71 375.209 328.21L375.969 335.72C376.239 338.22 376.429 340.72 376.649 343.23L376.999 347L377.079 347.94C377.079 348.04 377.079 348.43 377.129 348.7C377.144 348.99 377.144 349.28 377.129 349.57C377.008 350.645 376.668 351.683 376.129 352.62C375.261 354.067 374.111 355.325 372.749 356.32C371.606 357.18 370.395 357.946 369.129 358.61C366.762 359.827 364.304 360.86 361.779 361.7C356.888 363.341 351.872 364.578 346.779 365.4L345.959 361.81C348.289 361.04 350.669 360.25 352.959 359.37C355.249 358.49 357.569 357.62 359.779 356.61C361.957 355.657 364.069 354.557 366.099 353.32C367.03 352.748 367.916 352.107 368.749 351.4C369.398 350.873 369.938 350.224 370.339 349.49C370.426 349.33 370.477 349.152 370.489 348.97L370.319 347.78L369.789 344.04C369.439 341.55 369.049 339.04 368.789 336.56L367.839 329.07C367.569 326.56 367.249 324.07 367.019 321.56L374.319 320.71Z" fill="#FFBE9D"/>
<path d="M370.87 311.94C373.87 312.84 377.39 323.04 377.39 323.04L367 333.71C367 333.71 361.68 322.71 362.93 318.92C364.25 314.93 367.49 310.92 370.87 311.94Z" fill="#263238"/>
</g>
<path d="M346.49 220.34H215.19C214.039 220.34 212.935 219.883 212.121 219.069C211.307 218.255 210.85 217.151 210.85 216C210.85 215.43 210.962 214.867 211.18 214.341C211.398 213.815 211.718 213.337 212.121 212.935C212.525 212.532 213.003 212.214 213.53 211.997C214.056 211.78 214.62 211.669 215.19 211.67H346.49C347.638 211.67 348.739 212.126 349.551 212.938C350.363 213.75 350.82 214.852 350.82 216C350.821 216.569 350.71 217.134 350.493 217.66C350.276 218.187 349.957 218.665 349.555 219.068C349.153 219.471 348.675 219.791 348.149 220.009C347.623 220.228 347.059 220.34 346.49 220.34Z" fill="white"/>
<path d="M316 238.57H215.19C214.62 238.571 214.056 238.46 213.53 238.243C213.003 238.026 212.525 237.707 212.121 237.305C211.718 236.903 211.398 236.425 211.18 235.899C210.962 235.373 210.85 234.809 210.85 234.24C210.85 233.089 211.307 231.985 212.121 231.171C212.935 230.357 214.039 229.9 215.19 229.9H316C317.151 229.9 318.255 230.357 319.068 231.171C319.882 231.985 320.34 233.089 320.34 234.24C320.34 234.809 320.227 235.373 320.009 235.899C319.791 236.425 319.471 236.903 319.068 237.305C318.665 237.707 318.186 238.026 317.66 238.243C317.133 238.46 316.569 238.571 316 238.57Z" fill="white"/>
<path d="M234.721 304.66H284.811C285.962 304.66 287.066 304.203 287.879 303.389C288.693 302.575 289.151 301.471 289.151 300.32C289.151 299.751 289.038 299.187 288.82 298.661C288.602 298.135 288.282 297.657 287.879 297.255C287.476 296.853 286.997 296.534 286.471 296.317C285.944 296.1 285.38 295.989 284.811 295.99H234.721C233.572 295.99 232.471 296.446 231.659 297.258C230.847 298.07 230.391 299.172 230.391 300.32C230.389 300.889 230.5 301.454 230.717 301.98C230.934 302.507 231.253 302.985 231.655 303.388C232.058 303.791 232.535 304.111 233.061 304.329C233.587 304.548 234.151 304.66 234.721 304.66Z" fill="white"/>
<path d="M179.06 304.66H213.62C214.19 304.66 214.754 304.548 215.28 304.329C215.806 304.111 216.284 303.791 216.686 303.388C217.088 302.985 217.407 302.507 217.624 301.98C217.841 301.454 217.952 300.889 217.95 300.32C217.95 299.172 217.494 298.07 216.682 297.258C215.87 296.446 214.769 295.99 213.62 295.99H179.06C177.912 295.99 176.811 296.446 175.999 297.258C175.187 298.07 174.73 299.172 174.73 300.32C174.729 300.889 174.84 301.454 175.057 301.98C175.274 302.507 175.593 302.985 175.995 303.388C176.397 303.791 176.875 304.111 177.401 304.329C177.927 304.548 178.491 304.66 179.06 304.66Z" fill="white"/>
<path d="M153.51 322.89H284.81C285.379 322.891 285.943 322.78 286.47 322.563C286.996 322.346 287.475 322.027 287.878 321.625C288.281 321.223 288.601 320.745 288.819 320.219C289.037 319.693 289.15 319.129 289.15 318.56C289.15 317.409 288.692 316.305 287.879 315.491C287.065 314.677 285.961 314.22 284.81 314.22H153.51C152.94 314.22 152.376 314.332 151.85 314.551C151.324 314.769 150.847 315.089 150.444 315.492C150.042 315.895 149.723 316.373 149.506 316.9C149.289 317.426 149.178 317.991 149.18 318.56C149.18 319.708 149.636 320.81 150.448 321.622C151.26 322.434 152.361 322.89 153.51 322.89Z" fill="white"/>
<path d="M99.8302 95.0001C99.8302 95.8253 99.5854 96.6319 99.1268 97.3179C98.6681 98.0038 98.0163 98.5383 97.2537 98.8536C96.4912 99.1689 95.6522 99.2509 94.843 99.0892C94.0339 98.9275 93.2908 98.5294 92.7081 97.9452C92.1253 97.361 91.7289 96.617 91.5691 95.8075C91.4094 94.9979 91.4934 94.1591 91.8105 93.3974C92.1277 92.6356 92.6637 91.985 93.3508 91.528C94.0379 91.071 94.8451 90.8281 95.6702 90.8301C96.7745 90.8327 97.8325 91.2732 98.6124 92.055C99.3923 92.8367 99.8302 93.8959 99.8302 95.0001Z" fill="white"/>
<path d="M109.84 99.1701C112.143 99.1701 114.01 97.3031 114.01 95.0001C114.01 92.697 112.143 90.8301 109.84 90.8301C107.537 90.8301 105.67 92.697 105.67 95.0001C105.67 97.3031 107.537 99.1701 109.84 99.1701Z" fill="white"/>
<path d="M124.01 99.1701C126.313 99.1701 128.18 97.3031 128.18 95.0001C128.18 92.697 126.313 90.8301 124.01 90.8301C121.707 90.8301 119.84 92.697 119.84 95.0001C119.84 97.3031 121.707 99.1701 124.01 99.1701Z" fill="white"/>
</svg>
