<svg width="613" height="396" viewBox="0 0 613 396" fill="none" xmlns="http://www.w3.org/2000/svg">
<g clip-path="url(#clip0_839_65)">
<rect x="64.1094" y="38.623" width="482.015" height="276.729" rx="3.41834" fill="#434343"/>
<rect x="64.328" y="38.8412" width="481.578" height="276.293" rx="3.21343" fill="black" stroke="#313131" stroke-width="0.124793" stroke-linejoin="round"/>
<rect x="69.9747" y="44.4879" width="470.284" height="264.999" rx="0.311984" fill="#242424" stroke="#1B1B1B" stroke-width="0.124793"/>
<rect x="70.4435" y="44.9562" width="469.348" height="264.063" stroke="#111111" stroke-width="0.124793" stroke-linejoin="round"/>
<g filter="url(#filter0_ii_839_65)">
<path d="M234.84 395.959H250.283V396.33C250.283 396.47 250.17 396.583 250.03 396.583H235.093C234.953 396.583 234.84 396.47 234.84 396.33V395.959Z" fill="url(#paint0_linear_839_65)"/>
</g>
<g filter="url(#filter1_ii_839_65)">
<path d="M336.705 395.959H352.148V396.33C352.148 396.47 352.035 396.583 351.895 396.583H336.958C336.818 396.583 336.705 396.47 336.705 396.33V395.959Z" fill="url(#paint1_linear_839_65)"/>
</g>
<g filter="url(#filter2_ii_839_65)">
<rect x="233.281" y="390.032" width="120.426" height="5.92769" fill="url(#paint2_linear_839_65)"/>
</g>
<g filter="url(#filter3_ii_839_65)">
<rect x="233.281" y="315.936" width="120.426" height="74.0961" fill="url(#paint3_linear_839_65)"/>
</g>
</g>
<path d="M590.314 352.317L593.663 354.769C593.686 354.794 593.715 354.812 593.747 354.823L597.004 352.094C607.128 343.304 618.623 333.61 609.588 325.701C603.311 320.206 596.031 325.325 592.36 328.651C588.474 325.586 580.297 316.834 573.415 327.456C567.675 336.307 579.638 344.186 590.314 352.317Z" fill="#3F3D56" fill-opacity="0.2"/>
<path opacity="0.5" d="M610.634 329.096C610.37 329.11 610.123 329.226 609.944 329.42C609.765 329.613 609.669 329.869 609.676 330.133C609.683 330.396 609.793 330.647 609.982 330.831C610.171 331.015 610.424 331.117 610.687 331.117C610.951 331.117 611.204 331.015 611.393 330.831C611.582 330.647 611.692 330.396 611.699 330.133C611.706 329.869 611.609 329.613 611.431 329.42C611.252 329.226 611.004 329.11 610.741 329.096H610.634Z" fill="white"/>
<path opacity="0.5" d="M606.656 341.044C609.453 339.227 606.656 332.874 610.151 332.338C612.733 333.395 610.113 338.783 606.656 341.044Z" fill="white"/>
<g opacity="0.5">
<path d="M567.713 230.374H564.486C563.742 230.384 563.028 230.674 562.489 231.187C561.949 231.7 561.622 232.398 561.574 233.141L560.808 248.039C560.786 248.395 560.837 248.753 560.959 249.089C561.081 249.425 561.271 249.732 561.517 249.992C561.763 250.251 562.059 250.457 562.388 250.597C562.717 250.737 563.071 250.808 563.429 250.805H566.632C567.377 250.795 568.09 250.505 568.63 249.992C569.17 249.479 569.496 248.782 569.544 248.039L570.311 233.141C570.333 232.786 570.282 232.43 570.161 232.096C570.04 231.761 569.853 231.455 569.609 231.196C569.366 230.937 569.072 230.73 568.746 230.589C568.42 230.447 568.068 230.374 567.713 230.374ZM567.797 248C567.78 248.272 567.66 248.527 567.463 248.715C567.265 248.903 567.004 249.009 566.732 249.012H563.505C563.375 249.013 563.245 248.988 563.125 248.936C563.004 248.885 562.896 248.81 562.806 248.715C562.716 248.62 562.646 248.508 562.602 248.385C562.558 248.262 562.539 248.131 562.547 248L563.314 233.102C563.329 232.829 563.448 232.572 563.646 232.383C563.843 232.194 564.105 232.086 564.379 232.083H567.605C567.736 232.083 567.866 232.109 567.987 232.161C568.107 232.213 568.216 232.289 568.305 232.385C568.395 232.48 568.464 232.593 568.509 232.717C568.553 232.84 568.572 232.971 568.563 233.102L567.797 248Z" fill="#3F3D56" fill-opacity="0.2"/>
<path d="M567.713 230.374H564.486C563.742 230.384 563.028 230.674 562.489 231.187C561.949 231.7 561.622 232.398 561.574 233.141L560.808 248.039C560.786 248.395 560.837 248.753 560.959 249.089C561.081 249.425 561.271 249.732 561.517 249.992C561.763 250.251 562.059 250.457 562.388 250.597C562.717 250.737 563.071 250.808 563.429 250.805H566.632C567.377 250.795 568.09 250.505 568.63 249.992C569.17 249.479 569.496 248.782 569.544 248.039L570.311 233.141C570.333 232.786 570.282 232.43 570.161 232.096C570.04 231.761 569.853 231.455 569.609 231.196C569.366 230.937 569.072 230.73 568.746 230.589C568.42 230.447 568.068 230.374 567.713 230.374ZM567.797 248C567.78 248.272 567.66 248.527 567.463 248.715C567.265 248.903 567.004 249.009 566.732 249.012H563.505C563.375 249.013 563.245 248.988 563.125 248.936C563.004 248.885 562.896 248.81 562.806 248.715C562.716 248.62 562.646 248.508 562.602 248.385C562.558 248.262 562.539 248.131 562.547 248L563.314 233.102C563.329 232.829 563.448 232.572 563.646 232.383C563.843 232.194 564.105 232.086 564.379 232.083H567.605C567.736 232.083 567.866 232.109 567.987 232.161C568.107 232.213 568.216 232.289 568.305 232.385C568.395 232.48 568.464 232.593 568.509 232.717C568.553 232.84 568.572 232.971 568.563 233.102L567.797 248Z" fill="#3F3D56" fill-opacity="0.2"/>
<path d="M593.224 230.374H583.775L585.882 225.408C586.113 224.878 586.201 224.296 586.135 223.722L585.691 219.813C585.612 219.049 585.25 218.343 584.675 217.833C584.1 217.324 583.355 217.048 582.587 217.062H578.832L578.518 223.116L572.425 230.78C571.821 231.538 571.465 232.464 571.406 233.431L570.64 247.372C570.611 247.812 570.674 248.253 570.824 248.668C570.974 249.083 571.208 249.463 571.512 249.783C571.815 250.103 572.182 250.357 572.588 250.529C572.995 250.701 573.432 250.787 573.874 250.782H587.093C587.673 250.773 588.246 250.644 588.773 250.402C589.301 250.161 589.773 249.813 590.159 249.379L591.393 248.008C591.877 247.475 592.215 246.825 592.373 246.122L595.27 233.217L593.224 230.374Z" fill="#3F3D56" fill-opacity="0.2"/>
</g>
<path d="M42.6673 122.015L25.6794 129.149C21.8093 130.775 19.9894 135.23 21.6147 139.1L22.1043 140.266C23.7295 144.136 28.1845 145.956 32.0547 144.33L49.0425 137.196C52.9127 135.571 54.7325 131.116 53.1072 127.246L52.6177 126.08C50.9924 122.21 46.5374 120.39 42.6673 122.015Z" fill="#EBEBEB"/>
<path d="M29.2313 135.501L27.9528 136.042L27.6367 135.29L31.1489 133.829L31.465 134.581L30.1866 135.115L31.5353 138.36L30.608 138.746L29.2313 135.501Z" fill="white"/>
<path d="M36.6921 132.571L36.8677 136.083L36.0107 136.442L34.5215 134.826L34.6058 137.032L33.7488 137.39L31.3535 134.784L32.1964 134.433L33.791 136.21L33.6435 133.843L34.3951 133.527L35.9966 135.297L35.8772 132.901L36.6921 132.571Z" fill="white"/>
<path d="M40.7598 132.958L38.4417 133.934C38.5705 134.105 38.7562 134.223 38.9651 134.268C39.1739 134.313 39.392 134.282 39.5797 134.18C39.724 134.127 39.8558 134.044 39.9669 133.938C40.0781 133.832 40.1662 133.704 40.2259 133.562L40.9284 133.878C40.7821 134.207 40.5475 134.49 40.2506 134.694C39.9536 134.899 39.6059 135.017 39.2458 135.036C38.8858 135.055 38.5276 134.974 38.2109 134.802C37.8941 134.629 37.6312 134.373 37.4513 134.061C37.3598 133.848 37.3126 133.619 37.3125 133.388C37.3124 133.157 37.3596 132.928 37.4509 132.716C37.5423 132.504 37.6761 132.312 37.844 132.153C38.012 131.994 38.2106 131.871 38.4277 131.792C38.6349 131.691 38.8608 131.636 39.0909 131.628C39.321 131.621 39.5501 131.662 39.7633 131.749C39.9765 131.835 40.1692 131.966 40.3287 132.132C40.4883 132.298 40.6112 132.495 40.6895 132.712C40.7201 132.792 40.7436 132.874 40.7598 132.958ZM38.2099 133.421L39.7202 132.782C39.6167 132.612 39.4557 132.485 39.2664 132.424C39.0772 132.363 38.8723 132.372 38.6892 132.45C38.5061 132.527 38.3569 132.668 38.2689 132.847C38.181 133.025 38.16 133.229 38.2099 133.421Z" fill="white"/>
<path d="M44.3635 131.455L42.0736 132.431C42.2024 132.602 42.3881 132.72 42.5969 132.765C42.8057 132.81 43.0238 132.779 43.2115 132.677C43.3564 132.625 43.4888 132.543 43.6001 132.436C43.7114 132.33 43.7992 132.201 43.8578 132.059L44.5602 132.368C44.4171 132.7 44.1841 132.985 43.8876 133.191C43.591 133.398 43.2427 133.517 42.8819 133.536C42.521 133.555 42.1621 133.473 41.8455 133.299C41.5289 133.125 41.2673 132.866 41.0901 132.551C40.9977 132.339 40.9497 132.11 40.9492 131.879C40.9487 131.648 40.9957 131.42 41.0873 131.208C41.1788 130.996 41.313 130.805 41.4815 130.647C41.6499 130.488 41.8491 130.367 42.0665 130.289C42.2737 130.188 42.4997 130.133 42.7298 130.125C42.9599 130.118 43.1889 130.159 43.4022 130.246C43.6154 130.332 43.808 130.463 43.9676 130.629C44.1271 130.795 44.2501 130.992 44.3284 131.209C44.3073 131.272 44.3354 131.378 44.3635 131.455ZM41.8137 131.911L43.3239 131.279C43.2248 131.108 43.0655 130.98 42.8771 130.921C42.6888 130.861 42.4849 130.873 42.3054 130.956C42.1176 131.023 41.9623 131.159 41.871 131.337C41.7798 131.514 41.7592 131.719 41.8137 131.911Z" fill="white"/>
<path d="M47.4301 131.504C47.2673 131.729 47.0429 131.902 46.7839 132.002C46.6406 132.086 46.4803 132.136 46.315 132.149C46.1496 132.162 45.9835 132.138 45.8289 132.078C45.6743 132.018 45.5352 131.923 45.4221 131.802C45.3089 131.681 45.2246 131.536 45.1753 131.377L44.6485 130.12L44.1708 130.316L43.8828 129.614L44.3605 129.41L44.0444 128.666L44.9365 128.293L45.2526 129.038L46.0112 128.715L46.2992 129.417L45.5406 129.741L46.0604 130.984C46.0748 131.04 46.102 131.093 46.1397 131.138C46.1774 131.182 46.2248 131.218 46.2782 131.241C46.3316 131.265 46.3897 131.276 46.4481 131.274C46.5065 131.272 46.5637 131.257 46.6153 131.23C46.7415 131.175 46.849 131.085 46.9244 130.97L47.4301 131.504Z" fill="white"/>
<path d="M51.2319 112.919L4.67398 107.021C3.16914 106.83 1.79467 107.896 1.60403 109.401L0.344246 119.345C0.153606 120.85 1.21898 122.224 2.72383 122.415L49.2817 128.313C50.7866 128.504 52.161 127.438 52.3517 125.933L53.6115 115.989C53.8021 114.484 52.7367 113.11 51.2319 112.919Z" fill="#E6E6E6"/>
<path d="M16.4277 114.477L16.2591 115.797L18.5771 116.092L18.4577 117.02L16.1467 116.725L15.9149 118.551L14.7559 118.403L15.3881 113.395L19.1742 113.88L19.0548 114.807L16.4277 114.477Z" fill="white"/>
<path d="M19.0963 116.998C19.1275 116.581 19.2822 116.182 19.5408 115.853C19.7994 115.524 20.1501 115.279 20.5483 115.15C20.9464 115.021 21.374 115.014 21.7765 115.129C22.1789 115.244 22.538 115.476 22.808 115.796C23.078 116.116 23.2467 116.509 23.2925 116.925C23.3383 117.341 23.2592 117.761 23.0652 118.132C22.8712 118.503 22.5712 118.807 22.2034 119.007C21.8356 119.207 21.4166 119.292 20.9999 119.253C20.7227 119.242 20.4508 119.173 20.2016 119.051C19.9524 118.929 19.7313 118.756 19.5523 118.544C19.3733 118.332 19.2404 118.085 19.1619 117.819C19.0834 117.553 19.061 117.274 19.0963 116.998ZM22.1941 117.392C22.2246 117.258 22.2265 117.119 22.1996 116.984C22.1728 116.849 22.1178 116.722 22.0382 116.61C21.9586 116.498 21.8563 116.404 21.7379 116.334C21.6195 116.264 21.4877 116.22 21.3512 116.205C21.0947 116.212 20.8493 116.31 20.6592 116.483C20.4691 116.655 20.3469 116.889 20.3146 117.144C20.2824 117.398 20.3422 117.656 20.4834 117.87C20.6245 118.084 20.8377 118.241 21.0842 118.312C21.2186 118.331 21.3554 118.321 21.4858 118.284C21.6163 118.247 21.7376 118.183 21.842 118.096C21.9464 118.01 22.0317 117.903 22.0923 117.781C22.1529 117.66 22.1876 117.527 22.1941 117.392Z" fill="white"/>
<path d="M24.5122 114.245L25.6221 114.385L24.9196 119.696L23.8027 119.555L24.5122 114.245Z" fill="white"/>
<path d="M26.6204 114.519L27.7373 114.659L27.0348 119.969L25.918 119.829L26.6204 114.519Z" fill="white"/>
<path d="M28.0799 118.136C28.1119 117.718 28.2682 117.318 28.5287 116.989C28.7893 116.66 29.1423 116.416 29.5425 116.289C29.9426 116.161 30.3716 116.156 30.7745 116.275C31.1774 116.393 31.5358 116.629 31.8037 116.952C32.0716 117.275 32.2368 117.671 32.2782 118.089C32.3195 118.507 32.2351 118.928 32.0357 119.297C31.8364 119.667 31.5312 119.968 31.1593 120.163C30.7874 120.358 30.3657 120.438 29.9484 120.391C29.6738 120.376 29.4053 120.305 29.1597 120.181C28.9142 120.057 28.6968 119.884 28.5214 119.672C28.3459 119.46 28.2161 119.215 28.1401 118.95C28.0642 118.686 28.0437 118.409 28.0799 118.136ZM31.1777 118.53C31.1872 118.336 31.1399 118.143 31.0415 117.976C30.9432 117.808 30.7981 117.673 30.624 117.587C30.45 117.501 30.2545 117.467 30.0617 117.491C29.8689 117.514 29.6871 117.593 29.5386 117.718C29.3901 117.843 29.2813 118.009 29.2257 118.195C29.1701 118.381 29.17 118.58 29.2254 118.766C29.2809 118.952 29.3895 119.118 29.5379 119.243C29.6862 119.368 29.868 119.448 30.0608 119.471C30.1974 119.491 30.3366 119.482 30.4693 119.444C30.6021 119.406 30.7253 119.34 30.8308 119.251C30.9363 119.162 31.0218 119.052 31.0816 118.928C31.1414 118.803 31.1741 118.668 31.1777 118.53Z" fill="white"/>
<path d="M39.3669 117.617L37.4844 121.283L36.4096 121.15L35.8477 118.649L34.6465 120.925L33.5788 120.792L32.6797 116.802L33.7263 116.935L34.3445 119.612L35.6159 117.125L36.5572 117.244L37.1472 119.97L38.4116 117.483L39.3669 117.617Z" fill="white"/>
<path d="M58.3995 110.004L16.6484 78.2905L7.25837 90.6525L49.0095 122.366L58.3995 110.004Z" fill="#D9D7DD"/>
<path d="M14.5078 88.6338L15.3578 88.1772C15.5495 88.7348 15.9014 89.2234 16.3693 89.5821C16.9172 89.9965 17.2825 89.9825 17.4651 89.7366C18.0411 88.985 15.3086 87.7277 16.4465 86.2244C16.9663 85.522 17.9498 85.3885 19.0877 86.2244C19.5832 86.5818 19.9718 87.0675 20.2116 87.6293L19.3898 88.114C19.2014 87.6606 18.9018 87.262 18.5187 86.955C17.9638 86.5405 17.5985 86.5827 17.4019 86.8356C16.8399 87.5731 19.5654 88.8375 18.4415 90.3478C17.9357 91.0502 16.9453 91.1696 15.7933 90.2986C15.2082 89.8845 14.7605 89.3046 14.5078 88.6338Z" fill="white"/>
<path d="M19.4965 90.2566L21.2035 88.0088L22.1377 88.7112L20.4518 90.9309C19.8688 91.6896 19.9672 92.2586 20.5291 92.687C21.0911 93.1155 21.66 93.0523 22.2431 92.2867L23.9289 90.074L24.8421 90.7764L23.1071 93.0242C22.9253 93.2631 22.6983 93.4639 22.439 93.6151C22.1797 93.7663 21.8931 93.8649 21.5957 93.9054C21.2983 93.9458 20.9958 93.9273 20.7055 93.8508C20.4152 93.7743 20.1429 93.6415 19.9039 93.4597C19.665 93.278 19.4642 93.051 19.3131 92.7917C19.1619 92.5324 19.0632 92.2458 19.0228 91.9484C18.9824 91.6509 19.0009 91.3484 19.0774 91.0582C19.1538 90.7679 19.2867 90.4955 19.4684 90.2566H19.4965Z" fill="white"/>
<path d="M27.2225 97.1897C26.6957 97.8922 25.8176 97.8922 24.7851 97.0633L22.6777 95.4828L25.7333 91.4648L27.6932 92.961C28.6976 93.7197 28.8943 94.5345 28.3956 95.1597C28.2595 95.3448 28.0739 95.4878 27.8602 95.5723C27.6465 95.6568 27.4133 95.6794 27.1874 95.6373C27.3686 95.8537 27.4707 96.1253 27.4771 96.4074C27.4835 96.6895 27.3937 96.9654 27.2225 97.1897ZM26.1478 92.8697L25.4454 93.818L26.3726 94.5205C26.8221 94.8647 27.1944 94.8928 27.4333 94.5767C27.6721 94.2606 27.5456 93.9164 27.0891 93.5722L26.1478 92.8697ZM26.3655 96.3819C26.6184 96.0377 26.485 95.6795 26.0003 95.3212L24.9185 94.4924L24.1599 95.4898L25.2487 96.3117C25.7263 96.677 26.0986 96.7261 26.3655 96.3819Z" fill="white"/>
<path d="M27.084 98.1797L27.9269 97.7231C28.1172 98.2814 28.4693 98.7705 28.9384 99.128C29.4863 99.5495 29.8516 99.5354 30.0413 99.2825C30.6102 98.5309 27.8848 97.2736 29.0157 95.7703C29.5355 95.0679 30.5189 94.9344 31.6569 95.7703C32.1543 96.1256 32.5434 96.6119 32.7808 97.1752L31.9589 97.6669C31.7726 97.2104 31.4728 96.809 31.0879 96.5009C30.533 96.0864 30.1677 96.1286 29.971 96.3815C29.4091 97.126 32.1345 98.3904 31.0176 99.8937C30.5049 100.561 29.5144 100.716 28.3624 99.8375C27.7777 99.4277 27.3317 98.8494 27.084 98.1797Z" fill="white"/>
<path d="M32.0301 99.3948C32.2422 99.1109 32.5103 98.8735 32.8178 98.6972C33.1253 98.521 33.4656 98.4097 33.8178 98.3702C34.1701 98.3307 34.5266 98.3638 34.8655 98.4676C35.2044 98.5713 35.5184 98.7435 35.7882 98.9734C36.1096 99.1984 36.3767 99.4924 36.5699 99.834C36.7631 100.175 36.8776 100.556 36.905 100.947L35.8865 101.039C35.8757 100.797 35.8115 100.561 35.6985 100.347C35.5856 100.133 35.4267 99.9473 35.2332 99.8023C35.0654 99.6635 34.8712 99.5601 34.6624 99.4983C34.4536 99.4364 34.2344 99.4175 34.0181 99.4425C33.8018 99.4675 33.5927 99.536 33.4035 99.6439C33.2144 99.7518 33.0489 99.8968 32.9172 100.07C32.7855 100.244 32.6902 100.442 32.637 100.653C32.5839 100.864 32.574 101.084 32.6079 101.299C32.6418 101.514 32.7189 101.72 32.8345 101.905C32.95 102.089 33.1017 102.249 33.2804 102.373C33.475 102.529 33.7036 102.637 33.9476 102.689C34.1917 102.74 34.4444 102.733 34.6853 102.668L34.868 103.673C34.3345 103.756 33.7883 103.684 33.2946 103.466C32.8009 103.247 32.3807 102.891 32.0843 102.439C31.7879 101.988 31.6278 101.461 31.6232 100.921C31.6185 100.381 31.7696 99.8512 32.0582 99.3948H32.0301Z" fill="white"/>
<path d="M37.5229 106.736L37.5931 105.029L37.551 104.994L36.7432 104.383L35.8932 105.5L34.959 104.797L38.0146 100.779L39.7496 102.107C40.8244 102.922 41.0772 103.989 40.3888 104.917C40.1948 105.197 39.9175 105.41 39.5962 105.525C39.2748 105.639 38.9255 105.65 38.5976 105.556L38.5204 107.53L37.5229 106.736ZM39.1245 102.816L38.3658 102.24L37.3051 103.645L38.0638 104.221C38.6327 104.657 39.1174 104.608 39.4686 104.172C39.8199 103.737 39.6934 103.245 39.1245 102.816Z" fill="white"/>
<path d="M42.2275 103.975L43.1547 104.677L40.1061 108.695L39.1719 107.993L42.2275 103.975Z" fill="white"/>
<path d="M45.587 111.126C45.0531 111.829 44.1821 111.829 43.1425 111.007L41.0352 109.426L44.0908 105.408L46.0506 106.897C47.0551 107.663 47.2588 108.471 46.753 109.096C46.6178 109.282 46.4326 109.427 46.2188 109.513C46.0051 109.598 45.7714 109.622 45.5448 109.581C45.7264 109.795 45.8296 110.065 45.8372 110.346C45.8449 110.627 45.7566 110.902 45.587 111.126ZM44.5122 106.813L43.8098 107.754L44.737 108.457C45.1866 108.801 45.5589 108.829 45.7977 108.513C46.0365 108.197 45.9101 107.86 45.4535 107.509L44.5122 106.813ZM44.723 110.325C44.9829 109.988 44.8424 109.623 44.3577 109.265L43.2759 108.443L42.5243 109.433L43.6061 110.255C44.0837 110.62 44.456 110.662 44.7159 110.318L44.723 110.325Z" fill="white"/>
<path d="M49.0968 114.378L48.5278 115.122L45.416 112.762L48.4716 108.737L51.5062 111.048L50.9372 111.793L48.8299 110.191L48.1696 111.062L50.0381 112.467L49.4831 113.17L47.6217 111.765L46.9192 112.692L49.0968 114.378Z" fill="white"/>
<path d="M56.242 8.1483L43.6191 5.64059L46.3797 0L55.8557 1.87551L56.242 8.1483Z" fill="#EBEBEB"/>
<path d="M55.8568 1.87549L52.8574 7.47394L56.2432 8.14828L55.8568 1.87549Z" fill="#D9D7DD"/>
<path d="M61.8629 9.27113L37.8301 4.50378C35.7029 4.08181 33.6364 5.46416 33.2145 7.59134L29.9178 24.2104C29.4958 26.3375 30.8782 28.404 33.0054 28.826L57.0382 33.5933C59.1654 34.0153 61.2318 32.633 61.6538 30.5058L64.9505 13.8867C65.3725 11.7596 63.9901 9.69309 61.8629 9.27113Z" fill="#EBEBEB"/>
<path d="M61.4316 9.1709L62.1207 9.30758C63.0691 9.49571 63.9039 10.0529 64.4415 10.8566C64.9791 11.6602 65.1754 12.6445 64.9873 13.5929L61.5813 30.7632C61.3931 31.7116 60.8359 32.5464 60.0323 33.084C59.2286 33.6216 58.2443 33.8179 57.2959 33.6298L56.6069 33.4931L61.4316 9.1709Z" fill="#D9D7DD"/>
<path d="M54.6328 19.3102C54.2953 21.0109 53.4611 22.5734 52.2356 23.8C51.01 25.0266 49.4483 25.8622 47.7478 26.2012C46.0474 26.5401 44.2846 26.3672 42.6824 25.7043C41.0802 25.0414 39.7106 23.9183 38.7468 22.4769C37.783 21.0356 37.2682 19.3408 37.2676 17.6069C37.267 15.873 37.7806 14.1778 38.7434 12.7358C39.7063 11.2938 41.0751 10.1697 42.6768 9.50572C44.2785 8.8417 46.0412 8.66758 47.7419 9.00537C50.0221 9.45827 52.029 10.7983 53.3213 12.7308C54.6135 14.6633 55.0853 17.0299 54.6328 19.3102Z" fill="#FAFAFA"/>
<path d="M53.4879 18.9659C53.1934 20.4588 52.4626 21.8307 51.3881 22.9082C50.3136 23.9857 48.9437 24.7203 47.4516 25.019C45.9595 25.3177 44.4124 25.1671 43.0059 24.5863C41.5994 24.0055 40.3968 23.0205 39.5502 21.7561C38.7037 20.4916 38.2512 19.0045 38.25 17.4828C38.2488 15.9611 38.699 14.4733 39.5436 13.2076C40.3883 11.9418 41.5893 10.955 42.9949 10.372C44.4005 9.78905 45.9474 9.63609 47.4399 9.93248C49.4347 10.338 51.1888 11.5143 52.3212 13.2057C53.4537 14.8971 53.8729 16.9671 53.4879 18.9659Z" fill="#D9D7DD"/>
<path d="M41.5587 8.7666L47.4382 9.93265L44.4458 25.014L36.8945 23.567C36.8945 23.567 42.9917 11.1338 41.5587 8.7666Z" fill="#D9D7DD"/>
<path d="M42.8644 3.91637L38.875 3.125L38.5265 4.88199L42.5159 5.67336L42.8644 3.91637Z" fill="#EBEBEB"/>
<path d="M58.2308 13.1216C58.1909 13.3217 58.0927 13.5055 57.9484 13.6498C57.8041 13.7941 57.6203 13.8925 57.4202 13.9324C57.2201 13.9723 57.0127 13.9521 56.8241 13.8742C56.6354 13.7964 56.4741 13.6643 56.3605 13.4949C56.2469 13.3254 56.186 13.126 56.1855 12.922C56.1851 12.7179 56.2452 12.5183 56.3581 12.3483C56.471 12.1784 56.6318 12.0457 56.8201 11.967C57.0083 11.8884 57.2157 11.8672 57.416 11.9063C57.5494 11.9324 57.6764 11.9845 57.7896 12.0598C57.9028 12.135 58.0001 12.2318 58.0758 12.3447C58.1515 12.4576 58.2041 12.5844 58.2307 12.7177C58.2574 12.851 58.2574 12.9882 58.2308 13.1216Z" fill="#FAFAFA"/>
<path d="M42.7775 16.2823C42.4709 17.8305 41.8118 19.2872 40.8514 20.5396C39.891 21.7919 38.655 22.8063 37.2394 23.5039C35.8237 24.2016 34.2664 24.5638 32.6881 24.5625C31.1099 24.5612 29.5532 24.1964 28.1387 23.4964C30.3905 23.3414 32.5286 22.4494 34.2229 20.9581C35.9172 19.4669 37.0734 17.4593 37.513 15.2454C37.9526 13.0315 37.6511 10.7344 36.655 8.70897C35.659 6.68352 34.0239 5.04231 32.0021 4.0388C33.5761 3.92954 35.1541 4.18467 36.6135 4.78438C38.0729 5.38408 39.3743 6.3122 40.4167 7.49662C41.4591 8.68103 42.2144 10.0898 42.6238 11.6136C43.0333 13.1373 43.0859 14.735 42.7775 16.2823Z" fill="#EBEBEB"/>
<path d="M37.5159 15.2476C38.5817 9.87447 36.1111 4.8572 31.9975 4.04121C27.8839 3.22521 23.6852 6.91948 22.6194 12.2926C21.5535 17.6657 24.0241 22.683 28.1377 23.499C32.2513 24.315 36.45 20.6207 37.5159 15.2476Z" fill="#FAFAFA"/>
<path d="M28.1307 23.4969C26.5556 23.6053 24.9767 23.3493 23.5165 22.7488C22.0563 22.1483 20.7541 21.2195 19.7109 20.0343C18.6678 18.8491 17.9117 17.4395 17.5015 15.9149C17.0912 14.3903 17.0377 12.7917 17.3452 11.243C17.6527 9.69442 18.3129 8.23747 19.2745 6.98526C20.2361 5.73304 21.4734 4.71923 22.8902 4.02251C24.307 3.32578 25.8653 2.96487 27.4441 2.96779C29.023 2.97071 30.5799 3.33737 31.9942 4.03933C29.7424 4.1943 27.6042 5.0863 25.9099 6.57758C24.2156 8.06886 23.0594 10.0765 22.6198 12.2904C22.1802 14.5042 22.4817 16.8013 23.4778 18.8267C24.4738 20.8522 26.109 22.4934 28.1307 23.4969Z" fill="#E6E6E6"/>
<defs>
<filter id="filter0_ii_839_65" x="234.84" y="395.959" width="15.4434" height="0.750628" filterUnits="userSpaceOnUse" color-interpolation-filters="sRGB">
<feFlood flood-opacity="0" result="BackgroundImageFix"/>
<feBlend mode="normal" in="SourceGraphic" in2="BackgroundImageFix" result="shape"/>
<feColorMatrix in="SourceAlpha" type="matrix" values="0 0 0 0 0 0 0 0 0 0 0 0 0 0 0 0 0 0 127 0" result="hardAlpha"/>
<feOffset dy="0.311984"/>
<feGaussianBlur stdDeviation="0.0633025"/>
<feComposite in2="hardAlpha" operator="arithmetic" k2="-1" k3="1"/>
<feColorMatrix type="matrix" values="0 0 0 0 0.105882 0 0 0 0 0.109804 0 0 0 0 0.117647 0 0 0 0.5 0"/>
<feBlend mode="normal" in2="shape" result="effect1_innerShadow_839_65"/>
<feColorMatrix in="SourceAlpha" type="matrix" values="0 0 0 0 0 0 0 0 0 0 0 0 0 0 0 0 0 0 127 0" result="hardAlpha"/>
<feOffset dy="-0.155992"/>
<feComposite in2="hardAlpha" operator="arithmetic" k2="-1" k3="1"/>
<feColorMatrix type="matrix" values="0 0 0 0 0.208542 0 0 0 0 0.21125 0 0 0 0 0.216667 0 0 0 1 0"/>
<feBlend mode="normal" in2="effect1_innerShadow_839_65" result="effect2_innerShadow_839_65"/>
</filter>
<filter id="filter1_ii_839_65" x="336.705" y="395.959" width="15.4434" height="0.750628" filterUnits="userSpaceOnUse" color-interpolation-filters="sRGB">
<feFlood flood-opacity="0" result="BackgroundImageFix"/>
<feBlend mode="normal" in="SourceGraphic" in2="BackgroundImageFix" result="shape"/>
<feColorMatrix in="SourceAlpha" type="matrix" values="0 0 0 0 0 0 0 0 0 0 0 0 0 0 0 0 0 0 127 0" result="hardAlpha"/>
<feOffset dy="0.311984"/>
<feGaussianBlur stdDeviation="0.0633025"/>
<feComposite in2="hardAlpha" operator="arithmetic" k2="-1" k3="1"/>
<feColorMatrix type="matrix" values="0 0 0 0 0.105882 0 0 0 0 0.109804 0 0 0 0 0.117647 0 0 0 0.5 0"/>
<feBlend mode="normal" in2="shape" result="effect1_innerShadow_839_65"/>
<feColorMatrix in="SourceAlpha" type="matrix" values="0 0 0 0 0 0 0 0 0 0 0 0 0 0 0 0 0 0 127 0" result="hardAlpha"/>
<feOffset dy="-0.155992"/>
<feComposite in2="hardAlpha" operator="arithmetic" k2="-1" k3="1"/>
<feColorMatrix type="matrix" values="0 0 0 0 0.208542 0 0 0 0 0.21125 0 0 0 0 0.216667 0 0 0 1 0"/>
<feBlend mode="normal" in2="effect1_innerShadow_839_65" result="effect2_innerShadow_839_65"/>
</filter>
<filter id="filter2_ii_839_65" x="233.281" y="390.032" width="120.426" height="5.92773" filterUnits="userSpaceOnUse" color-interpolation-filters="sRGB">
<feFlood flood-opacity="0" result="BackgroundImageFix"/>
<feBlend mode="normal" in="SourceGraphic" in2="BackgroundImageFix" result="shape"/>
<feColorMatrix in="SourceAlpha" type="matrix" values="0 0 0 0 0 0 0 0 0 0 0 0 0 0 0 0 0 0 127 0" result="hardAlpha"/>
<feOffset dy="-0.155992"/>
<feComposite in2="hardAlpha" operator="arithmetic" k2="-1" k3="1"/>
<feColorMatrix type="matrix" values="0 0 0 0 0 0 0 0 0 0 0 0 0 0 0 0 0 0 0.1 0"/>
<feBlend mode="normal" in2="shape" result="effect1_innerShadow_839_65"/>
<feColorMatrix in="SourceAlpha" type="matrix" values="0 0 0 0 0 0 0 0 0 0 0 0 0 0 0 0 0 0 127 0" result="hardAlpha"/>
<feOffset dy="0.155992"/>
<feComposite in2="hardAlpha" operator="arithmetic" k2="-1" k3="1"/>
<feColorMatrix type="matrix" values="0 0 0 0 1 0 0 0 0 1 0 0 0 0 1 0 0 0 0.2 0"/>
<feBlend mode="normal" in2="effect1_innerShadow_839_65" result="effect2_innerShadow_839_65"/>
</filter>
<filter id="filter3_ii_839_65" x="233.281" y="315.936" width="120.426" height="74.0962" filterUnits="userSpaceOnUse" color-interpolation-filters="sRGB">
<feFlood flood-opacity="0" result="BackgroundImageFix"/>
<feBlend mode="normal" in="SourceGraphic" in2="BackgroundImageFix" result="shape"/>
<feColorMatrix in="SourceAlpha" type="matrix" values="0 0 0 0 0 0 0 0 0 0 0 0 0 0 0 0 0 0 127 0" result="hardAlpha"/>
<feOffset dx="-0.155992"/>
<feComposite in2="hardAlpha" operator="arithmetic" k2="-1" k3="1"/>
<feColorMatrix type="matrix" values="0 0 0 0 1 0 0 0 0 1 0 0 0 0 1 0 0 0 0.25 0"/>
<feBlend mode="normal" in2="shape" result="effect1_innerShadow_839_65"/>
<feColorMatrix in="SourceAlpha" type="matrix" values="0 0 0 0 0 0 0 0 0 0 0 0 0 0 0 0 0 0 127 0" result="hardAlpha"/>
<feOffset dx="0.155992"/>
<feComposite in2="hardAlpha" operator="arithmetic" k2="-1" k3="1"/>
<feColorMatrix type="matrix" values="0 0 0 0 1 0 0 0 0 1 0 0 0 0 1 0 0 0 0.25 0"/>
<feBlend mode="normal" in2="effect1_innerShadow_839_65" result="effect2_innerShadow_839_65"/>
</filter>
<linearGradient id="paint0_linear_839_65" x1="250.283" y1="395.959" x2="234.84" y2="395.959" gradientUnits="userSpaceOnUse">
<stop stop-color="#37383A"/>
<stop offset="0.317708" stop-color="#252627"/>
<stop offset="0.697917" stop-color="#252627"/>
<stop offset="1" stop-color="#37383A"/>
</linearGradient>
<linearGradient id="paint1_linear_839_65" x1="352.148" y1="395.959" x2="336.705" y2="395.959" gradientUnits="userSpaceOnUse">
<stop stop-color="#37383A"/>
<stop offset="0.317708" stop-color="#252627"/>
<stop offset="0.697917" stop-color="#252627"/>
<stop offset="1" stop-color="#37383A"/>
</linearGradient>
<linearGradient id="paint2_linear_839_65" x1="353.707" y1="390.032" x2="233.281" y2="390.032" gradientUnits="userSpaceOnUse">
<stop stop-color="#C4C4C4"/>
<stop offset="0.00323834" stop-color="#CCCBD0"/>
<stop offset="0.013601" stop-color="#AFB1B4"/>
<stop offset="0.0249352" stop-color="#BCBDC0"/>
<stop offset="0.0356218" stop-color="#DFE0E2"/>
<stop offset="0.0556995" stop-color="#D8D9DA"/>
<stop offset="0.0812824" stop-color="#BDBEC0"/>
<stop offset="0.13342" stop-color="#C3C4C6"/>
<stop offset="0.906736" stop-color="#BCBDBF"/>
<stop offset="0.927461" stop-color="#D1D2D3"/>
<stop offset="0.943005" stop-color="#E0E1E3"/>
<stop offset="0.955635" stop-color="#D7D9DB"/>
<stop offset="0.967617" stop-color="#B9BABC"/>
<stop offset="0.982513" stop-color="#A3A4A6"/>
<stop offset="0.998057" stop-color="#CFD0D4"/>
<stop offset="1" stop-color="#C0BFC4"/>
</linearGradient>
<linearGradient id="paint3_linear_839_65" x1="293.494" y1="315.936" x2="293.494" y2="390.032" gradientUnits="userSpaceOnUse">
<stop stop-color="#B7B8BA"/>
<stop offset="0.0884211" stop-color="#CBCCCE"/>
<stop offset="0.288421" stop-color="#DDDEE0"/>
<stop offset="0.507368" stop-color="#DEDFE1"/>
<stop offset="0.915789" stop-color="#D6D7D9"/>
<stop offset="0.943158" stop-color="#E0E1E3"/>
<stop offset="0.956842" stop-color="#E2E3E5"/>
<stop offset="0.965526" stop-color="#D7D8DA"/>
<stop offset="0.976316" stop-color="#ADAEB0"/>
<stop offset="0.995789" stop-color="#787A7E"/>
<stop offset="1" stop-color="#868789"/>
</linearGradient>
<clipPath id="clip0_839_65">
<rect width="482.015" height="357.377" fill="white" transform="translate(64.1113 38.623)"/>
</clipPath>
</defs>
</svg>
