<svg width="515" height="515" viewBox="0 0 515 515" fill="none" xmlns="http://www.w3.org/2000/svg">
<path d="M56.6491 310.988L65.5586 305.22C65.5586 305.22 69.8846 282.241 66.671 261.96C62.1596 233.346 42.7132 223.51 35.6474 226.332C28.5816 229.154 26.913 237.662 39.6747 254.142C47.204 263.886 56.886 284.476 56.6491 310.988Z" fill="#3391FF"/>
<g opacity="0.3">
<path d="M56.6501 310.988L65.5596 305.22C65.5596 305.22 69.8856 282.241 66.672 261.96C62.1606 233.346 42.7142 223.51 35.6484 226.332C28.5826 229.154 26.914 237.662 39.6757 254.142C47.205 263.886 56.887 284.476 56.6501 310.988Z" fill="white"/>
</g>
<path d="M59.8952 299.647H59.8025C59.6356 299.622 59.4852 299.532 59.3833 299.398C59.2814 299.263 59.2359 299.094 59.2566 298.926C62.9543 272.146 52.2011 242.874 40.1089 231.06C39.9874 230.941 39.918 230.779 39.9161 230.609C39.9141 230.439 39.9798 230.275 40.0986 230.153C40.2175 230.032 40.3797 229.962 40.5497 229.96C40.7197 229.959 40.8835 230.024 41.005 230.143C53.3135 242.163 64.2727 271.92 60.5235 299.091C60.5036 299.244 60.429 299.385 60.3136 299.487C60.1981 299.589 60.0495 299.646 59.8952 299.647Z" fill="white"/>
<path d="M34.2167 325.48C32.8777 326.242 29.0667 323.307 28.0367 322.596C26.2277 321.363 24.7664 319.685 23.7931 317.724C22.7071 315.487 22.3471 312.966 22.7631 310.514C22.9774 309.221 23.2802 307.944 23.6695 306.693C24.03 305.457 24.3802 304.221 24.6995 302.985C25.1328 301.789 25.3151 300.516 25.2351 299.246C24.9158 296.712 22.6601 294.941 20.6207 293.406C18.3547 291.717 16.0063 289.482 16.0166 286.433C16.179 284.065 17.1248 281.818 18.7049 280.047C20.1675 278.193 21.8979 276.565 23.2163 274.608C24.2543 273.251 24.7959 271.579 24.751 269.87C24.6091 268.826 24.2589 267.821 23.721 266.914C22.691 264.926 21.2284 263.103 20.4868 260.971C19.7452 258.839 19.8482 256.182 21.5168 254.657C22.8764 253.401 24.9158 253.226 26.7595 253.349C28.4925 253.561 30.1586 254.148 31.6417 255.069C36.4827 257.758 39.2534 263.495 44.3931 265.565C46.4189 266.203 48.483 266.712 50.5731 267.089C52.6331 267.635 54.7446 268.696 55.7231 270.602C57.608 274.372 54.106 279.017 55.4347 283.013C56.6089 286.556 60.0491 287.906 61.9752 291.099C62.7625 292.508 63.08 294.132 62.8816 295.734C62.7135 298.441 62.0502 301.094 60.9246 303.562C59.6538 306.123 58.2263 308.603 56.6501 310.988L34.2167 325.48Z" fill="#3391FF"/>
<g opacity="0.65">
<path d="M34.2167 325.48C32.8777 326.242 29.0667 323.307 28.0367 322.596C26.2277 321.363 24.7664 319.685 23.7931 317.724C22.7071 315.487 22.3471 312.966 22.7631 310.514C22.9774 309.221 23.2802 307.944 23.6695 306.693C24.03 305.457 24.3802 304.221 24.6995 302.985C25.1328 301.789 25.3151 300.516 25.2351 299.246C24.9158 296.712 22.6601 294.941 20.6207 293.406C18.3547 291.717 16.0063 289.482 16.0166 286.433C16.179 284.065 17.1248 281.818 18.7049 280.047C20.1675 278.193 21.8979 276.565 23.2163 274.608C24.2543 273.251 24.7959 271.579 24.751 269.87C24.6091 268.826 24.2589 267.821 23.721 266.914C22.691 264.926 21.2284 263.103 20.4868 260.971C19.7452 258.839 19.8482 256.182 21.5168 254.657C22.8764 253.401 24.9158 253.226 26.7595 253.349C28.4925 253.561 30.1586 254.148 31.6417 255.069C36.4827 257.758 39.2534 263.495 44.3931 265.565C46.4189 266.203 48.483 266.712 50.5731 267.089C52.6331 267.635 54.7446 268.696 55.7231 270.602C57.608 274.372 54.106 279.017 55.4347 283.013C56.6089 286.556 60.0491 287.906 61.9752 291.099C62.7625 292.508 63.08 294.132 62.8816 295.734C62.7135 298.441 62.0502 301.094 60.9246 303.562C59.6538 306.123 58.2263 308.603 56.6501 310.988L34.2167 325.48Z" fill="white"/>
</g>
<path d="M47.1536 317.899C47.0743 317.897 46.9962 317.878 46.924 317.845C46.8519 317.812 46.787 317.765 46.7333 317.706C46.6796 317.648 46.6381 317.579 46.6113 317.504C46.5844 317.43 46.5727 317.35 46.5768 317.271C47.6068 293.334 36.2768 266.894 28.0368 259.22C27.9366 259.107 27.882 258.961 27.8838 258.81C27.8856 258.659 27.9436 258.514 28.0465 258.403C28.1494 258.292 28.2899 258.224 28.4404 258.211C28.591 258.199 28.7408 258.243 28.8608 258.334C37.2244 266.173 48.7398 293.045 47.7304 317.322C47.7229 317.473 47.6598 317.615 47.5532 317.722C47.4466 317.829 47.3042 317.892 47.1536 317.899Z" fill="white"/>
<path d="M43.2595 288.637H43.0844C37.4251 287.07 31.613 286.121 25.7495 285.804C25.6701 285.802 25.5921 285.783 25.5199 285.75C25.4477 285.717 25.3829 285.67 25.3292 285.611C25.2755 285.553 25.234 285.484 25.2071 285.41C25.1802 285.335 25.1685 285.255 25.1727 285.176C25.1739 285.096 25.1914 285.018 25.224 284.945C25.2567 284.872 25.3039 284.807 25.3627 284.753C25.4215 284.699 25.4907 284.657 25.5661 284.631C25.6414 284.604 25.7214 284.594 25.801 284.599C31.7816 284.911 37.711 285.867 43.4861 287.452C43.6372 287.504 43.7624 287.613 43.8353 287.755C43.9083 287.897 43.9234 288.062 43.8775 288.215C43.8364 288.344 43.7532 288.456 43.6412 288.532C43.5292 288.609 43.3949 288.646 43.2595 288.637Z" fill="white"/>
<path d="M261.289 499.571C392.688 499.571 499.209 438.072 499.209 362.21C499.209 286.348 392.688 224.849 261.289 224.849C129.889 224.849 23.3691 286.348 23.3691 362.21C23.3691 438.072 129.889 499.571 261.289 499.571Z" fill="#FAFAFA"/>
<path d="M134.848 303.654C185.246 274.567 266.946 274.567 317.333 303.654C360.047 328.312 366.536 365.959 336.841 394.583L447.721 457.783C454.478 461.687 454.478 468.011 447.721 471.915L437.75 477.673C430.994 481.576 420.24 481.267 413.69 476.993L316.87 409.281C266.4 438.121 185.112 438.007 134.889 409.013C84.4605 379.915 84.4604 332.752 134.848 303.654Z" fill="#E6E6E6"/>
<path d="M155.273 47.8951L146.538 52.9421C146.583 52.5591 146.607 52.174 146.61 51.7885V49.2547C146.61 44.7433 143.448 42.9202 139.545 45.1347C137.862 46.1612 136.425 47.5427 135.332 49.1826C134.683 43.5176 130.244 41.4061 124.836 44.5167C118.996 47.8951 114.268 56.0939 114.268 62.8404V66.6205C114.228 68.1357 114.534 69.64 115.165 71.0186L107.955 75.2107C106.806 75.956 105.85 76.964 105.168 78.1514C104.486 79.3389 104.096 80.6716 104.03 82.0396C104.03 84.5425 105.781 85.5519 107.955 84.3056L155.335 56.9488C156.478 56.2075 157.43 55.206 158.112 54.0262C158.794 52.8465 159.187 51.5219 159.259 50.1611C159.197 47.6582 157.446 46.6488 155.273 47.8951Z" fill="#EBEBEB"/>
<path d="M40.0662 70.6169L44.9896 66.8162V55.96C44.9896 47.3492 51.8597 37.3582 59.3066 33.0631C66.7638 28.7577 72.8099 32.2494 72.8099 40.8499V42.4258C74.3817 39.8795 76.526 37.7352 79.0723 36.1634C84.4386 33.0734 88.7852 35.5763 88.7852 41.7666V42.4876L95.6553 38.5221C99.1882 36.4621 102.052 38.1307 102.052 42.2095C101.932 44.4295 101.29 46.5901 100.179 48.5157C99.0673 50.4413 97.5176 52.0778 95.6553 53.2923L40.0662 85.3871C36.5333 87.4471 33.6699 85.7682 33.6699 81.6894C33.7898 79.4707 34.4315 77.3116 35.543 75.3876C36.6544 73.4637 38.2041 71.8291 40.0662 70.6169Z" fill="#EBEBEB"/>
<path d="M113.125 322.586V353.929C113.125 370.944 124.373 387.919 146.857 400.948C191.827 426.914 264.751 426.914 309.721 400.948C332.206 387.96 343.454 370.944 343.454 353.929V322.586C343.454 305.57 332.206 288.596 309.721 275.577C264.751 249.61 191.827 249.61 146.857 275.577C124.373 288.555 113.125 305.57 113.125 322.586ZM332.309 322.586C332.309 336.202 322.308 349.469 304.149 359.954C284.064 371.552 257.129 377.938 228.289 377.938C199.449 377.938 172.515 371.552 152.43 359.954C134.271 349.469 124.27 336.202 124.27 322.586C124.27 308.969 134.271 295.703 152.43 285.217C172.515 273.62 199.449 267.234 228.289 267.234C257.129 267.234 284.074 273.62 304.149 285.217C322.318 295.703 332.309 309 332.309 322.586Z" fill="#3391FF"/>
<path opacity="0.2" d="M113.125 322.586V353.929C113.125 370.944 124.373 387.919 146.857 400.948C191.827 426.914 264.751 426.914 309.721 400.948C332.206 387.96 343.454 370.944 343.454 353.929V322.586C343.454 305.57 332.206 288.596 309.721 275.577C264.751 249.61 191.827 249.61 146.857 275.577C124.373 288.555 113.125 305.57 113.125 322.586ZM332.309 322.586C332.309 336.202 322.308 349.469 304.149 359.954C284.064 371.552 257.129 377.938 228.289 377.938C199.449 377.938 172.515 371.552 152.43 359.954C134.271 349.469 124.27 336.202 124.27 322.586C124.27 308.969 134.271 295.703 152.43 285.217C172.515 273.62 199.449 267.234 228.289 267.234C257.129 267.234 284.074 273.62 304.149 285.217C322.318 295.703 332.309 309 332.309 322.586Z" fill="white"/>
<path opacity="0.6" d="M343.34 356.854C341.548 367.638 336.8 375.754 317.673 390.679C290.635 411.794 222.171 420.415 182.434 407.303C144.952 394.943 132.994 370.749 132.994 354.155L133.097 344.401C127.308 337.51 124.259 330.105 124.259 322.586C124.259 314.881 127.463 307.29 133.529 300.255L133.663 286.515H131.531C119.264 297.464 113.125 310.02 113.125 322.565V353.908C113.125 370.924 124.373 387.898 146.858 400.928C191.827 426.894 264.751 426.894 309.721 400.928C330.919 388.712 342.125 372.86 343.34 356.854Z" fill="#3391FF"/>
<path d="M309.732 275.577C264.751 249.61 191.838 249.61 146.868 275.577C101.898 301.543 101.888 343.639 146.868 369.605C191.848 395.572 264.751 395.572 309.732 369.605C354.712 343.639 354.701 301.543 309.732 275.577ZM304.159 359.954C284.074 371.552 257.129 377.938 228.3 377.938C199.47 377.938 172.525 371.552 152.43 359.954C134.271 349.469 124.27 336.202 124.27 322.586C124.27 308.969 134.271 295.703 152.43 285.217C172.515 273.62 199.46 267.234 228.3 267.234C257.14 267.234 284.074 273.62 304.159 285.217C322.318 295.703 332.319 308.979 332.319 322.586C332.319 336.192 322.318 349.469 304.159 359.954Z" fill="#3391FF"/>
<path opacity="0.5" d="M309.732 275.577C264.751 249.61 191.838 249.61 146.868 275.577C101.898 301.543 101.888 343.639 146.868 369.605C191.848 395.572 264.751 395.572 309.732 369.605C354.712 343.639 354.701 301.543 309.732 275.577ZM304.159 359.954C284.074 371.552 257.129 377.938 228.3 377.938C199.47 377.938 172.525 371.552 152.43 359.954C134.271 349.469 124.27 336.202 124.27 322.586C124.27 308.969 134.271 295.703 152.43 285.217C172.515 273.62 199.46 267.234 228.3 267.234C257.14 267.234 284.074 273.62 304.159 285.217C322.318 295.703 332.319 308.979 332.319 322.586C332.319 336.192 322.318 349.469 304.159 359.954Z" fill="white"/>
<path d="M332.33 322.586C332.263 328.121 330.709 333.536 327.828 338.262C323.266 330.362 315.221 322.946 304.138 316.571C284.074 304.963 257.119 298.577 228.279 298.577C199.439 298.577 172.504 304.963 152.43 316.571C141.357 322.946 133.323 330.362 128.74 338.262C125.883 333.527 124.34 328.116 124.27 322.586C124.27 308.98 134.271 295.703 152.44 285.207C172.515 273.63 199.46 267.234 228.289 267.234C257.119 267.234 284.084 273.63 304.149 285.207C322.328 295.703 332.33 309 332.33 322.586Z" fill="#3391FF"/>
<path opacity="0.3" d="M332.33 322.586C332.263 328.121 330.709 333.536 327.828 338.262C323.266 330.362 315.221 322.946 304.138 316.571C284.074 304.963 257.119 298.577 228.279 298.577C199.439 298.577 172.504 304.963 152.43 316.571C141.357 322.946 133.323 330.362 128.74 338.262C125.883 333.527 124.34 328.116 124.27 322.586C124.27 308.98 134.271 295.703 152.44 285.207C172.515 273.63 199.46 267.234 228.289 267.234C257.119 267.234 284.084 273.63 304.149 285.207C322.328 295.703 332.33 309 332.33 322.586Z" fill="white"/>
<path opacity="0.6" d="M152.44 285.207C134.271 295.703 124.27 308.979 124.27 322.586C124.343 328.117 125.889 333.528 128.75 338.262C133.344 330.362 141.378 322.946 152.44 316.571C157.118 313.895 161.978 311.551 166.984 309.556C162.596 311.256 149.123 315.592 154.037 302.748C159.877 287.494 188.377 270.972 209.317 268.233C187.779 270.365 168.034 276.215 152.44 285.207Z" fill="#3391FF"/>
<path opacity="0.4" d="M304.16 299.411C284.075 287.813 257.13 281.427 228.3 281.427C199.471 281.427 172.515 287.813 152.43 299.411C137.454 308.063 128.04 318.61 125.197 329.682C128.04 340.755 137.454 351.312 152.43 359.954C172.526 371.552 199.46 377.938 228.3 377.938C257.14 377.938 284.075 371.552 304.16 359.954C319.146 351.302 328.56 340.755 331.393 329.682C328.571 318.61 319.146 308.063 304.16 299.411Z" fill="white"/>
<path d="M144.734 336.872C151.172 341.919 158.475 345.112 165.921 347.646C173.389 350.118 181.037 352.006 188.798 353.29C204.305 355.808 220.032 356.705 235.725 355.968C243.563 355.618 251.411 354.887 259.209 353.836C266.981 352.792 274.682 351.275 282.27 349.294C289.821 347.405 297.126 344.639 304.034 341.054C305.74 340.145 307.39 339.137 308.978 338.036C310.573 336.948 312.084 335.743 313.5 334.431C314.928 333.112 316.203 331.637 317.301 330.033C318.436 328.385 319.302 326.566 319.865 324.646C319.899 326.751 319.55 328.845 318.835 330.826C318.079 332.817 317.09 334.711 315.889 336.47C314.702 338.242 313.35 339.897 311.852 341.414C310.368 342.938 308.789 344.365 307.124 345.689C300.412 350.805 292.972 354.888 285.051 357.801C277.242 360.744 269.186 362.988 260.98 364.507C252.817 366.052 244.558 367.032 236.26 367.442C219.606 368.313 202.918 366.536 186.82 362.179C178.767 359.972 170.989 356.863 163.635 352.909C159.972 350.901 156.492 348.578 153.232 345.967C152.418 345.318 151.656 344.607 150.873 343.907C150.09 343.206 149.349 342.496 148.638 341.744C147.203 340.231 145.898 338.602 144.734 336.872Z" fill="white"/>
<path d="M306.303 389.556C306.441 386.756 307.239 384.027 308.632 381.593C310.024 379.158 311.972 377.088 314.316 375.548C316.52 374.261 318.529 374.127 319.991 374.951L345.659 389.629C347.111 390.463 348.018 392.265 348.028 394.779C347.887 397.579 347.088 400.307 345.696 402.741C344.304 405.174 342.357 407.246 340.015 408.787C337.79 410.084 335.771 410.218 334.308 409.374L308.651 394.706C307.23 393.944 306.313 392.142 306.303 389.556Z" fill="#37474F"/>
<path d="M308.703 394.778C307.23 393.944 306.313 392.142 306.303 389.556C306.339 387.472 306.806 385.417 307.673 383.521L344.557 404.656C343.357 406.344 341.83 407.773 340.066 408.859C337.841 410.156 335.823 410.29 334.36 409.446L308.703 394.778Z" fill="#263238"/>
<path d="M433.053 431.374L351.374 389.752L351.271 389.69C349.376 388.66 346.801 388.846 343.969 390.494C338.18 393.872 333.514 402.03 333.545 408.725C333.545 412.082 334.75 414.431 336.635 415.523L413.401 464.963C415.61 466.361 418.077 467.299 420.657 467.723C423.236 468.147 425.875 468.047 428.415 467.429C430.954 466.811 433.344 465.688 435.44 464.126C437.537 462.565 439.297 460.597 440.617 458.341C441.936 456.084 442.788 453.585 443.121 450.992C443.454 448.4 443.261 445.766 442.554 443.25C441.847 440.733 440.641 438.385 439.007 436.344C437.373 434.304 435.345 432.614 433.043 431.374H433.053Z" fill="#455A64"/>
<path d="M336.646 415.543L413.412 464.983C416.266 466.775 419.537 467.794 422.903 467.941C426.269 468.088 429.616 467.358 432.616 465.822C435.615 464.286 438.164 461.997 440.012 459.179C441.86 456.362 442.944 453.112 443.159 449.749C441.686 456.146 431.118 461.584 418.016 454.261C404.915 446.938 356.381 416.254 334.329 403.554C333.811 405.222 333.54 406.957 333.525 408.704C333.536 412.103 334.751 414.451 336.646 415.543Z" fill="#37474F"/>
<path d="M336.645 415.543C334.729 414.452 333.555 412.103 333.555 408.745C333.555 402.05 338.19 393.893 343.978 390.514C346.811 388.866 349.386 388.691 351.281 389.711L358.491 393.378C356.544 392.348 353.918 392.513 351.003 394.202C345.07 397.663 340.281 406.036 340.311 412.907C340.311 416.347 341.496 418.808 343.453 419.921" fill="#3391FF"/>
<path opacity="0.2" d="M343.444 419.921C341.487 418.808 340.354 416.347 340.302 412.906C340.313 411.086 340.594 409.278 341.136 407.54C338.675 406.077 336.378 404.738 334.328 403.554C334.068 404.415 333.865 405.293 333.72 406.18C333.659 406.613 333.607 407.046 333.566 407.478C333.566 407.911 333.514 408.333 333.566 408.745C333.566 412.103 334.771 414.451 336.656 415.543L343.444 419.921Z" fill="black"/>
<path d="M141.326 463.253L79.5262 432.342L54.9092 443.24L141.326 463.253Z" fill="#3391FF"/>
<g opacity="0.15">
<path d="M141.326 463.253L79.5262 432.342L54.9092 443.24L141.326 463.253Z" fill="white"/>
</g>
<path d="M141.327 463.253L86.8916 426.863L96.6354 412.855L141.327 463.253Z" fill="#3391FF"/>
<g opacity="0.15">
<path d="M141.327 463.253L86.8916 426.863L96.6354 412.855L141.327 463.253Z" fill="white"/>
</g>
<path d="M86.8916 426.863L87.9113 436.535L141.327 463.253L86.8916 426.863Z" fill="#3391FF"/>
<g opacity="0.2">
<path d="M86.8916 426.863L87.9113 436.535L141.327 463.253L86.8916 426.863Z" fill="black"/>
</g>
<path d="M78.0732 425.009C78.2228 425.005 78.3658 424.947 78.4749 424.844C78.601 424.72 78.677 424.554 78.6884 424.377C78.6997 424.2 78.6458 424.026 78.5367 423.886L77.3522 422.3C77.3042 422.233 77.2424 422.177 77.171 422.136C77.0996 422.095 77.0203 422.07 76.9383 422.062C76.8563 422.054 76.7737 422.064 76.6958 422.091C76.618 422.118 76.5468 422.161 76.487 422.218C76.3614 422.342 76.2848 422.507 76.2716 422.683C76.2583 422.859 76.3092 423.034 76.4149 423.175C76.8063 423.701 77.208 424.205 77.6097 424.731C77.6602 424.81 77.7284 424.876 77.8088 424.924C77.8892 424.972 77.9797 425.001 78.0732 425.009Z" fill="#455A64"/>
<path d="M72.6461 417.984C71.9114 416.913 71.2007 415.831 70.514 414.74C70.4211 414.59 70.3856 414.411 70.414 414.237C70.4424 414.063 70.5328 413.905 70.6685 413.792C70.7326 413.741 70.8069 413.705 70.8864 413.686C70.9658 413.666 71.0485 413.664 71.1287 413.68C71.209 413.696 71.2849 413.729 71.3512 413.776C71.4176 413.824 71.4728 413.886 71.5131 413.957C72.2032 415.038 72.9036 416.11 73.5731 417.17C73.674 417.315 73.7172 417.493 73.6943 417.668C73.6715 417.843 73.5842 418.004 73.4495 418.118C73.3496 418.205 73.2214 418.253 73.089 418.252C73 418.243 72.9142 418.214 72.8376 418.168C72.7611 418.121 72.6957 418.059 72.6461 417.984ZM67.1974 409.136C66.5691 407.993 65.9511 406.829 65.364 405.665C65.2833 405.509 65.2629 405.328 65.3065 405.157C65.3502 404.986 65.4549 404.837 65.6009 404.738C65.6718 404.695 65.7513 404.667 65.8339 404.657C65.9166 404.647 66.0004 404.655 66.0797 404.68C66.1589 404.706 66.2318 404.748 66.2931 404.804C66.3545 404.861 66.403 404.929 66.4352 405.006C67.012 406.149 67.6197 407.293 68.2377 408.426C68.3254 408.579 68.354 408.759 68.3179 408.932C68.2818 409.104 68.1837 409.258 68.042 409.363C67.9458 409.422 67.8355 409.454 67.7227 409.456C67.6147 409.454 67.509 409.424 67.4167 409.367C67.3244 409.311 67.2487 409.232 67.1974 409.136ZM62.6036 399.702C62.0886 398.476 61.5736 397.24 61.141 396.014C61.0778 395.852 61.0765 395.672 61.1372 395.509C61.198 395.345 61.3166 395.21 61.4706 395.128C61.5473 395.096 61.63 395.08 61.7133 395.081C61.7966 395.082 61.8788 395.101 61.9544 395.136C62.0301 395.171 62.0976 395.221 62.1526 395.284C62.2077 395.346 62.249 395.42 62.274 395.499C62.7169 396.704 63.201 397.92 63.716 399.125C63.7852 399.286 63.7931 399.468 63.7381 399.635C63.6831 399.801 63.569 399.943 63.4173 400.031C63.3373 400.071 63.2492 400.092 63.1598 400.093C63.039 400.089 62.9219 400.05 62.823 399.981C62.7242 399.911 62.6479 399.814 62.6036 399.702ZM59.0398 389.731C58.669 388.444 58.3188 387.136 58.0098 385.869C57.9606 385.701 57.9781 385.52 58.0587 385.365C58.1393 385.209 58.2767 385.091 58.4424 385.034C58.523 385.013 58.6071 385.009 58.6895 385.021C58.7719 385.034 58.8508 385.063 58.9213 385.108C58.9919 385.152 59.0525 385.211 59.0994 385.28C59.1464 385.349 59.1787 385.426 59.1943 385.508C59.493 386.765 59.8329 388.042 60.2243 389.309C60.2767 389.475 60.2657 389.654 60.1934 389.812C60.121 389.97 59.9926 390.095 59.8329 390.164H59.6475C59.5133 390.166 59.3819 390.125 59.2725 390.047C59.1631 389.97 59.0816 389.859 59.0398 389.731ZM56.6502 379.318C56.4442 378.01 56.2588 376.671 56.1043 375.342C56.0742 375.172 56.1124 374.996 56.2107 374.853C56.309 374.711 56.4595 374.612 56.6296 374.58C56.7985 374.568 56.9652 374.623 57.0941 374.733C57.223 374.843 57.304 374.998 57.3197 375.167C57.4639 376.475 57.6493 377.794 57.8553 379.081C57.89 379.249 57.8591 379.423 57.7691 379.569C57.6791 379.714 57.5367 379.82 57.3712 379.864H57.2579C57.1094 379.856 56.968 379.798 56.8574 379.699C56.7467 379.599 56.6736 379.465 56.6502 379.318ZM55.6202 368.647C55.6202 367.617 55.5584 366.587 55.5584 365.485V364.62C55.5542 364.536 55.5667 364.452 55.595 364.373C55.6233 364.294 55.6669 364.221 55.7234 364.159C55.7798 364.097 55.848 364.046 55.9239 364.011C55.9999 363.975 56.0822 363.954 56.1661 363.95C56.3365 363.964 56.4948 364.043 56.6066 364.173C56.7185 364.302 56.7749 364.47 56.7635 364.64V365.485C56.7635 366.515 56.7635 367.545 56.7635 368.575C56.7779 368.747 56.7246 368.917 56.6148 369.05C56.5051 369.183 56.3477 369.267 56.1764 369.286C56.0217 369.266 55.8797 369.19 55.7772 369.072C55.6748 368.954 55.6189 368.803 55.6202 368.647ZM56.4339 358.666C56.2653 358.636 56.1148 358.542 56.0132 358.404C55.9117 358.266 55.8668 358.095 55.888 357.925C56.0013 356.596 56.1455 355.247 56.3103 353.918C56.3165 353.834 56.34 353.752 56.3791 353.677C56.4183 353.602 56.4723 353.536 56.538 353.483C56.6036 353.43 56.6794 353.391 56.7607 353.369C56.842 353.346 56.9271 353.34 57.0107 353.352C57.1789 353.387 57.3269 353.486 57.4231 353.628C57.5193 353.77 57.5561 353.945 57.5257 354.114C57.3609 355.422 57.2167 356.751 57.1034 358.048C57.0961 358.208 57.03 358.36 56.9179 358.474C56.8057 358.588 56.6554 358.656 56.4957 358.666H56.4339ZM57.8759 348.14C57.711 348.087 57.5723 347.974 57.4881 347.823C57.4038 347.672 57.3805 347.494 57.4227 347.326C57.6905 346.018 57.9995 344.71 58.3394 343.422C58.3548 343.341 58.3871 343.263 58.4342 343.195C58.4813 343.126 58.5422 343.068 58.613 343.025C58.6837 342.981 58.7628 342.953 58.8452 342.941C58.9276 342.93 59.0114 342.936 59.0913 342.959C59.2543 343.022 59.3881 343.143 59.4662 343.299C59.5443 343.456 59.5612 343.635 59.5136 343.804C59.184 345.06 58.875 346.358 58.6072 347.635C58.5857 347.777 58.5154 347.908 58.4082 348.003C58.301 348.099 58.1638 348.155 58.0201 348.16L57.8759 348.14ZM60.6569 337.953C60.5002 337.877 60.3781 337.744 60.3151 337.582C60.252 337.42 60.2527 337.24 60.317 337.078C60.7599 335.842 61.2543 334.595 61.7693 333.38C61.7984 333.303 61.8432 333.232 61.9008 333.173C61.9584 333.114 62.0276 333.068 62.104 333.037C62.1804 333.006 62.2625 332.991 62.3449 332.994C62.4273 332.996 62.5084 333.015 62.583 333.05C62.7331 333.141 62.8458 333.282 62.9006 333.448C62.9554 333.614 62.9487 333.795 62.8817 333.957C62.3667 335.152 61.8517 336.367 61.45 337.582C61.4114 337.703 61.336 337.809 61.2344 337.884C61.1329 337.96 61.0102 338.002 60.8835 338.005C60.8048 338.007 60.7267 337.99 60.6569 337.953ZM64.8902 328.384C64.7451 328.282 64.6428 328.13 64.6029 327.957C64.563 327.784 64.5883 327.603 64.6739 327.447C65.3022 326.304 65.9614 325.161 66.6309 324.058C66.6705 323.985 66.7254 323.922 66.7918 323.872C66.8582 323.822 66.9346 323.787 67.0158 323.77C67.097 323.752 67.181 323.752 67.2621 323.77C67.3432 323.788 67.4195 323.823 67.4858 323.873C67.6214 323.986 67.7125 324.143 67.7427 324.316C67.7729 324.49 67.7402 324.669 67.6506 324.821C66.9811 325.902 66.3322 327.025 65.7245 328.148C65.6755 328.245 65.6006 328.328 65.508 328.386C65.4153 328.444 65.3085 328.476 65.1992 328.477C65.0894 328.477 64.982 328.445 64.8902 328.384ZM70.3595 319.64C70.2346 319.517 70.1585 319.354 70.1452 319.18C70.132 319.005 70.1825 318.832 70.2874 318.692C71.0599 317.662 71.8736 316.632 72.6873 315.664C72.7405 315.601 72.8067 315.55 72.8814 315.516C72.9562 315.481 73.0375 315.463 73.1199 315.463C73.2023 315.463 73.2836 315.481 73.3584 315.516C73.4331 315.55 73.4993 315.601 73.5525 315.664C73.6698 315.796 73.7346 315.966 73.7346 316.143C73.7346 316.319 73.6698 316.49 73.5525 316.622C72.7491 317.58 71.956 318.569 71.1938 319.588C71.14 319.664 71.069 319.726 70.9867 319.769C70.9043 319.812 70.8129 319.835 70.72 319.835C70.6414 319.834 70.564 319.816 70.493 319.782C70.422 319.748 70.3589 319.7 70.308 319.64H70.3595ZM76.9824 311.935C76.8651 311.803 76.8003 311.633 76.8003 311.456C76.8003 311.28 76.8651 311.109 76.9824 310.977C77.8888 310.081 78.8261 309.206 79.7634 308.382C79.8252 308.327 79.8982 308.286 79.9773 308.261C80.0564 308.237 80.1398 308.23 80.2219 308.241C80.304 308.251 80.3828 308.28 80.453 308.324C80.5231 308.368 80.583 308.426 80.6286 308.495C80.7283 308.641 80.7727 308.817 80.7538 308.993C80.735 309.169 80.654 309.332 80.5256 309.453C79.5986 310.256 78.6819 311.111 77.7858 311.987C77.6801 312.096 77.5358 312.159 77.3841 312.162C77.2964 312.16 77.2102 312.139 77.1318 312.1C77.0534 312.061 76.9847 312.005 76.9309 311.935H76.9824ZM84.5632 305.415C84.4787 305.262 84.4509 305.084 84.4848 304.913C84.5188 304.741 84.6122 304.587 84.7486 304.478C85.7786 303.737 86.8086 303.046 87.8386 302.418C87.9091 302.376 87.9877 302.35 88.0692 302.341C88.1507 302.332 88.2332 302.34 88.3112 302.366C88.3892 302.391 88.4608 302.433 88.5214 302.488C88.582 302.543 88.6302 302.611 88.6626 302.686C88.7426 302.841 88.7627 303.02 88.719 303.189C88.6753 303.359 88.5709 303.506 88.4257 303.603C87.3957 304.221 86.3657 304.9 85.3357 305.663C85.2392 305.73 85.124 305.766 85.0061 305.766C84.9009 305.754 84.8003 305.715 84.7139 305.654C84.6275 305.593 84.5579 305.511 84.5117 305.415H84.5632Z" fill="#455A64"/>
<path d="M93.6268 300.966H93.8122C94.3563 300.76 94.9183 300.605 95.4911 300.502C95.6602 300.465 95.8082 300.364 95.9043 300.22C96.0003 300.076 96.0368 299.9 96.0061 299.73C95.9997 299.646 95.9766 299.565 95.9382 299.49C95.8998 299.416 95.8469 299.35 95.7826 299.296C95.7183 299.242 95.6439 299.202 95.5638 299.177C95.4836 299.153 95.3994 299.145 95.316 299.153C94.6779 299.272 94.0509 299.445 93.4414 299.668C93.2783 299.733 93.146 299.857 93.0714 300.016C92.9968 300.175 92.9854 300.356 93.0397 300.523C93.0786 300.649 93.1563 300.76 93.2617 300.839C93.3671 300.919 93.4948 300.963 93.6268 300.966Z" fill="#455A64"/>
<path d="M382.851 64.0146L319.506 44.5991L368.307 78.1256L382.851 64.0146Z" fill="#3391FF"/>
<path opacity="0.15" d="M382.851 64.0146L319.506 44.5991L368.307 78.1256L382.851 64.0146Z" fill="white"/>
<path d="M319.506 44.599L387.682 55.5685L402.225 41.4575L319.506 44.599Z" fill="#3391FF"/>
<path opacity="0.15" d="M319.506 44.599L387.682 55.5685L402.225 41.4575L319.506 44.599Z" fill="white"/>
<path d="M387.682 55.5686L387.743 72.4194L382.851 64.0146L319.506 44.5991L387.682 55.5686Z" fill="#3391FF"/>
<path opacity="0.2" d="M387.682 55.5686L387.743 72.4194L382.851 64.0146L319.506 44.5991L387.682 55.5686Z" fill="black"/>
<path d="M387.742 72.4193L377.998 68.7216L382.849 64.0145L387.742 72.4193Z" fill="#3391FF"/>
<path opacity="0.2" d="M382.849 64.0145L377.998 68.7216L379.553 69.3087L382.849 64.0145Z" fill="black"/>
<path d="M400.526 61.0482C400.467 61.0922 400.417 61.1477 400.38 61.2114C400.343 61.2752 400.319 61.3458 400.31 61.419C400.289 61.5948 400.331 61.7724 400.429 61.9198C400.527 62.0672 400.675 62.1745 400.846 62.2224L402.72 62.7271C402.799 62.7518 402.882 62.7591 402.964 62.7484C403.046 62.7377 403.124 62.7093 403.194 62.6652C403.263 62.6211 403.322 62.5623 403.367 62.4929C403.412 62.4235 403.44 62.3453 403.452 62.2636C403.476 62.0902 403.438 61.9137 403.343 61.7663C403.249 61.6189 403.104 61.5103 402.937 61.4602L401.041 60.9555C400.954 60.9301 400.862 60.9252 400.773 60.9413C400.684 60.9574 400.599 60.994 400.526 61.0482Z" fill="#455A64"/>
<path d="M409.106 63.345C410.332 63.757 411.558 64.1896 412.763 64.6325C412.928 64.695 413.065 64.8145 413.15 64.9693C413.235 65.1241 413.262 65.3042 413.226 65.4771C413.205 65.5568 413.167 65.631 413.114 65.6946C413.062 65.7583 412.996 65.8099 412.922 65.846C412.848 65.8822 412.766 65.9019 412.684 65.904C412.601 65.9061 412.519 65.8905 412.444 65.8582C411.249 65.4153 410.033 64.993 408.818 64.581C408.652 64.5245 408.513 64.4097 408.426 64.2581C408.339 64.1066 408.31 63.9285 408.344 63.757C408.368 63.6249 408.442 63.5069 408.55 63.4274C408.629 63.3682 408.721 63.3297 408.818 63.3153C408.915 63.3009 409.014 63.3111 409.106 63.345ZM418.799 67.0736C420.004 67.6092 421.188 68.1036 422.362 68.7319C422.521 68.8063 422.647 68.9369 422.716 69.0985C422.784 69.2602 422.79 69.4415 422.733 69.6074C422.703 69.6843 422.656 69.7538 422.596 69.8113C422.537 69.8689 422.466 69.9132 422.388 69.9414C422.31 69.9696 422.227 69.9811 422.145 69.975C422.062 69.9689 421.982 69.9454 421.909 69.9061C420.756 69.3396 419.581 68.7937 418.397 68.2787C418.238 68.2064 418.109 68.0794 418.036 67.9206C417.962 67.7619 417.948 67.5819 417.995 67.4135C418.029 67.3023 418.098 67.2049 418.191 67.1354C418.277 67.0714 418.379 67.0319 418.486 67.021C418.593 67.0101 418.701 67.0283 418.799 67.0736ZM428.172 71.8013C429.325 72.4605 430.458 73.1506 431.571 73.8613C431.719 73.9533 431.828 74.0957 431.88 74.2624C431.931 74.429 431.92 74.6085 431.849 74.7677C431.808 74.8406 431.752 74.9041 431.685 74.9541C431.618 75.0041 431.541 75.0394 431.46 75.0579C431.378 75.0763 431.294 75.0775 431.212 75.0612C431.13 75.0449 431.052 75.0116 430.984 74.9634C429.892 74.2733 428.769 73.6038 427.636 72.9034C427.483 72.8182 427.367 72.6797 427.31 72.5144C427.253 72.3491 427.259 72.1685 427.327 72.0073C427.361 71.9215 427.418 71.8467 427.492 71.791C427.594 71.7261 427.712 71.6925 427.833 71.6943C427.954 71.6961 428.072 71.7333 428.172 71.8013ZM437.05 77.5796C438.132 78.3727 439.193 79.1967 440.212 80.0207C440.35 80.1271 440.443 80.2819 440.472 80.4538C440.5 80.6258 440.463 80.8023 440.367 80.9477C440.316 81.0144 440.252 81.0697 440.178 81.1099C440.105 81.1501 440.024 81.1744 439.94 81.1812C439.856 81.188 439.772 81.1772 439.693 81.1494C439.614 81.1216 439.542 81.0774 439.481 81.0198C438.451 80.2061 437.421 79.4027 436.391 78.6199C436.247 78.5195 436.145 78.3684 436.107 78.1967C436.069 78.0249 436.097 77.8451 436.185 77.6929C436.215 77.6389 436.257 77.593 436.309 77.559C436.419 77.4848 436.55 77.4469 436.683 77.4506C436.816 77.4543 436.944 77.4994 437.05 77.5796ZM445.239 84.46C446.207 85.3767 447.165 86.3243 448.092 87.2925C448.211 87.4172 448.278 87.5833 448.278 87.756C448.278 87.9288 448.211 88.0949 448.092 88.2195C448.032 88.2793 447.962 88.3268 447.884 88.3592C447.806 88.3915 447.723 88.4082 447.639 88.4082C447.554 88.4082 447.471 88.3915 447.393 88.3592C447.315 88.3268 447.245 88.2793 447.185 88.2195C446.279 87.2719 445.331 86.3346 444.384 85.4385C444.255 85.3234 444.174 85.1635 444.159 84.9913C444.144 84.8191 444.195 84.6475 444.301 84.5115L444.384 84.4291C444.505 84.3276 444.659 84.2746 444.817 84.2803C444.975 84.286 445.125 84.35 445.239 84.46ZM452.541 92.3086C453.211 93.1223 453.86 93.9463 454.509 94.7909L455.024 95.481C455.132 95.6127 455.184 95.7815 455.168 95.9511C455.153 96.1206 455.071 96.2774 454.941 96.3874C454.871 96.4357 454.792 96.4695 454.709 96.4868C454.626 96.5041 454.54 96.5047 454.456 96.4884C454.373 96.4721 454.294 96.4392 454.223 96.3918C454.152 96.3444 454.092 96.2834 454.045 96.2123L453.53 95.5325C452.902 94.7085 452.263 93.8948 451.604 93.0914C451.485 92.9685 451.419 92.8041 451.419 92.6331C451.419 92.462 451.485 92.2977 451.604 92.1747C451.67 92.1156 451.748 92.0709 451.832 92.0433C451.916 92.0158 452.005 92.0061 452.093 92.0148C452.181 92.0235 452.267 92.0505 452.344 92.094C452.421 92.1374 452.488 92.1965 452.541 92.2674V92.3086ZM457.949 100.755C458.1 100.675 458.276 100.656 458.441 100.702C458.606 100.748 458.747 100.855 458.835 101.002C459.545 102.135 460.246 103.288 460.895 104.452C460.94 104.523 460.97 104.602 460.984 104.685C460.998 104.767 460.995 104.852 460.976 104.933C460.957 105.015 460.922 105.092 460.872 105.16C460.823 105.227 460.761 105.285 460.689 105.328C460.532 105.398 460.355 105.406 460.192 105.35C460.03 105.295 459.895 105.18 459.813 105.029C459.154 103.886 458.464 102.743 457.753 101.64C457.662 101.51 457.623 101.349 457.644 101.191C457.665 101.033 457.744 100.888 457.867 100.786L457.949 100.755ZM463.171 110.025C463.335 109.965 463.516 109.971 463.677 110.04C463.837 110.108 463.966 110.236 464.036 110.395C464.603 111.601 465.159 112.826 465.664 114.052C465.699 114.127 465.719 114.209 465.723 114.293C465.726 114.376 465.712 114.459 465.682 114.537C465.652 114.615 465.607 114.686 465.549 114.746C465.491 114.806 465.421 114.854 465.344 114.886C465.176 114.934 464.996 114.917 464.84 114.839C464.684 114.761 464.562 114.627 464.5 114.464C464.005 113.259 463.47 112.054 462.903 110.88C462.832 110.752 462.809 110.603 462.837 110.46C462.866 110.317 462.944 110.188 463.058 110.097C463.084 110.041 463.123 109.992 463.171 109.953V110.025ZM467.137 119.81C467.308 119.777 467.485 119.81 467.634 119.901C467.783 119.993 467.892 120.136 467.94 120.304C468.331 121.561 468.702 122.848 469.021 124.125C469.046 124.205 469.054 124.288 469.044 124.37C469.034 124.453 469.007 124.532 468.964 124.603C468.921 124.674 468.864 124.735 468.795 124.783C468.727 124.83 468.65 124.862 468.568 124.877C468.396 124.9 468.222 124.857 468.079 124.758C467.936 124.659 467.835 124.511 467.796 124.342C467.476 123.085 467.116 121.818 466.766 120.592C466.722 120.474 466.717 120.345 466.75 120.223C466.783 120.101 466.853 119.993 466.951 119.913C466.998 119.84 467.061 119.78 467.137 119.738V119.81ZM469.609 129.955C469.785 129.951 469.957 130.011 470.092 130.125C470.226 130.239 470.315 130.398 470.34 130.573C470.546 131.861 470.711 133.169 470.845 134.467C470.855 134.547 470.848 134.629 470.824 134.707C470.8 134.785 470.76 134.857 470.707 134.918C470.653 134.979 470.587 135.029 470.514 135.063C470.44 135.097 470.359 135.115 470.278 135.115C470.102 135.114 469.932 135.046 469.803 134.926C469.673 134.806 469.593 134.642 469.578 134.467C469.444 133.2 469.289 131.922 469.083 130.656C469.065 130.549 469.075 130.439 469.113 130.338C469.151 130.236 469.215 130.147 469.3 130.079C469.379 129.982 469.487 129.913 469.609 129.883V129.955Z" fill="#455A64"/>
<path d="M480.888 294.405C478.127 292.757 474.234 292.984 469.908 295.435L391.463 340.755C383.089 345.586 376.291 357.08 376.291 366.423C376.291 370.985 377.918 374.178 380.555 375.693L388.97 380.544C391.72 382.109 395.562 381.862 399.827 379.401L478.282 334.081C486.656 329.25 493.443 317.755 493.443 308.413C493.443 303.881 491.836 300.678 489.22 299.143C487.789 298.36 482.268 295.229 480.888 294.405Z" fill="#E0E0E0"/>
<path d="M392.865 381.1C388.127 381.1 385.182 377.351 385.182 371.325C385.182 362.169 391.866 350.849 400.086 346.111L478.541 300.791C480.561 299.538 482.871 298.828 485.246 298.731C489.984 298.731 492.93 302.48 492.93 308.506C492.93 317.673 486.245 328.982 478.026 333.73L399.571 379.05C397.552 380.305 395.241 381.011 392.865 381.1Z" fill="#FAFAFA"/>
<path d="M485.246 299.205C489.664 299.205 492.456 302.758 492.456 308.475C492.456 317.477 485.884 328.591 477.809 333.195L399.354 378.515C397.413 379.726 395.192 380.414 392.906 380.513C391.928 380.546 390.955 380.354 390.062 379.952C389.169 379.551 388.38 378.95 387.756 378.195C386.293 376.186 385.565 373.735 385.696 371.253C385.696 362.261 392.267 351.148 400.343 346.533L478.798 301.213C480.739 300.002 482.96 299.314 485.246 299.215M485.246 298.185C482.777 298.278 480.377 299.017 478.283 300.327L399.828 345.647C391.454 350.488 384.666 361.973 384.666 371.315C384.666 377.856 387.993 381.615 392.906 381.615C395.372 381.52 397.772 380.785 399.869 379.483L478.324 334.163C486.698 329.332 493.486 317.837 493.486 308.495C493.486 301.955 490.159 298.195 485.246 298.195V298.185Z" fill="#EBEBEB"/>
<path d="M412.126 355.721C412.446 355.124 412.394 354.506 412.126 354.341L409.5 352.827C409.444 352.798 409.382 352.783 409.32 352.783C409.257 352.783 409.195 352.798 409.139 352.827L406.729 353.754L405.936 352.065C405.897 351.981 405.832 351.913 405.751 351.869L403.124 350.344C402.794 350.159 402.249 350.581 402.032 351.282L400.395 356.648C400.305 356.971 400.118 357.259 399.859 357.472L396.202 360.305C395.615 360.747 395.389 361.839 395.811 362.138L398.458 364.054C398.549 364.148 398.616 364.263 398.652 364.388C398.688 364.514 398.692 364.647 398.664 364.775L398.036 369.997C397.984 370.378 398.098 370.635 398.273 370.728L400.899 372.253C401.105 372.366 401.414 372.253 401.692 371.913L404.968 367.731C405.036 367.616 405.133 367.521 405.248 367.455C405.363 367.388 405.494 367.352 405.627 367.35L408.913 367.71C409.428 367.782 410.035 366.835 409.943 366.124L409.314 361.623C409.286 361.29 409.357 360.957 409.52 360.665L412.126 355.721Z" fill="#3391FF"/>
<path opacity="0.15" d="M412.096 354.32C412.04 354.294 411.978 354.281 411.916 354.281C411.854 354.281 411.792 354.294 411.736 354.32L408.069 355.721C408.021 355.744 407.969 355.758 407.916 355.76C407.863 355.762 407.81 355.753 407.761 355.734C407.711 355.715 407.667 355.685 407.629 355.647C407.592 355.61 407.563 355.564 407.544 355.515L406.699 353.723L409.109 352.806C409.165 352.778 409.227 352.763 409.29 352.763C409.352 352.763 409.414 352.778 409.47 352.806L412.096 354.32Z" fill="white"/>
<path opacity="0.15" d="M402.989 358.152C402.898 358.474 402.711 358.761 402.454 358.976L398.797 361.798C398.629 361.929 398.495 362.099 398.406 362.292L395.779 360.768C395.874 360.578 396.007 360.409 396.171 360.274L399.827 357.451C400.084 357.241 400.271 356.957 400.363 356.638L402.989 358.152Z" fill="white"/>
<path opacity="0.1" d="M405.74 351.858C405.41 351.642 404.854 352.064 404.627 352.785L402.99 358.152L400.363 356.627L402.001 351.261C402.217 350.561 402.763 350.138 403.093 350.324C403.165 350.324 405.39 351.663 405.73 351.848L405.74 351.858Z" fill="black"/>
<path opacity="0.25" d="M401.054 365.557L398.448 364.054L395.801 362.138C395.492 361.911 395.533 361.293 395.801 360.789L398.427 362.313C398.159 362.807 398.118 363.436 398.427 363.662L401.054 365.557Z" fill="black"/>
<path opacity="0.15" d="M400.672 371.501C400.672 371.882 400.734 372.139 400.93 372.242L398.293 370.718C398.189 370.63 398.113 370.515 398.073 370.385C398.033 370.256 398.03 370.117 398.066 369.986L398.695 364.764C398.721 364.641 398.718 364.514 398.685 364.392C398.653 364.27 398.593 364.158 398.509 364.064L401.115 365.568C401.199 365.659 401.26 365.77 401.293 365.89C401.325 366.01 401.328 366.136 401.301 366.258L400.672 371.501Z" fill="black"/>
<path d="M405.906 352.044L407.544 355.525C407.563 355.575 407.592 355.62 407.629 355.658C407.667 355.696 407.712 355.725 407.761 355.745C407.811 355.764 407.864 355.773 407.917 355.771C407.97 355.768 408.022 355.755 408.069 355.731L411.736 354.331C412.313 354.104 412.55 354.928 412.128 355.721L409.481 360.686C409.318 360.977 409.246 361.311 409.275 361.644L409.903 366.145C409.996 366.855 409.388 367.803 408.873 367.731L405.597 367.329C405.464 367.331 405.334 367.367 405.218 367.434C405.103 367.501 405.007 367.596 404.938 367.71L401.704 371.892C401.179 372.562 400.571 372.325 400.674 371.49L401.302 366.268C401.332 366.14 401.329 366.007 401.293 365.881C401.257 365.755 401.189 365.64 401.096 365.547L398.449 363.642C398.027 363.333 398.264 362.251 398.841 361.798L402.497 358.976C402.756 358.763 402.943 358.475 403.033 358.152L404.67 352.786C404.887 351.931 405.639 351.498 405.906 352.044Z" fill="#3391FF"/>
<path opacity="0.5" d="M405.906 352.044L407.544 355.525C407.563 355.575 407.592 355.62 407.629 355.658C407.667 355.696 407.712 355.725 407.761 355.745C407.811 355.764 407.864 355.773 407.917 355.771C407.97 355.768 408.022 355.755 408.069 355.731L411.736 354.331C412.313 354.104 412.55 354.928 412.128 355.721L409.481 360.686C409.318 360.977 409.246 361.311 409.275 361.644L409.903 366.145C409.996 366.855 409.388 367.803 408.873 367.731L405.597 367.329C405.464 367.331 405.334 367.367 405.218 367.434C405.103 367.501 405.007 367.596 404.938 367.71L401.704 371.892C401.179 372.562 400.571 372.325 400.674 371.49L401.302 366.268C401.332 366.14 401.329 366.007 401.293 365.881C401.257 365.755 401.189 365.64 401.096 365.547L398.449 363.642C398.027 363.333 398.264 362.251 398.841 361.798L402.497 358.976C402.756 358.763 402.943 358.475 403.033 358.152L404.67 352.786C404.887 351.931 405.639 351.498 405.906 352.044Z" fill="white"/>
<path d="M430.542 345.112C430.862 344.514 430.8 343.907 430.542 343.742L427.926 342.228C427.869 342.199 427.805 342.184 427.741 342.184C427.676 342.184 427.613 342.199 427.555 342.228L425.156 343.155L424.352 341.466C424.32 341.381 424.257 341.312 424.177 341.27L421.551 339.746C421.221 339.56 420.675 339.982 420.459 340.683L418.749 346.08C418.655 346.401 418.469 346.688 418.213 346.904L414.557 349.726C413.97 350.179 413.743 351.271 414.155 351.57L416.813 353.486C416.903 353.58 416.969 353.695 417.003 353.821C417.038 353.947 417.039 354.08 417.008 354.207L416.39 359.429C416.339 359.81 416.442 360.067 416.617 360.16L419.212 361.633C419.418 361.746 419.717 361.633 420.006 361.293L423.281 357.111C423.349 356.997 423.446 356.902 423.561 356.835C423.676 356.769 423.807 356.732 423.94 356.73L427.216 357.132C427.731 357.194 428.338 356.256 428.246 355.546L427.628 351.045C427.594 350.712 427.666 350.377 427.834 350.087L430.542 345.112Z" fill="#3391FF"/>
<path opacity="0.15" d="M430.479 343.732C430.422 343.707 430.361 343.693 430.299 343.693C430.237 343.693 430.175 343.707 430.118 343.732L426.421 345.133C426.372 345.156 426.32 345.17 426.266 345.172C426.212 345.175 426.158 345.166 426.108 345.146C426.058 345.127 426.012 345.098 425.974 345.06C425.935 345.022 425.905 344.977 425.885 344.927L425.051 343.134L427.451 342.218C427.508 342.189 427.572 342.175 427.636 342.175C427.7 342.175 427.764 342.189 427.821 342.218L430.479 343.732Z" fill="white"/>
<path opacity="0.15" d="M421.375 347.553C421.283 347.875 421.096 348.162 420.839 348.377L417.152 351.23C416.983 351.361 416.849 351.531 416.76 351.725L414.154 350.2C414.256 350.012 414.392 349.844 414.556 349.706L418.212 346.884C418.468 346.668 418.655 346.381 418.748 346.06L421.375 347.553Z" fill="white"/>
<path opacity="0.1" d="M424.125 341.26C423.795 341.043 423.239 341.466 423.012 342.187L421.375 347.553L418.748 346.08L420.386 340.714C420.602 340.013 421.148 339.591 421.478 339.777C421.55 339.777 423.774 341.116 424.104 341.291L424.125 341.26Z" fill="black"/>
<path opacity="0.25" d="M419.438 354.948L416.833 353.455L414.185 351.539C413.887 351.312 413.928 350.694 414.185 350.19L416.822 351.714C416.554 352.209 416.513 352.837 416.822 353.053L419.438 354.948Z" fill="black"/>
<path opacity="0.15" d="M419.016 360.892C418.964 361.283 419.077 361.541 419.263 361.644L416.636 360.119C416.461 360.016 416.358 359.769 416.41 359.388L417.038 354.166C417.062 354.043 417.057 353.916 417.025 353.794C416.993 353.673 416.934 353.561 416.853 353.465L419.459 354.959C419.543 355.05 419.604 355.161 419.636 355.281C419.668 355.401 419.671 355.527 419.644 355.649L419.016 360.892Z" fill="black"/>
<path d="M424.28 341.445L425.918 344.927C425.938 344.977 425.968 345.022 426.006 345.06C426.045 345.098 426.09 345.127 426.141 345.146C426.191 345.166 426.245 345.174 426.299 345.172C426.352 345.17 426.405 345.156 426.453 345.132L430.12 343.732C430.697 343.505 430.934 344.329 430.512 345.112L427.865 350.087C427.697 350.377 427.625 350.712 427.659 351.045L428.277 355.546C428.38 356.257 427.772 357.194 427.247 357.132L423.971 356.73C423.838 356.732 423.707 356.769 423.592 356.835C423.477 356.902 423.38 356.997 423.312 357.111L420.037 361.293C419.511 361.963 418.904 361.726 419.007 360.892L419.635 355.669C419.663 355.542 419.658 355.409 419.622 355.283C419.587 355.157 419.52 355.042 419.429 354.948L416.782 353.043C416.359 352.734 416.586 351.652 417.173 351.199L420.83 348.377C421.089 348.164 421.276 347.876 421.365 347.553L423.003 342.187C423.271 341.332 424.023 340.93 424.28 341.445Z" fill="#3391FF"/>
<path opacity="0.5" d="M424.28 341.445L425.918 344.927C425.938 344.977 425.968 345.022 426.006 345.06C426.045 345.098 426.09 345.127 426.141 345.146C426.191 345.166 426.245 345.174 426.299 345.172C426.352 345.17 426.405 345.156 426.453 345.132L430.12 343.732C430.697 343.505 430.934 344.329 430.512 345.112L427.865 350.087C427.697 350.377 427.625 350.712 427.659 351.045L428.277 355.546C428.38 356.257 427.772 357.194 427.247 357.132L423.971 356.73C423.838 356.732 423.707 356.769 423.592 356.835C423.477 356.902 423.38 356.997 423.312 357.111L420.037 361.293C419.511 361.963 418.904 361.726 419.007 360.892L419.635 355.669C419.663 355.542 419.658 355.409 419.622 355.283C419.587 355.157 419.52 355.042 419.429 354.948L416.782 353.043C416.359 352.734 416.586 351.652 417.173 351.199L420.83 348.377C421.089 348.164 421.276 347.876 421.365 347.553L423.003 342.187C423.271 341.332 424.023 340.93 424.28 341.445Z" fill="white"/>
<path d="M448.897 334.513C449.206 333.916 449.155 333.308 448.897 333.143L446.24 331.66C446.182 331.634 446.119 331.621 446.055 331.621C445.991 331.621 445.928 331.634 445.869 331.66L443.459 332.587L442.666 330.898C442.633 330.814 442.571 330.744 442.491 330.702L439.864 329.178C439.535 328.993 438.979 329.415 438.773 330.115L437.135 335.482C437.041 335.803 436.855 336.09 436.599 336.306L432.932 339.128C432.356 339.581 432.119 340.662 432.541 340.971L435.188 342.887C435.283 342.978 435.353 343.093 435.389 343.22C435.425 343.347 435.427 343.481 435.394 343.608L434.766 348.83C434.766 349.211 434.828 349.459 435.003 349.562L437.629 351.086C437.846 351.199 438.144 351.086 438.433 350.746L441.698 346.564C441.767 346.448 441.865 346.353 441.982 346.286C442.1 346.219 442.232 346.184 442.367 346.183L445.632 346.585C446.158 346.647 446.765 345.709 446.662 344.999L446.044 340.498C446.012 340.166 446.08 339.832 446.24 339.54L448.897 334.513Z" fill="#3391FF"/>
<path opacity="0.15" d="M448.866 333.133C448.808 333.107 448.745 333.094 448.681 333.094C448.617 333.094 448.554 333.107 448.496 333.133L444.839 334.534C444.791 334.558 444.738 334.571 444.684 334.573C444.63 334.576 444.577 334.567 444.526 334.548C444.476 334.528 444.43 334.499 444.392 334.461C444.354 334.423 444.324 334.378 444.304 334.328L443.459 332.536L445.869 331.619C445.925 331.591 445.987 331.576 446.049 331.576C446.112 331.576 446.174 331.591 446.23 331.619L448.866 333.133Z" fill="white"/>
<path opacity="0.15" d="M439.812 336.944C439.719 337.268 439.533 337.558 439.277 337.778L435.62 340.601C435.451 340.734 435.314 340.903 435.218 341.095L432.592 339.571C432.693 339.382 432.83 339.214 432.994 339.076L436.65 336.254C436.906 336.038 437.092 335.751 437.186 335.43L439.812 336.944Z" fill="white"/>
<path opacity="0.1" d="M442.511 330.63C442.181 330.414 441.615 330.836 441.398 331.547L439.812 336.944L437.186 335.43L438.823 330.063C439.04 329.363 439.585 328.941 439.915 329.126C439.987 329.126 442.202 330.465 442.542 330.64L442.511 330.63Z" fill="black"/>
<path opacity="0.25" d="M437.814 344.35L435.219 342.856L432.541 340.93C432.242 340.704 432.273 340.086 432.541 339.581L435.167 341.105C434.91 341.6 434.869 342.228 435.167 342.444L437.814 344.35Z" fill="black"/>
<path opacity="0.15" d="M437.401 350.293C437.349 350.684 437.462 350.942 437.648 351.045L435.021 349.52C434.846 349.417 434.743 349.17 434.784 348.789L435.413 343.557C435.439 343.436 435.437 343.311 435.407 343.191C435.377 343.071 435.319 342.96 435.238 342.866L437.833 344.36C437.914 344.454 437.973 344.564 438.005 344.684C438.037 344.803 438.042 344.928 438.019 345.05L437.401 350.293Z" fill="black"/>
<path d="M442.665 330.846L444.303 334.328C444.323 334.378 444.353 334.423 444.391 334.461C444.43 334.499 444.476 334.528 444.526 334.548C444.576 334.567 444.63 334.576 444.684 334.573C444.737 334.571 444.79 334.558 444.839 334.534L448.495 333.133C449.082 332.906 449.309 333.73 448.897 334.513L446.239 339.488C446.079 339.781 446.011 340.114 446.044 340.446L446.662 344.947C446.765 345.658 446.157 346.595 445.632 346.533L442.367 346.132C442.232 346.132 442.099 346.167 441.982 346.234C441.864 346.301 441.766 346.397 441.697 346.513L438.432 350.695C437.907 351.364 437.299 351.127 437.402 350.293L438.02 345.071C438.051 344.944 438.049 344.811 438.015 344.685C437.981 344.559 437.915 344.444 437.824 344.35L435.167 342.434C434.755 342.135 434.981 341.043 435.569 340.601L439.225 337.778C439.481 337.562 439.667 337.276 439.761 336.954L441.398 331.588C441.656 330.733 442.408 330.301 442.665 330.846Z" fill="#3391FF"/>
<path opacity="0.5" d="M442.665 330.846L444.303 334.328C444.323 334.378 444.353 334.423 444.391 334.461C444.43 334.499 444.476 334.528 444.526 334.548C444.576 334.567 444.63 334.576 444.684 334.573C444.737 334.571 444.79 334.558 444.839 334.534L448.495 333.133C449.082 332.906 449.309 333.73 448.897 334.513L446.239 339.488C446.079 339.781 446.011 340.114 446.044 340.446L446.662 344.947C446.765 345.658 446.157 346.595 445.632 346.533L442.367 346.132C442.232 346.132 442.099 346.167 441.982 346.234C441.864 346.301 441.766 346.397 441.697 346.513L438.432 350.695C437.907 351.364 437.299 351.127 437.402 350.293L438.02 345.071C438.051 344.944 438.049 344.811 438.015 344.685C437.981 344.559 437.915 344.444 437.824 344.35L435.167 342.434C434.755 342.135 434.981 341.043 435.569 340.601L439.225 337.778C439.481 337.562 439.667 337.276 439.761 336.954L441.398 331.588C441.656 330.733 442.408 330.301 442.665 330.846Z" fill="white"/>
<path d="M467.272 323.915C467.592 323.317 467.54 322.71 467.272 322.545L464.656 321.02C464.598 320.994 464.535 320.981 464.471 320.981C464.407 320.981 464.344 320.994 464.285 321.02L461.875 321.947L461.082 320.258C461.047 320.173 460.986 320.1 460.907 320.052C460.577 319.877 458.352 318.579 458.28 318.538C457.951 318.353 457.395 318.775 457.178 319.475L455.541 324.842C455.451 325.162 455.268 325.449 455.015 325.666L451.348 328.488C450.772 328.941 450.535 330.023 450.957 330.332L453.604 332.247C453.698 332.337 453.766 332.45 453.802 332.575C453.838 332.7 453.841 332.832 453.81 332.958L453.182 338.18C453.182 338.561 453.244 338.819 453.419 338.922L456.045 340.446C456.251 340.559 456.56 340.446 456.838 340.106L460.114 335.924C460.182 335.81 460.279 335.715 460.394 335.648C460.509 335.582 460.64 335.546 460.773 335.543L464.048 335.945C464.574 336.007 465.181 335.07 465.078 334.359L464.45 329.858C464.426 329.525 464.497 329.193 464.656 328.9L467.272 323.915Z" fill="#3391FF"/>
<path opacity="0.15" d="M467.241 322.534C467.184 322.508 467.123 322.495 467.061 322.495C466.998 322.495 466.937 322.508 466.88 322.534L463.214 323.935C463.166 323.959 463.114 323.972 463.061 323.974C463.008 323.977 462.955 323.968 462.905 323.948C462.856 323.929 462.811 323.899 462.774 323.862C462.736 323.824 462.707 323.779 462.688 323.729L461.844 321.937L464.254 321.02C464.309 320.989 464.371 320.973 464.434 320.973C464.497 320.973 464.559 320.989 464.614 321.02L467.241 322.534Z" fill="white"/>
<path opacity="0.15" d="M458.146 326.345C458.053 326.67 457.867 326.96 457.61 327.18L453.954 330.002C453.785 330.135 453.648 330.304 453.552 330.496L450.926 328.972C451.023 328.784 451.156 328.616 451.317 328.478L454.974 325.655C455.236 325.443 455.427 325.156 455.52 324.831L458.146 326.345Z" fill="white"/>
<path opacity="0.1" d="M460.896 320.062C460.567 319.846 460 320.268 459.784 320.979L458.146 326.345L455.52 324.831L457.157 319.465C457.363 318.764 457.919 318.342 458.249 318.528C458.321 318.528 460.536 319.867 460.876 320.042L460.896 320.062Z" fill="black"/>
<path opacity="0.25" d="M456.201 333.72L453.606 332.227L450.959 330.311C450.65 330.084 450.691 329.466 450.959 328.961L453.585 330.486C453.317 330.98 453.287 331.609 453.585 331.825L456.201 333.72Z" fill="black"/>
<path opacity="0.15" d="M455.776 339.694C455.776 340.085 455.848 340.343 456.034 340.446L453.387 338.87C453.211 338.767 453.108 338.52 453.15 338.139L453.778 332.906C453.802 332.786 453.799 332.661 453.769 332.541C453.738 332.422 453.682 332.311 453.603 332.216L456.198 333.71C456.279 333.803 456.337 333.914 456.368 334.034C456.398 334.154 456.4 334.279 456.374 334.4L455.776 339.694Z" fill="black"/>
<path d="M461.051 320.248L462.689 323.729C462.709 323.779 462.739 323.824 462.777 323.862C462.816 323.9 462.861 323.93 462.912 323.949C462.962 323.968 463.016 323.977 463.07 323.975C463.123 323.972 463.176 323.959 463.224 323.935L466.881 322.534C467.468 322.308 467.695 323.132 467.272 323.914L464.625 328.889C464.466 329.182 464.395 329.515 464.419 329.847L465.048 334.348C465.151 335.059 464.543 335.996 464.018 335.935L460.742 335.533C460.609 335.535 460.478 335.571 460.363 335.638C460.248 335.705 460.151 335.8 460.083 335.914L456.808 340.096C456.293 340.765 455.685 340.528 455.778 339.694L456.406 334.472C456.439 334.344 456.437 334.21 456.401 334.083C456.364 333.957 456.295 333.842 456.2 333.751L453.553 331.835C453.13 331.536 453.367 330.445 453.944 330.002L457.611 327.18C457.865 326.962 458.051 326.676 458.147 326.356L459.784 320.979C460.042 320.134 460.794 319.702 461.051 320.248Z" fill="#3391FF"/>
<path opacity="0.5" d="M461.051 320.248L462.689 323.729C462.709 323.779 462.739 323.824 462.777 323.862C462.816 323.9 462.861 323.93 462.912 323.949C462.962 323.968 463.016 323.977 463.07 323.975C463.123 323.972 463.176 323.959 463.224 323.935L466.881 322.534C467.468 322.308 467.695 323.132 467.272 323.914L464.625 328.889C464.466 329.182 464.395 329.515 464.419 329.847L465.048 334.348C465.151 335.059 464.543 335.996 464.018 335.935L460.742 335.533C460.609 335.535 460.478 335.571 460.363 335.638C460.248 335.705 460.151 335.8 460.083 335.914L456.808 340.096C456.293 340.765 455.685 340.528 455.778 339.694L456.406 334.472C456.439 334.344 456.437 334.21 456.401 334.083C456.364 333.957 456.295 333.842 456.2 333.751L453.553 331.835C453.13 331.536 453.367 330.445 453.944 330.002L457.611 327.18C457.865 326.962 458.051 326.676 458.147 326.356L459.784 320.979C460.042 320.134 460.794 319.702 461.051 320.248Z" fill="white"/>
<path d="M485.658 313.316C485.978 312.719 485.926 312.111 485.658 311.936L483.032 310.422C482.975 310.396 482.914 310.382 482.852 310.382C482.789 310.382 482.728 310.396 482.671 310.422L480.261 311.349L479.468 309.659C479.426 309.578 479.366 309.508 479.293 309.453C478.953 309.278 476.728 307.981 476.666 307.939C476.326 307.754 475.781 308.166 475.564 308.877L473.927 314.243C473.837 314.566 473.65 314.854 473.391 315.067L469.683 317.879C469.096 318.332 468.869 319.414 469.292 319.723L471.939 321.638C472.032 321.728 472.1 321.841 472.137 321.966C472.173 322.091 472.176 322.223 472.145 322.349L471.537 327.54C471.537 327.921 471.599 328.179 471.774 328.282L474.4 329.806C474.606 329.92 474.915 329.806 475.193 329.466L478.469 325.285C478.537 325.17 478.634 325.075 478.749 325.008C478.864 324.942 478.995 324.906 479.128 324.903L482.403 325.305C482.918 325.367 483.526 324.43 483.433 323.719L482.805 319.218C482.776 318.885 482.848 318.551 483.011 318.26L485.658 313.316Z" fill="#3391FF"/>
<path opacity="0.15" d="M485.626 311.936C485.57 311.907 485.508 311.893 485.445 311.893C485.383 311.893 485.321 311.907 485.265 311.936L481.598 313.336C481.551 313.36 481.499 313.373 481.446 313.376C481.393 313.378 481.34 313.369 481.29 313.35C481.241 313.33 481.196 313.301 481.158 313.263C481.121 313.225 481.092 313.18 481.073 313.13L480.229 311.338L482.639 310.411C482.694 310.382 482.756 310.367 482.819 310.367C482.882 310.367 482.944 310.382 482.999 310.411L485.626 311.936Z" fill="white"/>
<path opacity="0.15" d="M476.531 315.747C476.434 316.072 476.244 316.362 475.985 316.581L472.328 319.403C472.163 319.537 472.029 319.706 471.937 319.897L469.311 318.373C469.405 318.183 469.538 318.014 469.702 317.879L473.358 315.056C473.618 314.844 473.805 314.556 473.894 314.232L476.531 315.747Z" fill="white"/>
<path opacity="0.1" d="M479.281 309.453C478.952 309.247 478.385 309.67 478.169 310.38L476.531 315.747L473.895 314.233L475.532 308.866C475.749 308.166 476.305 307.744 476.634 307.929C476.706 307.929 478.921 309.268 479.261 309.443L479.281 309.453Z" fill="black"/>
<path opacity="0.25" d="M474.587 323.152L471.981 321.659L469.334 319.743C469.025 319.516 469.066 318.898 469.334 318.394L471.96 319.918C471.692 320.413 471.651 321.041 471.96 321.257L474.587 323.152Z" fill="black"/>
<path opacity="0.15" d="M474.163 329.096C474.163 329.487 474.224 329.744 474.42 329.837L471.742 328.313C471.567 328.21 471.464 327.963 471.505 327.571L472.133 322.349C472.159 322.228 472.155 322.102 472.123 321.982C472.091 321.862 472.031 321.751 471.948 321.659L474.554 323.152C474.636 323.245 474.694 323.356 474.724 323.476C474.755 323.596 474.756 323.722 474.729 323.843L474.163 329.096Z" fill="black"/>
<path d="M479.436 309.649L481.074 313.13C481.094 313.18 481.124 313.226 481.162 313.264C481.2 313.301 481.246 313.331 481.296 313.35C481.347 313.37 481.4 313.378 481.454 313.376C481.508 313.374 481.561 313.36 481.609 313.336L485.266 311.936C485.843 311.709 486.079 312.533 485.657 313.316L483.01 318.27C482.846 318.561 482.775 318.895 482.804 319.228L483.432 323.729C483.525 324.44 482.917 325.377 482.402 325.315L479.127 324.914C478.994 324.916 478.863 324.952 478.748 325.019C478.632 325.085 478.536 325.18 478.468 325.295L475.192 329.477C474.677 330.146 474.07 329.899 474.162 329.075L474.791 323.853C474.82 323.725 474.817 323.592 474.781 323.466C474.745 323.339 474.677 323.225 474.585 323.132L471.938 321.216C471.515 320.917 471.752 319.825 472.329 319.382L475.996 316.56C476.244 316.34 476.426 316.055 476.521 315.736L478.159 310.36C478.427 309.536 479.178 309.093 479.436 309.649Z" fill="#3391FF"/>
<path opacity="0.5" d="M479.436 309.649L481.074 313.13C481.094 313.18 481.124 313.226 481.162 313.264C481.2 313.301 481.246 313.331 481.296 313.35C481.347 313.37 481.4 313.378 481.454 313.376C481.508 313.374 481.561 313.36 481.609 313.336L485.266 311.936C485.843 311.709 486.079 312.533 485.657 313.316L483.01 318.27C482.846 318.561 482.775 318.895 482.804 319.228L483.432 323.729C483.525 324.44 482.917 325.377 482.402 325.315L479.127 324.914C478.994 324.916 478.863 324.952 478.748 325.019C478.632 325.085 478.536 325.18 478.468 325.295L475.192 329.477C474.677 330.146 474.07 329.899 474.162 329.075L474.791 323.853C474.82 323.725 474.817 323.592 474.781 323.466C474.745 323.339 474.677 323.225 474.585 323.132L471.938 321.216C471.515 320.917 471.752 319.825 472.329 319.382L475.996 316.56C476.244 316.34 476.426 316.055 476.521 315.736L478.159 310.36C478.427 309.536 479.178 309.093 479.436 309.649Z" fill="white"/>
<path d="M492.67 58.71L484.43 62.2429L482.669 71.0288C482.619 71.2702 482.502 71.4928 482.332 71.6717C482.163 71.8506 481.947 71.9788 481.708 72.0419C481.47 72.1049 481.219 72.1004 480.983 72.0288C480.747 71.9573 480.535 71.8214 480.372 71.6365L474.47 64.89L465.561 65.92C465.306 65.9587 465.045 65.9216 464.81 65.8134C464.576 65.7051 464.379 65.5305 464.243 65.3112C464.107 65.0919 464.038 64.8375 464.045 64.5795C464.053 64.3216 464.135 64.0714 464.284 63.86L468.867 56.1659L465.138 48.0186C465.048 47.7999 465.018 47.5607 465.051 47.3263C465.085 47.0918 465.181 46.8708 465.33 46.6863C465.478 46.5019 465.674 46.3609 465.896 46.2782C466.118 46.1954 466.358 46.174 466.591 46.2161L475.325 48.204L481.917 42.1373C482.098 41.9681 482.323 41.8533 482.566 41.806C482.81 41.7588 483.061 41.7811 483.292 41.8703C483.524 41.9596 483.725 42.1122 483.873 42.3106C484.022 42.509 484.111 42.7453 484.132 42.9922L484.945 51.912L492.753 56.2998C492.983 56.4111 493.175 56.5867 493.307 56.8054C493.439 57.0241 493.505 57.2765 493.496 57.5318C493.488 57.7871 493.405 58.0344 493.258 58.2435C493.112 58.4527 492.907 58.6148 492.67 58.71Z" fill="#E0E0E0"/>
<path d="M447.257 43.4455C447.185 43.5405 447.098 43.6239 447 43.6927C446.825 43.8184 446.619 43.8928 446.404 43.9074C446.189 43.9219 445.975 43.8761 445.784 43.7751L441.201 41.3649L436.607 43.7751C436.417 43.8761 436.202 43.9219 435.988 43.9074C435.773 43.8928 435.566 43.8184 435.392 43.6927C435.215 43.5676 435.078 43.3941 434.998 43.1931C434.917 42.9921 434.897 42.7721 434.939 42.5597L435.814 37.4097L432.096 33.7944C431.941 33.6442 431.832 33.4534 431.78 33.2438C431.729 33.0342 431.739 32.8144 431.807 32.6099C431.872 32.4049 431.993 32.2225 432.157 32.0839C432.321 31.9453 432.522 31.8562 432.734 31.8271L437.884 31.0855L440.181 26.4299C440.276 26.2376 440.423 26.0758 440.605 25.9629C440.787 25.85 440.997 25.7905 441.211 25.7913C441.425 25.7929 441.634 25.8533 441.816 25.9659C441.998 26.0786 442.145 26.2391 442.241 26.4299L444.538 31.0855L449.688 31.8271C449.901 31.8582 450.101 31.9482 450.265 32.087C450.43 32.2258 450.552 32.4077 450.619 32.6124C450.685 32.817 450.693 33.0361 450.641 33.245C450.59 33.4539 450.481 33.6442 450.327 33.7944L446.608 37.4097L447.494 42.5597C447.534 42.8745 447.449 43.1925 447.257 43.4455ZM432.6 32.7438L432.539 32.8777C432.513 32.9546 432.51 33.0372 432.53 33.1158C432.55 33.1943 432.593 33.2654 432.652 33.3206L436.628 37.2037L435.69 42.6833C435.678 42.7639 435.688 42.8465 435.719 42.9219C435.75 42.9973 435.802 43.0626 435.868 43.1106C435.934 43.1585 436.012 43.1873 436.093 43.1937C436.175 43.2001 436.256 43.1838 436.329 43.1468L441.252 40.5615L446.166 43.1468C446.236 43.1874 446.316 43.2089 446.397 43.2089C446.479 43.2089 446.559 43.1874 446.629 43.1468C446.698 43.0998 446.751 43.0338 446.782 42.9569C446.813 42.8799 446.821 42.7955 446.804 42.7142L445.867 37.2346L449.843 33.3515C449.9 33.2949 449.941 33.2238 449.961 33.1458C449.981 33.0677 449.979 32.9857 449.956 32.9086C449.933 32.8302 449.887 32.7603 449.825 32.7073C449.763 32.6543 449.687 32.6204 449.606 32.6099L444.095 31.8065L441.582 26.7801C441.548 26.7052 441.493 26.642 441.423 26.5981C441.354 26.5541 441.273 26.5315 441.191 26.5329C441.116 26.5411 441.045 26.568 440.984 26.6113C440.922 26.6545 440.873 26.7126 440.84 26.7801L438.389 31.7653L432.879 32.5687C432.768 32.5911 432.669 32.6534 432.6 32.7438Z" fill="#E0E0E0"/>
<path d="M389.892 112.27C382.136 107.779 371.476 108.387 359.693 115.185C336.003 128.884 316.752 162.431 316.752 190.128C316.752 204.064 321.634 213.818 329.493 218.381C331.316 219.411 338.444 223.531 338.444 223.531C338.11 226.665 337.027 229.673 335.286 232.301C333.546 234.929 331.198 237.1 328.442 238.63C327.989 238.888 328.267 239.331 328.669 239.557L339.556 245.851C339.703 245.938 339.869 245.988 340.04 245.995C350.763 245.995 363.174 238.785 366.635 223.809C367.933 223.191 369.241 222.521 370.569 221.749C394.259 208.06 413.51 174.503 413.51 146.816C413.51 132.87 408.638 123.126 400.779 118.532L389.892 112.27Z" fill="#37474F"/>
<path d="M370.57 121.468C346.88 135.157 327.629 168.714 327.629 196.4C327.629 215.198 336.477 226.445 349.578 227.475C349.084 233.449 347.343 240.165 339.278 244.913C338.64 245.294 339.474 246.005 340.009 246.005C350.732 246.005 363.143 238.795 366.604 223.819C367.902 223.201 369.21 222.531 370.539 221.759C394.229 208.07 413.479 174.513 413.479 146.826C413.479 119.14 394.28 107.779 370.57 121.468Z" fill="#455A64"/>
<path d="M339.309 244.913C338.918 245.161 339.093 245.521 339.422 245.768L328.669 239.588C328.267 239.341 327.989 238.919 328.443 238.651C331.204 237.117 333.555 234.94 335.296 232.305C337.037 229.669 338.117 226.652 338.444 223.51L339.628 224.21L340.72 224.849C343.448 226.349 346.472 227.235 349.578 227.445C349.094 233.45 347.343 240.165 339.309 244.913Z" fill="#263238"/>
<path d="M366.038 200.737C364.895 199.923 364.318 198.46 364.318 196.349C364.343 194.149 364.924 191.991 366.008 190.076C366.991 188.162 368.489 186.561 370.334 185.451C372.085 184.442 373.523 184.322 374.649 185.091C375.772 185.853 376.338 187.295 376.338 189.407C376.305 191.645 375.714 193.84 374.618 195.793C373.658 197.726 372.174 199.35 370.334 200.479C368.624 201.458 367.192 201.55 366.038 200.737ZM364.504 144.746L376.153 138.02L374.206 177.283L366.45 181.764L364.504 144.746Z" fill="#FAFAFA"/>
<path opacity="0.2" d="M376.299 218C388.947 208.73 399.855 194.031 406.529 178.252C393.881 187.532 382.973 202.22 376.299 218Z" fill="black"/>
<path d="M457.171 271.663C452.783 271.714 449.518 268.645 447.469 264.782C460.611 248.621 469.5 227.094 469.5 208.266C469.5 194.309 464.608 184.504 456.728 179.972L445.862 173.709C438.106 169.229 427.456 169.847 415.683 176.635C391.993 190.334 372.742 223.881 372.742 251.578C372.742 265.513 377.614 275.268 385.473 279.851C387.306 280.881 394.527 285.063 396.309 286.103C404.075 290.625 414.756 290.027 426.56 283.209C429.721 281.369 432.722 279.267 435.531 276.926C443.503 283.24 453.226 276.359 457.079 273.063C457.594 272.631 457.655 271.663 457.171 271.663Z" fill="#E0E0E0"/>
<path d="M407.557 288.4C393.199 288.4 384.289 276.709 384.289 257.902C384.289 230.462 403.406 197.132 426.89 183.546C433.461 179.756 439.744 177.829 445.564 177.829C459.912 177.829 468.831 189.51 468.831 208.328C468.831 226.322 460.447 247.818 446.954 264.411L446.676 264.761L446.882 265.153C449.303 269.716 452.815 272.27 456.791 272.363C456.763 272.449 456.713 272.527 456.647 272.589C453.907 274.938 448.468 278.862 442.834 278.862C440.325 278.873 437.89 278.014 435.944 276.431L435.521 276.102L435.099 276.442C432.315 278.744 429.346 280.811 426.22 282.622C419.659 286.422 413.376 288.4 407.557 288.4Z" fill="#FAFAFA"/>
<path d="M445.564 177.16V178.499C459.499 178.499 468.162 189.932 468.162 208.318C468.162 226.178 459.839 247.509 446.439 263.989L445.873 264.679L446.295 265.462C448.52 269.664 451.651 272.25 455.246 272.899C452.392 275.175 447.665 278.213 442.834 278.213C440.475 278.224 438.185 277.416 436.355 275.927L435.511 275.257L434.676 275.947C431.923 278.245 428.984 280.312 425.891 282.127C419.422 285.856 413.252 287.751 407.557 287.751C393.621 287.751 384.958 276.318 384.958 257.881C384.958 230.658 403.921 197.564 427.188 184.102C433.657 180.374 439.826 178.478 445.522 178.478V177.16M445.522 177.16C439.796 177.16 433.348 179.024 426.519 182.969C402.829 196.658 383.578 230.205 383.578 257.902C383.578 277.626 393.332 289.07 407.515 289.07C413.242 289.07 419.69 287.205 426.519 283.26C429.68 281.421 432.681 279.319 435.49 276.977C437.55 278.66 440.133 279.57 442.793 279.552C448.684 279.552 454.319 275.432 457.038 273.115C457.553 272.682 457.615 271.714 457.13 271.714H457.027C452.701 271.714 449.467 268.676 447.428 264.834C460.571 248.673 469.46 227.146 469.46 208.318C469.46 188.593 459.705 177.16 445.522 177.16Z" fill="#3391FF"/>
<path d="M424.356 237.775C425.606 234.778 427.04 231.861 428.651 229.041C429.761 227.106 430.772 225.115 431.679 223.077C432.304 221.68 432.637 220.169 432.658 218.638C432.658 216.578 432.04 215.311 430.804 214.817C429.568 214.322 427.941 214.683 425.891 215.847C423.864 217.036 422.09 218.611 420.669 220.482C419.081 222.555 417.785 224.835 416.817 227.259L409.246 225.704C410.94 221.231 413.339 217.058 416.353 213.344C419.302 209.699 422.899 206.63 426.962 204.29C431.769 201.544 435.618 200.685 438.508 201.715C441.399 202.745 442.848 205.691 442.855 210.553C442.869 212.747 442.584 214.934 442.01 217.052C441.502 218.971 440.813 220.836 439.95 222.624C439.137 224.293 438.076 226.281 436.788 228.588C435.54 230.717 434.412 232.914 433.41 235.17C432.719 236.798 432.369 238.551 432.38 240.32L422.935 245.779C422.897 243.045 423.379 240.329 424.356 237.775ZM423.326 264.277C422.183 263.464 421.606 262.001 421.606 259.879C421.631 257.679 422.212 255.522 423.295 253.607C424.278 251.696 425.772 250.095 427.611 248.982C429.372 247.952 430.804 247.849 431.937 248.621C433.07 249.394 433.626 250.836 433.626 252.947C433.592 255.183 433 257.374 431.906 259.323C430.946 261.26 429.457 262.884 427.611 264.01C425.953 264.998 424.531 265.081 423.378 264.277H423.326Z" fill="#455A64"/>
<path d="M206.808 190.859L159.428 218.298L178.246 250.29C178.609 251.153 179.241 251.876 180.048 252.35C182.294 253.617 195.591 261.321 196.322 261.744C196.893 262.073 197.53 262.269 198.187 262.316C198.844 262.363 199.503 262.261 200.114 262.018C200.726 261.774 201.274 261.394 201.718 260.908C202.162 260.422 202.49 259.841 202.677 259.21L223.113 200.315L206.808 190.859Z" fill="#3391FF"/>
<path opacity="0.2" d="M206.808 190.859L159.428 218.298L178.246 250.29C178.609 251.153 179.241 251.876 180.048 252.35C182.294 253.617 195.591 261.321 196.322 261.744C196.893 262.073 197.53 262.269 198.187 262.316C198.844 262.363 199.503 262.261 200.114 262.018C200.726 261.774 201.274 261.394 201.718 260.908C202.162 260.422 202.49 259.841 202.677 259.21L223.113 200.315L206.808 190.859Z" fill="black"/>
<path d="M175.732 227.713L194.551 259.704C194.91 260.517 195.511 261.199 196.271 261.659C197.031 262.119 197.914 262.335 198.801 262.276C199.688 262.218 200.535 261.888 201.228 261.333C201.922 260.777 202.427 260.021 202.677 259.169L223.112 200.273L175.732 227.713Z" fill="#3391FF"/>
<path d="M259.666 26.7801L80.9921 129.914C79.7942 130.69 78.7967 131.739 78.0807 132.974C77.3648 134.209 76.9506 135.596 76.8721 137.021V261.023C76.948 262.443 77.3613 263.825 78.0778 265.054C78.7943 266.283 79.7933 267.323 80.9921 268.089L95.6902 276.329C96.9684 276.972 98.3793 277.307 99.8102 277.307C101.241 277.307 102.652 276.972 103.93 276.329L282.615 173.133C283.811 172.354 284.807 171.306 285.523 170.071C286.238 168.836 286.654 167.451 286.735 166.026V42.0241C286.658 40.6039 286.244 39.2224 285.528 37.9937C284.811 36.7651 283.813 35.7246 282.615 34.9583L267.927 26.7183C266.641 26.083 265.224 25.7577 263.789 25.7684C262.355 25.7792 260.943 26.1256 259.666 26.7801Z" fill="#3391FF"/>
<path opacity="0.3" d="M286.663 41.2722C286.333 39.2122 284.654 38.4706 282.604 39.6448L103.941 142.81C102.723 143.57 101.725 144.635 101.046 145.9L78.1699 132.87C78.8565 131.681 79.8259 130.68 80.9921 129.955L259.677 26.7801C260.955 26.1394 262.366 25.8058 263.797 25.8058C265.227 25.8058 266.638 26.1394 267.917 26.7801L282.604 35.0201C283.686 35.7145 284.607 36.6312 285.307 37.7092C286.006 38.7872 286.469 40.0018 286.663 41.2722Z" fill="white"/>
<path d="M99.8301 274.392V150.38C99.9086 148.956 100.323 147.571 101.039 146.338C101.755 145.104 102.752 144.058 103.95 143.283L282.614 40.1702C284.87 38.8621 286.734 39.923 286.734 42.5392V166.5C286.653 167.924 286.238 169.31 285.522 170.545C284.806 171.779 283.81 172.828 282.614 173.607L103.929 276.761C101.663 278.1 99.8301 277.008 99.8301 274.392Z" fill="#3391FF"/>
<path opacity="0.2" d="M103.93 276.287C102.647 276.914 101.238 277.24 99.8096 277.24C98.3817 277.24 96.9726 276.914 95.6896 276.287L81.0018 268.047C79.8041 267.286 78.8054 266.249 78.0888 265.024C77.3722 263.798 76.9584 262.42 76.8818 261.002V136.99C76.955 135.527 77.4056 134.108 78.1899 132.87L101.046 145.879C100.292 147.091 99.8729 148.48 99.8302 149.906V273.908C99.8302 276.308 101.519 277.688 103.93 276.287Z" fill="black"/>
<path d="M149.96 175.1L148.178 174.07C147.495 173.68 146.723 173.475 145.937 173.475C145.151 173.475 144.379 173.68 143.697 174.07L132.81 180.353V165.48L152.967 153.851C153.911 153.294 154.692 152.501 155.234 151.548C155.776 150.596 156.06 149.519 156.057 148.423V140.08C156.06 138.984 155.776 137.907 155.234 136.955C154.692 136.003 153.911 135.209 152.967 134.652C152.014 134.1 150.932 133.81 149.831 133.81C148.729 133.81 147.648 134.1 146.694 134.652L118.74 150.792C117.085 151.746 115.711 153.12 114.756 154.775C113.802 156.429 113.3 158.306 113.302 160.217V237.662C113.297 238.76 113.58 239.839 114.122 240.793C114.664 241.748 115.447 242.543 116.392 243.101C117.346 243.65 118.427 243.94 119.528 243.94C120.629 243.94 121.711 243.65 122.665 243.101L129.638 239.084C130.583 238.526 131.365 237.731 131.907 236.776C132.45 235.822 132.732 234.743 132.728 233.645V203.26L149.887 193.352C150.567 192.957 151.132 192.39 151.524 191.709C151.916 191.027 152.123 190.255 152.123 189.469V179.004C152.137 178.22 151.944 177.447 151.564 176.762C151.185 176.077 150.631 175.503 149.96 175.1Z" fill="#E0E0E0"/>
<path opacity="0.1" d="M123.304 242.73L122.706 243.08C121.752 243.629 120.671 243.917 119.571 243.916C118.471 243.915 117.39 243.626 116.437 243.076C115.483 242.526 114.691 241.736 114.139 240.784C113.588 239.832 113.295 238.752 113.292 237.652V160.206C113.295 158.408 113.744 156.638 114.6 155.056L120.873 158.672C120.013 160.252 119.563 162.023 119.565 163.822V240.546C119.567 240.984 119.682 241.413 119.901 241.792C120.119 242.17 120.433 242.486 120.81 242.706C121.188 242.927 121.617 243.045 122.054 243.049C122.491 243.053 122.922 242.943 123.304 242.73Z" fill="black"/>
<path d="M132.812 165.48V187.604L149.94 177.727C150.17 177.592 150.431 177.52 150.697 177.519C150.963 177.518 151.224 177.588 151.454 177.721C151.685 177.854 151.876 178.045 152.008 178.276C152.14 178.507 152.208 178.769 152.206 179.035V189.52C152.206 190.302 152 191.071 151.61 191.749C151.219 192.426 150.658 192.99 149.982 193.383L132.812 203.291V233.666C132.816 234.761 132.533 235.837 131.99 236.788C131.448 237.739 130.666 238.53 129.722 239.084L123.377 242.751C122.996 242.972 122.563 243.089 122.122 243.089C121.682 243.089 121.249 242.973 120.867 242.753C120.486 242.532 120.17 242.215 119.95 241.833C119.73 241.451 119.616 241.018 119.617 240.577V163.822C119.617 161.912 120.12 160.036 121.075 158.381C122.029 156.727 123.402 155.353 125.056 154.397L152.742 138.412C153.087 138.213 153.478 138.108 153.876 138.108C154.274 138.108 154.665 138.213 155.01 138.413C155.355 138.612 155.641 138.899 155.839 139.244C156.038 139.589 156.142 139.981 156.141 140.379V148.444C156.144 149.535 155.86 150.608 155.317 151.555C154.775 152.503 153.994 153.291 153.051 153.841L132.812 165.48Z" fill="#FAFAFA"/>
<path d="M192.612 118.697C192.295 117.622 191.738 116.633 190.983 115.804C190.228 114.975 189.295 114.328 188.254 113.911C187.213 113.495 186.091 113.32 184.973 113.4C183.854 113.479 182.769 113.812 181.797 114.371L174.865 118.378C173.972 118.893 173.197 119.588 172.588 120.42C171.98 121.252 171.552 122.202 171.332 123.209L150.66 217.33C150.498 218.123 150.589 218.947 150.92 219.686C151.251 220.425 151.805 221.042 152.504 221.45L154.399 222.542C154.986 222.881 155.652 223.059 156.33 223.059C157.008 223.059 157.674 222.881 158.262 222.542L166.615 217.722C167.777 217.009 168.724 215.995 169.355 214.786C170.059 213.566 170.577 212.246 170.889 210.872L174.247 193.712L191.139 183.958L192.89 190.931C193.138 191.84 193.705 192.63 194.487 193.156C195.187 193.568 200.059 196.359 200.759 196.782C201.212 196.975 201.708 197.043 202.196 196.978C202.684 196.913 203.145 196.717 203.53 196.411L213.727 190.519L192.612 118.697ZM178.882 170.022L182.498 151.41L182.714 150.38L186.545 165.593L178.882 170.022Z" fill="#E0E0E0"/>
<path opacity="0.1" d="M200.678 196.73C199.761 196.184 195.167 193.558 194.498 193.156C193.716 192.63 193.149 191.84 192.901 190.931L191.15 183.958L195.827 181.26L199.174 194.547C199.421 195.42 199.95 196.188 200.678 196.73Z" fill="black"/>
<path opacity="0.1" d="M192.819 169.209L186.546 165.583L182.715 150.38C182.715 150.38 182.715 150.38 182.715 150.318C183.044 148.835 183.374 147.146 183.745 145.271C184.188 142.933 184.6 140.441 184.991 137.773C185.437 139.915 185.88 141.89 186.32 143.695C186.763 145.498 187.175 147.043 187.566 148.341L192.819 169.209Z" fill="black"/>
<path opacity="0.1" d="M157.046 220.42C156.99 220.667 157 220.925 157.073 221.167C157.147 221.41 157.282 221.629 157.466 221.804C157.65 221.978 157.876 222.102 158.122 222.163C158.368 222.223 158.625 222.219 158.869 222.151V222.233L158.282 222.563C157.695 222.902 157.029 223.08 156.351 223.08C155.673 223.08 155.007 222.902 154.42 222.563L152.504 221.45C151.805 221.042 151.251 220.426 150.92 219.687C150.589 218.948 150.498 218.123 150.66 217.33L171.322 123.25C171.512 122.38 171.861 121.552 172.352 120.809L178.625 124.434C178.128 125.171 177.778 125.996 177.595 126.865L157.046 220.42Z" fill="black"/>
<path d="M213.738 190.55L203.53 196.442C202.387 197.101 201.47 197.225 200.77 196.813C199.989 196.285 199.423 195.496 199.173 194.588L195.826 181.28L174.196 193.733L170.848 210.893C170.526 212.268 170.005 213.59 169.303 214.817C168.676 216.025 167.728 217.037 166.564 217.742L159.179 222.017C158.93 222.158 158.646 222.224 158.361 222.208C158.076 222.191 157.801 222.093 157.571 221.924C157.34 221.756 157.163 221.524 157.061 221.257C156.959 220.99 156.936 220.7 156.995 220.42L177.543 126.834C177.765 125.829 178.193 124.881 178.801 124.051C179.41 123.221 180.185 122.527 181.076 122.014L187.74 118.162C188.214 117.889 188.744 117.727 189.289 117.688C189.835 117.649 190.382 117.734 190.89 117.938C191.397 118.141 191.852 118.457 192.22 118.861C192.588 119.266 192.86 119.749 193.014 120.273L213.738 190.55ZM192.818 169.229L187.565 148.32C187.174 147.033 186.762 145.477 186.319 143.675C185.876 141.872 185.433 139.895 184.99 137.752C184.609 140.42 184.187 142.902 183.754 145.251C183.322 147.599 182.889 149.618 182.498 151.369L177.286 178.149L192.818 169.229Z" fill="#FAFAFA"/>
<path d="M262.559 154.5C264.358 151.408 265.937 148.193 267.287 144.88C268.68 141.464 269.85 137.962 270.789 134.395C271.736 130.79 272.458 127.13 272.952 123.435C273.457 119.704 273.712 115.943 273.714 112.177C273.824 106.641 273.116 101.119 271.613 95.7901C270.541 91.7853 268.487 88.1108 265.639 85.0987C264.741 84.2392 263.738 83.4985 262.652 82.8945L256.472 79.3101C254.515 78.1759 252.314 77.5294 250.055 77.4252C246.429 77.2192 242.412 78.39 238.004 80.9375C233.39 83.6468 229.301 87.1635 225.932 91.3199C222.217 95.83 219.088 100.793 216.621 106.09C211.312 117.515 208.543 129.954 208.505 142.552C208.398 148.096 209.113 153.625 210.626 158.96C211.695 162.977 213.756 166.66 216.621 169.672C217.514 170.558 218.522 171.32 219.618 171.938C220.648 172.515 224.717 174.884 225.726 175.471C227.707 176.617 229.938 177.264 232.225 177.356C235.851 177.534 239.875 176.35 244.297 173.802C246.178 172.716 247.966 171.476 249.643 170.094L252.197 173.03C252.545 173.387 252.94 173.695 253.371 173.947C254.092 174.369 259.222 177.315 259.613 177.552C260.301 177.974 261.105 178.169 261.91 178.108C263.402 177.93 264.834 177.419 266.102 176.614L276.927 170.372L262.559 154.5ZM252.898 128.647C252.242 132.281 251.188 135.832 249.756 139.236C248.501 142.252 246.818 145.072 244.761 147.609C242.881 149.925 240.599 151.883 238.024 153.388C236.138 154.61 233.965 155.32 231.721 155.448C230.592 153.618 229.787 151.608 229.341 149.505C228.549 145.865 228.183 142.146 228.25 138.422C228.23 134.297 228.596 130.18 229.341 126.124C229.981 122.492 231.017 118.941 232.431 115.535C233.699 112.506 235.391 109.672 237.458 107.12C239.35 104.773 241.653 102.791 244.256 101.27C246.109 100.085 248.239 99.4032 250.436 99.2921C251.577 101.137 252.392 103.165 252.846 105.287C253.654 108.931 254.038 112.657 253.989 116.39C254.002 120.514 253.636 124.631 252.898 128.688V128.647Z" fill="#E0E0E0"/>
<path opacity="0.1" d="M225.469 175.358C224.161 174.606 220.566 172.515 219.618 171.979C218.522 171.361 217.514 170.599 216.621 169.713C213.756 166.701 211.695 163.018 210.626 159.001C209.113 153.667 208.398 148.137 208.505 142.593C208.504 136.251 209.216 129.928 210.626 123.744C211.883 118.113 213.705 112.622 216.065 107.357L222.337 110.983C217.383 122.085 214.808 134.102 214.777 146.26C214.67 151.801 215.385 157.327 216.899 162.658C217.966 166.678 220.027 170.366 222.894 173.38C223.677 174.132 224.54 174.795 225.469 175.358Z" fill="black"/>
<path opacity="0.1" d="M256.031 101.97C255.425 101.211 254.668 100.585 253.808 100.133C252.948 99.681 252.004 99.4122 251.035 99.3436C250.86 99.3436 250.675 99.3436 250.5 99.3436C251.635 101.187 252.447 103.211 252.899 105.328C253.687 108.961 254.053 112.673 253.991 116.39C254.007 120.535 253.642 124.672 252.899 128.75C252.243 132.384 251.19 135.935 249.758 139.339C248.503 142.355 246.82 145.175 244.762 147.712C242.883 150.028 240.601 151.986 238.026 153.491C236.14 154.713 233.967 155.423 231.723 155.551C231.947 155.912 232.199 156.257 232.475 156.581C233.079 157.346 233.84 157.973 234.707 158.419C235.574 158.865 236.527 159.12 237.501 159.166C239.919 159.154 242.281 158.438 244.299 157.106C246.874 155.601 249.156 153.643 251.035 151.328C253.089 148.787 254.771 145.968 256.031 142.954C257.464 139.547 258.518 135.993 259.172 132.355C259.915 128.277 260.281 124.14 260.264 119.995C260.324 116.288 259.957 112.587 259.172 108.964C258.681 106.421 257.606 104.026 256.031 101.97Z" fill="black"/>
<path opacity="0.1" d="M251.426 168.591C250.839 169.126 250.252 169.621 249.645 170.136L252.199 173.071C252.547 173.428 252.942 173.737 253.373 173.988C254.074 174.4 258.904 177.17 259.553 177.562C259.154 177.317 258.787 177.023 258.461 176.686L251.426 168.591Z" fill="black"/>
<path d="M276.929 170.414L266.103 176.666C264.836 177.462 263.408 177.968 261.922 178.149C261.273 178.181 260.626 178.066 260.029 177.813C259.431 177.559 258.899 177.174 258.471 176.686L251.426 168.591C249.248 170.595 246.858 172.357 244.298 173.844C239.876 176.391 235.852 177.576 232.227 177.397C228.716 177.268 225.383 175.819 222.895 173.339C220.032 170.322 217.971 166.635 216.9 162.617C215.395 157.298 214.68 151.787 214.778 146.26C214.817 133.662 217.586 121.223 222.895 109.798C225.366 104.489 228.502 99.5155 232.227 94.997C235.598 90.843 239.687 87.3266 244.298 84.6146C248.707 82.0602 252.724 80.8895 256.349 81.1023C259.845 81.2693 263.153 82.7391 265.619 85.2223C268.474 88.2341 270.528 91.9135 271.593 95.924C273.105 101.234 273.82 106.74 273.715 112.26C273.716 116.025 273.465 119.786 272.963 123.518C272.46 127.229 271.731 130.906 270.78 134.528C269.837 138.093 268.664 141.592 267.267 145.004C265.922 148.319 264.342 151.534 262.54 154.624L276.929 170.414ZM228.251 138.484C228.184 142.211 228.551 145.934 229.343 149.577C229.828 152.106 230.885 154.491 232.433 156.55C233.041 157.311 233.803 157.934 234.669 158.38C235.536 158.825 236.486 159.083 237.459 159.135C239.877 159.122 242.239 158.406 244.257 157.075C246.832 155.57 249.114 153.613 250.993 151.297C253.05 148.757 254.735 145.937 255.999 142.923C257.415 139.514 258.451 135.96 259.089 132.324C259.838 128.247 260.203 124.109 260.181 119.964C260.246 116.257 259.879 112.555 259.089 108.933C258.606 106.403 257.549 104.017 255.999 101.96C255.391 101.2 254.633 100.575 253.771 100.122C252.91 99.6704 251.964 99.4017 250.993 99.3333C248.602 99.3137 246.258 100.002 244.257 101.311C241.653 102.825 239.348 104.805 237.459 107.151C235.396 109.706 233.704 112.539 232.433 115.566C231.023 118.974 229.987 122.524 229.343 126.155C228.598 130.208 228.233 134.321 228.251 138.442V138.484Z" fill="#FAFAFA"/>
</svg>
