<svg width="728" height="396" viewBox="0 0 728 396" fill="none" xmlns="http://www.w3.org/2000/svg">
<path d="M94.2656 58.7755C94.2656 52.8244 99.09 48 105.041 48H588.978C594.929 48 599.754 52.8244 599.754 58.7755V389.657H94.2656V58.7755Z" fill="#1A202C"/>
<path d="M98.1855 59.0374C98.1855 54.7093 101.694 51.2007 106.022 51.2007H588.178C592.506 51.2007 596.015 54.7093 596.015 59.0374V376.055H98.1855V59.0374Z" fill="black"/>
<rect width="470.204" height="288.489" transform="translate(111.9 71.6772)"/>
<path d="M35 386.097H659V389.398C659 389.398 630.581 396 598.333 396C566.085 396 127.915 395.67 95.6666 395.67C63.4186 395.67 35 389.398 35 389.398V386.097Z" fill="url(#paint0_linear_764_3)"/>
<path d="M35 386.22C35 385.949 35.2193 385.73 35.4898 385.73H658.51C658.78 385.73 659 385.949 659 386.22V389.398H35V386.22Z" fill="url(#paint1_linear_764_3)"/>
<path d="M300.643 385.73H393.759C393.759 387.756 392.117 389.398 390.091 389.398H304.31C302.285 389.398 300.643 387.756 300.643 385.73Z" fill="url(#paint2_linear_764_3)"/>
<path d="M698.035 364.029L703.044 365.974C703.081 365.997 703.124 366.01 703.168 366.013L706.326 361.51C716.04 347.126 727.166 331.152 713.218 324.29C703.529 319.522 696.14 328.362 692.664 333.751C686.779 331.22 673.621 323.016 668.574 338.604C664.363 351.596 681.961 357.439 698.035 364.029Z" fill="#3F3D56" fill-opacity="0.2"/>
<path opacity="0.5" d="M715.665 328.184C715.34 328.29 715.07 328.518 714.911 328.82C714.752 329.123 714.718 329.475 714.815 329.802C714.912 330.129 715.133 330.406 715.431 330.572C715.728 330.739 716.08 330.783 716.409 330.695C716.739 330.606 717.021 330.393 717.196 330.099C717.37 329.806 717.423 329.456 717.344 329.124C717.264 328.792 717.058 328.505 716.77 328.322C716.481 328.14 716.133 328.078 715.799 328.148L715.665 328.184Z" fill="white"/>
<path opacity="0.5" d="M714.694 344.457C717.584 341.249 711.957 334.242 716.147 332.4C719.731 332.857 718.259 340.472 714.694 344.457Z" fill="white"/>
<g opacity="0.5">
<path d="M647.484 235.962L643.45 234.881C642.516 234.644 641.526 234.768 640.679 235.228C639.833 235.689 639.19 236.451 638.881 237.364L632.931 255.737C632.784 256.176 632.729 256.64 632.769 257.101C632.809 257.562 632.943 258.01 633.164 258.417C633.384 258.824 633.686 259.181 634.05 259.466C634.415 259.751 634.834 259.958 635.282 260.075L639.287 261.148C640.222 261.385 641.211 261.261 642.058 260.8C642.905 260.34 643.547 259.577 643.856 258.664L649.806 240.292C649.952 239.855 650.008 239.394 649.969 238.935C649.93 238.476 649.798 238.031 649.581 237.625C649.363 237.219 649.065 236.863 648.704 236.577C648.344 236.291 647.929 236.081 647.484 235.962ZM641.684 258.031C641.571 258.365 641.336 258.644 641.026 258.812C640.717 258.981 640.355 259.026 640.013 258.939L635.978 257.858C635.814 257.816 635.661 257.74 635.528 257.636C635.394 257.532 635.284 257.401 635.203 257.252C635.122 257.103 635.073 256.939 635.059 256.771C635.045 256.602 635.065 256.432 635.119 256.272L641.07 237.899C641.18 237.563 641.415 237.281 641.725 237.111C642.036 236.94 642.4 236.894 642.743 236.982L646.777 238.063C646.942 238.106 647.095 238.183 647.228 238.288C647.361 238.394 647.471 238.525 647.552 238.675C647.632 238.824 647.681 238.989 647.695 239.158C647.709 239.327 647.688 239.497 647.634 239.658L641.684 258.031Z" fill="#3F3D56" fill-opacity="0.2"/>
<path d="M647.484 235.962L643.45 234.881C642.516 234.644 641.526 234.768 640.679 235.229C639.833 235.689 639.19 236.452 638.881 237.365L632.931 255.737C632.784 256.176 632.729 256.64 632.769 257.101C632.809 257.562 632.943 258.01 633.164 258.417C633.384 258.824 633.686 259.181 634.05 259.466C634.415 259.752 634.834 259.959 635.282 260.075L639.287 261.148C640.222 261.385 641.211 261.261 642.058 260.801C642.905 260.34 643.547 259.578 643.856 258.665L649.806 240.292C649.952 239.856 650.008 239.394 649.969 238.936C649.93 238.477 649.798 238.031 649.581 237.626C649.363 237.22 649.065 236.863 648.704 236.577C648.344 236.291 647.929 236.082 647.484 235.962ZM641.684 258.031C641.571 258.365 641.336 258.645 641.026 258.813C640.717 258.981 640.355 259.026 640.013 258.939L635.978 257.858C635.814 257.816 635.661 257.741 635.528 257.636C635.394 257.532 635.284 257.402 635.203 257.253C635.122 257.104 635.073 256.94 635.059 256.771C635.045 256.603 635.065 256.433 635.119 256.272L641.07 237.9C641.18 237.563 641.415 237.282 641.725 237.111C642.036 236.941 642.4 236.895 642.743 236.982L646.777 238.063C646.942 238.107 647.095 238.184 647.228 238.289C647.361 238.394 647.471 238.526 647.552 238.675C647.632 238.825 647.681 238.989 647.695 239.158C647.709 239.328 647.688 239.498 647.634 239.659L641.684 258.031Z" fill="#3F3D56" fill-opacity="0.2"/>
<path d="M679.387 244.51L667.571 241.344L671.87 235.84C672.337 235.255 672.641 234.557 672.751 233.816L673.505 228.78C673.663 227.798 673.446 226.793 672.898 225.964C672.35 225.134 671.511 224.54 670.546 224.3L665.85 223.042L663.429 230.507L653.242 238.049C652.233 238.794 651.478 239.833 651.079 241.023L645.45 258.198C645.267 258.739 645.198 259.312 645.246 259.881C645.295 260.45 645.461 261.003 645.733 261.505C646.006 262.007 646.379 262.448 646.829 262.799C647.28 263.15 647.798 263.404 648.352 263.546L664.882 267.975C665.611 268.158 666.37 268.188 667.11 268.063C667.851 267.938 668.558 267.661 669.186 267.248L671.188 265.946C671.972 265.442 672.613 264.743 673.046 263.918L680.993 248.751L679.387 244.51Z" fill="#3F3D56" fill-opacity="0.2"/>
</g>
<path d="M55.2375 157.957L33.2456 167.193C28.2354 169.297 25.8795 175.064 27.9835 180.074L28.6173 181.583C30.7213 186.594 36.4885 188.949 41.4987 186.845L63.4906 177.61C68.5008 175.506 70.8567 169.739 68.7527 164.728L68.1189 163.219C66.0149 158.209 60.2476 155.853 55.2375 157.957Z" fill="#EBEBEB"/>
<path d="M37.8435 175.415L36.1885 176.115L35.7793 175.142L40.3261 173.25L40.7353 174.224L39.0803 174.915L40.8262 179.116L39.6259 179.616L37.8435 175.415Z" fill="white"/>
<path d="M47.5009 171.623L47.7283 176.169L46.6189 176.633L44.691 174.542L44.8002 177.397L43.6907 177.861L40.5898 174.487L41.6811 174.032L43.7453 176.333L43.5543 173.268L44.5274 172.859L46.6007 175.151L46.4461 172.05L47.5009 171.623Z" fill="white"/>
<path d="M52.7674 172.123L49.7665 173.387C49.9333 173.607 50.1737 173.761 50.444 173.819C50.7144 173.878 50.9967 173.837 51.2397 173.705C51.4265 173.636 51.5971 173.529 51.741 173.392C51.8849 173.254 51.999 173.088 52.0763 172.905L52.9856 173.314C52.7964 173.74 52.4927 174.106 52.1082 174.371C51.7238 174.635 51.2736 174.788 50.8075 174.813C50.3415 174.837 49.8777 174.732 49.4677 174.51C49.0576 174.287 48.7173 173.955 48.4843 173.55C48.3659 173.275 48.3048 172.979 48.3047 172.68C48.3046 172.381 48.3656 172.084 48.4839 171.809C48.6022 171.535 48.7754 171.287 48.9928 171.081C49.2102 170.875 49.4673 170.716 49.7483 170.613C50.0166 170.483 50.3091 170.411 50.607 170.401C50.9048 170.392 51.2014 170.445 51.4774 170.557C51.7534 170.67 52.0028 170.839 52.2094 171.053C52.4159 171.268 52.5751 171.524 52.6765 171.804C52.7161 171.907 52.7465 172.014 52.7674 172.123ZM49.4664 172.723L51.4216 171.895C51.2877 171.675 51.0792 171.511 50.8342 171.432C50.5892 171.353 50.3239 171.365 50.0869 171.465C49.8498 171.566 49.6568 171.748 49.5429 171.979C49.429 172.209 49.4018 172.474 49.4664 172.723Z" fill="white"/>
<path d="M57.4318 170.177L54.4673 171.441C54.634 171.661 54.8744 171.815 55.1448 171.873C55.4151 171.932 55.6974 171.891 55.9404 171.759C56.128 171.691 56.2994 171.585 56.4435 171.448C56.5876 171.31 56.7012 171.143 56.777 170.959L57.6864 171.359C57.5011 171.788 57.1995 172.158 56.8156 172.425C56.4317 172.692 55.9808 172.847 55.5136 172.871C55.0465 172.896 54.5818 172.789 54.172 172.564C53.7621 172.339 53.4235 172.003 53.1942 171.595C53.0745 171.321 53.0124 171.026 53.0117 170.726C53.0111 170.427 53.0719 170.131 53.1904 169.857C53.309 169.582 53.4827 169.335 53.7007 169.13C53.9188 168.926 54.1766 168.768 54.4582 168.667C54.7264 168.537 55.0189 168.465 55.3168 168.456C55.6146 168.446 55.9112 168.499 56.1872 168.611C56.4633 168.724 56.7126 168.893 56.9192 169.108C57.1258 169.322 57.2849 169.578 57.3863 169.858C57.359 169.94 57.3954 170.077 57.4318 170.177ZM54.1308 170.768L56.0859 169.949C55.9576 169.728 55.7514 169.562 55.5076 169.485C55.2637 169.408 54.9998 169.424 54.7673 169.531C54.5242 169.618 54.3232 169.794 54.2051 170.024C54.0869 170.253 54.0603 170.519 54.1308 170.768Z" fill="white"/>
<path d="M61.4047 170.24C61.194 170.532 60.9034 170.756 60.5681 170.886C60.3826 170.994 60.1752 171.059 59.9611 171.076C59.747 171.093 59.5319 171.061 59.3318 170.983C59.1317 170.905 58.9517 170.784 58.8052 170.627C58.6587 170.47 58.5495 170.282 58.4857 170.077L57.8037 168.449L57.1853 168.703L56.8125 167.794L57.4309 167.53L57.0216 166.566L58.1765 166.084L58.5857 167.048L59.5678 166.63L59.9407 167.539L58.9586 167.958L59.6315 169.567C59.6502 169.641 59.6853 169.709 59.7342 169.766C59.783 169.824 59.8443 169.87 59.9135 169.901C59.9826 169.931 60.0578 169.946 60.1334 169.943C60.209 169.941 60.283 169.921 60.3499 169.886C60.5133 169.815 60.6524 169.698 60.75 169.549L61.4047 170.24Z" fill="white"/>
<path d="M66.3251 146.182L6.05278 138.546C4.10466 138.299 2.32532 139.678 2.07853 141.627L0.447647 154.5C0.200851 156.448 1.58005 158.228 3.52817 158.474L63.8005 166.11C65.7486 166.357 67.5279 164.978 67.7747 163.029L69.4056 150.156C69.6524 148.208 68.2732 146.428 66.3251 146.182Z" fill="#E6E6E6"/>
<path d="M21.2678 148.198L21.0495 149.907L24.0504 150.289L23.8958 151.49L20.904 151.108L20.604 153.472L19.1035 153.281L19.9219 146.797L24.8234 147.425L24.6688 148.625L21.2678 148.198Z" fill="white"/>
<path d="M24.7222 151.462C24.7625 150.922 24.9628 150.406 25.2976 149.98C25.6324 149.554 26.0864 149.237 26.6019 149.07C27.1173 148.903 27.6708 148.893 28.1918 149.042C28.7128 149.191 29.1777 149.491 29.5272 149.905C29.8768 150.319 30.0951 150.828 30.1544 151.367C30.2137 151.905 30.1113 152.449 29.8602 152.929C29.6091 153.409 29.2207 153.804 28.7445 154.062C28.2684 154.321 27.726 154.432 27.1866 154.381C26.8277 154.366 26.4757 154.277 26.1531 154.119C25.8305 153.961 25.5442 153.738 25.3125 153.463C25.0808 153.189 24.9087 152.869 24.807 152.525C24.7054 152.18 24.6765 151.818 24.7222 151.462ZM28.7325 151.971C28.772 151.798 28.7744 151.618 28.7396 151.443C28.7049 151.269 28.6337 151.104 28.5306 150.959C28.4276 150.814 28.2952 150.692 28.1419 150.602C27.9887 150.511 27.818 150.454 27.6412 150.434C27.3093 150.444 26.9915 150.571 26.7454 150.794C26.4993 151.017 26.3411 151.321 26.2994 151.65C26.2576 151.98 26.3351 152.313 26.5179 152.591C26.7006 152.868 26.9765 153.071 27.2957 153.163C27.4696 153.187 27.6467 153.174 27.8156 153.126C27.9845 153.078 28.1415 152.996 28.2767 152.884C28.4119 152.772 28.5222 152.633 28.6007 152.475C28.6792 152.318 28.724 152.147 28.7325 151.971Z" fill="white"/>
<path d="M31.7329 147.897L33.1697 148.079L32.2603 154.954L30.8145 154.772L31.7329 147.897Z" fill="white"/>
<path d="M34.4621 148.252L35.908 148.434L34.9986 155.309L33.5527 155.127L34.4621 148.252Z" fill="white"/>
<path d="M36.3526 152.935C36.394 152.393 36.5963 151.876 36.9337 151.45C37.271 151.024 37.728 150.708 38.246 150.543C38.764 150.379 39.3194 150.372 39.841 150.525C40.3626 150.679 40.8265 150.984 41.1733 151.402C41.5202 151.821 41.734 152.334 41.7876 152.875C41.8411 153.415 41.7318 153.96 41.4737 154.438C41.2156 154.917 40.8205 155.307 40.339 155.559C39.8576 155.812 39.3117 155.914 38.7715 155.854C38.416 155.835 38.0684 155.742 37.7505 155.582C37.4326 155.422 37.1512 155.198 36.9241 154.924C36.697 154.649 36.5289 154.331 36.4306 153.989C36.3322 153.647 36.3057 153.288 36.3526 152.935ZM40.3629 153.445C40.3752 153.194 40.3139 152.944 40.1866 152.728C40.0593 152.511 39.8714 152.336 39.6461 152.224C39.4208 152.113 39.1678 152.069 38.9182 152.099C38.6686 152.13 38.4332 152.232 38.241 152.394C38.0487 152.556 37.9079 152.771 37.8359 153.012C37.7639 153.252 37.7638 153.509 37.8356 153.75C37.9074 153.991 38.0479 154.206 38.24 154.368C38.4321 154.53 38.6674 154.633 38.917 154.663C39.0938 154.689 39.2741 154.677 39.4459 154.628C39.6177 154.579 39.7772 154.494 39.9138 154.379C40.0505 154.264 40.1611 154.121 40.2385 153.96C40.3159 153.799 40.3583 153.623 40.3629 153.445Z" fill="white"/>
<path d="M50.9657 152.262L48.5286 157.009L47.1373 156.836L46.4098 153.599L44.8548 156.545L43.4726 156.373L42.3086 151.208L43.6635 151.38L44.4638 154.845L46.1097 151.626L47.3282 151.78L48.0921 155.309L49.7289 152.09L50.9657 152.262Z" fill="white"/>
<path d="M75.6023 142.408L21.5527 101.352L9.39667 117.355L63.4462 158.411L75.6023 142.408Z" fill="#D9D7DD"/>
<path d="M18.7832 114.743L19.8835 114.152C20.1318 114.873 20.5872 115.506 21.193 115.97C21.9023 116.507 22.3752 116.489 22.6116 116.17C23.3573 115.197 19.8199 113.57 21.293 111.624C21.9659 110.714 23.239 110.542 24.7122 111.624C25.3536 112.086 25.8566 112.715 26.1672 113.442L25.1032 114.07C24.8594 113.483 24.4716 112.967 23.9756 112.569C23.2572 112.033 22.7844 112.087 22.5297 112.415C21.8023 113.37 25.3306 115.006 23.8756 116.962C23.2209 117.871 21.9387 118.026 20.4473 116.898C19.6899 116.362 19.1103 115.611 18.7832 114.743Z" fill="white"/>
<path d="M25.2399 116.843L27.4496 113.933L28.659 114.842L26.4766 117.716C25.7218 118.698 25.8491 119.435 26.5766 119.989C27.3041 120.544 28.0407 120.462 28.7954 119.471L30.9779 116.607L32.1601 117.516L29.914 120.426C29.6787 120.735 29.3848 120.995 29.0491 121.191C28.7134 121.387 28.3424 121.514 27.9574 121.567C27.5723 121.619 27.1807 121.595 26.805 121.496C26.4292 121.397 26.0766 121.225 25.7673 120.99C25.458 120.754 25.1981 120.461 25.0023 120.125C24.8066 119.789 24.6789 119.418 24.6266 119.033C24.5742 118.648 24.5982 118.256 24.6972 117.881C24.7962 117.505 24.9682 117.152 25.2035 116.843H25.2399Z" fill="white"/>
<path d="M35.2429 125.818C34.5609 126.727 33.4242 126.727 32.0874 125.654L29.3594 123.608L33.3151 118.407L35.8522 120.344C37.1526 121.326 37.4072 122.381 36.7615 123.19C36.5853 123.43 36.3451 123.615 36.0684 123.724C35.7918 123.834 35.4899 123.863 35.1974 123.808C35.432 124.088 35.5642 124.44 35.5725 124.805C35.5807 125.17 35.4645 125.528 35.2429 125.818ZM33.8516 120.225L32.9422 121.453L34.1426 122.362C34.7246 122.808 35.2065 122.844 35.5157 122.435C35.8249 122.026 35.6612 121.58 35.0701 121.135L33.8516 120.225ZM34.1335 124.772C34.4609 124.327 34.2881 123.863 33.6606 123.399L32.2602 122.326L31.2781 123.617L32.6876 124.681C33.306 125.154 33.7879 125.218 34.1335 124.772Z" fill="white"/>
<path d="M35.0625 127.1L36.1537 126.509C36.4 127.232 36.8559 127.865 37.4632 128.328C38.1725 128.873 38.6454 128.855 38.8909 128.528C39.6275 127.555 36.0992 125.927 37.5632 123.981C38.2362 123.072 39.5092 122.899 40.9824 123.981C41.6264 124.441 42.1301 125.071 42.4374 125.8L41.3734 126.436C41.1323 125.845 40.7441 125.326 40.2458 124.927C39.5274 124.39 39.0546 124.445 38.7999 124.772C38.0725 125.736 41.6008 127.373 40.1549 129.319C39.4911 130.183 38.2089 130.383 36.7175 129.246C35.9605 128.716 35.3832 127.967 35.0625 127.1Z" fill="white"/>
<path d="M41.4645 128.674C41.739 128.306 42.0861 127.999 42.4842 127.77C42.8822 127.542 43.3229 127.398 43.7788 127.347C44.2348 127.296 44.6964 127.339 45.1351 127.473C45.5738 127.607 45.9803 127.83 46.3295 128.128C46.7456 128.419 47.0914 128.8 47.3415 129.242C47.5917 129.684 47.7399 130.177 47.7754 130.683L46.4568 130.801C46.4428 130.489 46.3597 130.183 46.2135 129.906C46.0673 129.63 45.8615 129.389 45.6111 129.201C45.3938 129.021 45.1425 128.888 44.8722 128.807C44.6018 128.727 44.3181 128.703 44.0381 128.735C43.758 128.768 43.4874 128.856 43.2425 128.996C42.9976 129.136 42.7834 129.323 42.6129 129.548C42.4424 129.772 42.319 130.029 42.2502 130.302C42.1813 130.576 42.1685 130.86 42.2124 131.139C42.2564 131.417 42.3561 131.684 42.5058 131.923C42.6554 132.162 42.8518 132.368 43.0831 132.529C43.335 132.731 43.6309 132.871 43.9468 132.938C44.2628 133.004 44.59 132.995 44.9018 132.911L45.1383 134.212C44.4477 134.32 43.7405 134.227 43.1014 133.944C42.4624 133.661 41.9184 133.199 41.5346 132.615C41.1509 132.031 40.9436 131.348 40.9376 130.649C40.9316 129.95 41.1272 129.264 41.5008 128.674H41.4645Z" fill="white"/>
<path d="M48.575 138.177L48.6659 135.967L48.6114 135.921L47.5656 135.13L46.4653 136.576L45.2559 135.667L49.2116 130.465L51.4577 132.184C52.849 133.239 53.1763 134.621 52.2852 135.821C52.0339 136.185 51.675 136.46 51.259 136.609C50.8429 136.757 50.3908 136.771 49.9663 136.649L49.8663 139.204L48.575 138.177ZM50.6483 133.102L49.6662 132.357L48.2931 134.176L49.2752 134.921C50.0118 135.485 50.6392 135.421 51.0939 134.858C51.5486 134.294 51.3849 133.657 50.6483 133.102Z" fill="white"/>
<path d="M54.6666 134.603L55.867 135.512L51.9204 140.713L50.7109 139.804L54.6666 134.603Z" fill="white"/>
<path d="M59.0137 143.86C58.3226 144.77 57.195 144.77 55.8492 143.706L53.1211 141.66L57.0768 136.458L59.6139 138.386C60.9143 139.377 61.178 140.423 60.5233 141.232C60.3481 141.473 60.1084 141.66 59.8317 141.771C59.555 141.882 59.2525 141.913 58.9592 141.86C59.1943 142.137 59.3278 142.487 59.3377 142.85C59.3476 143.214 59.2334 143.57 59.0137 143.86ZM57.6224 138.277L56.7131 139.495L57.9134 140.405C58.4954 140.85 58.9773 140.887 59.2865 140.477C59.5957 140.068 59.432 139.632 58.8409 139.177L57.6224 138.277ZM57.8952 142.823C58.2317 142.387 58.0498 141.914 57.4223 141.45L56.0219 140.386L55.0489 141.669L56.4493 142.733C57.0677 143.205 57.5497 143.26 57.8861 142.814L57.8952 142.823Z" fill="white"/>
<path d="M63.5599 148.07L62.8234 149.034L58.7949 145.979L62.7506 140.768L66.679 143.76L65.9425 144.724L63.2144 142.65L62.3596 143.778L64.7785 145.597L64.0601 146.506L61.6503 144.687L60.7409 145.888L63.5599 148.07Z" fill="white"/>
<path d="M72.8099 10.5485L56.4688 7.30212L60.0425 0L72.3097 2.42798L72.8099 10.5485Z" fill="#EBEBEB"/>
<path d="M72.3087 2.42822L68.4258 9.67579L72.8089 10.5488L72.3087 2.42822Z" fill="#D9D7DD"/>
<path d="M80.0865 12.002L48.9744 5.8304C46.2206 5.28414 43.5455 7.07368 42.9992 9.82745L38.7314 31.3419C38.1852 34.0957 39.9747 36.7709 42.7285 37.3171L73.8406 43.4888C76.5943 44.035 79.2695 42.2455 79.8158 39.4917L84.0836 17.9773C84.6298 15.2235 82.8403 12.5483 80.0865 12.002Z" fill="#D7D7D7"/>
<path d="M79.5293 11.8726L80.4213 12.0495C81.6491 12.2931 82.7298 13.0144 83.4258 14.0547C84.1217 15.0951 84.3759 16.3694 84.1323 17.5972L79.723 39.8252C79.4794 41.053 78.7581 42.1337 77.7177 42.8297C76.6773 43.5256 75.4031 43.7798 74.1753 43.5362L73.2833 43.3593L79.5293 11.8726Z" fill="#D9D7DD"/>
<path d="M70.7266 24.9981C70.2897 27.1999 69.2097 29.2226 67.6231 30.8105C66.0366 32.3984 64.0148 33.4801 61.8135 33.919C59.6121 34.3578 57.3301 34.134 55.256 33.2758C53.1818 32.4176 51.4088 30.9636 50.161 29.0977C48.9133 27.2318 48.2469 25.0378 48.2461 22.7931C48.2453 20.5485 48.9102 18.354 50.1567 16.4872C51.4031 14.6204 53.1752 13.1652 55.2487 12.3056C57.3222 11.446 59.6041 11.2206 61.8058 11.6579C64.7576 12.2442 67.3558 13.979 69.0287 16.4807C70.7016 18.9824 71.3123 22.0462 70.7266 24.9981Z" fill="#FAFAFA"/>
<path d="M69.2441 24.5525C68.8628 26.4852 67.9167 28.2613 66.5257 29.6562C65.1347 31.051 63.3612 32.002 61.4296 32.3887C59.498 32.7753 57.4952 32.5804 55.6744 31.8285C53.8536 31.0766 52.2968 29.8016 51.2008 28.1646C50.1049 26.5277 49.5191 24.6025 49.5176 22.6326C49.5161 20.6627 50.0989 18.7366 51.1923 17.098C52.2857 15.4594 53.8406 14.1819 55.6602 13.4272C57.4798 12.6725 59.4824 12.4745 61.4146 12.8582C63.9969 13.3832 66.2677 14.9059 67.7337 17.0956C69.1997 19.2853 69.7425 21.965 69.2441 24.5525Z" fill="#D9D7DD"/>
<path d="M53.8037 11.3486L61.4151 12.8582L57.5412 32.382L47.7656 30.5088C47.7656 30.5088 55.6588 14.4132 53.8037 11.3486Z" fill="#D9D7DD"/>
<path d="M55.4907 5.0694L50.3262 4.04492L49.875 6.31946L55.0395 7.34394L55.4907 5.0694Z" fill="#EBEBEB"/>
<path d="M75.3821 16.9866C75.3305 17.2457 75.2033 17.4837 75.0165 17.6705C74.8298 17.8573 74.5918 17.9846 74.3328 18.0363C74.0737 18.088 73.8051 18.0618 73.561 17.961C73.3168 17.8602 73.108 17.6893 72.9609 17.4699C72.8137 17.2505 72.7349 16.9924 72.7344 16.7282C72.7338 16.4641 72.8115 16.2057 72.9577 15.9856C73.1039 15.7656 73.312 15.5938 73.5558 15.492C73.7995 15.3902 74.068 15.3628 74.3273 15.4134C74.5 15.4472 74.6643 15.5147 74.8109 15.612C74.9575 15.7094 75.0834 15.8348 75.1814 15.981C75.2794 16.1271 75.3476 16.2912 75.382 16.4638C75.4165 16.6364 75.4165 16.814 75.3821 16.9866Z" fill="#FAFAFA"/>
<path d="M55.3767 21.0787C54.9798 23.0829 54.1266 24.9688 52.8833 26.59C51.6399 28.2113 50.0399 29.5244 48.2072 30.4276C46.3746 31.3307 44.3585 31.7996 42.3154 31.7979C40.2722 31.7962 38.257 31.324 36.4258 30.4178C39.3409 30.2172 42.1088 29.0624 44.3022 27.1319C46.4956 25.2013 47.9924 22.6024 48.5615 19.7363C49.1305 16.8703 48.7402 13.8966 47.4508 11.2745C46.1614 8.65243 44.0445 6.52778 41.4272 5.22867C43.4649 5.08723 45.5077 5.41752 47.397 6.19388C49.2862 6.97023 50.9711 8.17174 52.3205 9.70505C53.6699 11.2384 54.6477 13.0622 55.1777 15.0347C55.7078 17.0073 55.7759 19.0756 55.3767 21.0787Z" fill="#EBEBEB"/>
<path d="M48.5661 19.739C49.9459 12.7832 46.7475 6.288 41.4222 5.23163C36.097 4.17527 30.6614 8.95775 29.2816 15.9136C27.9018 22.8695 31.1002 29.3647 36.4255 30.421C41.7507 31.4774 47.1863 26.6949 48.5661 19.739Z" fill="#FAFAFA"/>
<path d="M36.4165 30.4181C34.3774 30.5585 32.3334 30.2271 30.4431 29.4497C28.5528 28.6723 26.867 27.4698 25.5165 25.9355C24.1661 24.4013 23.1874 22.5765 22.6562 20.6027C22.1251 18.629 22.0559 16.5595 22.454 14.5547C22.852 12.5499 23.7067 10.6638 24.9516 9.0427C26.1965 7.42162 27.7981 6.10918 29.6323 5.20722C31.4664 4.30526 33.4837 3.83804 35.5277 3.84182C37.5716 3.8456 39.5872 4.32027 41.418 5.229C38.5029 5.42962 35.7349 6.58437 33.5415 8.51493C31.3482 10.4455 29.8514 13.0445 29.2823 15.9105C28.7132 18.7765 29.1035 21.7502 30.393 24.3723C31.6824 26.9944 33.7992 29.119 36.4165 30.4181Z" fill="#E6E6E6"/>
<defs>
<linearGradient id="paint0_linear_764_3" x1="347" y1="386.097" x2="347" y2="396" gradientUnits="userSpaceOnUse">
<stop stop-color="#80868A"/>
<stop offset="1" stop-color="#2A2C2F"/>
</linearGradient>
<linearGradient id="paint1_linear_764_3" x1="35" y1="387.564" x2="659" y2="387.564" gradientUnits="userSpaceOnUse">
<stop stop-color="#2A2C2F"/>
<stop offset="0.208333" stop-color="#80868A"/>
<stop offset="0.770833" stop-color="#80868A"/>
<stop offset="1" stop-color="#2A2C2F"/>
</linearGradient>
<linearGradient id="paint2_linear_764_3" x1="300.643" y1="387.564" x2="393.759" y2="387.564" gradientUnits="userSpaceOnUse">
<stop stop-color="#2A2C2F"/>
<stop offset="0.229167" stop-color="#80868A"/>
<stop offset="0.802083" stop-color="#80868A"/>
<stop offset="1" stop-color="#2A2C2F"/>
</linearGradient>
</defs>
</svg>
